<svg height="32" width="32" xmlns="http://www.w3.org/2000/svg"><path d="m16 1A15 15 0 001 16a15 15 0 0015 15 15 15 0 0015-15A15 15 0 0016 1zM8.640625 7h.0371094c4.2602526.2190981 8.2645076 2.0081931 11.2832036 5.039062C22.991805 15.057759 24.780902 19.062013 25 23.322266c.01217.206929-.060512.414027-.21875.572265-.146066.158232-.341446.244141-.560547.244141h-1.740234c-.413853.0-.754954-.316616-.779297-.730469-.401683-7.072019-6.037353-12.709191-13.1093751-13.123047-.4138534-.024343-.7304688-.3639443-.7304688-.7656248V7.7792969c0-.2190988.0859026-.4144807.2441407-.5605469C8.2515346 7.0726845 8.4458704 7 8.640625 7zm0 6.232422h.0605469c2.5926651.206926 5.0389571 1.337334 6.8769531 3.1875 1.850167 1.837997 2.982524 4.286234 3.189453 6.878906.01217.219097-.060963.425746-.207031.583984-.146066.170412-.353167.25586-.572266.25586h-1.642578c-.401682.0-.731062-.305351-.767578-.707031-.352993-3.712508-3.297262-6.658725-7.0097656-7.011719-.4016813-.036512-.7070313-.363942-.7070313-.765625v-1.644531c0-.219099.0854492-.426201.2558594-.572266.1338938-.133894.3286829-.205078.5234375-.205078zm1.558594 6.230469c1.290246.0 2.335937 1.047641 2.335937 2.33789.0 1.290248-1.045691 2.337891-2.335937 2.337891-1.2902488.0-2.3378909-1.047643-2.3378909-2.337891.0-1.290249 1.0476422-2.33789 2.3378909-2.33789z" fill="#a9b3d4"/></svg>