<svg xmlns="http://www.w3.org/2000/svg" viewBox="0 0 32 32"><path d="M16 1a15 15 0 1 0 0 30 15 15 0 1 0 0-30zM8.641 7h.037c4.26.219 8.265 2.008 11.283 5.039 3.031 3.019 4.82 7.023 5.039 11.283a.74.74 0 0 1-.219.572c-.146.158-.341.244-.561.244h-1.74c-.414 0-.755-.317-.779-.73-.402-7.072-6.037-12.709-13.109-13.123a.77.77 0 0 1-.73-.766v-1.74c0-.219.086-.414.244-.561.146-.146.34-.219.535-.219zm0 6.232h.061a10.93 10.93 0 0 1 6.877 3.188c1.85 1.838 2.983 4.286 3.189 6.879.012.219-.061.426-.207.584a.74.74 0 0 1-.572.256h-1.643a.77.77 0 0 1-.768-.707 7.79 7.79 0 0 0-7.01-7.012.77.77 0 0 1-.707-.766V14.01a.74.74 0 0 1 .256-.572c.134-.134.329-.205.523-.205zm1.559 6.23a2.34 2.34 0 0 1 2.336 2.338 2.34 2.34 0 0 1-2.336 2.338 2.34 2.34 0 0 1-2.338-2.338 2.34 2.34 0 0 1 2.338-2.338z" fill="#a9b3d4"/></svg>