<?xml version="1.0" encoding="UTF-8"?>
<svg width="32" height="32" version="1.1" viewBox="0 0 8.4666668 8.4666665" xmlns="http://www.w3.org/2000/svg" xmlns:cc="http://creativecommons.org/ns#" xmlns:dc="http://purl.org/dc/elements/1.1/" xmlns:rdf="http://www.w3.org/1999/02/22-rdf-syntax-ns#">
<metadata>
<rdf:RDF>
<cc:Work rdf:about="">
<dc:format>image/svg+xml</dc:format>
<dc:type rdf:resource="http://purl.org/dc/dcmitype/StillImage"/>
<dc:title/>
</cc:Work>
</rdf:RDF>
</metadata>
<g transform="translate(-106 -93.645)">
<path d="m110.24 93.978c-2.1511 0-3.8951 1.744-3.8951 3.8956 0 1.7211 1.1161 3.181 2.664 3.6964 0.19491 0.0355 0.26593-0.0846 0.26593-0.18795 0-0.0923-3e-3 -0.33743-4e-3 -0.66241-1.0836 0.2353-1.3122-0.52229-1.3122-0.52229-0.17719-0.44983-0.43261-0.56963-0.43261-0.56963-0.35368-0.24177 0.0268-0.23699 0.0268-0.23699 0.39099 0.02769 0.59665 0.40151 0.59665 0.40151 0.34748 0.59522 0.91186 0.42327 1.1338 0.3238 0.0354-0.25183 0.13578-0.42353 0.24729-0.52085-0.86499-0.09832-1.7744-0.43262-1.7744-1.9253 0-0.42519 0.1518-0.7729 0.40103-1.0453-0.0402-0.09848-0.17386-0.49454 0.0381-1.0309 0 0 0.32715-0.10477 1.0713 0.39936 0.31066-0.08637 0.64402-0.12963 0.97522-0.13105 0.33074 0.0014 0.66409 0.04468 0.97521 0.13105 0.74372-0.5041 1.0702-0.39936 1.0702-0.39936 0.2126 0.53638 0.0789 0.93241 0.0386 1.0309 0.24968 0.27238 0.40057 0.6201 0.40057 1.0453 0 1.4965-0.91089 1.8258-1.7787 1.9222 0.13986 0.12035 0.26449 0.358 0.26449 0.72147 0 0.52061-4e-3 0.94078-4e-3 1.0685 0 0.10425 0.0701 0.2255 0.26784 0.18747 1.5468-0.51629 2.6619-1.9753 2.6619-3.6959 0-2.1516-1.7443-3.8956-3.8958-3.8956" fill="#a9b3d4" fill-rule="evenodd"/>
</g>
</svg>
