<svg width="32" height="32" viewBox="0 0 8.4666668 8.4666665" xmlns="http://www.w3.org/2000/svg" xmlns:cc="http://creativecommons.org/ns#" xmlns:dc="http://purl.org/dc/elements/1.1/" xmlns:rdf="http://www.w3.org/1999/02/22-rdf-syntax-ns#"><g transform="translate(-106 -93.645)"><path d="m110.24 93.978c-2.1511.0-3.8951 1.744-3.8951 3.8956.0 1.7211 1.1161 3.181 2.664 3.6964.19491.0355.26593-.0846.26593-.18795.0-.0923-.003-.33743-.004-.66241-1.0836.2353-1.3122-.52229-1.3122-.52229-.17719-.44983-.43261-.56963-.43261-.56963-.35368-.24177.0268-.23699.0268-.23699.39099.02769.59665.40151.59665.40151.34748.59522.91186.42327 1.1338.3238.0354-.25183.13578-.42353.24729-.52085-.86499-.09832-1.7744-.43262-1.7744-1.9253.0-.42519.1518-.7729.40103-1.0453-.0402-.09848-.17386-.49454.0381-1.0309.0.0.32715-.10477 1.0713.39936.31066-.08637.64402-.12963.97522-.13105.33074.0014.66409.04468.97521.13105.74372-.5041 1.0702-.39936 1.0702-.39936.2126.53638.0789.93241.0386 1.0309.24968.27238.40057.6201.40057 1.0453.0 1.4965-.91089 1.8258-1.7787 1.9222.13986.12035.26449.358.26449.72147.0.52061-.004.94078-.004 1.0685.0.10425.0701.2255.26784.18747 1.5468-.51629 2.6619-1.9753 2.6619-3.6959.0-2.1516-1.7443-3.8956-3.8958-3.8956" fill="#a9b3d4" fill-rule="evenodd"/></g></svg>