<svg xmlns="http://www.w3.org/2000/svg" viewBox="0 0 8.467 8.467"><path d="M4.24.333C2.089.333.345 2.077.345 4.229c0 1.721 1.116 3.181 2.664 3.696.195.035.266-.085.266-.188l-.004-.662c-1.084.235-1.312-.522-1.312-.522-.177-.45-.433-.57-.433-.57-.354-.242.027-.237.027-.237.391.028.597.402.597.402.347.595.912.423 1.134.324.035-.252.136-.424.247-.521-.865-.098-1.774-.433-1.774-1.925 0-.425.152-.773.401-1.045-.04-.098-.174-.495.038-1.031 0 0 .327-.105 1.071.399a3.73 3.73 0 0 1 .975-.131c.331.001.664.045.975.131.744-.504 1.07-.399 1.07-.399.213.536.079.932.039 1.031.25.272.401.62.401 1.045 0 1.496-.911 1.826-1.779 1.922.14.12.264.358.264.721l-.004 1.069c0 .104.07.225.268.187 1.547-.516 2.662-1.975 2.662-3.696 0-2.152-1.744-3.896-3.896-3.896" fill="#a9b3d4" fill-rule="evenodd"/></svg>