<svg xmlns="http://www.w3.org/2000/svg" viewBox="0 0 32 32" fill="#a9b3d4"><path fill-rule="evenodd" d="M16 31c8.284 0 15-6.716 15-15S24.284 1 16 1 1 7.716 1 16s6.716 15 15 15zm3.829-8.756c2.418-.299 4.523-1.843 4.788-3.254.417-2.222.383-5.423.383-5.423 0-4.339-2.743-5.61-2.743-5.61-1.383-.658-3.758-.935-6.225-.956h-.061c-2.467.021-4.84.298-6.223.956 0 0-2.743 1.272-2.743 5.61l-.003.828.014 2.613c.1 4.243.751 8.425 4.536 9.463 1.745.479 3.244.579 4.45.51 2.188-.126 3.417-.809 3.417-.809l-.072-1.646s-1.564.511-3.32.449c-1.74-.062-3.577-.195-3.859-2.409a4.7 4.7 0 0 1-.039-.621s1.708.433 3.873.536c1.324.063 2.565-.08 3.826-.236z"/><path d="M21.765 13.903v5.253h-2.008v-5.099c0-1.075-.436-1.62-1.309-1.62-.965 0-1.449.647-1.449 1.927v2.791h-1.996v-2.791c0-1.28-.484-1.927-1.449-1.927-.873 0-1.309.546-1.309 1.62v5.099h-2.008v-5.253c0-1.074.264-1.927.794-2.558.546-.631 1.262-.955 2.15-.955 1.028 0 1.806.409 2.32 1.228l.5.869.5-.869c.514-.819 1.293-1.228 2.32-1.228.888 0 1.604.324 2.15.955.53.631.794 1.484.794 2.558z"/></svg>