<?xml version="1.0" encoding="UTF-8"?>
<svg width="32" height="32" version="1.1" viewBox="0 0 8.4666668 8.4666665" xmlns="http://www.w3.org/2000/svg" xmlns:cc="http://creativecommons.org/ns#" xmlns:dc="http://purl.org/dc/elements/1.1/" xmlns:rdf="http://www.w3.org/1999/02/22-rdf-syntax-ns#">
<metadata>
<rdf:RDF>
<cc:Work rdf:about="">
<dc:format>image/svg+xml</dc:format>
<dc:type rdf:resource="http://purl.org/dc/dcmitype/StillImage"/>
<dc:title/>
</cc:Work>
</rdf:RDF>
</metadata>
<g transform="translate(-106 -93.645)">
<path d="m110.24 93.978a3.9004 3.9004 0 0 0 -3.9 3.9 3.9004 3.9004 0 0 0 3.9 3.9008 3.9004 3.9004 0 0 0 3.9 -3.9008 3.9004 3.9004 0 0 0 -3.9 -3.9zm0.30321 1.6741 0.90801 0.18128c0.0581-0.10136 0.16299-0.16887 0.27995-0.18128 0.20353-0.02204 0.38621 0.12542 0.4083 0.32887 0.022 0.20353-0.12527 0.38624-0.32889 0.40828-0.20351 0.02204-0.3862-0.12526-0.40828-0.32887l-0.79251-0.16685-0.24064 1.1559c0.50931 0.01087 1.0052 0.16825 1.427 0.45561 0.0958-0.09112 0.22191-0.14529 0.35455-0.14995 0.29935-0.01086 0.54968 0.22296 0.5607 0.52138 3e-3 0.20814-0.11316 0.39954-0.2992 0.49252 3e-3 0.05433 3e-3 0.1085 0 0.16283 0 0.8308-0.96742 1.5056-2.1602 1.5056s-2.1594-0.67578-2.1594-1.5056c-3e-3 -0.05433-3e-3 -0.1085 0-0.16283-0.0543-0.0239-0.10353-0.05821-0.14591-0.09779-0.21827-0.20444-0.22855-0.54707-0.0241-0.76443 0.20445-0.21824 0.54709-0.22776 0.76445-0.02328 0.42733-0.28921 0.92966-0.44866 1.4454-0.45642l0.27352-1.2858v-0.0016c0.014-0.06271 0.0754-0.10136 0.13722-0.08739zm-1.1663 2.2243c-0.20448 0-0.3706 0.16693-0.3706 0.3714 0 0.20449 0.16519 0.36984 0.3706 0.37139 0.20447 0 0.37138-0.1669 0.37138-0.37139 0-0.20448-0.16691-0.3714-0.37138-0.3714zm1.715 0.01242c-0.20448 0-0.37058 0.16693-0.37058 0.3714 0 0.20448 0.1661 0.37139 0.37058 0.37139l-3e-3 0.01397h0.0185c0.20449-0.0078 0.36358-0.18054 0.35535-0.38502 0-0.20448-0.16691-0.3714-0.37138-0.3714zm-1.6877 1.2136c-0.0225 0-0.0441 0.0078-0.0626 0.02251-0.0424 0.03508-0.0494 0.09872-0.014 0.1411 0.26342 0.19797 0.5863 0.29954 0.91604 0.28556 0.32974 0.01397 0.65183-0.08755 0.91524-0.28556v0.01397c0.0405-0.03974 0.0411-0.10633 2e-3 -0.14684-0.0396-0.0402-0.10539-0.04113-0.14591-0.0016-0.22566 0.16125-0.49857 0.24173-0.77487 0.22621-0.2763 0.01242-0.54795-0.07032-0.77085-0.23342-0.0189-0.01552-0.0418-0.02251-0.0641-0.02251z" fill="#a9b3d4" stroke-width=".35463"/>
</g>
</svg>
