<svg width="32" height="32" viewBox="0 0 8.4666668 8.4666665" xmlns="http://www.w3.org/2000/svg" xmlns:cc="http://creativecommons.org/ns#" xmlns:dc="http://purl.org/dc/elements/1.1/" xmlns:rdf="http://www.w3.org/1999/02/22-rdf-syntax-ns#"><g transform="translate(-106 -93.645)"><path d="m110.24 93.978a3.9004 3.9004.0 00-3.9 3.9 3.9004 3.9004.0 003.9 3.9008 3.9004 3.9004.0 003.9-3.9008 3.9004 3.9004.0 00-3.9-3.9zm.30321 1.6741.90801.18128c.0581-.10136.16299-.16887.27995-.18128.20353-.02204.38621.12542.4083.32887.022.20353-.12527.38624-.32889.40828-.20351.02204-.3862-.12526-.40828-.32887l-.79251-.16685-.24064 1.1559c.50931.01087 1.0052.16825 1.427.45561.0958-.09112.22191-.14529.35455-.14995.29935-.01086.54968.22296.5607.52138.003.20814-.11316.39954-.2992.49252.003.05433.003.1085.0.16283.0.8308-.96742 1.5056-2.1602 1.5056s-2.1594-.67578-2.1594-1.5056c-.003-.05433-.003-.1085.0-.16283-.0543-.0239-.10353-.05821-.14591-.09779-.21827-.20444-.22855-.54707-.0241-.76443.20445-.21824.54709-.22776.76445-.02328.42733-.28921.92966-.44866 1.4454-.45642l.27352-1.2858v-.0016c.014-.06271.0754-.10136.13722-.08739zm-1.1663 2.2243c-.20448.0-.3706.16693-.3706.3714.0.20449.16519.36984.3706.37139.20447.0.37138-.1669.37138-.37139.0-.20448-.16691-.3714-.37138-.3714zm1.715.01242c-.20448.0-.37058.16693-.37058.3714.0.20448.1661.37139.37058.37139l-.003.01397h.0185c.20449-.0078.36358-.18054.35535-.38502.0-.20448-.16691-.3714-.37138-.3714zm-1.6877 1.2136c-.0225.0-.0441.0078-.0626.02251-.0424.03508-.0494.09872-.014.1411.26342.19797.5863.29954.91604.28556.32974.01397.65183-.08755.91524-.28556V99.28c.0405-.03974.0411-.10633.002-.14684-.0396-.0402-.10539-.04113-.14591-.0016-.22566.16125-.49857.24173-.77487.22621-.2763.01242-.54795-.07032-.77085-.23342-.0189-.01552-.0418-.02251-.0641-.02251z" fill="#a9b3d4" stroke-width=".35463"/></g></svg>