<svg xmlns="http://www.w3.org/2000/svg" viewBox="0 0 8.467 8.467"><path d="M4.24.333a3.9 3.9 0 0 0-2.758 6.658 3.9 3.9 0 0 0 5.516 0A3.9 3.9 0 0 0 4.24.333zm.303 1.674l.908.181c.058-.101.163-.169.28-.181a.37.37 0 1 1 .079.737.37.37 0 0 1-.408-.329l-.793-.167-.241 1.156c.509.011 1.005.168 1.427.456.096-.091.222-.145.355-.15a.54.54 0 0 1 .561.521.54.54 0 0 1-.299.493c.003.054.003.109 0 .163 0 .831-.967 1.506-2.16 1.506s-2.159-.676-2.159-1.506c-.003-.054-.003-.109 0-.163-.054-.024-.104-.058-.146-.098a.54.54 0 1 1 .74-.788 2.65 2.65 0 0 1 1.445-.456l.274-1.286v-.002c.014-.063.075-.101.137-.087zM3.377 4.231a.37.37 0 0 0-.371.371c0 .204.165.37.371.371s.371-.167.371-.371-.167-.371-.371-.371zm1.715.012a.37.37 0 1 0 0 .743l-.003.014h.019a.37.37 0 0 0 .355-.385c0-.204-.167-.371-.371-.371zM3.404 5.457a.1.1 0 0 0-.063.023c-.042.035-.049.099-.014.141.263.198.586.3.916.286a1.42 1.42 0 0 0 .915-.286v.014c.04-.04.041-.106.002-.147s-.105-.041-.146-.002c-.226.161-.499.242-.775.226-.276.012-.548-.07-.771-.233-.019-.016-.042-.023-.064-.023z" fill="#a9b3d4"/></svg>