<svg xmlns="http://www.w3.org/2000/svg" viewBox="0 0 8.467 8.467"><path d="M4.238.341A3.9 3.9 0 0 0 .341 4.238a3.9 3.9 0 0 0 3.897 3.897 3.9 3.9 0 0 0 3.897-3.897A3.9 3.9 0 0 0 4.238.341zm1.026 2.03a.99.99 0 0 1 .724.313c.226-.044.438-.127.629-.24-.074.232-.231.426-.436.548a1.98 1.98 0 0 0 .569-.156c-.133.199-.301.373-.495.513l.003.128c0 1.31-.997 2.821-2.821 2.821a2.81 2.81 0 0 1-1.52-.445 2.02 2.02 0 0 0 .237.014 1.99 1.99 0 0 0 1.231-.424c-.434-.008-.8-.295-.926-.689a.99.99 0 0 0 .448-.017c-.454-.091-.795-.492-.795-.973.134.062.287.106.449.112a.99.99 0 0 1-.441-.825c0-.182.048-.352.134-.499.489.6 1.22.995 2.044 1.036-.017-.073-.026-.148-.026-.226a.99.99 0 0 1 .992-.992z" fill="#a9b3d4"/></svg>