<?xml version="1.0" encoding="UTF-8" standalone="no"?>
<!-- Created with Inkscape (http://www.inkscape.org/) -->

<svg
   xmlns:dc="http://purl.org/dc/elements/1.1/"
   xmlns:cc="http://creativecommons.org/ns#"
   xmlns:rdf="http://www.w3.org/1999/02/22-rdf-syntax-ns#"
   xmlns:svg="http://www.w3.org/2000/svg"
   xmlns="http://www.w3.org/2000/svg"
   xmlns:sodipodi="http://sodipodi.sourceforge.net/DTD/sodipodi-0.dtd"
   xmlns:inkscape="http://www.inkscape.org/namespaces/inkscape"
   width="38.857883mm"
   height="36.601486mm"
   viewBox="0 0 137.68541 129.6903"
   id="svg6548"
   version="1.1"
   inkscape:version="0.91 r13725"
   sodipodi:docname="donate.svg">
  <defs
     id="defs6550" />
  <sodipodi:namedview
     id="base"
     pagecolor="#ffffff"
     bordercolor="#666666"
     borderopacity="1.0"
     inkscape:pageopacity="0.0"
     inkscape:pageshadow="2"
     inkscape:zoom="0.35"
     inkscape:cx="68.842709"
     inkscape:cy="64.845145"
     inkscape:document-units="px"
     inkscape:current-layer="layer1"
     showgrid="false"
     fit-margin-top="0"
     fit-margin-left="0"
     fit-margin-right="0"
     fit-margin-bottom="0"
     inkscape:window-width="1920"
     inkscape:window-height="1023"
     inkscape:window-x="0"
     inkscape:window-y="0"
     inkscape:window-maximized="1" />
  <metadata
     id="metadata6553">
    <rdf:RDF>
      <cc:Work
         rdf:about="">
        <dc:format>image/svg+xml</dc:format>
        <dc:type
           rdf:resource="http://purl.org/dc/dcmitype/StillImage" />
        <dc:title></dc:title>
      </cc:Work>
    </rdf:RDF>
  </metadata>
  <g
     inkscape:label="Calque 1"
     inkscape:groupmode="layer"
     id="layer1"
     transform="translate(340.98557,-467.51705)">
    <g
       id="g884"
       transform="matrix(1.25,0,0,-1.25,-328.76461,575.10985)">
      <path
         d="m 0,0 -8.955,19.476 15.203,7.22 c 0.732,2.542 1.81,4.971 3.188,7.255 l -6.483,6.481 11.584,0 c 7.486,7.487 18.774,12.253 31.402,12.253 22.542,0 40.815,-15.186 40.815,-33.92 0,-8.621 -3.871,-16.49 -10.248,-22.473 l 0,-13.348 -10.246,0 -4.533,4.534 c -4.857,-1.695 -10.19,-2.631 -15.788,-2.631 -5.869,0 -11.446,1.031 -16.489,2.883 l -4.786,-4.786 -10.248,0 0,14.274 c -0.602,0.607 -1.178,1.232 -1.728,1.874 L 0,0 Z"
         style="fill:none;stroke:#4789bc;stroke-width:1.24399996;stroke-linecap:butt;stroke-linejoin:miter;stroke-miterlimit:4;stroke-dasharray:none;stroke-opacity:1"
         id="path886"
         inkscape:connector-curvature="0" />
    </g>
    <path
       d="m -220.65931,557.19355 c 0,0 5.3175,3.425 8.9125,0.2675 4.1525,-3.6475 0.96875,-12.57375 -3.47375,-10.63875 -3.36625,1.465 1.71,8.235 8.14125,5.32 4.07,-1.84625 2.82125,-6.73125 2.82125,-6.73125"
       style="fill:none;stroke:#4789bc;stroke-width:1.55499995;stroke-linecap:butt;stroke-linejoin:miter;stroke-miterlimit:4;stroke-dasharray:none;stroke-opacity:1"
       id="path890"
       inkscape:connector-curvature="0" />
    <g
       id="g892"
       transform="matrix(1.25,0,0,-1.25,-288.49981,520.52115)">
      <path
         d="m 0,0 c 0,0 4.896,3.171 13.335,3.171 8.439,0 12.687,-2.739 12.687,-2.739"
         style="fill:none;stroke:#4789bc;stroke-width:1.24399996;stroke-linecap:butt;stroke-linejoin:miter;stroke-miterlimit:4;stroke-dasharray:none;stroke-opacity:1"
         id="path894"
         inkscape:connector-curvature="0" />
    </g>
    <g
       id="g896"
       transform="matrix(1.25,0,0,-1.25,-301.26461,543.09325)">
      <path
         d="m 0,0 c 0,-0.945 -0.767,-1.713 -1.713,-1.713 -0.945,0 -1.713,0.768 -1.713,1.713 0,0.946 0.768,1.713 1.713,1.713 C -0.767,1.713 0,0.946 0,0 Z"
         style="fill:none;stroke:#4789bc;stroke-width:1.24399996;stroke-linecap:butt;stroke-linejoin:miter;stroke-miterlimit:4;stroke-dasharray:none;stroke-opacity:1"
         id="path898"
         inkscape:connector-curvature="0" />
    </g>
    <g
       id="g900"
       transform="matrix(1.25,0,0,-1.25,-262.78451,468.29455)">
      <path
         d="m 0,0 c -3.875,0 -7.063,-2.916 -7.503,-6.672 -0.037,-0.016 -0.059,-0.026 -0.059,-0.026 0,0 -0.021,0.01 -0.056,0.026 C -8.06,-2.916 -11.247,0 -15.122,0 c -4.176,0 -7.562,-3.385 -7.562,-7.561 l 0,-0.407 c 0.015,-8.672 15.122,-16.911 15.122,-16.911 0,0 15.11,8.239 15.124,16.911 l 0,0.407 C 7.562,-3.385 4.175,0 0,0 Z"
         style="fill:none;stroke:#4789bc;stroke-width:1.24399996;stroke-linecap:butt;stroke-linejoin:miter;stroke-miterlimit:4;stroke-dasharray:none;stroke-opacity:1"
         id="path902"
         inkscape:connector-curvature="0" />
    </g>
  </g>
</svg>
