<svg height="362.34644" width="667.45306" xmlns="http://www.w3.org/2000/svg"><g fill="#ebe9cf" stroke="#000" stroke-linejoin="round" stroke-width="5.697356" transform="matrix(.70288444 0 0 .70127664 39.07006 -260.029508)"><path d="m247.94455 624.40282c0 19.54684-16.12305 35.74769-35.7477 35.74769-19.88922 0-35.84105-16.0919-35.84105-36.21458 0-19.17331 16.41873-35.37416 35.84105-35.37416 19.62465 0 35.7477 16.0919 35.7477 35.84105zm-65.36365-.29568c0 16.4654 13.30618 29.81827 29.61595 29.81827 16.12303 0 29.52258-13.35287 29.52258-29.42921 0-16.26309-13.39955-29.70933-29.52258-29.70933-16.02964 0-29.61595 13.44624-29.61595 29.32027zm158.74026.29568c0 19.54684-16.12303 35.74769-35.74769 35.74769-19.88921 0-35.84105-16.0919-35.84105-36.21458 0-19.17331 16.41872-35.37416 35.84105-35.37416 19.62466 0 35.74769 16.0919 35.74769 35.84105zm-65.36364-.29568c0 16.4654 13.30618 29.81827 29.61595 29.81827 16.12303 0 29.52258-13.35287 29.52258-29.42921 0-16.26309-13.39955-29.70933-29.52258-29.70933-16.02964 0-29.61595 13.44624-29.61595 29.32027zm90.26405-33.98909h8.60622l38.08211 56.80411v-56.80411h6.2251v68.47618h-6.2251l-40.46321-60.22792v60.22792h-6.22512zm77.88195-.32653h6.39789l16.4155 56.36525 15.51751-56.29128h6.55192l15.17544 57.17888 16.81597-57.07428h6.20377l-19.42015 68.47618-6.83837-.1046-15.32934-56.15047-15.11145 56.15047-7.0196-.074zm119.52906.32654h7.7347l29.67822 68.47618h-7.54796l-10.00686-23.34416h-32.12155l-10.06912 23.34416h-7.28336zm17.16575 38.90692-13.25949-31.17222-13.53959 31.17222zm85.11278 29.56926h-7.90589l-23.12627-31.03216c7.6102 0 12.0767-.35794 15.31375-1.18277 6.87875-1.8831 10.41152-6.66087 10.41152-14.44224 0-6.20956-2.599-10.84726-7.25226-13.07274-3.7195-1.77415-8.5284-2.49004-15.78065-2.49004h-9.64892v62.21995h-6.2251v-68.47618h16.34091c8.7774 0 14.56675 1.02714 18.75313 3.33043 6.50523 3.62613 10.03798 10.11579 10.03798 18.75314 0 12.1234-6.81649 19.45346-19.50015 20.83854zm24.26238-68.47618h15.73391c12.45026 0 19.71809 1.47846 26.20769 5.36915 10.24036 6.03836 15.64067 16.23196 15.64067 29.11794 0 12.79259-5.47812 22.78389-15.87405 28.8845-6.05397 3.5172-13.30624 5.10459-23.62433 5.10459h-18.08389zm15.99854 62.21995c12.45019 0 19.67134-1.74304 25.28953-6.10061 6.44292-5.07348 10.06901-12.96379 10.06901-21.92795 0-10.19361-4.63764-18.7687-12.74582-23.48421-5.29136-3.1748-11.96779-4.45095-22.61272-4.45095h-9.77344v55.96372zm69.98188-12.59027c.58612 4.27975 1.69756 6.61416 4.2237 9.04195 3.25354 3.15925 8.68969 5.13573 14.36836 5.13573 10.28618 0 17.90478-5.75823 17.90478-13.69524 0-4.20195-2.14218-7.73471-6.10304-9.86681-2.86952-1.60296-6.68902-2.89466-13.64073-4.57544-10.2459-2.4278-12.99424-3.45494-16.47013-6.06949-3.96093-2.89466-6.2243-7.45456-6.2243-12.21677 0-10.94062 10.06397-18.93989 24.02821-18.93989 14.36829 0 24.23009 7.61019 24.5737 19.03326h-8.62903c-.6063-7.75025-7.01245-12.80816-16.18726-12.80816-9.07373 0-15.70208 5.3536-15.70208 12.52803 0 3.15924 1.67732 6.24067 4.20331 8.01483 2.36453 1.58741 5.01185 2.41224 13.01448 4.27977 9.09375 2.14766 12.77181 3.45493 16.36904 5.49365 5.63818 3.26819 8.8513 8.68402 8.8513 14.73796 0 11.67206-11.17541 20.3094-26.23084 20.3094-15.66173 0-26.37228-8.07709-27.20085-20.40278z"/><path d="m77.141574 658.73327h6.576466l16.4155-56.36525 15.51751 56.29128h6.55192l15.17544-57.17888 16.81597 57.07428h6.38234l-19.50364-68.47618-6.93345.1046-15.32934 56.15046-15.11145-56.15046-7.114945.074z"/></g><g fill-rule="evenodd" stroke="#000"><circle cx="177.753919" cy="181.072695" r="122.345" stroke-width="4.867619"/><circle cx="181.173219" cy="181.173215" r="128.61469" stroke-width="5.117065"/></g><path d="m-334.72807 260.61053c-.075 69.10146 55.19729 122.69495 121.98802 122.46217-46.02714 0-102.67477-48.4638-102.6425-120.83281.0327-74.23153 56.99361-122.92774 102.6416-122.92774-65.28185.2328-121.91279 52.83285-121.98712 121.29838z" fill="#dcdcd4" transform="translate(387.260879 -80.149448)"/><g fill="#ff0" stroke-linejoin="round"><g stroke="#fff" stroke-opacity=".198381" stroke-width="10.494288"><circle cx="166.320179" cy="273.298065" r="4.491051"/><circle cx="184.342259" cy="248.798995" r="4.491051"/><circle cx="171.410609" cy="239.954385" r="4.491051"/><circle cx="229.615859" cy="214.663315" r="4.491051"/><circle cx="145.823149" cy="175.602395" r="4.491051"/><circle cx="184.098359" cy="130.123005" r="4.491051"/><circle cx="195.717999" cy="141.378045" r="4.491051"/><circle cx="269.281749" cy="148.781875" r="4.491051"/><circle cx="123.043849" cy="102.495991" r="4.491051"/><circle cx="207.349309" cy="188.476025" r="4.491051"/><circle cx="266.413969" cy="212.607285" r="4.491051"/><circle cx="263.818829" cy="157.245255" r="4.491051"/><circle cx="179.065109" cy="93.115262" r="4.491051"/><circle cx="254.434709" cy="115.920979" r="4.491051"/><circle cx="221.922299" cy="126.411778" r="4.491051"/><circle cx="218.115389" cy="109.221951" r="4.491051"/><circle cx="128.988559" cy="273.990855" r="4.491051"/><circle cx="215.843689" cy="103.843106" r="4.491051"/><circle cx="177.790219" cy="235.134505" r="4.491051"/><circle cx="181.577299" cy="257.327705" r="4.491051"/></g><g stroke="#ffec00" stroke-opacity=".368421" stroke-width="6.996194"><circle cx="195.672529" cy="117.29353" r="2.389658"/><circle cx="181.392409" cy="138.786585" r="2.389658"/><circle cx="210.615619" cy="115.23264" r="2.389658"/><circle cx="251.774459" cy="247.733625" r="2.389658"/><circle cx="221.578339" cy="208.578225" r="2.389658"/><circle cx="207.195179" cy="202.081185" r="2.389658"/><circle cx="239.188339" cy="212.381435" r="2.389658"/><circle cx="216.499569" cy="210.507325" r="2.389658"/><circle cx="178.526089" cy="214.706245" r="2.389658"/><circle cx="185.649339" cy="218.796265" r="2.389658"/><circle cx="177.927089" cy="243.276565" r="2.389658"/><circle cx="248.574449" cy="236.524315" r="2.389658"/><circle cx="109.145813" cy="245.654735" r="2.389658"/><circle cx="136.697049" cy="283.955735" r="2.389658"/><circle cx="167.801769" cy="267.040735" r="2.389658"/><circle cx="135.707999" cy="276.680855" r="2.389658"/><circle cx="149.301359" cy="87.863518" r="2.389658"/><circle cx="173.491899" cy="93.001858" r="2.389658"/><circle cx="169.933379" cy="91.087857" r="2.389658"/></g></g><g fill="#dcdcd4" stroke-width="1.303519" transform="matrix(.70288444 0 0 .70127664 39.092832 -260.138338)"><path d="m247.94455 624.40282c0 19.54684-16.12305 35.74769-35.7477 35.74769-19.88922 0-35.84105-16.0919-35.84105-36.21458 0-19.17331 16.41873-35.37416 35.84105-35.37416 19.62465 0 35.7477 16.0919 35.7477 35.84105zm-65.36365-.29568c0 16.4654 13.30618 29.81827 29.61595 29.81827 16.12303 0 29.52258-13.35287 29.52258-29.42921 0-16.26309-13.39955-29.70933-29.52258-29.70933-16.02964 0-29.61595 13.44624-29.61595 29.32027zm158.74026.29568c0 19.54684-16.12303 35.74769-35.74769 35.74769-19.88921 0-35.84105-16.0919-35.84105-36.21458 0-19.17331 16.41872-35.37416 35.84105-35.37416 19.62466 0 35.74769 16.0919 35.74769 35.84105zm-65.36364-.29568c0 16.4654 13.30618 29.81827 29.61595 29.81827 16.12303 0 29.52258-13.35287 29.52258-29.42921 0-16.26309-13.39955-29.70933-29.52258-29.70933-16.02964 0-29.61595 13.44624-29.61595 29.32027zm90.26405-33.98909h8.60622l38.08211 56.80411v-56.80411h6.2251v68.47618h-6.2251l-40.46321-60.22792v60.22792h-6.22512zm77.88195-.32653h6.39789l16.4155 56.36525 15.51751-56.29128h6.55192l15.17544 57.17888 16.81597-57.07428h6.20377l-19.42015 68.47618-6.83837-.1046-15.32934-56.15047-15.11145 56.15047-7.0196-.074zm119.52906.32654h7.7347l29.67822 68.47618h-7.54796l-10.00686-23.34416h-32.12155l-10.06912 23.34416h-7.28336zm17.16575 38.90692-13.25949-31.17222-13.53959 31.17222zm85.11278 29.56926h-7.90589l-23.12627-31.03216c7.6102 0 12.0767-.35794 15.31375-1.18277 6.87875-1.8831 10.41152-6.66087 10.41152-14.44224 0-6.20956-2.599-10.84726-7.25226-13.07274-3.7195-1.77415-8.5284-2.49004-15.78065-2.49004h-9.64892v62.21995h-6.2251v-68.47618h16.34091c8.7774 0 14.56675 1.02714 18.75313 3.33043 6.50523 3.62613 10.03798 10.11579 10.03798 18.75314 0 12.1234-6.81649 19.45346-19.50015 20.83854zm24.26238-68.47618h15.73391c12.45026 0 19.71809 1.47846 26.20769 5.36915 10.24036 6.03836 15.64067 16.23196 15.64067 29.11794 0 12.79259-5.47812 22.78389-15.87405 28.8845-6.05397 3.5172-13.30624 5.10459-23.62433 5.10459h-18.08389zm15.99854 62.21995c12.45019 0 19.67134-1.74304 25.28953-6.10061 6.44292-5.07348 10.06901-12.96379 10.06901-21.92795 0-10.19361-4.63764-18.7687-12.74582-23.48421-5.29136-3.1748-11.96779-4.45095-22.61272-4.45095h-9.77344v55.96372zm69.98188-12.59027c.58612 4.27975 1.69756 6.61416 4.2237 9.04195 3.25354 3.15925 8.68969 5.13573 14.36836 5.13573 10.28618 0 17.90478-5.75823 17.90478-13.69524 0-4.20195-2.14218-7.73471-6.10304-9.86681-2.86952-1.60296-6.68902-2.89466-13.64073-4.57544-10.2459-2.4278-12.99424-3.45494-16.47013-6.06949-3.96093-2.89466-6.2243-7.45456-6.2243-12.21677 0-10.94062 10.06397-18.93989 24.02821-18.93989 14.36829 0 24.23009 7.61019 24.5737 19.03326h-8.62903c-.6063-7.75025-7.01245-12.80816-16.18726-12.80816-9.07373 0-15.70208 5.3536-15.70208 12.52803 0 3.15924 1.67732 6.24067 4.20331 8.01483 2.36453 1.58741 5.01185 2.41224 13.01448 4.27977 9.09375 2.14766 12.77181 3.45493 16.36904 5.49365 5.63818 3.26819 8.8513 8.68402 8.8513 14.73796 0 11.67206-11.17541 20.3094-26.23084 20.3094-15.66173 0-26.37228-8.07709-27.20085-20.40278z"/><path d="m77.141574 658.73327h6.576466l16.4155-56.36525 15.51751 56.29128h6.55192l15.17544-57.17888 16.81597 57.07428h6.38234l-19.50364-68.47618-6.93345.1046-15.32934 56.15046-15.11145-56.15046-7.114945.074z"/></g></svg>