<svg preserveAspectRatio="xMidYMid" viewBox="0 0 256 248" xmlns="http://www.w3.org/2000/svg"><path d="m143.34 167.83c22.063-8.4727 33.082-33.231 24.612-55.301-8.47-22.069-33.221-33.092-55.284-24.619-22.063 8.4727-33.081 33.232-24.612 55.301 4.3458 11.324 13.291 20.272 24.612 24.619l-28.824 75.129c-63.542-24.396-95.281-95.7-70.893-159.26 24.389-63.562 95.67-95.311 159.21-70.915s95.281 95.7 70.893 159.26c-12.516 32.62-38.283 58.395-70.893 70.915l-28.824-75.129" fill="#3da639"/><g fill="#1d531d"><path d="m172.16 247.37c-.61202 0-1.2232-.12738-1.7929-.38126-1.0676-.47514-1.9022-1.3558-2.3207-2.4466l-28.824-75.129c-.87199-2.2726.26261-4.8215 2.5344-5.6942 9.5716-3.6755 17.14-10.86 21.309-20.229 4.17-9.3692 4.4428-19.802.768-29.377-7.5853-19.765-29.831-29.673-49.591-22.084-19.759 7.5881-29.663 29.842-22.077 49.606 3.892 10.142 11.939 18.191 22.077 22.084 2.2718.8727 3.4064 3.4216 2.5344 5.6942l-28.824 75.129c-.41859 1.0909-1.2536 1.9715-2.3212 2.4466-1.0672.47602-2.2798.50775-3.3712.088593-31.83-12.221-56.998-36.11-70.867-67.266-13.869-31.156-14.778-65.85-2.5609-97.69 12.217-31.84 36.099-57.016 67.245-70.889s65.829-14.783 97.659-2.5617c31.83 12.221 56.998 36.11 70.867 67.266s14.778 65.85 2.5609 97.69c-12.943 33.732-39.706 60.504-73.427 73.451-.50892.1957-1.0443.29266-1.5787.29266zm-44.203-238.43c-16.433 0-32.831 3.4555-48.293 10.343-28.996 12.915-51.228 36.352-62.602 65.995-11.374 29.642-10.527 61.94 2.3842 90.946 12.312 27.659 34.188 49.166 61.889 60.968l25.711-67.019c-10.553-5.2349-18.85-14.29-23.107-25.382-9.327-24.303 2.8508-51.665 27.146-60.995 24.297-9.3309 51.649 2.8517 60.976 27.154 4.5181 11.773 4.1828 24.601-.94469 36.121-4.5247 10.168-12.305 18.243-22.161 23.106l25.709 67.011c29.465-12.591 52.751-36.694 64.274-66.724 11.374-29.642 10.527-61.94-2.3842-90.945-12.911-29.005-36.341-51.245-65.974-62.622-13.831-5.3103-28.241-7.9579-42.624-7.9579z"/><path d="m237.74 229.57c-1.597 1.6333-2.3955 3.5705-2.3955 5.8118 0 2.3229.8121 4.2964 2.4363 5.9207 1.6151 1.6242 3.566 2.4363 5.8526 2.4363 2.2775 0 4.2238-.81663 5.839-2.4499 1.6151-1.6424 2.4227-3.6114 2.4227-5.907 0-2.2322-.80302-4.1694-2.4091-5.8118-1.6242-1.6696-3.5751-2.5044-5.8526-2.5044-2.3048 0-4.2692.83478-5.8934 2.5044zm12.917 13.012c-1.9509 1.8874-4.2919 2.831-7.0231 2.831-2.822 0-5.1993-.96635-7.132-2.8991-1.9327-1.9327-2.8991-4.31-2.8991-7.132 0-2.9309 1.0435-5.3671 3.1305-7.3089 1.96-1.8148 4.2601-2.7221 6.9006-2.7221 2.7675 0 5.1312.97996 7.0912 2.9399s2.9399 4.3237 2.9399 7.0912c0 2.8492-1.0026 5.2492-3.008 7.2001zm-6.1112-10.548c-.39925-.15426-.96182-.23138-1.6877-.23138h-.70776v3.2257h1.1297c.68054 0 1.2114-.1361 1.5925-.40832s.57165-.71229.57165-1.3202-.29943-1.0299-.89831-1.2658zm-5.3082 8.9286v-11.12c.68961 0 1.7217.002269 3.0964.006806s2.1391.011342 2.2934.020416c.88016.063517 1.6106.25406 2.1913.57165.98905.54443 1.4836 1.4291 1.4836 2.6541 0 .93461-.26087 1.6106-.78262 2.028s-1.1637.66692-1.9259.74859c.69869.14518 1.225.35841 1.5788.6397.65332.52628.97997 1.3565.97997 2.4908v.99358c0 .10889.006805.21777.020416.32666s.038563.21777.074859.32666l.095275.31305h-2.7766c-.090738-.35388-.14972-.86654-.17694-1.538-.027221-.67146-.086201-1.1252-.17694-1.3611-.14518-.39018-.41739-.66239-.81664-.81664-.21777-.090738-.54896-.14972-.99358-.17694l-.6397-.040832h-.61248v3.9335h-2.9127z"/></g></svg>