<svg xmlns="http://www.w3.org/2000/svg" width="250" height="250" viewBox="0 0 66.146 66.146"><style><![CDATA[.codesvgb{dominant-baseline:auto}.codesvgc{fill:#3d8fcc}.codesvgd{fill:#678ee6}.E{fill:#f6aa78}.codesvgf{fill:#f57389}]]></style><defs><linearGradient id="codesvga" x1="14.032" x2="221.75" y1="225.51" y2="60" gradientUnits="userSpaceOnUse"><stop stop-color="#f6aa78" offset="0"/><stop stop-color="#f57389" offset="1"/></linearGradient></defs><path transform="scale(.26458)" d="M43.34 58.891c-3.952 0-7.191 3.245-7.191 7.197v126.18a7.22 7.22 0 0 0 7.191 7.191h163.32c3.952 0 7.19-3.239 7.19-7.191V66.088c0-3.952-3.237-7.197-7.19-7.197H43.34zm0 3.779h163.32c1.924 0 3.41 1.494 3.41 3.418v9.588H39.92v-9.588c0-1.924 1.488-3.418 3.412-3.418zm157.11 4.525v3.779h3.928v-3.779h-3.928zM39.93 79.458h32.807v116.22H43.342a3.36 3.36 0 0 1-3.412-3.41V79.458zm36.586 0h133.56v112.81c0 1.924-1.486 3.41-3.41 3.41H76.516V79.458z" fill="url(#codesvga)" class="codesvgb"/><path d="M11.76 22.38v1h6.047v-1zm2.205 2.13v1h3.842v-1zm0 2.13v1h3.842v-1z" class="codesvgc codesvgb"/><path d="M21.728 22.374v1h9.922v-1h-9.922zm11.151 0v1h6.094v-1h-6.094z" class="codesvgb codesvgd"/><path d="M23.734 24.49v1H36.46v-1H23.734zm2.057 10.579v1h7.002v-1h-7.002zm-4.063 4.371v1h6.349v-1h-6.349z" fill="#78e5f6" class="codesvgb"/><path d="M23.734 26.61v1h8.918v-1z" class="codesvgb codesvgd"/><path d="M23.734 28.73v1h6.486v-1z" class="codesvgb E"/><path d="M23.734 30.837v1h8.918v-1h-8.918zm10.102 0v1h4.054v-1h-4.054zm-10.102 2.116v1h7v-1h-7z" class="codesvgb codesvgf"/><path opacity=".545" d="M58.655 40.036l2.35-2.35 2.35 2.35-2.35 2.35z" class="E"/><g class="codesvgd"><path d="M39.103 9.948l2.155-2.155 2.155 2.155-2.155 2.155z"/><path d="M2.474 41.03l.319.319 1.893 1.893 2.212-2.212-2.213-2.212zm1.276 0l.936-.936.936.936-.936.936z" opacity=".528" class="codesvgb"/></g><path opacity=".694" d="M46.054 58.053l2.41-2.41 2.41 2.41-2.41 2.41z" class="codesvgf"/><path opacity=".528" d="M26.311 56.879l1.574-1.574 1.574 1.574-1.574 1.574z" class="codesvgc"/><path d="M35.179 4.807l1.313-1.313 1.313 1.313-1.313 1.313z" class="E"/><path d="M14.2 55.18c-.417 0-.756.338-.756.756v3.779c0 .417.338.756.756.756h3.779c.417 0 .756-.338.756-.756v-3.401l-1.134-1.134h-.378v2.267H14.2zm.378 0v1.889h1.134V55.18zm1.512 3.023c.417 0 .756.338.756.756s-.338.756-.756.756-.756-.338-.756-.756.338-.756.756-.756z" class="codesvgf"/><path d="M23.18 5.85l-.449.898.449.898v1.797h-.898v1.572a1.12 1.12 0 1 0 2.246 0V9.443h-.898V7.647l.449-.898-.449-.898zm2.695.078a1.35 1.35 0 0 0 0 2.539v3.222a.45.45 0 0 0 .449.449.45.45 0 0 0 .449-.449V8.466a1.35 1.35 0 0 0 .898-1.269 1.35 1.35 0 0 0-.898-1.269v1.269a.45.45 0 0 1-.449.449.45.45 0 0 1-.449-.449z" class="codesvgc"/></svg>