<svg xmlns="http://www.w3.org/2000/svg" width="250" height="250" viewBox="0 0 66.146 66.146"><style><![CDATA[.docsvgb{fill:#678ee6}.docsvgbc{dominant-baseline:auto}]]></style><defs><linearGradient id="docsvga" x1="-18.217" x2="60.827" y1="314.582" y2="242.085" gradientUnits="userSpaceOnUse"><stop stop-color="#f6aa78" offset="0"/><stop stop-color="#f57389" offset="1"/></linearGradient></defs><g transform="translate(0 -230.85)"><path d="M36.791 292.198l2.155-2.155 2.155 2.155-2.155 2.155z" class="docsvgb"/><path d="M54.86 279.38l.319.319 1.893 1.893 2.212-2.212-2.212-2.212zm1.276 0l.936-.936.936.936-.936.936z" fill="#3d8fcc" opacity=".528" class="docsvgbc"/><path d="M15.689 240.3a.5.5 0 0 0-.5.5v45.7a.5.5 0 0 0 .5.5h32.849c1.331 0 2.419-1.087 2.419-2.418v-41.864c0-1.331-1.087-2.418-2.419-2.418h-3.732a.5.5 0 0 0-.5.5v19.956l-4.342-3.563a.5.5 0 0 0-.635 0l-4.342 3.563V240.8a.5.5 0 0 0-.5-.5h-16.88zm.5 1h17.798v20.513a.5.5 0 0 0 .818.387l4.842-3.973 4.842 3.973a.5.5 0 0 0 .818-.387V241.3h3.231c.794 0 1.418.624 1.418 1.418v41.864c0 .794-.624 1.418-1.418 1.418H16.189v-43.282zm1.763 1.308a.5.5 0 0 0-.494.507v41.07c-.012.679 1.012.679 1 0v-41.07a.5.5 0 0 0-.506-.507z" fill="url(#docsvga)" opacity=".938" class="docsvgbc"/><path d="M34.488 238.97a.5.5 0 0 0-.5.5v22.337a.5.5 0 0 0 .816.387l4.844-3.975 4.842 3.975a.5.5 0 0 0 .816-.387V239.47a.5.5 0 0 0-.5-.5zm.5 1h9.318v20.778l-4.342-3.562a.5.5 0 0 0-.635 0l-4.342 3.564z" opacity=".938" class="docsvgb docsvgbc"/><path fill="#f57389" d="M50.954 237.885l2.41-2.41 2.41 2.41-2.41 2.41z"/><path d="M6.324 264.55l.319.319 1.892 1.892 2.213-2.212-2.211-2.211zm1.275-.001l.936-.936.938.938-.936.936z" fill="#3d8fcc" class="docsvgbc"/><path d="M43.779 274.69a2.1 2.1 0 0 0-1.806 3.164l-1.189 1.189.742.742 1.189-1.189a2.1 2.1 0 0 0 3.164-1.806 2.1 2.1 0 0 0-2.1-2.1zm0 1.05a1.05 1.05 0 1 1 0 2.1 1.05 1.05 0 1 1 0-2.1zm-4.724 4.199v3.149h1.05c.87 0 1.575-.705 1.575-1.575s-.705-1.575-1.575-1.575zm2.624 1.575c0 .87.705 1.575 1.575 1.575s1.575-.705 1.575-1.575-.705-1.575-1.575-1.575-1.575.705-1.575 1.575zm3.149 0c0 .87.705 1.575 1.575 1.575h.525v-1.05h-.525c-.29 0-.525-.235-.525-.525s.235-.525.525-.525h.525v-1.05h-.525c-.87 0-1.575.705-1.575 1.575zm-4.724-.525c.29 0 .525.235.525.525s-.235.525-.525.525zm3.149 0c.29 0 .525.235.525.525s-.235.525-.525.525-.525-.235-.525-.525.235-.525.525-.525z" class="docsvgb"/><circle cx="10.451" cy="255.39" r="1.521" fill="#f6aa78"/><circle cx="10.451" cy="250.2" r="1.521" fill="#78e5f6"/><circle cx="10.451" cy="245.01" r="1.521" fill="#f57389"/><path d="M9.296 277.25a.525.525 0 0 0-.525.525v2.625h-1.05a1.05 1.05 0 0 0-1.05 1.05v.525h5.249v-.525a1.05 1.05 0 0 0-1.05-1.05h-1.05v-2.625a.525.525 0 0 0-.525-.525zm-2.624 5.249v2.1l5.249-.525v-1.575z" class="docsvgb"/><path d="M55.446 256.95a.525.525 0 0 0 0 1.05 4.19 4.19 0 0 1 4.199 4.199.525.525 0 1 0 1.05 0 5.26 5.26 0 0 0-5.249-5.249zm0 2.1a.525.525 0 1 0 0 1.05 2.09 2.09 0 0 1 2.1 2.1.525.525 0 1 0 1.05 0 3.16 3.16 0 0 0-3.149-3.149zm0 2.1a1.05 1.05 0 1 0 0 2.1 1.05 1.05 0 1 0 0-2.1z" fill="#78e5f6"/></g></svg>