<svg width="460.36" height="440.86" viewBox="0 0 121.80291 116.64404" xmlns="http://www.w3.org/2000/svg" xmlns:cc="http://creativecommons.org/ns#" xmlns:dc="http://purl.org/dc/elements/1.1/" xmlns:rdf="http://www.w3.org/1999/02/22-rdf-syntax-ns#" xmlns:xlink="http://www.w3.org/1999/xlink"><defs><linearGradient id="a" x1="-42.505" x2="122.11" y1="163" y2="1.7968" gradientUnits="userSpaceOnUse"><stop stop-color="#f6aa78" offset="0"/><stop stop-color="#f57389" offset="1"/></linearGradient></defs><rect transform="rotate(225)" x="-125.33" y="-31.747" width="8.19" height="8.19" fill="none" stroke="#7e9fea" stroke-linecap="round" stroke-width=".5"/><path d="m35.864 21.652a12.571 12.571.0 00-17.121 4.7892 12.571 12.571.0 004.7892 17.121 12.571 12.571.0 0014.491-1.5541c-.0021.004-.0123.0279-.01151.0291.0329.0556 4.0774.13257 4.142.13186.0646-8e-4 4.1068-.16607 4.1385-.22233.0317-.0563-1.9243-3.5977-1.9572-3.6532s-2.197-3.4736-2.2615-3.4729c-265e-6 794e-6-.01651.02331-.0199.0267a12.571 12.571.0 00-6.1893-13.196z" fill="none" stroke="#3d8fcc" stroke-dasharray="1.00000001, 2.00000002" stroke-linecap="round"/><circle cx="67.456" cy="66.124" r="1.5214" fill="#eff1f5"/><circle cx="72.417" cy="66.124" r="1.5214" fill="#f57389"/><circle cx="82.34" cy="66.124" r="1.5214" fill="#eff1f5"/><rect transform="rotate(-45)" x="77.208" y="80.927" width="2.7945" height="2.7945" ry="0" fill="none" stroke="#efefef" stroke-linecap="round" stroke-width=".6"/><rect transform="rotate(-45)" x="20.983" y="38.458" width="2.1917" height="2.1917" ry="0" fill="#83a3eb"/><rect transform="rotate(-45)" x="-14.362" y="126.71" width="5.1757" height="5.1757" ry="0" fill="#eff1f5"/><rect transform="rotate(-45)" x="-10.942" y="62.067" width="4.8375" height="4.8375" ry="0" fill="#ff8083"/><path d="m52.975 15.596c-1.0379.0-1.8908.85088-1.8908 1.8888v41.805c0 1.0379.85293 1.8888 1.8908 1.8888h41.041v13.881c0 .91803-.7325 1.6521-1.6506 1.6521h-6.7557c-1.4585.0-2.6526 1.192-2.6526 2.6505s1.1941 2.6525 2.6526 2.6525h11.518c.91803.0 1.6521.732 1.6521 1.65.0.91802-.73406 1.6526-1.6521 1.6526h-21.621l-9.3405-9.3405-9.3384 9.3384h-16.693v-12.861c0-1.5143-1.2361-2.7482-2.7502-2.7482h-34.637c-1.5143.0-2.7482 1.2339-2.7482 2.7482v26.722c0 1.5143 1.2339 2.7502 2.7482 2.7502h34.637c1.5141.0 2.7502-1.2359 2.7502-2.7502v-12.861h16.692l8.8403 8.8403v7.2564l-2.3626 2.3626h-12.929c-1.4585.0-2.6505 1.1936-2.6505 2.652v9.2185h.99994v-9.2185c0-.91805.7325-1.6521 1.6506-1.6521h12.931l2.8623 2.8618.35348-.35345 3.0081-3.0081-2.8629-2.8623v-7.2564l8.8387-8.8382h21.621c1.4585.0 2.652-1.1941 2.652-2.6525.0-1.4585-1.1936-2.65-2.652-2.65h-11.518c-.91803.0-1.6526-.73457-1.6526-1.6526s.73459-1.6506 1.6526-1.6506h6.7557c1.4585.0 2.6505-1.1936 2.6505-2.652v-13.881h24.898c1.0379.0 1.8888-.85088 1.8888-1.8888v-41.805c0-1.0379-.85087-1.8888-1.8888-1.8888h-21.281v-5.1015h3.2866c.81849.0 1.4774-.6589 1.4774-1.4774v-5.1713h-2.9548v-1.4774c0-1.2239-.99195-2.2164-2.2159-2.2164-1.224.0-2.2164.99246-2.2164 2.2164v1.4774h-2.9548v5.1713c0 .81852.65892 1.4774 1.4774 1.4774h3.1001v5.1015zm22.771-15.595-3.6597 3.6597 3.6597 3.6597 3.6597-3.6597zm22.481 1.6294c.40796.0.73845.33049.73845.73845v1.4774h-1.4774v-1.4774c0-.40796.33099-.73845.73898-.73845zM83.346 7.4843l-1.9756 1.9761 1.9756 1.9761 1.9761-1.9761zm-30.371 9.1121h66.939c.5012.0.88884.38765.88884.88883v5.0271h-3.8633v-1.8418h-10.977l-.007 1.8418h-28.96v-1.8418h-10.979l-.006 1.8418h-3.8334v-1.8495h-10.094v-3.1776c0-.501.38947-.88856.8904-.88883zm.54467 1.1818v.99994h7.7716v-.99994zm9.4258.0v.99994h4.4318v-.99994zm20.041.0v.99994h7.7711v-.99994zm28.707.0v.99994h7.7716v-.99994zm-7.2146 3.2887v1.0004h1.0258v-1.0004zm-52.395.59583h9.094v1.8495h4.8297v36.666h-13.033c-.5012.0-.8909-.38764-.8909-.88883zm14.931.008h8.9808v1.848h.99994v-.006h28.955v32.145h-38.943v-31.959zm39.944.0h8.9803v1.848h.99993v-.006h3.8633v35.778c0 .50119-.38764.88883-.88884.88883h-12.963v-36.481zm.93794 4.4705v.99994h.96118v-.99994zm1.8691.0v.99994h7.381v-.99994zm-83.892.11007-.89916 1.7978.89916 1.7983v3.5962h-1.7984v3.1471c0 1.2452 1.0027 2.2479 2.2479 2.2479s2.2479-1.0027 2.2479-2.2479v-3.1471h-1.7983v-3.5962l.89919-1.7983-.89919-1.7978zm5.3945.15606c-1.0772.38077-1.7977 1.3989-1.7984 2.5414.0 1.1423.72131 2.1602 1.7984 2.5409v6.4497c0 .49813.40106.89917.89916.89917.49811.0.89916-.40104.89916-.89917v-6.4518c1.0763-.38068 1.7964-1.3977 1.7978-2.5394-.003-1.1414-.72173-2.1582-1.7978-2.5389v2.5389c5e-5.49661-.40254.89921-.89916.89916-.49662 5e-5-.89921-.40255-.89916-.89916zm77.868 1.8784v.99994h.96118v-.99994zm1.8691.0v.99994h7.381v-.99994zm-1.8691 1.988v.99994h.96118v-.99994zm1.8691.0v.99994h7.381v-.99994zm-1.8691 1.9513v.99994h.96118v-.99994zm1.8691.0v.99994h7.381v-.99994zm-56.688 10.918c-.65312.0-1.1953.54268-1.1953 1.1958v2.5234c0 .65313.54216 1.1953 1.1953 1.1953h2.791c.65315.0 1.1932-.54214 1.1932-1.1953v-2.5231c0-.65312-.54007-1.1958-1.1932-1.1958zm6.4162.0c-.65313.0-1.1937.54268-1.1937 1.1958v2.5234c0 .65313.54059 1.1953 1.1937 1.1953h2.791c.65313.0 1.1953-.54214 1.1953-1.1953v-2.5231c0-.65312-.54215-1.1958-1.1953-1.1958zm-6.4162 1.0005h2.791c.11641.0.19328.0789.19328.19534v2.5234c0 .11642-.0768.19533-.19328.19533h-2.791c-.11642.0-.19534-.0789-.19534-.19533v-2.5231c0-.11641.0789-.19534.19534-.19534zm6.4162.0h2.791c.11642.0.19484.0789.19484.19534v2.5234c0 .11642-.0784.19533-.19484.19533h-2.791c-.11642.0-.19378-.0789-.19378-.19533v-2.5231c0-.11641.0774-.19534.19378-.19534zm-6.4162 5.2224c-.65312.0-1.1953.54215-1.1953 1.1953v2.5234c0 .65314.54216 1.1953 1.1953 1.1953h2.791c.65315.0 1.1932-.54214 1.1932-1.1953v-2.5234c0-.65313-.54007-1.1953-1.1932-1.1953zm0 .99994h2.791c.11641.0.19328.0789.19328.19534v2.5234c0 .11643-.0768.19534-.19328.19534h-2.791c-.11642.0-.19534-.0789-.19534-.19534v-2.5234c0-.11643.0789-.19534.19534-.19534zm12.689 6.2911h38.943v3.5217h-38.943zm1.1937 1.1544v.99994h7.7711v-.99994zm9.9219.0v.99994h5.6208v-.99994zm7.5153.0v.99994h5.6234v-.99994zm-35.235 6.3185c-3.2714-22e-5-5.9236 2.6517-5.9237 5.9232v4.2308c-29e-6.9347.75771 1.6924 1.6924 1.6924h1.6924v-4.2308h-1.6924v-1.6924c1e-4-2.3367 1.8945-4.2309 4.2313-4.2308 2.3365 1e-4 4.2306 1.8942 4.2307 4.2308v1.6924h-1.6924v4.2308h1.6924c.93469 2e-5 1.6924-.7577 1.6924-1.6924v-4.2308c-69e-6-3.2712-2.6519-5.9231-5.9231-5.9232zm55.943 1.0149c-2.012 18e-5-3.8738 1.0754-4.8798 2.8179-.19492.3369-.0797.76803.25736.96273.33716.19473.76835.079.96271-.25838.75563-1.3087 2.1486-2.113 3.6597-2.113 1.5112.0 2.9042.80436 3.6597 2.113.19436.3377.62595.45347.96324.25838.33703-.1947.45228-.62583.25736-.96273-1.006-1.7425-2.8678-2.8177-4.8798-2.8179zm0 2.8179c-1.2719.0-2.3926.85966-2.7218 2.0882-.10086.37589.12224.76233.49816.863.37573.10052.76181-.12248.86249-.49816.16578-.61927.72011-1.0444 1.3611-1.0444.64106.0 1.1947.42512 1.3606 1.0444.10067.37568.48675.59868.86249.49816.37592-.10067.59902-.48711.49816-.863-.32922-1.2286-1.4494-2.0882-2.7213-2.0882zm-103.6 2.7425h34.637c.9774.0 1.7503.77065 1.7503 1.7482v26.722c0 .97758-.77287 1.7503-1.7503 1.7503h-34.637c-.97759.0-1.7477-.77269-1.7477-1.7503v-26.722c0-.97757.77012-1.7482 1.7477-1.7482zm103.6.0749c-.39023.0-.70485.31409-.70485.70435v.70487h-2.1131c-19e-5 1.0068.53684 1.9372 1.4087 2.4407.87185.50341 1.9461.50341 2.8179.0.87188-.50346 1.4089-1.4339 1.4087-2.4407h-2.1131v-.70487c0-.39026-.31406-.70435-.70435-.70435zm-103.73 2.4836v24.822h34.709v-24.822zm.99994 1.0005h32.709v17.832h-32.709zm62.547 3.1264 8.4259 8.4258-8.4243 8.4243-8.4259-8.4258zm-49.867 2.1441c-.69363-8e-5-1.256.5621-1.2562 1.2557l-1.2563 3.7682h-2.512v5.0245h1.3198c.29099-1.4332 1.5572-2.512 3.0763-2.512s2.7858 1.0788 3.0768 2.512h2.6396c.29099-1.4332 1.5572-2.512 3.0763-2.512s2.7852 1.0788 3.0763 2.512h1.3203v-5.0245h-5.0245v-5.024zm1.2557 1.2557h5.0245v3.7682h-5.0245zm48.612 1.0558-3.9693 3.9698 3.9693 3.9692 3.9698-3.9692zm-50.496 6.4807c-1.0408 3e-5-1.8844.84386-1.8841 1.8846 2e-5 1.0406.84357 1.8841 1.8841 1.8841 1.0406-2e-5 1.8841-.84357 1.8841-1.8841.0-1.0408-.84336-1.8846-1.8841-1.8846zm8.7928.0c-1.0408 3e-5-1.8844.84386-1.8841 1.8846 3e-5 1.0406.84357 1.8841 1.8841 1.8841 1.0406-2e-5 1.8841-.84357 1.8841-1.8841 265e-6-1.0408-.84336-1.8846-1.8841-1.8846zm-20.844 4.7692h32.709v3.9899h-32.709zm62.548 10.229 1.9487 1.9487-1.9472 1.9477-1.9487-1.9487z" color="#000" color-rendering="auto" dominant-baseline="auto" fill="url(#a)" image-rendering="auto" shape-rendering="auto" solid-color="#000000" style="font-feature-settings:normal;font-variant-alternates:normal;font-variant-caps:normal;font-variant-ligatures:normal;font-variant-numeric:normal;font-variant-position:normal;isolation:auto;mix-blend-mode:normal;shape-padding:0;text-decoration-color:#000;text-decoration-line:none;text-decoration-style:solid;text-indent:0;text-orientation:mixed;text-transform:none;white-space:normal"/></svg>