<svg xmlns="http://www.w3.org/2000/svg" width="250" height="250" viewBox="0 0 66.146 66.146"><style><![CDATA[.reportsvgb{dominant-baseline:auto}.reportsvgc{stroke-width:.902}]]></style><defs><linearGradient id="reportsvga" x1="-4.233" x2="62.045" y1="295.68" y2="234.43" gradientUnits="userSpaceOnUse"><stop stop-color="#f6aa78" offset="0"/><stop stop-color="#f57389" offset="1"/></linearGradient></defs><g transform="translate(0 -230.85)"><path fill="#678ee6" opacity=".545" d="M53.952 268.531l2.35-2.35 2.35 2.35-2.35 2.35z"/><path fill="#78e5f6" d="M37.144 242.856l2.716-2.716 2.716 2.716-2.716 2.716z"/><path transform="rotate(315)" fill="none" opacity=".798" stroke="#678ee6" d="M-187.6 198.48h2.227v2.227h-2.227z" class="reportsvgc"/><path fill="#f57389" opacity=".938" d="M36.904 289.751l2.41-2.41 2.41 2.41-2.41 2.41z"/><path fill="#678ee6" opacity=".528" d="M35.179 281.916l1.574-1.574 1.574 1.574-1.574 1.574z"/><path fill="#f6aa78" d="M30.971 236.4l1.313-1.313 1.313 1.313-1.313 1.313z"/><path d="M37.767 249.73c-7.153 0-12.975 5.821-12.975 12.974s5.822 12.973 12.975 12.973c2.358 0 4.569-.636 6.477-1.74.055.242.166.475.337.679.383.459.963.65 1.511.559l9.755 11.666a1.4 1.4 0 0 0 1.977.176l.323-.27a1.4 1.4 0 0 0 .176-1.976l-9.754-11.665c.188-.523.101-1.128-.283-1.587-.171-.205-.382-.355-.611-.452a12.91 12.91 0 0 0 3.065-8.362c0-7.153-5.819-12.974-12.972-12.974zm0 2a10.96 10.96 0 1 1 0 21.948 10.96 10.96 0 1 1 0-21.948zm-.087 1.833a9.12 9.12 0 0 0-2.278.312.75.75 0 1 0 .387 1.449 7.63 7.63 0 0 1 9.36 5.403.75.75 0 1 0 1.447-.389c-.978-3.651-4.047-6.194-7.574-6.687-.441-.062-.889-.091-1.341-.087z" fill="url(#reportsvga)" class="reportsvgb"/><path transform="rotate(315)" fill="none" opacity=".528" stroke="#005ed9" d="M-135.52 205.79h2.227v2.227h-2.227z" class="reportsvgc"/><path d="M7.797 254.802a.5.5 0 0 0-.348.857l3.052 3.054c-.163.467-.255.967-.255 1.489v.955H6.162a.5.5 0 1 0 0 1h4.084v1.219c0 .508.087.995.242 1.452l-3.038 3.041a.5.5 0 0 0 .219.847.5.5 0 0 0 .488-.14l2.788-2.79c.803 1.275 2.219 2.126 3.836 2.126a4.53 4.53 0 0 0 3.883-2.201l2.865 2.865a.5.5 0 0 0 .847-.219.5.5 0 0 0-.14-.488l-3.092-3.094a.5.5 0 0 0-.038-.035 4.53 4.53 0 0 0 .21-1.364v-1.219h4.207a.5.5 0 1 0 0-1h-4.207v-.955c0-.49-.08-.961-.224-1.404a.5.5 0 0 0 .052-.045l3.092-3.094a.5.5 0 0 0-.363-.857.5.5 0 0 0-.344.15l-2.884 2.884a4.53 4.53 0 0 0-3.864-2.17c-1.604 0-3.011.836-3.817 2.094l-2.807-2.809a.5.5 0 0 0-.359-.15zm6.984 1.865c1.967 0 3.535 1.568 3.535 3.535v3.174c0 1.967-1.568 3.535-3.535 3.535s-3.535-1.568-3.535-3.535v-3.174c0-1.967 1.568-3.535 3.535-3.535zm0 1.127a1.75 1.75 0 0 0-1.74 1.74 1.75 1.75 0 0 0 1.74 1.74 1.75 1.75 0 0 0 1.74-1.74 1.75 1.75 0 0 0-1.74-1.74zm0 1c.415 0 .741.326.741.741a.73.73 0 0 1-.741.74.73.73 0 0 1 0-1.481z" fill="#3d8fcc" class="reportsvgb"/><path d="M27.36 237.711a.5.5 0 0 0-.455.311l-.929 2.194a3.07 3.07 0 0 0-2.792-.252c-.932.378-1.575 1.166-1.814 2.072l-2.136-.904a.5.5 0 0 0-.69.36.5.5 0 0 0 .3.562l2.432 1.028c.026.297.095.596.213.886l.162.398-2.248.912a.5.5 0 0 0-.134.87.5.5 0 0 0 .51.056l2.248-.912.225.554a3.06 3.06 0 0 0 .448.763l-1.024 2.424a.5.5 0 0 0 .52.715.5.5 0 0 0 .4-.326l.897-2.117a3.07 3.07 0 0 0 4.598-1.911l2.176.919a.5.5 0 0 0 .715-.52.5.5 0 0 0-.326-.4l-2.503-1.06c-.031-.267-.095-.535-.201-.796l-.225-.554 2.319-.941a.5.5 0 0 0-.195-.965.5.5 0 0 0-.179.039l-2.32.939-.161-.397a3.06 3.06 0 0 0-.426-.732l1.063-2.513a.5.5 0 0 0-.467-.701zm-2.985 3.024c.809.009 1.561.494 1.888 1.299l.762 1.879a2.06 2.06 0 0 1-1.143 2.702 2.06 2.06 0 0 1-2.702-1.143l-.762-1.879a2.06 2.06 0 0 1 1.143-2.702 2.1 2.1 0 0 1 .814-.156zm-.177.394a1.27 1.27 0 0 0-.502.092 1.3 1.3 0 0 0-.711 1.684 1.3 1.3 0 0 0 1.682.711 1.3 1.3 0 0 0 .712-1.681c-.199-.492-.677-.797-1.18-.806zm-.011.997c.114.001.217.069.264.185.063.155-.006.316-.16.379s-.317-.006-.379-.16.005-.318.16-.381c.039-.016.078-.023.116-.023z" fill="#f57389" class="reportsvgb"/><path d="M17.217 273.551a.5.5 0 0 0-.467.654l1.089 3.495c-.303.289-.566.629-.772 1.02l-.348.663-3.042-1.598a.5.5 0 0 0-.727.324.5.5 0 0 0 .263.562l3.042 1.596-.454.865a3.95 3.95 0 0 0-.397 1.179l-3.48 1.085a.5.5 0 0 0-.194.847.5.5 0 0 0 .491.108l3.147-.98a3.96 3.96 0 0 0 5.922 3.035l1.007 3.236a.5.5 0 0 0 .85.198.5.5 0 0 0 .105-.495l-1.115-3.586c.266-.273.498-.586.684-.94l.454-.864 3.136 1.645a.5.5 0 0 0 .75-.46.5.5 0 0 0-.285-.425l-3.135-1.647.348-.662c.192-.365.32-.746.39-1.131l3.6-1.122a.5.5 0 0 0-.164-.978.5.5 0 0 0-.133.025l-3.258 1.014a3.96 3.96 0 0 0-2.102-3.161c-1.213-.637-2.606-.581-3.729.024l-.988-3.169a.5.5 0 0 0-.488-.357zm3.318 4.043c.478-.005.965.105 1.422.345a2.95 2.95 0 0 1 1.246 4.004l-1.267 2.412c-.768 1.462-2.542 2.014-4.003 1.246s-2.014-2.542-1.246-4.003l1.267-2.412c.528-1.005 1.531-1.58 2.582-1.592zm.291.899a1.57 1.57 0 0 0-1.366.835c-.399.76-.103 1.715.657 2.115s1.714.1 2.113-.659.103-1.713-.657-2.113c-.237-.125-.494-.182-.746-.178zm.064.998a.58.58 0 0 1 .217.065c.281.148.385.481.237.762a.56.56 0 1 1-.999-.525c.111-.211.326-.322.545-.302z" fill="#f6aa78" class="reportsvgb"/></g></svg>