<?xml version="1.0" encoding="UTF-8"?>
<svg width="500" height="500" version="1.1" viewBox="0 0 132.29166 132.29167" xmlns="http://www.w3.org/2000/svg" xmlns:cc="http://creativecommons.org/ns#" xmlns:dc="http://purl.org/dc/elements/1.1/" xmlns:rdf="http://www.w3.org/1999/02/22-rdf-syntax-ns#" xmlns:xlink="http://www.w3.org/1999/xlink">
<metadata>
<rdf:RDF>
<cc:Work rdf:about="">
<dc:format>image/svg+xml</dc:format>
<dc:type rdf:resource="http://purl.org/dc/dcmitype/StillImage"/>
<dc:title/>
</cc:Work>
</rdf:RDF>
</metadata>
<g transform="translate(.052289 -152.85)">
<circle cx="66.094" cy="233.86" r="41.655" fill="#fefefe"/>
<g transform="matrix(.16621 0 0 .16621 33.804 204.29)">
<g transform="translate(-104.52,-343.86)">
<path d="m294.87 344.65c-17.996 0.20347-32.918 12.382-34.164 28.452-0.13622 1.7556-0.0824 3.4723 0.1076 5.1731-5.8943-1.8879-12.254-3.1437-18.968-3.6643-29.235-2.2669-54.666 10.514-60.461 29.314-19.335 6.2616-34.682 18.44-42.247 34.056-17.17-0.89371-32.07 12.147-33.41 29.422-1.3607 17.549 11.692 32.914 29.207 34.272 5.5425 0.42975 10.9-0.64981 15.627-2.8021 13.679 14.401 34.762 24.529 58.952 26.404 21.791 1.6897 42.023-3.6569 57.335-13.579 6.0496 10.001 17.285 17.4 30.715 19.399v0.32315c0.40102-0.0393 0.78811-0.16657 1.1855-0.21555 0.40533 0.05 0.77641 0.1752 1.1855 0.21555v-0.32315c13.452-1.9886 24.659-9.3862 30.715-19.399 15.313 9.9225 35.652 15.269 57.443 13.579 24.19-1.8757 45.165-12.004 58.844-26.404 4.7276 2.1523 10.085 3.2319 15.627 2.8021 17.514-1.358 30.675-16.723 29.314-34.272-1.3395-17.275-16.24-30.316-33.41-29.422-7.5648-15.616-23.02-27.795-42.355-34.056-5.7952-18.801-31.118-31.581-60.353-29.314-6.7137 0.52058-13.074 1.7764-18.968 3.6643 0.19003-1.7008 0.24418-3.4175 0.1076-5.1731-1.246-16.07-16.276-28.249-34.272-28.452-1.1998-0.0138-2.4408 0.0138-3.6643 0.1076-0.0724 7e-3 -0.14381-7e-3 -0.21555 0-0.0717-7e-3 -0.14312 7e-3 -0.21554 0-1.2234-0.0948-2.4646-0.12174-3.6643-0.1076zm3.4487 21.555h0.53887c3.0537 0 5.8219 0.85901 7.8675 2.371 2.0456 1.512 3.341 3.6658 3.341 6.0353 0 0.6994-0.21658 1.3887-0.43109 2.0477l9.053 6.682c1.8835-1.0555 4.069-1.7244 6.5742-1.7244 3.0528 0 5.8216 0.86702 7.8674 2.371 2.0459 1.504 3.4488 3.6659 3.4488 6.0353 0 1.5593-0.75038 2.9541-1.7244 4.2032l12.717 9.2685c1.6105-0.67375 3.4198-1.0777 5.3887-1.0777 3.0537 0 5.9297 0.85898 7.9752 2.371 2.0456 1.512 3.341 3.6658 3.341 6.0353 0 1.3381-0.56249 2.5538-1.2933 3.6643l12.071 8.7296c1.6294-0.69337 3.4989-1.1855 5.4964-1.1855 3.0537 0 5.8219 0.85898 7.8675 2.371 2.0456 1.512 3.341 3.6659 3.341 6.0353 0 2.3695-1.2954 4.5233-3.341 6.0353s-4.8137 2.371-7.8675 2.371c-3.0537 0-5.8219-0.85902-7.8674-2.371s-3.4488-3.6658-3.4488-6.0353c0-1.8292 0.96593-3.4828 2.2632-4.8498l-11.316-8.2985c-1.9604 1.2374-4.4853 2.0477-7.2208 2.0477-2.494 0-4.6975-0.67813-6.5742-1.7244l-9.053 6.5742c0.78087 0.95272 1.4531 1.983 1.7244 3.1254 0.0904 0.38081 0.1076 0.78066 0.1076 1.1855 0 2.3694-1.2954 4.5233-3.341 6.0353-1.0228 0.756-2.2271 1.4284-3.5565 1.8322-0.66471 0.20175-1.3268 0.32694-2.0477 0.43109s-1.4998 0.1076-2.2632 0.1076c-2.4015 0-4.6301-0.5329-6.4664-1.5088l-12.717 9.3763c1.3108 1.1051 2.2856 2.5601 2.6943 4.0954 0.13623 0.51176 0.21555 0.96755 0.21555 1.5088 0 2.3694-1.2954 4.4155-3.341 5.9275-0.51138 0.37802-1.0217 0.77449-1.6166 1.0777-1.1898 0.60653-2.5458 1.0648-3.9876 1.2933-0.72089 0.11415-1.4998 0.1076-2.2632 0.1076-3.0537 0-5.8219-0.96675-7.8674-2.4788-1.0228-0.75603-1.8992-1.5899-2.4788-2.5866-0.28969-0.49834-0.49324-1.0679-0.64664-1.6166-0.15347-0.54866-0.21555-1.132-0.21555-1.7244 0-2.3694 1.2954-4.5233 3.341-6.0353s4.8137-2.4788 7.8674-2.4788c1.5244 0 2.983 0.33729 4.3109 0.75442l13.687-9.9152c-0.48897-0.62305-0.87667-1.2405-1.1855-1.9399-0.30901-0.69941-0.53887-1.4807-0.53887-2.2632 0-2.3695 1.2951-4.5313 3.341-6.0353 0.51145-0.37598 1.0216-0.67719 1.6166-0.96996 1.7849-0.87832 3.9613-1.401 6.2508-1.401 2.2957 0 4.3503 0.60977 6.1431 1.5088l9.2685-6.682c-0.4521-0.60405-0.89437-1.2546-1.1855-1.9399-0.29107-0.6853-0.43109-1.4053-0.43109-2.1555 0-1.8533 1.0419-3.4704 2.371-4.8498l-12.502-9.1607c-1.8254 0.95168-3.9912 1.6166-6.3586 1.6166-2.6873 0-5.0606-0.74203-7.0053-1.9399l-10.454 7.6519c0.93402 1.0087 1.6256 2.1785 1.9399 3.4487 0.10484 0.42341 0.21554 0.84567 0.21554 1.2933 0 2.3695-1.2954 4.5233-3.341 6.0353-0.51138 0.37802-1.1194 0.78459-1.7244 1.0777-1.21 0.58632-2.5256 0.97721-3.9876 1.1855-0.73099 0.10415-1.4998 0.1076-2.2632 0.1076-3.0537 0-5.8219-0.85898-7.8674-2.371-2.0456-1.512-3.341-3.6658-3.341-6.0353s1.2951-4.5313 3.341-6.0353 4.8147-2.371 7.8674-2.371c2.1046 0 4.1287 0.4214 5.8198 1.1855l10.885-7.9752c-0.73538-1.1155-1.2933-2.3231-1.2933-3.6643 0-0.36526 0.0345-0.72717 0.1076-1.0777 0.22313-1.0517 0.75704-2.029 1.401-2.9099l-8.1908-6.0353c-2.0807 1.8664-5.0747 3.1254-8.5141 3.1254-2.8633 0-5.4356-1.0253-7.4364-2.371l-8.083 5.6042c0.7142 1.1032 1.1855 2.3458 1.1855 3.6643 0 2.3695-1.2954 4.4155-3.341 5.9275s-4.8138 2.4788-7.8674 2.4788c-2.0387 0-3.9492-0.46465-5.6042-1.1855l-12.717 8.6219c1.4164 1.403 2.5866 3.0367 2.5866 4.9576 0 0.38629-0.0207 0.81611-0.1076 1.1855-0.26038 1.1082-0.89788 2.0858-1.6166 3.0176l9.2685 6.682c1.3695-0.45024 2.831-0.75442 4.4187-0.75442 3.0537 0 5.8219 0.96683 7.8675 2.4788 2.0456 1.512 3.341 3.558 3.341 5.9275s-1.2954 4.5233-3.341 6.0353-4.8137 2.4788-7.8675 2.4788c-3.0537 0-5.8296-0.96634-7.8674-2.4788s-3.341-3.667-3.341-6.0353c0-1.0858 0.24693-2.0997 0.75441-3.0176 0.25383-0.45896 0.61467-0.87836 0.96996-1.2933s0.74565-0.81604 1.1855-1.1855l-8.5141-6.2508c-1.8308 0.96448-3.9734 1.7244-6.3586 1.7244-2.9561 0-5.6309-1.0539-7.6519-2.4788l-11.855 8.1908c1.4318 1.1216 2.5557 2.5966 3.0177 4.2032 0.15381 0.53552 0.21554 1.0472 0.21554 1.6166 0 1.0297-0.41388 1.9-0.86218 2.8021l10.454 7.5441c1.4063-0.47644 2.8908-0.75441 4.5265-0.75441 3.0537 0 5.9297 0.85901 7.9752 2.371 2.0456 1.512 3.341 3.6659 3.341 6.0353 0 2.3695-1.2951 4.5313-3.341 6.0353s-4.9225 2.371-7.9752 2.371c-1.5264 0-2.9814-0.13416-4.3109-0.53887-0.66478-0.20244-1.345-0.46165-1.9399-0.75441-0.59498-0.2928-1.1052-0.70175-1.6166-1.0777-2.0459-1.504-3.341-3.6658-3.341-6.0353 0-2.1118 1.3407-3.921 3.0177-5.3887l-9.4841-6.7897c-2.0414 1.5065-4.7111 2.5866-7.7597 2.5866-3.4878 0-6.5443-1.2143-8.6219-3.1254l-11.208 7.7597c0.54266 0.64482 1.0517 1.4192 1.401 2.1555 0.17451 0.36816 0.33384 0.68654 0.43109 1.0777 0.0973 0.39119 0.1076 0.7712 0.1076 1.1855 0 2.3696-1.2951 4.5313-3.341 6.0353-0.51145 0.37598-1.0216 0.78493-1.6166 1.0777-1.19 0.58556-2.5459 0.97593-3.9876 1.1855-0.72082 0.10484-1.5001 0.1076-2.2632 0.1076-3.0528 0-5.9294-0.86702-7.9752-2.371-2.0459-1.504-3.341-3.6658-3.341-6.0353 0-2.3694 1.2954-4.5233 3.341-6.0353s4.9215-2.371 7.9752-2.371c2.1279 0 4.0053 0.51238 5.712 1.2933l12.609-8.6219c-0.17899-0.5718-0.4311-1.0906-0.4311-1.7244 0-2.3694 1.2954-4.5233 3.341-6.0353s4.8138-2.4788 7.8674-2.4788c1.3021 0 2.6024 0.22969 3.7721 0.53887l1.7244-1.2933 0.21555-0.1076 11.424-7.7597c-0.45327-0.91357-0.86219-1.8756-0.86219-2.9099 0-2.3694 1.2954-4.5233 3.341-6.0353s4.9215-2.371 7.9752-2.371c1.7331 0 3.2698 0.33073 4.742 0.86219l1.5088-0.96996 11.424-7.8675c-1.1011-1.2967-2.0477-2.7481-2.0477-4.4187 0-2.3695 1.4029-4.5314 3.4487-6.0353 2.0459-1.504 4.8147-2.371 7.8675-2.371 2.6192 0 4.9694 0.68699 6.8975 1.8321l8.2986-5.6042c-0.54221-0.98531-0.96996-2.0951-0.96996-3.2332 0-2.3694 1.2954-4.5233 3.341-6.0353 1.911-1.4126 4.6184-2.1515 7.4364-2.2632v-0.1076zm0.53887 3.5565c-2.089 0-4.0163 0.6785-5.2809 1.6166-0.95272 0.70661-1.5842 1.5096-1.8322 2.371-0.0828 0.28728-0.1076 0.5549-0.1076 0.86219 0 0.92216 0.3535 1.8026 1.0777 2.5866 0.24141 0.26141 0.54462 0.51883 0.86218 0.75441 0.94847 0.70347 2.2894 1.274 3.7721 1.5088 0.4942 0.0783 0.98658 0.1076 1.5088 0.1076 2.0892 0 3.8986-0.67599 5.1731-1.6166 1.2803-0.94499 1.9399-2.1205 1.9399-3.341 0-1.2201-0.65967-2.2884-1.9399-3.2332-1.2746-0.94075-3.0839-1.6166-5.1731-1.6166zm-25.542 15.412c-2.0901 0-4.0154 0.5766-5.2809 1.5088-0.95365 0.70265-1.5071 1.5859-1.7244 2.4788-0.0724 0.29762-0.1076 0.55487-0.1076 0.86218 0 0.92189 0.27589 1.8025 0.96996 2.5866 0.23141 0.26142 0.54462 0.51887 0.86218 0.75442 1.2646 0.93809 3.1918 1.5088 5.2809 1.5088 2.0892 0 3.8985-0.56807 5.1731-1.5088 1.2802-0.94482 1.9399-2.1207 1.9399-3.341 0-1.2202-0.6584-2.4015-1.9399-3.341-1.2755-0.93489-3.0829-1.5088-5.1731-1.5088zm51.947 0c-2.0901 0-3.9076 0.5766-5.1731 1.5088-0.95365 0.70265-1.5846 1.5859-1.8322 2.4788-0.0824 0.29762-0.1076 0.55487-0.1076 0.86218 0 0.92189 0.3535 1.8025 1.0777 2.5866 0.24142 0.26142 0.54463 0.51887 0.86219 0.75442 1.2646 0.93809 3.0841 1.5088 5.1731 1.5088 2.0892 0 4.0063-0.56807 5.2809-1.5088 1.2802-0.94482 1.9399-2.1207 1.9399-3.341 0-1.2202-0.6584-2.4015-1.9399-3.341-1.2755-0.93489-3.1906-1.5088-5.2809-1.5088zm-26.62 18.86c-2.0902 0-3.8976 0.68161-5.1731 1.6166-0.9611 0.70444-1.5869 1.5102-1.8322 2.371-0.0817 0.28694-0.1076 0.55715-0.1076 0.86219 0 0.91536 0.35208 1.8001 1.0777 2.5866 0.24176 0.2621 0.54215 0.51821 0.86219 0.75441 0.95596 0.70558 2.2143 1.2747 3.6643 1.5088 0.48334 0.0779 0.98651 0.1076 1.5088 0.1076 2.089 0 4.0163-0.67847 5.2809-1.6166 1.2703-0.94213 1.9399-2.1116 1.9399-3.341 0-1.229-0.6684-2.2965-1.9399-3.2332-1.2655-0.93236-3.1908-1.6166-5.2809-1.6166zm-52.27 1.9399c-2.0901 0-4.0154 0.68423-5.2809 1.6166-0.95365 0.70247-1.5846 1.5858-1.8322 2.4788-0.0824 0.29763-0.1076 0.55487-0.1076 0.86219 0 0.92199 0.35349 1.8329 1.0777 2.5866 0.24141 0.25141 0.54463 0.41109 0.86219 0.64664 0.94847 0.70348 2.2894 1.274 3.7721 1.5088 0.49421 0.0783 0.98655 0.1076 1.5088 0.1076 2.0892 0 3.8985-0.67589 5.1731-1.6166 1.2803-0.94499 1.9399-2.0129 1.9399-3.2332 0-1.2202-0.6584-2.4015-1.9399-3.341-1.2755-0.93489-3.0829-1.6166-5.1731-1.6166zm106.59 0c-2.0902 0-3.8976 0.68171-5.1731 1.6166-0.96113 0.70458-1.5869 1.5877-1.8322 2.4788-0.0817 0.29694-0.1076 0.55715-0.1076 0.86219 0 0.91523 0.35208 1.8304 1.0777 2.5866 0.24176 0.2521 0.54211 0.4104 0.86219 0.64664 0.95596 0.70555 2.2143 1.2746 3.6643 1.5088 0.48334 0.0779 0.98652 0.1076 1.5088 0.1076 2.089 0 4.0162-0.67865 5.2809-1.6166 1.2703-0.94216 1.9399-2.0039 1.9399-3.2332 0-1.2292-0.66843-2.4043-1.9399-3.341-1.2655-0.93241-3.1908-1.6166-5.2809-1.6166zm-25.003 17.675c-2.0901 0-4.0154 0.68424-5.2809 1.6166-0.95365 0.70262-1.5071 1.5084-1.7244 2.371-0.0724 0.28762-0.10761 0.5549-0.10761 0.86218 0 0.92199 0.2759 1.8025 0.96996 2.5866 0.23142 0.26141 0.54463 0.51882 0.86219 0.75441 0.94848 0.70347 2.2894 1.274 3.7721 1.5088 0.4942 0.0783 0.98655 0.1076 1.5088 0.1076 2.0892 0 4.0063-0.67603 5.2809-1.6166 1.2803-0.945 1.8322-2.1206 1.8322-3.341 0-1.2202-0.55063-2.2938-1.8322-3.2332-1.2755-0.93488-3.1906-1.6166-5.2809-1.6166zm-58.413 0.86219c-2.089 0-3.9085 0.67865-5.1731 1.6166-0.95272 0.70679-1.5843 1.5871-1.8322 2.4788-0.0828 0.29728-0.1076 0.55483-0.1076 0.86219 0 1.2292 0.66964 2.3988 1.9399 3.341 0.94847 0.70358 2.212 1.1966 3.6643 1.401 0.4841 0.0683 0.98658 0.1076 1.5088 0.1076 2.0892 0 4.0063-0.56807 5.2809-1.5088 1.2802-0.94482 1.9399-2.1207 1.9399-3.341s-0.65964-2.396-1.9399-3.341c-1.2746-0.94075-3.1916-1.6166-5.2809-1.6166zm111.01 1.0777c-2.0901 0-4.0154 0.68441-5.2809 1.6166-0.95365 0.70265-1.5071 1.5084-1.7244 2.371-0.0724 0.28762-0.1076 0.55494-0.1076 0.86219 0 0.92216 0.2759 1.8025 0.96996 2.5866 0.23141 0.26141 0.5446 0.51876 0.86219 0.75441 0.94844 0.70347 2.2894 1.274 3.7721 1.5088 0.4942 0.0783 0.98655 0.1076 1.5088 0.1076 2.089 0 3.9085-0.67861 5.1731-1.6166 1.2704-0.94258 1.9399-2.1114 1.9399-3.341 0-1.229-0.66841-2.2964-1.9399-3.2332-1.2655-0.93223-3.083-1.6166-5.1731-1.6166zm-161.77 0.32315c-2.089 0-3.9085 0.67847-5.1731 1.6166-0.95271 0.70662-1.5842 1.5871-1.8321 2.4788-0.0828 0.29728-0.1076 0.55487-0.1076 0.86219 0 0.92188 0.35332 1.8336 1.0777 2.5866 0.24141 0.25106 0.54432 0.41247 0.86219 0.64664 0.94909 0.6993 2.212 1.2727 3.6643 1.5088 0.4841 0.0786 0.98631 0.1076 1.5088 0.1076 2.0901 0 4.0154-0.68419 5.2809-1.6166 1.2715-0.93668 1.9399-2.004 1.9399-3.2332s-0.66964-2.3988-1.9399-3.341c-1.2646-0.93813-3.1918-1.6166-5.2809-1.6166zm-29.099 17.567c-2.0891 0-4.0162 0.67861-5.2809 1.6166-0.95268 0.70658-1.5842 1.5871-1.8322 2.4788-0.0828 0.29729-0.1076 0.55487-0.1076 0.86219 0 0.92161 0.35333 1.8335 1.0777 2.5866 0.24141 0.25107 0.54431 0.41244 0.86218 0.64664 0.94917 0.69916 2.2895 1.2727 3.7721 1.5088 0.49417 0.0786 0.98631 0.1076 1.5088 0.1076 2.09 0 3.9076-0.68437 5.1731-1.6166 1.2715-0.93685 1.9399-2.0044 1.9399-3.2332 0-1.2293-0.66968-2.3988-1.9399-3.341-1.2647-0.93799-3.0841-1.6166-5.1731-1.6166zm54.533 0.53886c-2.0891 0-3.9085 0.67848-5.1731 1.6166-0.95271 0.70662-1.5842 1.5097-1.8322 2.371-0.0828 0.28728-0.1076 0.55487-0.1076 0.86218 0 0.61467 0.21279 1.2677 0.53887 1.8322 0.16313 0.28211 0.29728 0.49334 0.53887 0.75441 0.24141 0.26107 0.54431 0.52025 0.86218 0.75442 0.94913 0.69926 2.212 1.2727 3.6643 1.5088 0.4841 0.0786 0.9863 0.1076 1.5088 0.1076 2.0902 0 4.0054-0.68161 5.2809-1.6166 1.2815-0.9393 1.9399-2.1207 1.9399-3.341 0-1.2201-0.65971-2.2884-1.9399-3.2332-1.2746-0.94078-3.1917-1.6166-5.2809-1.6166zm56.258 1.5088c-2.0902 0-3.8976 0.57394-5.1731 1.5088-0.9611 0.7044-1.5869 1.5877-1.8321 2.4788-0.0817 0.29694-0.1076 0.55718-0.1076 0.86219 0 0.91537 0.35208 1.8001 1.0777 2.5866 0.24175 0.2621 0.54211 0.51817 0.86218 0.75441 1.2746 0.94072 3.0839 1.5088 5.1731 1.5088 2.0891 0 4.0163-0.57087 5.2809-1.5088 1.2703-0.94216 1.8321-2.1116 1.8321-3.341 0-1.2288-0.56059-2.4042-1.8321-3.341-1.2655-0.93227-3.1908-1.5088-5.2809-1.5088z" fill="#afe478" fill-rule="evenodd"/>
<path transform="translate(0,308.27)" d="m242.97 155.62 29.656 23.219-26.812 0.15625-14.875-11.406-14.656-0.0937 26.375 20.688 0.3125-0.21875v0.0625l41.094-0.21875 0.8125 0.625-15.062 82.594 57.969 0.4375-16.031-82.219 1.7812-1.4062 41.125 0.21875v-0.0625l0.28125 0.21875 26.375-20.688-14.656 0.0937-14.875 11.406-26.812-0.15625 29.688-23.219-15.906 0.1875-29.094 22.688-2.0938-10.812-18.875-0.1875-1.8438 10.094-27.969-21.812-15.906-0.1875z" fill="#577632"/>
</g>
<g transform="matrix(.88882 0 0 .88882 1002.4 -402.09)" fill="#577632">
<path d="m-1032.3 754.61c-1e-4 2.1406-0.5626 3.8164-1.6875 5.0273-1.125 1.2109-2.75 1.8164-4.875 1.8164-1.1563 0-2.1719-0.14844-3.0469-0.44531-0.875-0.29688-1.5547-0.625-2.0391-0.98438v-2.6016c0.5781 0.57813 1.3438 1.043 2.2969 1.3945s1.9297 0.52734 2.9297 0.52734c1.3125 0 2.3437-0.42968 3.0937-1.2891 0.75-0.85937 1.125-2.0078 1.125-3.4453 0-1.125-0.2695-2.0742-0.8086-2.8477-0.539-0.77343-1.5664-1.6523-3.082-2.6367-1.7344-1.0937-2.918-1.9687-3.5508-2.625-0.6328-0.65623-1.125-1.3906-1.4765-2.2031-0.3516-0.81248-0.5274-1.7812-0.5274-2.9062 0-1.8281 0.6172-3.3398 1.8516-4.5352 1.2344-1.1953 2.8047-1.7929 4.7109-1.793 2.0469 3e-5 3.7578 0.4844 5.1328 1.4531l-1.1484 1.9453c-1.2813-0.85935-2.6406-1.289-4.0781-1.2891-1.3125 2e-5 -2.3594 0.38674-3.1407 1.1602-0.7812 0.77346-1.1718 1.793-1.1718 3.0586 0 1.125 0.2656 2.0664 0.7968 2.8242 0.5313 0.75783 1.6563 1.6758 3.375 2.7539 1.6875 1.1094 2.8438 1.9961 3.4688 2.6602 0.625 0.66407 1.0898 1.3984 1.3945 2.2031s0.457 1.7305 0.4571 2.7774z"/>
<path d="m-1012.9 748.21c-1e-4 4.2813-0.6758 7.5586-2.0274 9.832s-3.2852 3.4102-5.8008 3.4102c-2.4844 0-4.3867-1.1367-5.707-3.4102-1.3203-2.2734-1.9805-5.5508-1.9805-9.832 0-8.7656 2.5938-13.148 7.7813-13.148 2.4375 3e-5 4.3359 1.1485 5.6953 3.4453 1.3593 2.2969 2.039 5.5313 2.0391 9.7031zm-13.195 0c0 3.6719 0.4375 6.4453 1.3125 8.3203s2.2422 2.8125 4.1016 2.8125c3.6406 0 5.4609-3.7109 5.4609-11.133 0-7.3594-1.8203-11.039-5.4609-11.039-1.9063 2e-5 -3.2852 0.9219-4.1367 2.7656-0.8516 1.8438-1.2774 4.6016-1.2774 8.2734z"/>
<path d="m-1000.8 737.52h-3.9844v23.461h-2.2031v-23.461h-3.2344v-1.2656l3.2344-0.96094v-1.9219c0-3.2343 0.3828-5.5625 1.1484-6.9844 0.7656-1.4218 2.0938-2.1328 3.9844-2.1328 1.0937 3e-5 2.0859 0.19534 2.9766 0.58593l-0.77344 2.0625c-0.82806-0.39059-1.5781-0.5859-2.25-0.58593-0.7656 3e-5 -1.3437 0.22659-1.7344 0.67968-0.3906 0.45316-0.6797 1.1875-0.8671 2.2031-0.1876 1.0156-0.2813 2.4219-0.2813 4.2188v2.1328h3.9844z"/>
<path d="m-992 759.39c0.68749 0 1.2969-0.0937 1.8281-0.28125v1.875c-0.68751 0.3125-1.5703 0.46875-2.6484 0.46875-2.625 0-3.9375-1.9609-3.9375-5.8828v-18.047h-2.2969v-1.3125l2.25-0.65625 0.72657-6.0469h1.5469v6.0469h4.0312v1.9688h-4.0312v17.414c-1e-5 1.7188 0.18749 2.8906 0.5625 3.5156 0.37499 0.625 1.0312 0.9375 1.9688 0.9375z"/>
<path d="m-972.03 760.98-3.5156-17.227c-0.0313-0.12499-0.0586-0.2578-0.082-0.39844-0.0235-0.14061-0.26954-1.6406-0.73828-4.5h-0.0469l-0.32813 1.9922-0.53906 2.9062-3.6328 17.227h-2.6484l-5.5312-25.43h2.2266l3.1641 14.812 1.4766 7.7344h0.14062c0.28124-2.2344 0.73437-4.8281 1.3594-7.7812l3.1641-14.766h2.3438l3.1875 14.812c0.24998 1.1094 0.69529 3.6875 1.3359 7.7344h0.14062c0.0469-0.51563 0.27733-1.8125 0.69141-3.8906 0.41404-2.0781 1.7383-8.2969 3.9727-18.656h2.2031l-5.7188 25.43z"/>
<path d="m-949.98 760.98-0.28125-3.5625h-0.0937c-1.2188 2.6875-3.0625 4.0312-5.5312 4.0312-1.6563 0-2.9883-0.66016-3.9961-1.9805s-1.5117-3.0898-1.5117-5.3086c-1e-5 -2.4219 0.72655-4.3398 2.1797-5.7539 1.4531-1.414 3.4922-2.1836 6.1172-2.3086l2.7422-0.14063v-2.1094c-2e-5 -2.375-0.29689-4.1054-0.89063-5.1914-0.59376-1.0859-1.5781-1.6289-2.9531-1.6289-1.4531 3e-5 -2.9375 0.47659-4.4531 1.4297l-0.96093-1.7578c1.7656-1.0937 3.6172-1.6406 5.5547-1.6406 2.0937 3e-5 3.6016 0.66018 4.5234 1.9805 0.92186 1.3203 1.3828 3.5274 1.3828 6.6211v17.32zm-5.4141-1.4297c1.5937 0 2.832-0.78515 3.7148-2.3555 0.8828-1.5703 1.3242-3.793 1.3242-6.668v-2.6484l-2.6484 0.14062c-2.0469 0.10939-3.5664 0.67579-4.5586 1.6992-0.9922 1.0234-1.4883 2.5195-1.4883 4.4883-1e-5 1.8438 0.32812 3.1953 0.98437 4.0547 0.65624 0.85937 1.5469 1.2891 2.6719 1.2891z"/>
<path d="m-934.39 735.06c0.79686 3e-5 1.539 0.1094 2.2266 0.32813l-0.53906 2.2266c-0.56252-0.23435-1.1406-0.35154-1.7344-0.35156-0.85938 2e-5 -1.6602 0.44143-2.4023 1.3242-0.7422 0.88283-1.3242 2.1133-1.7461 3.6914-0.42188 1.5782-0.63282 3.3203-0.63281 5.2266v13.477h-2.2266v-25.43h1.8281l0.23438 4.4531h0.16406c1.1875-3.2969 2.7969-4.9453 4.8281-4.9453z"/>
<path d="m-921.1 761.45c-2.6875 0-4.7539-1.1445-6.1992-3.4336-1.4453-2.289-2.168-5.4805-2.168-9.5742 0-4.3437 0.64453-7.6601 1.9336-9.9492 1.2891-2.289 3.1445-3.4336 5.5664-3.4336 2.1094 3e-5 3.7734 1.0039 4.9922 3.0117 1.2187 2.0078 1.8281 4.7149 1.8281 8.1211v2.0625h-12.047c0.0312 3.7031 0.55468 6.4766 1.5703 8.3203 1.0156 1.8438 2.5547 2.7656 4.6172 2.7656 1.5937 0 3.2734-0.52343 5.0391-1.5703v2.1562c-1.625 1.0156-3.336 1.5234-5.1328 1.5234zm-1.0078-24.375c-3.0625 2e-5 -4.7422 3.0547-5.0391 9.1641h9.7734c-1e-5 -2.7969-0.4258-5.0234-1.2773-6.6797-0.85158-1.6562-2.0039-2.4844-3.457-2.4844z"/>
<path d="m-893.98 737.52h-3.9844v23.461h-2.2031v-23.461h-3.2344v-1.2656l3.2344-0.96094v-1.9219c-1e-5 -3.2343 0.3828-5.5625 1.1484-6.9844 0.76562-1.4218 2.0938-2.1328 3.9844-2.1328 1.0937 3e-5 2.0859 0.19534 2.9766 0.58593l-0.77344 2.0625c-0.82813-0.39059-1.5781-0.5859-2.25-0.58593-0.76563 3e-5 -1.3438 0.22659-1.7344 0.67968-0.39063 0.45316-0.6797 1.1875-0.86719 2.2031-0.18751 1.0156-0.28126 2.4219-0.28125 4.2188v2.1328h3.9844z"/>
<path d="m-882.83 735.06c0.79686 3e-5 1.539 0.1094 2.2266 0.32813l-0.53906 2.2266c-0.56252-0.23435-1.1406-0.35154-1.7344-0.35156-0.85938 2e-5 -1.6602 0.44143-2.4023 1.3242-0.7422 0.88283-1.3242 2.1133-1.7461 3.6914-0.42188 1.5782-0.63282 3.3203-0.63281 5.2266v13.477h-2.2266v-25.43h1.8281l0.23438 4.4531h0.16406c1.1875-3.2969 2.7969-4.9453 4.8281-4.9453z"/>
<path d="m-869.54 761.45c-2.6875 0-4.7539-1.1445-6.1992-3.4336-1.4453-2.289-2.168-5.4805-2.168-9.5742 0-4.3437 0.64453-7.6601 1.9336-9.9492 1.2891-2.289 3.1445-3.4336 5.5664-3.4336 2.1094 3e-5 3.7734 1.0039 4.9922 3.0117 1.2187 2.0078 1.8281 4.7149 1.8281 8.1211v2.0625h-12.047c0.0312 3.7031 0.55468 6.4766 1.5703 8.3203 1.0156 1.8438 2.5547 2.7656 4.6172 2.7656 1.5937 0 3.2734-0.52343 5.0391-1.5703v2.1562c-1.625 1.0156-3.336 1.5234-5.1328 1.5234zm-1.0078-24.375c-3.0625 2e-5 -4.7422 3.0547-5.0391 9.1641h9.7734c-1e-5 -2.7969-0.4258-5.0234-1.2773-6.6797-0.85158-1.6562-2.0039-2.4844-3.457-2.4844z"/>
<path d="m-850.7 761.45c-2.6875 0-4.7539-1.1445-6.1992-3.4336-1.4453-2.289-2.168-5.4805-2.168-9.5742 0-4.3437 0.64453-7.6601 1.9336-9.9492 1.2891-2.289 3.1445-3.4336 5.5664-3.4336 2.1094 3e-5 3.7734 1.0039 4.9922 3.0117 1.2187 2.0078 1.8281 4.7149 1.8281 8.1211v2.0625h-12.047c0.0312 3.7031 0.55468 6.4766 1.5703 8.3203 1.0156 1.8438 2.5547 2.7656 4.6172 2.7656 1.5937 0 3.2734-0.52343 5.0391-1.5703v2.1562c-1.625 1.0156-3.336 1.5234-5.1328 1.5234zm-1.0078-24.375c-3.0625 2e-5 -4.7422 3.0547-5.0391 9.1641h9.7734c-1e-5 -2.7969-0.4258-5.0234-1.2773-6.6797-0.85158-1.6562-2.0039-2.4844-3.457-2.4844z"/>
<path d="m-832.86 761.45c-4.9375 0-7.4063-4.3828-7.4062-13.148-1e-5 -4.3125 0.61718-7.5976 1.8516-9.8555 1.2344-2.2578 3.0547-3.3867 5.4609-3.3867 1.1406 3e-5 2.2226 0.32815 3.2461 0.98438 1.0234 0.65627 1.8398 1.5625 2.4492 2.7188h0.1875l-0.0937-2.8359v-11.414h2.2266v36.469h-1.8281l-0.1875-3.5625h-0.21094c-0.60939 1.2969-1.3984 2.293-2.3672 2.9883-0.96876 0.69531-2.0781 1.043-3.3281 1.043zm0.14062-1.9453c1.7812 0 3.1523-0.82422 4.1133-2.4727 0.96092-1.6484 1.4414-4.0742 1.4414-7.2773v-1.4531c-2e-5 -3.8437-0.46486-6.6601-1.3945-8.4492-0.9297-1.789-2.3477-2.6836-4.2539-2.6836-1.8281 2e-5 -3.1406 0.95705-3.9375 2.8711-0.79688 1.9141-1.1953 4.6836-1.1953 8.3086-1e-5 3.6562 0.41406 6.4297 1.2422 8.3203 0.82811 1.8906 2.1562 2.8359 3.9844 2.8359z"/>
<path d="m-803.84 748.21c-2e-5 4.2813-0.6758 7.5586-2.0273 9.832-1.3516 2.2734-3.2852 3.4102-5.8008 3.4102-2.4844 0-4.3867-1.1367-5.707-3.4102-1.3203-2.2734-1.9805-5.5508-1.9805-9.832-1e-5 -8.7656 2.5937-13.148 7.7812-13.148 2.4375 3e-5 4.3359 1.1485 5.6953 3.4453 1.3594 2.2969 2.039 5.5313 2.0391 9.7031zm-13.195 0c-1e-5 3.6719 0.43749 6.4453 1.3125 8.3203 0.87499 1.875 2.2422 2.8125 4.1016 2.8125 3.6406 0 5.4609-3.7109 5.4609-11.133-2e-5 -7.3594-1.8203-11.039-5.4609-11.039-1.9063 2e-5 -3.2852 0.9219-4.1367 2.7656-0.85157 1.8438-1.2774 4.6016-1.2773 8.2734z"/>
<path d="m-776.59 760.98v-17.32c-2e-5 -4.2656-1.25-6.3984-3.75-6.3984-1.7188 2e-5 -2.957 0.74611-3.7148 2.2383-0.75783 1.4922-1.1367 3.6914-1.1367 6.5977v14.883h-2.2031v-17.32c-2e-5 -2.1562-0.30471-3.7617-0.91407-4.8164-0.60939-1.0547-1.5547-1.582-2.8359-1.582-1.6875 2e-5 -2.9141 0.76565-3.6797 2.2969-0.76563 1.5313-1.1484 4.0156-1.1484 7.4531v13.969h-2.2266v-25.43h1.875l0.1875 3.5391h0.21094c1.0156-2.6875 2.7422-4.0312 5.1797-4.0312 1.4062 3e-5 2.5156 0.37503 3.3281 1.125 0.81248 0.75003 1.3984 1.8438 1.7578 3.2812 0.60936-1.5625 1.3594-2.6875 2.25-3.375 0.89061-0.68747 2.0468-1.0312 3.4688-1.0312 1.9218 3e-5 3.3281 0.73831 4.2188 2.2148 0.8906 1.4766 1.3359 3.8399 1.3359 7.0898v16.617z"/>
</g>
<path d="m55.917 283.81c-4.1654 3e-5 -7.2583 1.443-9.25 4.375s-2.9688 7.3677-2.9688 13.312c0 5.682 1.0533 10.006 3.1562 12.938s5.1636 4.4062 9.1875 4.4062c2.568 0 4.9081-0.68566 7.0312-2v-7.0938c-2.2041 1.4154-4.3217 2.125-6.3438 2.125-1.6985 1e-5 -2.9081-0.86489-3.6562-2.5938-0.74817-1.7288-1.125-4.3456-1.125-7.8438-1e-5 -3.579 0.36672-6.2417 1.125-8.0312 0.75826-1.7895 2-2.6875 3.7188-2.6875 1.2941 3e-5 2.7904 0.47797 4.4688 1.4688l2.3125-6.2812c-1.0919-0.68747-2.3438-1.1985-3.7188-1.5625-1.375-0.36394-2.6838-0.53122-3.9375-0.53125zm24 0c-4.125 3e-5 -7.3622 1.5414-9.6875 4.625-2.3254 3.0837-3.4688 7.364-3.4688 12.844 0 3.5588 0.52206 6.6535 1.5938 9.3125 1.0717 2.659 2.6121 4.7096 4.5938 6.125 1.9816 1.4154 4.2555 2.125 6.8438 2.125 4.0845 0 7.3106-1.5414 9.6562-4.625s3.5-7.3971 3.5-12.938c-3e-5 -5.3584-1.1756-9.6369-3.5312-12.781-2.3557-3.1443-5.5166-4.6875-9.5-4.6875zm34.469 0c-1.8199 3e-5 -3.3952 0.43294-4.75 1.3125-1.2804 0.83132-2.2795 1.97-3 3.4062v-4.1562h-7.9688v0.0625h-0.0312v33.781h8.0625v-16.219c-1e-5 -4.1048 0.40992-7.0211 1.2188-8.75 0.80881-1.7288 2.0735-2.5937 3.8125-2.5938 1.3143 3e-5 2.2573 0.62135 2.8438 1.875 0.58638 1.2537 0.87498 3.1158 0.875 5.5625v20.125h8.125v-22.031c-3e-5 -4.0441-0.75463-7.147-2.2812-9.25-1.5267-2.1029-3.8328-3.125-6.9062-3.125zm25.281 0c-3.4375 3e-5 -6.1535 0.82173-8.125 2.5-1.9715 1.6783-2.9375 3.9412-2.9375 6.8125 0 2.2445 0.53217 4.1958 1.5938 5.8438 1.0616 1.648 2.8033 3.2004 5.25 4.6562 1.8401 1.1121 3.0937 2.0754 3.7812 2.8438 0.68749 0.76839 1.0312 1.6563 1.0312 2.6875-1e-5 1.011-0.3116 1.8208-0.96875 2.4375-0.65718 0.61673-1.6213 0.93751-2.875 0.9375-1.1324 1e-5 -2.4513-0.27573-3.9375-0.78125-1.4862-0.50551-2.7629-1.1379-3.875-1.9062v7c2.1838 1.3143 4.9448 2 8.2812 2 3.761 0 6.6002-0.93107 8.5312-2.7812 1.931-1.8502 2.875-4.4228 2.875-7.7188-2e-5 -1.5165-0.22245-2.8364-0.6875-3.9688-0.46509-1.1323-1.1195-2.1415-1.9688-3.0312-0.84928-0.88969-2.3346-1.9761-4.4375-3.25-1.739-1.0514-2.9256-1.9485-3.5625-2.6562-0.63696-0.7077-0.93751-1.4963-0.9375-2.4062-1e-5 -0.78858 0.23437-1.454 0.75-2 0.51561-0.54593 1.3125-0.84372 2.3438-0.84375 1.6378 3e-5 3.5239 0.60849 5.6875 1.7812l2.6562-5.8125c-2.6489-1.5772-5.4761-2.3437-8.4688-2.3438zm25.125 0c-3.943 3e-5 -7.0147 1.5534-9.2188 4.6875-2.204 3.1342-3.2812 7.4816-3.2812 13.062 0 5.5 1.2197 9.7473 3.6562 12.75 2.4366 3.0028 5.7426 4.5312 9.9688 4.5312 3.6195 0 6.7242-0.78677 9.3125-2.3438v-6.6562c-2.75 1.6379-5.4338 2.4688-8.0625 2.4688-2.0625 1e-5 -3.671-0.75275-4.8438-2.2188-1.1728-1.466-1.7831-3.6746-1.8438-6.6875h16.219v-4.3125c-3e-5 -4.8327-1.0644-8.602-3.1875-11.281-2.1232-2.6792-5.0386-4-8.7188-4zm31.719 0c-1.3952 3e-5 -2.636 0.43386-3.6875 1.3438-1.0515 0.90996-2.0166 2.4394-2.9062 4.5625h-0.28125l-0.90625-5.2812h-6.625v33.781h8.0625v-17.375c-1e-5 -2.9522 0.51102-5.2031 1.5625-6.75 1.0514-1.5468 2.5698-2.3125 4.5312-2.3125 0.90991 3e-5 1.6526 0.0791 2.2188 0.28125l0.9375-7.8125c-0.95039-0.30327-1.9155-0.43747-2.9062-0.4375zm-31.75 6.1875c1.2334 3e-5 2.1985 0.66363 2.9062 1.9375 0.7077 1.2739 1.0845 3.1269 1.125 5.5938h-8.1875c0.12131-2.568 0.53308-4.4641 1.2812-5.6875 0.74815-1.2233 1.7224-1.8437 2.875-1.8438zm-84.906 0.71875c1.6783 3e-5 2.909 0.87595 3.6875 2.625 0.77847 1.7491 1.1562 4.3989 1.1562 7.9375-2e-5 7.1176-1.6085 10.656-4.8438 10.656-1.6985 1e-5 -2.9504-0.88786-3.7188-2.6875-0.76839-1.7996-1.125-4.4504-1.125-7.9688-1e-5 -3.5386 0.35661-6.1884 1.125-7.9375 0.76837-1.749 2.0202-2.625 3.7188-2.625z" fill="#577632"/>
<path d="m245.92 283.81c-3.943 3e-5 -7.5809 1.0331-10.938 3.1562l2.7812 5.5938c2.6287-1.5772 4.9467-2.375 6.9688-2.375 2.7298 3e-5 4.0937 1.5956 4.0938 4.75v2.4062l-4.4688 0.1875c-3.8824 0.18201-6.7987 1.1462-8.75 2.875-1.9513 1.7289-2.9375 4.3787-2.9375 7.9375 0 3.3162 0.69945 5.8897 2.125 7.75 1.4255 1.8603 3.3879 2.7812 5.875 2.7812 1.9412 0 3.5386-0.34559 4.8125-1.0938 1.2739-0.74816 2.5257-2.1121 3.7188-4.0938h0.1875l1.5938 4.5938h5.9062v-22.688c-3e-5 -3.761-0.91087-6.6663-2.7812-8.7188-1.8704-2.0524-4.6085-3.0625-8.1875-3.0625zm33.281 0.0312c-1.8199 3e-5 -3.4265 0.46419-4.7812 1.3438-1.318 0.85577-2.3378 2.0344-3.0625 3.5312v-4.2812h-7.9688v18.156h0.0312v15.688h8.0625v-16.219c-1e-5 -4.1048 0.40992-7.0211 1.2188-8.75 0.80881-1.7288 2.0735-2.5937 3.8125-2.5938 1.3143 3e-5 2.2886 0.62135 2.875 1.875 0.58638 1.2537 0.87498 3.1158 0.875 5.5625v20.125h8.125v-22.062c-3e-5 -4.0441-0.75463-7.1158-2.2812-9.2188-1.5267-2.1029-3.8328-3.1562-6.9062-3.1562zm26.812 0c-4.1654 3e-5 -7.2583 1.4743-9.25 4.4062-1.9917 2.932-2.9688 7.3677-2.9688 13.312 0 5.682 1.0533 10.006 3.1562 12.938s5.1636 4.375 9.1875 4.375c2.568 0 4.9081-0.65441 7.0312-1.9688v-7.0938c-2.2041 1.4154-4.3217 2.125-6.3438 2.125-1.6985 1e-5 -2.9081-0.86489-3.6562-2.5938-0.74817-1.7288-1.125-4.3456-1.125-7.8438-1e-5 -3.579 0.36672-6.2417 1.125-8.0312 0.75826-1.7895 2-2.6875 3.7188-2.6875 1.2941 3e-5 2.7904 0.47797 4.4688 1.4688l2.2812-6.2812c-1.0919-0.68747-2.3125-1.1985-3.6875-1.5625-1.375-0.36394-2.6838-0.56247-3.9375-0.5625zm-102.69 0.65625 8.8438 33.781h10l8.875-33.781h-8.375c-2.9522 13.447-4.5258 20.643-4.6875 21.594-0.16178 0.95038-0.31711 1.9927-0.46875 3.125-0.15167 1.1324-0.22979 1.9871-0.25 2.5938h-0.125c-0.0607-0.76837-0.21601-2.0322-0.46875-3.7812-0.25277-1.7491-0.47428-3.0588-0.65625-3.9688l-4.3125-19.562zm45.5 17.938v2.875c-2e-5 2.204-0.43292 3.9568-1.3125 5.2812-0.87961 1.3244-2.0552 2-3.5312 2-1.9816 1e-5 -2.9688-1.3971-2.9688-4.1875-1e-5 -1.8805 0.42187-3.2996 1.2812-4.25 0.85936-0.95035 2.2224-1.4926 4.0625-1.5938z" fill="#577632"/>
<g transform="matrix(1.2941,0,0,1.2941,1622.4,-844.71)" fill="#577632">
<path d="m-1008.6 872.03h6.4688l3.6093 14.742c0.35936 1.3125 0.64842 3.1484 0.86718 5.5078h0.14063c0.0156-0.37499 0.0859-1.043 0.21094-2.0039 0.12498-0.96093 0.22655-1.7148 0.30468-2.2617 0.0781-0.54687 1.1562-5.875 3.2344-15.984h6.5625l-7.4766 27.984c-0.90627 3.4375-2.1094 5.9062-3.6094 7.4062s-3.5 2.25-6 2.25c-1.2344-1e-5 -2.3359-0.13283-3.3047-0.39844v-5.2266c0.6406 0.18749 1.3594 0.28124 2.1563 0.28125 2.0937-1e-5 3.4687-1.375 4.125-4.125l0.4453-1.6406z"/>
</g>
</g>
<circle cx="66.094" cy="233.86" r="45.207" fill="none" stroke="#fefefe" stroke-dasharray="1.67832163, 5.0349649" stroke-linecap="round" stroke-linejoin="round" stroke-opacity=".26971" stroke-width="1.6783"/>
</g>
<rect transform="rotate(-45)" x="-58.117" y="71.757" width="3.0013" height="3.0013" ry="0" fill="#f57389" stroke-width="0"/>
<path d="m119.59 76.368 0.47094 0.47094 5.2909 5.2909 5.7632-5.7632-5.7618-5.7618zm1.8865-2e-6 3.8767-3.8767 3.8753 3.8753-3.8767 3.8767z" color="#000000" color-rendering="auto" dominant-baseline="auto" fill="#678ee6" image-rendering="auto" shape-rendering="auto" solid-color="#000000" style="font-feature-settings:normal;font-variant-alternates:normal;font-variant-caps:normal;font-variant-ligatures:normal;font-variant-numeric:normal;font-variant-position:normal;isolation:auto;mix-blend-mode:normal;shape-padding:0;text-decoration-color:#000000;text-decoration-line:none;text-decoration-style:solid;text-indent:0;text-orientation:mixed;text-transform:none;white-space:normal"/>
<path d="m8.5467 53.94a0.49995 0.49995 0 0 0 0 0.70448l3.0243 3.0242a0.49995 0.49995 0 0 0 0.70714 0l3.0243-3.0242a0.49995 0.49995 0 0 0 -0.0025 -0.70716l-3.0242-3.0243a0.49995 0.49995 0 0 0 -0.70453 0zm1.062 0.35228 2.3145-2.3145 2.3171 2.317-2.3145 2.3147z" color="#000000" color-rendering="auto" dominant-baseline="auto" fill="#78e5f6" image-rendering="auto" shape-rendering="auto" solid-color="#000000" style="font-feature-settings:normal;font-variant-alternates:normal;font-variant-caps:normal;font-variant-ligatures:normal;font-variant-numeric:normal;font-variant-position:normal;isolation:auto;mix-blend-mode:normal;shape-padding:0;text-decoration-color:#000000;text-decoration-line:none;text-decoration-style:solid;text-indent:0;text-orientation:mixed;text-transform:none;white-space:normal"/>
<rect transform="rotate(-45)" x="3.9729" y="154.62" width="3.0013" height="3.0013" ry="0" fill="#3d8fcc" stroke-width="0"/>
<rect transform="rotate(-45)" x="22.452" y="57.547" width="4.4143" height="4.4143" ry="0" fill="#f57389" stroke-width="0"/>
<rect transform="rotate(-45)" x="23.368" y="51.457" width="2.5826" height="2.5826" ry="0" fill="#678ee6" stroke-width="0"/>
<rect transform="rotate(-45)" x="-70.237" y="101.8" width="3.0013" height="3.0013" ry="0" fill="#f6aa78"/>
</svg>
