<svg baseProfile="tiny" id="Vulkan" xmlns="http://www.w3.org/2000/svg" xmlns:xlink="http://www.w3.org/1999/xlink" viewBox="0 0 1300 500"><g><path fill="#ac162c" d="M724.1 385.06h-40.57s0-98.97.0-129.66c12.96 7.22 30.09 20.54 40.57 33.32v96.34z"/><g><path fill="#ac162c" d="M381.75 385.06h-50.58l-66.01-204.03h46.01l45.44 143.45h.57l46-143.45h46.29L381.75 385.06z"/><path fill="#ac162c" d="M585.51 385.06h-38.58v-20.57h-.85c-5.15 8.58-11.81 14.77-20.01 18.58-8.19 3.81-16.57 5.71-25.15 5.71-10.86.0-19.76-1.43-26.72-4.28-6.95-2.85-12.43-6.91-16.43-12.14-4.01-5.24-6.82-11.62-8.44-19.15-1.61-7.52-2.42-15.86-2.42-25v-90.88h40.58v83.44c0 12.19 1.91 21.29 5.72 27.29 3.81 6.01 10.57 9 20.29 9 11.05.0 19.05-3.28 24-9.86 4.96-6.58 7.43-17.39 7.43-32.44v-77.44h40.59V385.06z"/></g><polygon fill="#ac162c" points="730.84,296.19 730.74,290.47 781.89,237.33 829.91,237.33 774.18,291.62 836.19,385.06 787.04,385.06"/><path fill="#ac162c" d="M843.62 282.76c.57-9.52 2.96-17.43 7.15-23.72 4.19-6.29 9.52-11.33 16-15.14 6.48-3.81 13.77-6.53 21.87-8.14 8.09-1.62 16.24-2.43 24.43-2.43 7.43.0 14.95.52 22.57 1.57 7.63 1.05 14.57 3.1 20.86 6.15 6.28 3.05 11.43 7.29 15.44 12.71 4 5.43 6 12.62 6 21.58v76.87c0 6.67.38 13.06 1.14 19.15.76 6.1 2.1 10.67 4.01 13.72h-41.15c-.76-2.28-1.38-4.62-1.86-7-.47-2.38-.81-4.8-1-7.29-6.48 6.68-14.11 11.34-22.87 14.01-8.76 2.66-17.72 4-26.86 4-7.05.0-13.63-.86-19.71-2.57-6.1-1.71-11.44-4.38-16-8-4.58-3.62-8.16-8.19-10.72-13.72-2.57-5.52-3.86-12.09-3.86-19.71.0-8.38 1.48-15.29 4.43-20.72 2.96-5.43 6.76-9.76 11.44-13 4.67-3.24 10-5.67 16-7.29s12.05-2.91 18.14-3.86c6.1-.94 12.1-1.71 18.01-2.28s11.14-1.43 15.71-2.57c4.58-1.15 8.19-2.81 10.86-5.01 2.67-2.19 3.91-5.38 3.72-9.57.0-4.38-.72-7.86-2.15-10.43s-3.33-4.57-5.71-6-5.14-2.38-8.29-2.86-6.52-.72-10.14-.72c-8 0-14.29 1.71-18.86 5.15-4.57 3.43-7.24 9.14-8 17.15h-40.6zm93.73 30.01c-1.72 1.53-3.86 2.71-6.43 3.57-2.57.87-5.33 1.58-8.29 2.15-2.95.57-6.05 1.05-9.28 1.43-3.24.38-6.48.85-9.72 1.43-3.05.57-6.05 1.34-9 2.28-2.95.96-5.53 2.24-7.72 3.86s-3.95 3.67-5.29 6.14c-1.33 2.48-2 5.62-2 9.43.0 3.62.67 6.67 2 9.14 1.34 2.48 3.15 4.43 5.43 5.86 2.29 1.43 4.95 2.43 8 3s6.19.85 9.43.85c8 0 14.2-1.33 18.58-3.99 4.38-2.67 7.63-5.86 9.71-9.58 2.09-3.71 3.39-7.47 3.85-11.28.48-3.81.71-6.86.72-9.14V312.77z"/><path fill="#ac162c" d="M1004.21 237.33h38.59v20.57h.85c5.14-8.57 11.81-14.81 20-18.71 8.19-3.91 16.58-5.86 25.14-5.86 10.87.0 19.77 1.48 26.73 4.43 6.95 2.96 12.42 7.05 16.43 12.29 4 5.24 6.81 11.62 8.43 19.14 1.62 7.53 2.43 15.86 2.43 25.01v90.87h-40.57v-83.44c0-12.2-1.91-21.29-5.71-27.29-3.82-6-10.58-9-20.3-9-11.05.0-19.04 3.29-24 9.86-4.96 6.56-7.43 17.38-7.43 32.43v77.44h-40.58V237.33z"/><g><path fill="#ac162c" d="M612.37 211.84v173.23h40.58V234.21C639.93 226.23 626.36 218.74 612.37 211.84z"/></g><path fill="#ac162c" d="M198.43 219.21c23.52-68.89 164.15-94.16 314.15-56.43 89.97 22.62 163.49 66.5 211.51 109.89-21.79-57.55-127.44-139.59-272.91-167.71-164.48-31.8-326.71-3.85-346.79 69.14-14.5 52.73 49.18 114.5 147.66 156.74C207.81 295.02 186.29 254.78 198.43 219.21z"/><g><path fill="#ac162c" d="M724.16 247.62v-66.59h-40.59v20.22C700.88 216.71 714.61 232.45 724.16 247.62z"/></g></g><g><path fill="#ac162c" d="M1214.98 363.43c0 12.26-9.63 21.89-22.15 21.89-12.4.0-22.29-9.63-22.29-21.89.0-12 9.89-21.63 22.29-21.63C1205.35 341.8 1214.98 351.43 1214.98 363.43zM1176.08 363.43c0 9.63 7.12 17.27 16.88 17.27 9.49.0 16.48-7.65 16.48-17.14.0-9.63-6.99-17.41-16.62-17.41C1183.2 346.16 1176.08 353.94 1176.08 363.43zM1189.39 374.77h-5.01v-21.63c1.98-.4 4.75-.66 8.31-.66 4.09.0 5.93.66 7.52 1.58 1.19.92 2.11 2.64 2.11 4.75.0 2.37-1.85 4.22-4.48 5.01v.26c2.11.79 3.3 2.37 3.96 5.27.66 3.3 1.05 4.62 1.58 5.41h-5.41c-.66-.79-1.05-2.77-1.71-5.27-.4-2.37-1.71-3.43-4.48-3.43h-2.37V374.77zM1189.53 362.51h2.37c2.77.0 5.01-.92 5.01-3.17.0-1.98-1.45-3.3-4.62-3.3-1.32.0-2.24.13-2.77.26V362.51z"/></g></svg>