<svg width="336.2" height="317.05" viewBox="0 0 315.19177 297.23015" xmlns="http://www.w3.org/2000/svg" xmlns:cc="http://creativecommons.org/ns#" xmlns:dc="http://purl.org/dc/elements/1.1/" xmlns:rdf="http://www.w3.org/1999/02/22-rdf-syntax-ns#"><defs><clipPath id="a"><path d="M0 595.276H841.89V0H0z"/></clipPath></defs><g transform="matrix(1.25 0 0 -1.25 -139.25 551.61)"><g clip-path="url(#a)"><path d="m348.13 279.27s-.36759 2.2553-.58249 2.235l-40.924-3.9485c-3.2563-.31443-5.7853-2.9113-6.0138-6.1744l-1.1243-16.114-31.66-2.2587-2.1535 14.604c-.47957 3.2484-3.3162 5.6971-6.5997 5.6971h-43.193c-3.2823.0-6.119-2.4487-6.5986-5.6971l-2.1547-14.604-31.66 2.2587-1.1243 16.114c-.22848 3.2642-2.7575 5.8611-6.0138 6.1756l-40.944 3.9474c-.21151.0204-.36646-2.2372-.57797-2.2372l-.0554-8.8562 34.676-5.5919 1.1356-16.258c.2296-3.2914 2.8853-5.9527 6.1789-6.1891l43.603-3.1104c.16514-.0113.32801-.0181.49088-.0181 3.2767.0 6.1088 2.4499 6.5884 5.6982l2.2157 15.027h31.675l2.2157-15.027c.47843-3.2473 3.314-5.6971 6.5952-5.6971.16061.0.32122.006.47844.017l43.609 3.1104c3.2925.23639 5.9493 2.8978 6.1789 6.1891l1.1344 16.258 34.661 5.6168z" fill="#fff"/><path transform="matrix(.75 0 0 -.75 105.4 447.29)" d="m141.91 8c-15.358 3.4143-30.551 8.1666-44.795 15.336.32575 12.577 1.1388 24.628 2.7871 36.869-5.5316 3.544-11.345 6.5857-16.512 10.734-5.2496 4.0386-10.612 7.9037-15.365 12.627-9.4963-6.2811-19.546-12.184-29.9-17.395-11.161 12.012-21.598 24.977-30.123 39.484 6.4138 10.376 13.11 20.101 20.34 29.33h.20117v89.039c.16287.001.32692.009.48828.0234l54.586 5.2617c2.8593.27598 5.0998 2.578 5.2988 5.4434l1.6836 24.096 47.615 3.3984 3.2793-22.24c.42526-2.8834 2.8998-5.0195 5.8164-5.0195h57.59c2.9151.0 5.3892 2.1361 5.8144 5.0195l3.2793 22.24 47.617-3.3984 1.6816-24.096c.20057-2.8653 2.4395-5.1659 5.2988-5.4434l54.564-5.2617c.16136-.0151.32346-.0218.48632-.0234v-7.1055l.0234-.008v-81.926h.20117c7.2312-9.2294 13.923-18.955 20.34-29.33-8.5221-14.508-18.964-27.473-30.125-39.484-10.351 5.2104-20.406 11.113-29.902 17.395-4.7519-4.7233-10.104-8.5883-15.361-12.627-5.1652-4.1487-10.987-7.1904-16.508-10.734 1.6438-12.241 2.4579-24.292 2.7852-36.869-14.245-7.1694-29.437-11.922-44.803-15.336-6.1348 10.311-11.745 21.475-16.631 32.391-5.794-.96819-11.615-1.3271-17.443-1.3965v-.0078c-.0407.0-.0786.0078-.11328.0078-.0361.0-.0751-.0078-.11133-.0078v.0078c-5.8393.06933-11.656.4283-17.451 1.3965-4.8831-10.915-10.489-22.08-16.633-32.391zM28.45 235.8c.02267 5.2752.08984 11.054.08984 12.205.0 51.838 65.76 76.754 147.46 77.041h.20117c81.701-.28654 147.44-25.203 147.44-77.041.0-1.1718.0716-6.9268.0957-12.205l-49.064 4.7324-1.6914 24.225c-.20359 2.9196-2.5257 5.2435-5.4453 5.4531l-58.145 4.1484c-.14176.0107-.28357.0156-.42382.0156-2.8895.0-5.3818-2.1219-5.8086-5.0234l-3.334-22.611h-47.443l-3.334 22.611c-.4479 3.0433-3.168 5.2325-6.2324 5.0078l-58.145-4.1484c-2.9196-.20961-5.2417-2.5335-5.4453-5.4531l-1.6895-24.225-49.084-4.7324z" fill="#478cbf"/><path transform="matrix(.75 0 0 -.75 105.4 447.29)" d="m98.723 138.25c-18.16.0-32.891 14.716-32.891 32.879.0 18.175 14.73 32.898 32.891 32.898 18.169.0 32.896-14.723 32.896-32.898.0-18.163-14.727-32.879-32.896-32.879zm154.76.0c-18.172.0-32.898 14.716-32.898 32.879.0 18.175 14.726 32.898 32.898 32.898 18.159.0 32.887-14.723 32.887-32.898.0-18.163-14.728-32.879-32.887-32.879zm-77.387 19.24c-5.8483.0-10.588 4.3146-10.588 9.623v30.283c0 5.3129 4.7396 9.623 10.588 9.623s10.6-4.3101 10.6-9.623v-30.283c0-5.3084-4.7513-9.623-10.6-9.623z" fill="#fff"/><path d="m170.16 301.49-7.9556 7.9555 9.2812 9.2797-9.2812 9.2812 7.9556 7.9555 9.2798-9.2797 9.2813 9.2797 7.9556-7.9555-9.2798-9.2812 9.2798-9.2797-7.9556-7.9555-9.2813 9.2812zm116.06.26514-7.9556 7.9555 9.2812 9.2797-9.2812 9.2812 7.9556 7.9555 9.2798-9.2797 9.2813 9.2797 7.9556-7.9555-9.2798-9.2812 9.2798-9.2797-7.9556-7.9555-9.2813 9.2812z" fill="#414042" stroke-width=".75"/></g></g></svg>