<svg clip-rule="evenodd" fill-rule="evenodd" stroke-linejoin="round" stroke-miterlimit="2" viewBox="0 0 576 512" xmlns="http://www.w3.org/2000/svg"><path d="m420.55 301.93c-13.166.0-24-10.834-24-24s10.834-24 24-24 24 10.834 24 24-10.834 24-24 24m-265.1.0c-13.166.0-24-10.834-24-24s10.834-24 24-24 24 10.834 24 24-10.834 24-24 24m273.7-144.48 47.94-83c1.106-1.648 1.696-3.588 1.696-5.572.0-5.486-4.514-10-10-10-3.799.0-7.284 2.165-8.966 5.572l-48.54 84.07c-78.383-35.155-168.177-35.155-246.56.0l-48.54-84.07c-1.682-3.407-5.167-5.572-8.966-5.572-5.486.0-10 4.514-10 10 0 1.984.59 3.924 1.696 5.572l47.94 83c-82.32 44.77-138.61 128.1-146.85 226.55h576c-8.24-98.45-64.54-181.78-146.85-226.55" fill-rule="nonzero"/></svg>