<svg clip-rule="evenodd" fill-rule="evenodd" stroke-linejoin="round" stroke-miterlimit="2" viewBox="0 0 765 765" xmlns="http://www.w3.org/2000/svg"><g fill-rule="nonzero" transform="matrix(.1 0 0 -.1 -49.8537 833)"><path d="m2965 8314c-481-86-868-442-990-910-44-169-47-268-42-1579 3-1204 4-1232 24-1325 111-501 467-858 973-976 66-15 150-18 691-21 560-4 618-3 633 12s16 208 16 2396c0 1622-3 2386-10 24e2-10 18-27 19-613 18-476-1-619-4-682-15zm905-374V3888l-407 5c-375 4-415 6-490 25-322 83-561 331-628 654-22 101-22 2589-1 2688 60 281 255 514 518 619 132 53 193 59 621 60z"/><path d="m3051 7329c-63-12-159-60-210-105-105-91-157-220-149-372 4-79 9-1e2 41-164 47-97 118-168 215-216 67-33 84-37 171-40 79-3 107 0 160 18 217 73 348 284 311 5e2-43 257-287 429-539 379z"/><path d="m4757 8323c-4-3-7-1087-7-2409 0-2181 1-2402 16-2408 27-10 803-6 899 4 406 46 764 293 959 660 25 47 58 126 75 175 63 188 61 138 61 1575 0 1147-2 1318-16 1391-99 521-496 914-1018 1004-70 12-178 15-526 15-240 0-440-3-443-7zm1068-2178c156-41 284-160 336-312 33-94 32-232-1-318-61-158-181-269-335-310-250-65-516 86-589 334-22 76-21 204 4 282 75 245 335 389 585 324z"/><path d="m7493 2776c-155-51-247-2e2-221-362 16-104 76-186 168-233 125-62 258-46 358 44 75 68 107 139 107 240 0 95-28 166-91 229-79 79-221 115-321 82zm177-146c60-31 93-81 98-149 6-89-32-153-111-186-134-56-286 73-248 212 16 62 43 97 93 122 54 26 117 27 168 1z"/><path d="m790 2770v-611l63 3 62 3 10 386 145-195 145-196 60 2 60 3v6e2l-62 3-63 3v-395l-147 197-148 197z"/><path d="m1790 2770v-610h130v610z"/><path d="m2375 2757c-3-7-4-143-3-302l3-290 63-3 62-3v405l3e2-404h120v610h-130l-2-192-3-192-144 192-143 192h-59c-39 0-61-4-64-13z"/><path d="m3347 2763c-4-3-7-33-7-65v-58h2e2v-480h130v480h190v130h-253c-140 0-257-3-260-7z"/><path d="m43e2 2770v-610h470v120h-350v140h320v110h-320v120l173 2 172 3 3 58 3 57z"/><path d="m5265 2757c-3-7-4-143-3-302l3-290 63-3 62-3v405l3e2-404h120v610h-130l-2-192-3-192-144 192-143 192h-59c-39 0-61-4-64-13z"/><path d="m6320 2772v-612h133c154 0 227 15 293 61 195 134 165 421-54 522-41 19-69 22-209 25zm327-151c84-39 120-146 78-235-32-66-97-96-211-96h-74v350h83c59 0 94-6 124-19z"/><path d="m6018 1889c-139-18-263-83-365-192-223-240-216-605 17-837 86-87 164-132 276-160 184-47 370-10 522 105 59 44 136 130 130 145-2 4-43 41-92 84l-88 77-27-35c-129-169-390-187-541-36-22 22-52 63-67 92-25 48-28 63-28 153 0 86 3 107 25 150 74 153 257 236 416 190 74-21 144-65 188-118l34-41 44 36c24 19 66 56 93 80l50 45-39 48c-130 158-340 240-548 214z"/><path d="m1072 1850c-238-63-361-222-308-402 38-133 164-198 499-258 225-40 291-73 291-144 0-49-29-85-92-114-54-25-66-27-202-27-161 0-224 13-343 67-37 17-69 29-71 27-12-15-107-192-104-194 10-11 170-69 236-87 110-29 345-36 465-14 224 42 335 145 345 318 8 143-32 217-155 281-88 46-164 68-358 107-169 33-217 49-252 82-31 29-31 81 1 113 72 72 330 75 530 5 33-11 63-17 67-13 7 8 79 177 79 187 0 9-153 54-239 70-116 22-296 20-389-4z"/><path d="m1924 1843c3-10 73-259 156-553s153-543 156-552c5-16 21-18 144-18h139l11 38c99 358 199 694 204 682 3-8 50-172 104-365l98-350 280-6 159 558c87 307 160 564 163 571 3 9-25 12-122 12h-125l-14-47c-8-27-56-207-107-4e2-52-194-96-353-1e2-353-3 0-50 152-104 338-54 185-107 365-118 4e2l-19 63-204-6-117-4e2c-64-220-117-402-118-405s-46 159-99 360c-54 201-104 384-110 408l-12 42h-125c-115 0-125-1-120-17z"/><path d="m3820 1861V720h260l-2 568-3 567-127 3z"/><path d="m4350 1860v-250h360V720h250v890l178 2 177 3v240l-482 3z"/><path d="m6860 1860V720h240v450h530V720h240l-2 568-3 567-117 3-118 3v-451h-530v450z"/></g></svg>