<svg clip-rule="evenodd" fill-rule="evenodd" stroke-linejoin="round" stroke-miterlimit="2" viewBox="0 0 777 778" xmlns="http://www.w3.org/2000/svg"><path d="m388.456 0c-75.983 0-120.59 46.353-128.991 108.855-8.401 62.503 5.125 73.956-15.915 137.96-21.04 64.003-115.369 173.72-113.164 274.952.687 31.517 4.317 58.806 10.64 82.652 7.752-12.845 19.238-21.897 27.609-25.763 6.535-3.017 9.694-4.467 11.167-5.012.214-1.619 1.043-5.305 2.55-12.574 2.071-9.981 10.008-25.611 23.565-35.874-.138-3.11-.288-6.187-.352-9.408-1.566-78.518 79.586-163.583 94.523-213.227 14.937-49.642 8.439-54.755 10.903-67.089s11.977-26.702 25.675-38.161c1.305-1.092 2.576-1.57 3.869-1.583 12.489-.118 24.987 45.349 49.152 45.371 24.165.029 36.736-55.424 50.647-43.788 13.699 11.459 23.211 25.827 25.675 38.161s-4.034 17.447 10.903 67.089c14.937 49.644 96.001 134.708 94.435 213.227-.065 3.191-.217 6.238-.352 9.32 13.618 10.262 21.578 25.956 23.653 35.962 1.507 7.269 2.336 10.955 2.55 12.574 1.469.544 4.641 2.079 11.167 5.1 8.374 3.878 19.791 12.913 27.521 25.763 6.341-23.871 10.04-51.178 10.728-82.74 2.205-101.232-92.212-210.949-113.252-274.952-21.04-64.004-7.426-75.457-15.827-137.96-8.401-62.502-53.096-108.855-129.079-108.855zm-149.302 541.814c-3.263.189-6.868 1.067-10.903 2.726-25.827 10.622-14.481 32.999-25.763 47.13s-33.935 7.324-41.063 36.226c-7.127 28.902 102.438 170.804 161.349 146.577 58.91-24.228 37.005-202.186 11.606-217.711-25.398-15.524-36.643 5.271-54.603 3.166-15.154-1.777-23.005-19.132-40.623-18.114zm296.758 0c-16.296.282-24.184 16.403-38.776 18.114-17.96 2.105-29.205-18.69-54.604-3.166-25.399 15.525-47.304 193.483 11.607 217.711 58.91 24.227 168.476-117.675 161.348-146.577s-29.693-22.095-40.975-36.226.065-36.508-25.762-47.13c-4.843-1.991-9.077-2.79-12.838-2.726zm-150.621 174.01c-1.288 8.317-3.016 16.479-5.276 24.357-3.684 12.84-9.061 25.707-17.058 36.666 8.288.514 16.783.581 25.499.174 8.716.406 17.208.339 25.499-.174-7.997-10.959-13.374-23.826-17.058-36.666-2.26-7.878-3.988-16.04-5.275-24.357-1.055.028-2.101.088-3.166.088s-2.11-.068-3.165-.088z" fill-rule="nonzero"/></svg>
