<svg id="playstation-platform-icon" xmlns="http://www.w3.org/2000/svg" preserveAspectRatio="xMidYMid meet" viewBox="0 0 20.8 20.8"><path d="M7.778 9.859l.003 7.497 1.692.537 1.692.537.005-6.381.024-6.47a1.23 1.23 0 0 1 .081-.27c.117-.259.317-.366.562-.297.358.099.564.359.64.809.035.209.038.423.038 2.967v2.531l.1.047a4.18 4.18 0 0 0 .734.256c1.415.333 2.466-.343 2.819-1.812.099-.412.14-.856.127-1.397-.017-.76-.101-1.342-.268-1.852-.264-.81-.741-1.434-1.483-1.938-.632-.429-1.362-.755-2.543-1.134L8.051 2.41l-.255-.047c-.02 0-.02.137-.018 7.496zm-2.471 2.202l-2.423.861-1.177.43c-.598.243-1.11.518-1.384.745-.1.083-.19.195-.245.306a.61.61 0 0 0-.077.363.54.54 0 0 0 .037.218c.06.165.184.335.348.479.227.199.632.406 1.027.528l.289.089c1.692.532 3.432.653 5.181.359l.236-.04.003-.885-.007-.885a14.64 14.64 0 0 0-.386.138l-1.817.602c-.623.112-1.284.08-1.608-.078-.191-.092-.246-.195-.173-.322.054-.095.19-.194.368-.269l1.848-.666 1.774-.638c.002-.002.003-.449.002-.992l-.003-.988zm9.826.22c-.995.055-2.127.265-3.071.569l-.25.081v1.023l.011 1.023c.009 0 .368-.126 2.501-.878l1.382-.473c.769-.202 1.731-.153 2.007.101.08.074.098.141.058.22-.049.097-.152.179-.327.262a32.14 32.14 0 0 1-1.081.398l-1.908.68-2.624.935c-.018.007-.019.064-.019.995l.019.981 6.375-2.29 1.219-.449c.45-.193.863-.45 1.088-.673.208-.206.295-.389.295-.614 0-.24-.089-.423-.311-.635-.189-.183-.527-.383-.877-.519l-.956-.327c-.695-.204-1.402-.326-2.291-.396a28.63 28.63 0 0 0-1.24-.014z"/></svg>