<svg width="17" height="17" viewBox="0 0 17 17" fill="none" xmlns="http://www.w3.org/2000/svg"><g clip-path="url(#clip0_4_75)"><path d="M3.64046.0563435C1.94742.359048.585252 1.6121.155834 3.25938 961702e-9 3.85423-.00959776 4.20269.00800134 8.81718.0185608 13.055.0220806 13.1536.092477 13.4809c.3907 1.7635 1.643753 3.02 3.424783 3.4354C3.74957 16.9691 4.04524 16.9796 5.94946 16.9902 7.92056 17.0043 8.12471 17.0008 8.1775 16.948 8.2303 16.8952 8.23382 16.2158 8.23382 8.51447 8.23382 2.80532 8.22326.11618 8.19862.0669029 8.16343.00354617 8.10359.263527e-4 6.04097.00354617 4.36554.00706599 3.86221.0176255 3.64046.0563435zM6.82589 1.37276V15.6351L5.39333 15.6175C4.07339 15.6034 3.9326 15.5964 3.66862 15.5295 2.53523 15.2373 1.694 14.3644 1.45817 13.2275 1.38073 12.872 1.38073 4.1147 1.45465 3.76623c.21119-.98906.89755-1.80918 1.82326-2.17876.46462-.18656.67933-.20767 2.18581-.21119L6.82589 1.37276z" fill="#000"/><path d="M3.9432 3.52333C3.72145 3.56557 3.38355 3.73452 3.20403 3.89292c-.36958.3203-.55261.77436-.52445 1.30937C2.69366 5.48036 2.71126 5.55427 2.82389 5.77954c.16544.34142.41534.59133.75677.76028.23582.11616.29566.13023.60188.14079C4.46061 6.69117 4.55917 6.68061 4.74572 6.61726c.7638-.25695 1.22489-.99963 1.09466-1.75991-.15135-.9046-1.01019-1.51001-1.89718-1.33402z" fill="#000"/><path d="M9.94798.024635C9.9339.0351944 9.92334 3.85068 9.92334 8.50388 9.92334 16.1806 9.92686 16.9585 9.97966 16.9796 10.0747 17.0148 12.8061 17.0007 13.144 16.9655 14.573 16.8036 15.8331 15.9342 16.5195 14.6425 16.6075 14.477 16.7236 14.199 16.7835 14.0265 17.0052 13.3648 16.9982 13.5407 16.9982 8.48276 16.9982 4.44553 16.9911 3.84364 16.9419 3.58669 16.5934 1.75287 15.196.369577 13.3587.0527935 13.1123.0105557 12.7322-.378079e-5 11.5073-.378079e-5 10.6625-.378079e-5 9.95854.0105557 9.94798.024635zM13.7071 7.6908C14.2562 7.83512 14.7068 8.25398 14.8898 8.78899 15.006 9.11985 15.0024 9.60559 14.8863 9.90829 14.6716 10.4644 14.2492 10.8551 13.7071 10.9994 12.8272 11.2282 11.8909 10.6967 11.634 9.82382 11.5565 9.55631 11.5601 9.10577 11.6481 8.83123 11.912 7.96887 12.8272 7.46202 13.7071 7.6908z" fill="#000"/></g><defs><clipPath id="clip0_4_75"><rect width="17" height="17" fill="#fff"/></clipPath></defs></svg>