<svg width="17" height="17" viewBox="0 0 17 17" fill="none" xmlns="http://www.w3.org/2000/svg"> <g clip-path="url(#clip0_4_75)"> <path d="M3.64046 0.0563435C1.94742 0.359048 0.585252 1.6121 0.155834 3.25938C0.000961702 3.85423 -0.00959776 4.20269 0.00800134 8.81718C0.0185608 13.055 0.0220806 13.1536 0.092477 13.4809C0.483177 15.2444 1.73623 16.5009 3.51726 16.9163C3.74957 16.9691 4.04524 16.9796 5.94946 16.9902C7.92056 17.0043 8.12471 17.0008 8.1775 16.948C8.2303 16.8952 8.23382 16.2158 8.23382 8.51447C8.23382 2.80532 8.22326 0.11618 8.19862 0.0669029C8.16343 0.00354617 8.10359 2.63527e-05 6.04097 0.00354617C4.36554 0.00706599 3.86221 0.0176255 3.64046 0.0563435ZM6.82589 1.37276V15.6351L5.39333 15.6175C4.07339 15.6034 3.9326 15.5964 3.66862 15.5295C2.53523 15.2373 1.694 14.3644 1.45817 13.2275C1.38073 12.872 1.38073 4.1147 1.45465 3.76623C1.66584 2.77717 2.3522 1.95705 3.27791 1.58747C3.74253 1.40091 3.95724 1.3798 5.46372 1.37628L6.82589 1.37276Z" fill="black"/> <path d="M3.9432 3.52333C3.72145 3.56557 3.38355 3.73452 3.20403 3.89292C2.83445 4.21322 2.65142 4.66728 2.67958 5.20229C2.69366 5.48036 2.71126 5.55427 2.82389 5.77954C2.98933 6.12096 3.23923 6.37087 3.58066 6.53982C3.81648 6.65598 3.87632 6.67005 4.18254 6.68061C4.46061 6.69117 4.55917 6.68061 4.74572 6.61726C5.50952 6.36031 5.97061 5.61763 5.84038 4.85735C5.68903 3.95275 4.83019 3.34734 3.9432 3.52333Z" fill="black"/> <path d="M9.94798 0.024635C9.9339 0.0351944 9.92334 3.85068 9.92334 8.50388C9.92334 16.1806 9.92686 16.9585 9.97966 16.9796C10.0747 17.0148 12.8061 17.0007 13.144 16.9655C14.573 16.8036 15.8331 15.9342 16.5195 14.6425C16.6075 14.477 16.7236 14.199 16.7835 14.0265C17.0052 13.3648 16.9982 13.5407 16.9982 8.48276C16.9982 4.44553 16.9911 3.84364 16.9419 3.58669C16.5934 1.75287 15.196 0.369577 13.3587 0.0527935C13.1123 0.0105557 12.7322 -3.78079e-06 11.5073 -3.78079e-06C10.6625 -3.78079e-06 9.95854 0.0105557 9.94798 0.024635ZM13.7071 7.6908C14.2562 7.83512 14.7068 8.25398 14.8898 8.78899C15.006 9.11985 15.0024 9.60559 14.8863 9.90829C14.6716 10.4644 14.2492 10.8551 13.7071 10.9994C12.8272 11.2282 11.8909 10.6967 11.634 9.82382C11.5565 9.55631 11.5601 9.10577 11.6481 8.83123C11.912 7.96887 12.8272 7.46202 13.7071 7.6908Z" fill="black"/> </g> <defs> <clipPath id="clip0_4_75"> <rect width="17" height="17" fill="white"/> </clipPath> </defs> </svg>