<svg id="templates-platform-icon" xmlns="http://www.w3.org/2000/svg" clip-rule="evenodd" fill-rule="evenodd" stroke-linejoin="round" stroke-miterlimit="2" viewBox="0 0 1024 1024"><path d="M417.615 76.875c-42.392 9.424-84.327 22.545-123.643 42.334.899 34.716 3.144 67.98 7.693 101.768-15.268 9.782-31.315 18.178-45.576 29.629-14.49 11.147-29.29 21.812-42.41 34.85-26.212-17.337-53.955-33.63-82.535-48.012-30.807 33.155-59.613 68.94-83.145 108.984 18.493 29.029 38.329 58.206 56.699 80.959V625.17v25.121 22.861a16.05 16.05 0 0 1 1.344.063l150.67 14.527c7.892.762 14.077 7.114 14.627 15.023l4.646 66.51 131.43 9.379 9.055-61.387c1.174-7.959 8-13.857 16.051-13.857h158.961c8.046 0 14.873 5.899 16.047 13.857l9.055 61.387 131.434-9.379 4.643-66.51a16.23 16.23 0 0 1 14.627-15.023l150.611-14.527c.445-.042.89-.058 1.34-.062v-19.611l.063-.02V427.387c21.216-26.709 41.307-56.171 56.699-80.959-23.523-40.044-52.345-75.829-83.152-108.984-28.572 14.382-56.325 30.674-82.537 48.012-13.116-13.037-27.89-23.702-42.4-34.85-14.257-11.451-30.323-19.847-45.562-29.629 4.537-33.788 6.78-67.051 7.684-101.768-39.32-19.789-81.249-32.91-123.662-42.334-16.933 28.46-32.419 59.279-45.906 89.408-15.993-2.672-32.06-3.662-48.148-3.854v-.025c-.112 0-.217.025-.312.025s-.205-.025-.305-.025v.025c-16.118.191-32.171 1.181-48.168 3.854-13.479-30.129-28.956-60.948-45.914-89.408zM298.416 436.398c50.151 0 90.799 40.617 90.799 90.752 0 50.168-40.648 90.809-90.799 90.809-50.126 0-90.787-40.641-90.787-90.809 0-50.134 40.661-90.752 90.787-90.752zm427.178 0c50.122 0 90.779 40.617 90.779 90.752 0 50.168-40.657 90.809-90.779 90.809-50.159 0-90.807-40.641-90.807-90.809 0-50.134 40.647-90.752 90.807-90.752zm-213.6 53.109c16.143 0 29.254 11.908 29.254 26.561v83.59c0 14.665-13.111 26.563-29.254 26.563s-29.227-11.898-29.227-26.562v-83.59c0-14.652 13.084-26.561 29.227-26.561z"/><path d="M784.071 718.723l-4.666 66.864a16.23 16.23 0 0 1-15.031 15.052L603.884 812.09l-1.17.042a16.23 16.23 0 0 1-16.034-13.861l-9.204-62.414H446.525l-9.204 62.414c-1.236 8.4-8.746 14.44-17.204 13.82l-160.489-11.451a16.23 16.23 0 0 1-15.031-15.052l-4.666-66.864-135.481-13.062.25 33.688c0 143.086 181.511 211.86 407.024 212.651h.275.279c225.514-.791 406.962-69.566 406.962-212.651l.262-33.688z" fill="#010102"/><path d="M367.367 532.537c0 33.276-26.97 60.245-60.27 60.245-33.284 0-60.27-26.97-60.27-60.245s26.986-60.27 60.27-60.27c33.301 0 60.27 26.995 60.27 60.27m289.274 0c0 33.276 26.961 60.245 60.237 60.245 33.309 0 60.27-26.97 60.27-60.245s-26.961-60.27-60.27-60.27c-33.276 0-60.237 26.995-60.237 60.27"/></svg>