<svg width="17" height="9" viewBox="0 0 17 9" fill="none" xmlns="http://www.w3.org/2000/svg">
<path d="M2.33523 0.272727L4.4446 6.90341H4.52557L6.6392 0.272727H8.68466L5.67614 9H3.2983L0.285511 0.272727H2.33523ZM9.73509 9V0.272727H13.1783C13.8374 0.272727 14.3999 0.390625 14.8658 0.62642C15.3345 0.859375 15.6911 1.19034 15.9354 1.61932C16.1825 2.04545 16.3061 2.54687 16.3061 3.12358C16.3061 3.70312 16.1811 4.2017 15.9311 4.61932C15.6811 5.03409 15.3189 5.35227 14.8445 5.57386C14.3729 5.79545 13.8018 5.90625 13.1314 5.90625H10.826V4.4233H12.8331C13.1854 4.4233 13.478 4.375 13.7109 4.27841C13.9439 4.18182 14.1172 4.03693 14.2308 3.84375C14.3473 3.65057 14.4055 3.41051 14.4055 3.12358C14.4055 2.83381 14.3473 2.58949 14.2308 2.39062C14.1172 2.19176 13.9425 2.04119 13.7067 1.93892C13.4737 1.83381 13.1797 1.78125 12.8246 1.78125H11.5803V9H9.73509ZM14.4482 5.02841L16.6172 9H14.5803L12.4581 5.02841H14.4482Z" fill="black"/>
</svg>
