<svg width="17" height="9" viewBox="0 0 17 9" fill="none" xmlns="http://www.w3.org/2000/svg"><path d="M2.33523.272727 4.4446 6.90341H4.52557L6.6392.272727H8.68466L5.67614 9H3.2983L.285511.272727H2.33523zM9.73509 9V.272727H13.1783C13.8374.272727 14.3999.390625 14.8658.62642c.4687.232955.8253.56392 1.0696.9929C16.1825 2.04545 16.3061 2.54687 16.3061 3.12358c0 .57954-.125 1.07812-.375 1.49574-.25.41477-.612200000000001.73295-1.0866.95454-.4716.22159-1.0427.33239-1.7131.33239H10.826V4.4233h2.0071C13.1854 4.4233 13.478 4.375 13.7109 4.27841 13.9439 4.18182 14.1172 4.03693 14.2308 3.84375c.1165-.19318.1747-.43324.1747-.72017.0-.28977-.0581999999999994-.53409-.1747-.73296C14.1172 2.19176 13.9425 2.04119 13.7067 1.93892 13.4737 1.83381 13.1797 1.78125 12.8246 1.78125H11.5803V9H9.73509zM14.4482 5.02841 16.6172 9H14.5803L12.4581 5.02841h1.9901z" fill="#000"/></svg>