<svg width="18" height="18" viewBox="0 0 18 18" fill="none" xmlns="http://www.w3.org/2000/svg"><g clip-path="url(#clip0_4_70)"><path d="M9.00003 7.28874C11.6046 9.26906 16.0173 14.1338 14.6827 15.5114c-1.5283 1.3345-3.5086 2.131-5.68267 2.131C6.82598 17.6424 4.82413 16.8459 3.31737 15.5114 1.96128 14.1338 6.39548 9.26906 8.9785 7.31027 8.9785 7.28874 9.00003 7.28874 9.00003 7.28874zM13.4988 1.6276C12.1858.831168 10.7436.357613 9.00003.357613c-1.74354.0-3.18573.473555-4.49877 1.269987C4.47973 1.6276 4.47973 1.64913 4.47973 1.67065 4.47973 1.69218 4.50126 1.69218 4.52278 1.69218 6.20175 1.32625 8.74173 2.76844 8.9785 2.91912H9.00003 9.02156C9.25833 2.76844 11.7983 1.32625 13.4773 1.69218 13.4988 1.69218 13.5203 1.69218 13.5203 1.67065c0-.02152.0-.04305-.0215000000000014-.04305zM2.95144 2.83302C2.92991 2.83302 2.92991 2.85454 2.90839 2.85454 1.33704 4.42588.368408 6.59993.368408 8.98923c0 1.95877.667282 3.78847 1.765072 5.23067C2.13348 14.2414 2.155 14.2414 2.17653 14.2414 2.19805 14.2414 2.19805 14.2199 2.17653 14.1983c-.66728-2.0449 2.71218-6.97414 4.45572-9.04056L6.65378 5.13622C6.65378 5.11469 6.65378 5.11469 6.63225 5.11469 3.98465 2.48861 3.10211 2.76844 2.95144 2.83302zM11.3678 5.09317 11.3463 5.11469S11.3463 5.13622 11.3678 5.13622c1.7436 2.06642 5.1015 6.99568 4.4557 9.04058V14.2199C15.8451 14.2199 15.8666 14.2199 15.8666 14.1983c1.0978-1.4421 1.7651-3.2718 1.7651-5.23059C17.6317 6.57841 16.663 4.40436 15.0701 2.83302 15.0486 2.81149 15.0486 2.81149 15.0271 2.81149 14.8979 2.76844 14.0154 2.48861 11.3678 5.09317z" fill="#000"/></g><defs><clipPath id="clip0_4_70"><rect width="18" height="18" fill="#fff"/></clipPath></defs></svg>