<svg width="18" height="18" viewBox="0 0 18 18" fill="none" xmlns="http://www.w3.org/2000/svg"> <g clip-path="url(#clip0_4_70)"> <path d="M9.00003 7.28874C11.6046 9.26906 16.0173 14.1338 14.6827 15.5114C13.1544 16.8459 11.1741 17.6424 9.00003 17.6424C6.82598 17.6424 4.82413 16.8459 3.31737 15.5114C1.96128 14.1338 6.39548 9.26906 8.9785 7.31027C8.9785 7.28874 9.00003 7.28874 9.00003 7.28874ZM13.4988 1.6276C12.1858 0.831168 10.7436 0.357613 9.00003 0.357613C7.25649 0.357613 5.8143 0.831168 4.50126 1.6276C4.47973 1.6276 4.47973 1.64913 4.47973 1.67065C4.47973 1.69218 4.50126 1.69218 4.52278 1.69218C6.20175 1.32625 8.74173 2.76844 8.9785 2.91912H9.00003H9.02156C9.25833 2.76844 11.7983 1.32625 13.4773 1.69218C13.4988 1.69218 13.5203 1.69218 13.5203 1.67065C13.5203 1.64913 13.5203 1.6276 13.4988 1.6276ZM2.95144 2.83302C2.92991 2.83302 2.92991 2.85454 2.90839 2.85454C1.33704 4.42588 0.368408 6.59993 0.368408 8.98923C0.368408 10.948 1.03569 12.7777 2.13348 14.2199C2.13348 14.2414 2.155 14.2414 2.17653 14.2414C2.19805 14.2414 2.19805 14.2199 2.17653 14.1983C1.50925 12.1534 4.88871 7.22416 6.63225 5.15774L6.65378 5.13622C6.65378 5.11469 6.65378 5.11469 6.63225 5.11469C3.98465 2.48861 3.10211 2.76844 2.95144 2.83302ZM11.3678 5.09317L11.3463 5.11469C11.3463 5.11469 11.3463 5.13622 11.3678 5.13622C13.1114 7.20264 16.4693 12.1319 15.8235 14.1768V14.2199C15.8451 14.2199 15.8666 14.2199 15.8666 14.1983C16.9644 12.7562 17.6317 10.9265 17.6317 8.96771C17.6317 6.57841 16.663 4.40436 15.0701 2.83302C15.0486 2.81149 15.0486 2.81149 15.0271 2.81149C14.8979 2.76844 14.0154 2.48861 11.3678 5.09317Z" fill="black"/> </g> <defs> <clipPath id="clip0_4_70"> <rect width="18" height="18" fill="white"/> </clipPath> </defs> </svg>