<?xml version="1.0" encoding="UTF-8"?>
<svg width="24" height="24" version="1.1" viewBox="0 0 6.3499998 6.3499998" xmlns="http://www.w3.org/2000/svg" xmlns:cc="http://creativecommons.org/ns#" xmlns:dc="http://purl.org/dc/elements/1.1/" xmlns:rdf="http://www.w3.org/1999/02/22-rdf-syntax-ns#">
<metadata>
<rdf:RDF>
<cc:Work rdf:about="">
<dc:format>image/svg+xml</dc:format>
<dc:type rdf:resource="http://purl.org/dc/dcmitype/StillImage"/>
<dc:title/>
</cc:Work>
</rdf:RDF>
</metadata>
<g transform="translate(0,-290.65)">
<g transform="matrix(.52381 0 0 .52381 .26458 290.91)" fill="#333f67">
<g fill="#333f67">
<path d="m5.5562 0c-1.3151 0-2.3812 1.0661-2.3812 2.3812v1.6597h-3.175v5.4841c0 0.87948 0.70802 1.5875 1.5875 1.5875h7.9375c0.87948 0 1.5875-0.70802 1.5875-1.5875v-5.4841h-3.175v-1.6597c0-1.3151-1.0661-2.3812-2.3812-2.3812zm0 1.5875c0.43838 0 0.79375 0.35538 0.79375 0.79375v1.6597h-1.5875v-1.6597c0-0.43837 0.35537-0.79375 0.79375-0.79375z" fill="#333f67"/>
</g>
</g>
</g>
</svg>
