<svg height="24" viewBox="0 0 6.3499998 6.3499998" width="24" xmlns="http://www.w3.org/2000/svg"><path d="m6.3438 4.3418c-.51123 0-1.0223.19616-1.4141.58789-.78346.78346-.78346 2.0447 0 2.8281l4.2422 4.2422-4.2422 4.2422c-.78346.78346-.78346 2.0447 0 2.8281.78346.78346 2.0447.78346 2.8281 0l4.2422-4.2422 4.2422 4.2422c.78346.78346 2.0447.78346 2.8281 0 .78346-.78346.78346-2.0447 0-2.8281l-4.2422-4.2422 4.2422-4.2422c.78346-.78346.78346-2.0447 0-2.8281-.78346-.78346-2.0447-.78346-2.8281 0l-4.2422 4.2422-4.2422-4.2422c-.39173-.39173-.90283-.58789-1.4141-.58789z" fill="#333f67" transform="scale(.26458)"/></svg>