<?xml version="1.0" encoding="UTF-8"?>
<svg width="24" height="24" version="1.1" viewBox="0 0 6.3499998 6.3499998" xmlns="http://www.w3.org/2000/svg" xmlns:cc="http://creativecommons.org/ns#" xmlns:dc="http://purl.org/dc/elements/1.1/" xmlns:rdf="http://www.w3.org/1999/02/22-rdf-syntax-ns#">
<metadata>
<rdf:RDF>
<cc:Work rdf:about="">
<dc:format>image/svg+xml</dc:format>
<dc:type rdf:resource="http://purl.org/dc/dcmitype/StillImage"/>
<dc:title/>
</cc:Work>
</rdf:RDF>
</metadata>
<g transform="translate(0,-290.65)">
<path transform="matrix(.26458 0 0 .26458 0 290.65)" d="m6.3438 4.3418c-0.51123 0-1.0223 0.19616-1.4141 0.58789-0.78346 0.78346-0.78346 2.0447 0 2.8281l4.2422 4.2422-4.2422 4.2422c-0.78346 0.78346-0.78346 2.0447 0 2.8281 0.78346 0.78346 2.0447 0.78346 2.8281 0l4.2422-4.2422 4.2422 4.2422c0.78346 0.78346 2.0447 0.78346 2.8281 0 0.78346-0.78346 0.78346-2.0447 0-2.8281l-4.2422-4.2422 4.2422-4.2422c0.78346-0.78346 0.78346-2.0447 0-2.8281-0.78346-0.78346-2.0447-0.78346-2.8281 0l-4.2422 4.2422-4.2422-4.2422c-0.39173-0.39173-0.90283-0.58789-1.4141-0.58789z" fill="#333f67"/>
</g>
</svg>
