<svg height="32" viewBox="0 0 8.4666668 8.4666665" width="32" xmlns="http://www.w3.org/2000/svg"><path d="m110.24 93.978c-2.1539.000092-3.8999 1.7461-3.9 3.9.00009 2.1539 1.7461 3.8999 3.9 3.9 2.1542.00034 3.9007-1.7458 3.9008-3.9-.0001-2.1542-1.7466-3.9003-3.9008-3.9zm.4656 1.3658h.68147v.8713h-.42088c-.32503 0-.34656.12615-.34656.35281l-.00091.4388h.78623l-.0912.8713h-.71815v2.5333h-1.0289v-2.5333h-.47552v-.8713h.47552v-.52027c0-.70871.30429-1.1426 1.139-1.1426z" fill="#a9b3d4" stroke-width=".35456" transform="translate(-106 -93.645)"/></svg>