<svg height="32" viewBox="0 0 8.4666668 8.4666665" width="32" xmlns="http://www.w3.org/2000/svg"><path d="m110.24 93.978a3.9002 3.9002 0 0 0 -3.9 3.9 3.9002 3.9002 0 0 0 3.9 3.9 3.9002 3.9002 0 0 0 3.9-3.9 3.9002 3.9002 0 0 0 -3.9-3.9zm1.0907 1.867c-.0196.08023-.0754.14417-.18525.18525.11081-.04252.22287-.07837.33923-.09948.10786-.01955.10678.06596.0458.1091-.12385.08737-.25574.09746-.38494.13952.39614.0093.71975.19801.97279.60709.0841.13595.1406.27194.15395.42104.16897.04749.337.05727.50684.02731.0465-.0078.0902-.01769.13144-.03693-.066.09901-.14184.1805-.24861.21734-.10196.03523-.20406.06999-.31678.07294.18342.06937.38528.07294.59266.05851-.25372.24419-.44751.23867-.64238.23578-.0855.36082-.26055.72031-.62955 1.0498-.48408.43224-1.0054.63813-1.5438.68328-.50476.04221-.99265.03678-1.5254-.21252-.39494-.1848-.72614-.43938-.9824-.79235.34643.32039 1.2361.62376 1.96-.08582-.13021.02033-.23828-.0047-.3208-.08582-.0784-.0776-.0827-.15794-.041-.23097.0341-.05944.10584-.10165.17644-.1451-.12803.0239-.23762.01086-.33523-.03849-.13098-.06704-.25861-.13688-.29432-.28229.0802-.08427.16962-.15992.36249-.13145-.18143-.06052-.34418-.13983-.46194-.25824-.11468-.11531-.12601-.19026-.14433-.28068.1001-.03709.20461-.05587.3168-.04485-.2537-.12974-.36145-.30848-.42105-.50284-.018-.05882-.0213-.11438-.014-.17163 1.0275.38786 1.5083.66646 1.774.92788.1195-.31803.39819-1.0383.8148-1.2856.002.03926-.014.08132-.0448.12664.12338-.06875.21927-.17861.38896-.17644z" fill="#a9b3d4" stroke-width=".35456" transform="translate(-106 -93.645)"/></svg>