<?xml version="1.0" encoding="UTF-8"?>
<svg width="32" height="32" version="1.1" viewBox="0 0 8.4666668 8.4666665" xmlns="http://www.w3.org/2000/svg" xmlns:cc="http://creativecommons.org/ns#" xmlns:dc="http://purl.org/dc/elements/1.1/" xmlns:rdf="http://www.w3.org/1999/02/22-rdf-syntax-ns#">
<metadata>
<rdf:RDF>
<cc:Work rdf:about="">
<dc:format>image/svg+xml</dc:format>
<dc:type rdf:resource="http://purl.org/dc/dcmitype/StillImage"/>
<dc:title/>
</cc:Work>
</rdf:RDF>
</metadata>
<g transform="translate(-106 -93.645)">
<path d="m110.24 93.978a3.9002 3.9002 0 0 0 -3.9 3.9 3.9002 3.9002 0 0 0 3.9 3.9 3.9002 3.9002 0 0 0 3.9 -3.9 3.9002 3.9002 0 0 0 -3.9 -3.9zm1.0907 1.867c-0.0196 0.08023-0.0754 0.14417-0.18525 0.18525 0.11081-0.04252 0.22287-0.07837 0.33923-0.09948 0.10786-0.01955 0.10678 0.06596 0.0458 0.1091-0.12385 0.08737-0.25574 0.09746-0.38494 0.13952 0.39614 0.0093 0.71975 0.19801 0.97279 0.60709 0.0841 0.13595 0.1406 0.27194 0.15395 0.42104 0.16897 0.04749 0.337 0.05727 0.50684 0.02731 0.0465-0.0078 0.0902-0.01769 0.13144-0.03693-0.066 0.09901-0.14184 0.1805-0.24861 0.21734-0.10196 0.03523-0.20406 0.06999-0.31678 0.07294 0.18342 0.06937 0.38528 0.07294 0.59266 0.05851-0.25372 0.24419-0.44751 0.23867-0.64238 0.23578-0.0855 0.36082-0.26055 0.72031-0.62955 1.0498-0.48408 0.43224-1.0054 0.63813-1.5438 0.68328-0.50476 0.04221-0.99265 0.03678-1.5254-0.21252-0.39494-0.1848-0.72614-0.43938-0.9824-0.79235 0.34643 0.32039 1.2361 0.62376 1.96-0.08582-0.13021 0.02033-0.23828-0.0047-0.3208-0.08582-0.0784-0.0776-0.0827-0.15794-0.041-0.23097 0.0341-0.05944 0.10584-0.10165 0.17644-0.1451-0.12803 0.0239-0.23762 0.01086-0.33523-0.03849-0.13098-0.06704-0.25861-0.13688-0.29432-0.28229 0.0802-0.08427 0.16962-0.15992 0.36249-0.13145-0.18143-0.06052-0.34418-0.13983-0.46194-0.25824-0.11468-0.11531-0.12601-0.19026-0.14433-0.28068 0.1001-0.03709 0.20461-0.05587 0.3168-0.04485-0.2537-0.12974-0.36145-0.30848-0.42105-0.50284-0.018-0.05882-0.0213-0.11438-0.014-0.17163 1.0275 0.38786 1.5083 0.66646 1.774 0.92788 0.1195-0.31803 0.39819-1.0383 0.8148-1.2856 2e-3 0.03926-0.014 0.08132-0.0448 0.12664 0.12338-0.06875 0.21927-0.17861 0.38896-0.17644z" fill="#a9b3d4" stroke-width=".35456"/>
</g>
</svg>
