<svg width="1500" height="1000" viewBox="0 0 1500 1000" fill="none" xmlns="http://www.w3.org/2000/svg">
<g clip-path="url(#clip0_95_1219)">
<rect width="1500" height="1000" fill="url(#paint0_radial_95_1219)"/>
<circle cx="750" cy="1008" r="301" stroke="white" stroke-opacity="0.2" stroke-width="2" stroke-dasharray="20 20"/>
<circle cx="750" cy="1008" r="436" stroke="white" stroke-opacity="0.2" stroke-width="2" stroke-dasharray="20 20"/>
<circle cx="750" cy="1008" r="581" stroke="white" stroke-opacity="0.2" stroke-width="2" stroke-dasharray="20 20"/>
<circle cx="750" cy="1008" r="728" stroke="white" stroke-opacity="0.2" stroke-width="2" stroke-dasharray="20 20"/>
<circle cx="750" cy="1008" r="866" stroke="white" stroke-opacity="0.2" stroke-width="2" stroke-dasharray="20 20"/>
<circle cx="750" cy="1008" r="994" stroke="white" stroke-opacity="0.2" stroke-width="2" stroke-dasharray="20 20"/>
<path d="M308.5 692.5L524.5 835.363M354.5 378.5L606.147 758.5M656.5 527.5L699.19 728.5M874.5 267L795.478 728.5M1085 490L899.9 762.5M1054.5 789L981 835.363" stroke="url(#paint1_linear_95_1219)" stroke-width="10" stroke-linecap="round"/>
<path d="M367.028 206.756C365.695 207.795 342.174 221.125 342.174 250.766C342.174 285.05 372.104 297.178 373 297.479C372.862 298.218 368.245 314.089 357.22 330.261C347.388 344.492 337.121 358.7 321.501 358.7C305.881 358.7 301.861 349.574 283.83 349.574C266.258 349.574 260.01 359 245.722 359C231.435 359 221.466 345.832 210.004 329.66C196.727 310.67 186 281.168 186 253.168C186 208.257 215.034 184.439 243.609 184.439C258.792 184.439 271.449 194.465 280.982 194.465C290.055 194.465 304.204 183.838 321.478 183.838C328.024 183.838 351.546 184.439 367.028 206.756ZM313.278 164.825C320.421 156.3 325.475 144.472 325.475 132.644C325.475 131.003 325.337 129.34 325.038 128C313.415 128.439 299.587 135.785 291.249 145.512C284.703 152.997 278.593 164.825 278.593 176.815C278.593 178.617 278.891 180.419 279.029 180.997C279.764 181.135 280.959 181.297 282.153 181.297C292.582 181.297 305.697 174.274 313.278 164.825Z" fill="white"/>
<path d="M787 65.1973L873.882 53.225V137.173H787V65.1973ZM787 218.803L873.882 230.775V147.868H787V218.803ZM883.441 232.053L999 248V147.868H883.441V232.053ZM883.441 51.9473V137.173H999V36L883.441 51.9473Z" fill="white"/>
<path d="M1246.1 427.05C1239.58 424.372 1236.79 420.818 1237.06 415.515C1237.34 409.325 1233.83 404.791 1232.17 403C1233.18 399.151 1236.11 385.837 1232.17 374.272C1227.94 361.894 1215.01 342.988 1201.68 324.405C1196.22 316.773 1195.96 308.477 1195.66 298.871C1195.38 289.709 1195.05 279.324 1189.96 267.779C1184.41 255.208 1173.29 248 1159.44 248C1151.21 248 1142.75 250.581 1136.24 255.08C1122.92 264.3 1124.68 284.4 1125.84 297.7C1126 299.521 1126.15 301.242 1126.24 302.711C1127.02 315.737 1126.31 322.602 1125.39 324.689C1124.79 326.053 1121.85 329.934 1118.74 334.043C1115.52 338.292 1111.87 343.109 1108.88 347.598C1105.31 352.999 1102.43 361.254 1099.64 369.237C1097.6 375.079 1095.68 380.597 1093.8 383.895C1090.25 390.238 1091.13 396.153 1091.87 398.887C1090.53 399.824 1088.58 401.668 1086.94 405.144C1084.96 409.384 1080.94 411.663 1072.57 413.276C1068.73 414.064 1066.08 415.684 1064.69 418.091C1062.67 421.594 1063.77 425.995 1064.77 429.003C1066.26 433.425 1065.33 436.224 1063.66 441.306C1063.27 442.478 1062.83 443.806 1062.39 445.271C1061.69 447.582 1061.94 449.683 1063.13 451.516C1066.29 456.357 1075.51 458.064 1085 459.188C1090.67 459.862 1096.87 462.133 1102.87 464.331C1108.74 466.484 1114.82 468.71 1120.34 469.386C1121.18 469.492 1122.02 469.545 1122.82 469.545C1131.16 469.545 1134.93 463.998 1136.12 461.719C1139.12 461.106 1149.45 459.144 1160.1 458.88C1170.73 458.576 1181.01 460.681 1183.93 461.335C1184.85 463.093 1187.26 467.107 1191.11 469.176C1193.23 470.335 1196.17 471 1199.19 471C1199.19 471 1199.19 471 1199.19 471C1202.41 471 1208.54 470.237 1213.39 465.122C1218.22 459.984 1230.31 453.424 1239.14 448.634C1241.11 447.565 1242.95 446.565 1244.56 445.662C1249.52 442.907 1252.23 438.97 1251.99 434.862C1251.78 431.45 1249.53 428.456 1246.1 427.05ZM1136.35 426.061C1135.73 421.704 1130.14 417.382 1123.66 412.378C1118.37 408.285 1112.37 403.648 1110.71 399.72C1107.3 391.617 1109.99 377.37 1114.69 370.034C1117.01 366.36 1118.9 360.79 1120.74 355.403C1122.72 349.586 1124.76 343.571 1127.05 340.938C1130.68 336.828 1134.03 328.83 1134.62 322.526C1138.02 325.776 1143.29 329.899 1148.15 329.899C1148.9 329.899 1149.63 329.801 1150.32 329.604C1153.65 328.64 1158.55 325.804 1163.28 323.062C1167.37 320.698 1172.4 317.782 1174.3 317.517C1177.54 322.191 1196.42 364.058 1198.35 377.503C1199.87 388.141 1198.26 396.936 1197.45 400.38C1196.8 400.291 1196.02 400.219 1195.2 400.219C1189.95 400.219 1188.55 403.095 1188.19 404.812C1187.26 409.275 1187.16 423.543 1187.15 426.749C1185.25 429.17 1175.64 440.57 1161.84 442.62C1156.21 443.438 1150.96 443.854 1146.23 443.854C1142.19 443.854 1139.61 443.541 1138.54 443.378L1131.6 435.424C1134.34 434.07 1137.07 431.214 1136.35 426.061ZM1145.15 294.903C1144.93 294.996 1144.72 295.096 1144.51 295.203C1144.49 294.732 1144.44 294.255 1144.37 293.776C1143.61 289.407 1140.72 286.236 1137.5 286.236C1137.26 286.236 1137.02 286.255 1136.75 286.295C1134.84 286.615 1133.33 288.059 1132.51 290.106C1133.23 285.614 1135.77 282.288 1138.78 282.288C1142.32 282.288 1145.31 287.067 1145.31 292.723C1145.31 293.436 1145.26 294.145 1145.15 294.903ZM1172.64 298.271C1172.96 297.237 1173.14 296.119 1173.14 294.958C1173.14 289.829 1169.89 285.812 1165.75 285.812C1161.7 285.812 1158.4 289.914 1158.4 294.958C1158.4 295.301 1158.42 295.646 1158.45 295.989C1158.24 295.907 1158.03 295.826 1157.82 295.749C1157.36 294.334 1157.12 292.858 1157.12 291.351C1157.12 285.219 1161.03 280.229 1165.84 280.229C1170.65 280.229 1174.56 285.219 1174.56 291.351C1174.56 293.902 1173.85 296.336 1172.64 298.271ZM1169.09 310.206C1169.03 310.516 1168.88 310.654 1167.25 311.504C1166.43 311.933 1165.4 312.467 1164.12 313.249L1163.26 313.769C1159.82 315.86 1151.76 320.758 1149.58 321.046C1148.09 321.246 1147.17 320.669 1145.11 319.261C1144.64 318.943 1144.14 318.605 1143.62 318.265C1139.89 315.815 1137.49 313.116 1137.22 312.061C1138.44 311.12 1141.45 308.765 1142.99 307.371C1146.12 304.455 1149.27 302.496 1150.82 302.496C1150.91 302.496 1150.98 302.502 1151.06 302.516C1152.89 302.84 1157.4 304.647 1160.7 305.966C1162.23 306.576 1163.54 307.102 1164.47 307.435C1167.39 308.44 1168.91 309.725 1169.09 310.206ZM1195.32 446.471C1196.96 439.027 1198.86 428.901 1198.55 422.931C1198.48 421.575 1198.36 420.099 1198.24 418.671C1198.03 416.003 1197.71 412.036 1198.04 410.86C1198.1 410.829 1198.18 410.803 1198.26 410.78C1198.27 414.193 1199.01 421.001 1204.44 423.375C1206.06 424.083 1207.91 424.441 1209.94 424.441C1215.38 424.441 1221.42 421.766 1223.89 419.287C1225.35 417.828 1226.57 416.042 1227.43 414.628C1227.62 415.179 1227.73 415.898 1227.67 416.825C1227.35 421.859 1229.79 428.538 1234.43 430.999L1235.11 431.355C1236.76 432.225 1241.16 434.537 1241.23 435.634C1241.23 435.635 1241.19 435.764 1240.95 435.992C1239.84 437 1235.97 438.983 1232.22 440.901C1225.58 444.302 1218.05 448.157 1214.66 451.724C1209.9 456.748 1204.51 460.123 1201.26 460.123C1200.87 460.123 1200.51 460.074 1200.19 459.973C1196.66 458.869 1193.75 453.759 1195.32 446.471ZM1074.88 427.481C1074.52 425.791 1074.24 424.456 1074.54 423.164C1074.76 422.206 1079.48 421.179 1081.5 420.741C1084.33 420.125 1087.26 419.488 1089.17 418.323C1091.76 416.75 1093.17 413.849 1094.4 411.29C1095.3 409.44 1096.22 407.526 1097.32 406.898C1097.39 406.862 1097.48 406.819 1097.66 406.819C1099.72 406.819 1104.05 411.165 1106.54 415.054C1107.18 416.034 1108.35 417.999 1109.7 420.273C1113.76 427.072 1119.31 436.383 1122.2 439.503C1124.82 442.309 1129.05 447.703 1128.01 452.329C1127.24 455.918 1123.19 458.837 1122.23 459.482C1121.89 459.561 1121.46 459.601 1120.95 459.601C1115.4 459.601 1104.42 454.975 1098.52 452.489L1097.65 452.121C1094.35 450.736 1088.97 449.864 1083.77 449.02C1079.63 448.348 1073.97 447.429 1073.03 446.599C1072.27 445.742 1073.15 442.959 1073.93 440.503C1074.49 438.738 1075.07 436.913 1075.39 435.002C1075.84 431.955 1075.31 429.474 1074.88 427.481Z" fill="white"/>
<circle cx="656.337" cy="932.505" r="25.122" fill="white"/>
<circle cx="847.174" cy="932.505" r="25.122" fill="white"/>
<path d="M707.69 738C688.687 742.23 669.888 748.12 652.263 757.003C652.666 772.585 653.672 787.516 655.712 802.682C648.868 807.073 641.674 810.841 635.281 815.981C628.786 820.985 622.151 825.771 616.269 831.623C604.519 823.841 592.084 816.527 579.272 810.072C565.462 824.954 552.548 841.017 542 858.991C550.29 872.021 559.182 885.116 567.416 895.329V984.105V995.382V1005.64C567.618 1005.65 567.821 1005.65 568.02 1005.67L635.562 1012.19C639.1 1012.53 641.872 1015.39 642.118 1018.94L644.201 1048.79L703.118 1053L707.175 1025.45C707.701 1021.87 710.763 1019.22 714.372 1019.22H785.63C789.237 1019.22 792.299 1021.87 792.825 1025.45L796.882 1053L855.801 1048.79L857.882 1018.94C858.13 1015.39 860.9 1012.54 864.438 1012.19L931.953 1005.67C932.153 1005.65 932.353 1005.65 932.555 1005.64V996.841L932.584 996.834V895.329C942.095 883.341 951.1 870.117 958 858.991C947.455 841.017 934.535 824.954 920.725 810.072C907.917 816.527 895.476 823.841 883.726 831.623C877.846 825.771 871.223 820.985 864.719 815.981C858.328 810.841 851.124 807.073 844.293 802.682C846.327 787.516 847.334 772.585 847.739 757.003C830.113 748.12 811.315 742.23 792.303 738C784.712 750.774 777.771 764.609 771.725 778.133C764.556 776.933 757.353 776.488 750.141 776.403V776.39C750.091 776.39 750.044 776.403 750.001 776.403C749.956 776.403 749.908 776.39 749.863 776.39V776.403C742.638 776.488 735.441 776.933 728.27 778.133C722.228 764.609 715.292 750.774 707.69 738ZM654.255 899.375C676.736 899.375 694.959 917.607 694.959 940.111C694.959 962.629 676.736 980.87 654.255 980.87C631.784 980.87 613.558 962.629 613.558 940.111C613.558 917.607 631.784 899.375 654.255 899.375ZM845.75 899.375C868.219 899.375 886.442 917.607 886.442 940.111C886.442 962.629 868.219 980.87 845.75 980.87C823.265 980.87 805.044 962.629 805.044 940.111C805.044 917.607 823.265 899.375 845.75 899.375ZM749.996 923.213C757.233 923.213 763.112 928.559 763.112 935.135V972.655C763.112 979.237 757.233 984.577 749.996 984.577C742.76 984.577 736.896 979.237 736.896 972.655V935.135C736.896 928.559 742.76 923.213 749.996 923.213Z" fill="white"/>
<path fill-rule="evenodd" clip-rule="evenodd" d="M1136.67 689.286H1149.23C1153 689.286 1155.93 686.355 1155.93 682.587V676.306H1162.21C1165.98 676.306 1168.91 673.375 1168.91 669.607V656.627C1168.91 653.277 1165.98 650.346 1162.21 650.346H1155.93V644.065C1155.93 640.297 1153 637.366 1149.23 637.366H1136.67C1132.9 637.366 1129.97 640.297 1129.97 644.065V650.346H1123.69C1119.92 650.346 1116.99 653.277 1116.99 656.627V669.607C1116.99 673.375 1119.92 676.306 1123.69 676.306H1129.97V682.587C1129.97 686.355 1132.9 689.286 1136.67 689.286ZM1216.64 627.317C1266.05 605.124 1287.82 615.593 1302.06 661.651H1302.05L1319.64 758.375C1323.41 778.89 1297.02 787.264 1283.21 771.773L1253.06 745.813C1234.64 729.901 1163.46 729.901 1144.62 745.813L1115.31 771.355C1099.81 786.428 1074.27 779.311 1078.46 758.375L1096.04 661.651C1111.12 612.661 1134.57 606.38 1181.46 627.317C1192.77 632.341 1205.33 632.341 1216.64 627.317ZM1180.63 708.965C1178.53 708.965 1176.86 710.64 1176.86 712.733C1176.86 714.826 1178.53 716.501 1180.63 716.501H1189.42C1191.51 716.501 1193.19 714.826 1193.19 712.733C1193.19 710.64 1191.51 708.965 1189.42 708.965H1180.63ZM1208.68 708.965C1206.59 708.965 1204.49 710.64 1204.49 712.733C1204.49 714.826 1206.59 716.501 1208.68 716.501H1217.06C1219.57 716.501 1221.24 714.826 1221.24 712.733C1221.24 710.64 1219.57 708.965 1217.06 708.965H1208.68ZM1263.54 663.325C1263.54 667.932 1267.72 671.699 1272.33 671.699C1276.93 671.699 1281.12 667.932 1281.12 663.325C1281.12 658.721 1276.93 654.533 1272.33 654.533C1267.72 654.533 1263.54 658.719 1263.54 663.325ZM1229.2 663.325C1229.2 667.932 1232.97 671.699 1237.99 671.699C1242.6 671.699 1246.37 667.932 1246.37 663.325C1246.37 658.721 1242.6 654.533 1237.99 654.533C1232.97 654.533 1229.2 658.719 1229.2 663.325ZM1246.37 680.494C1246.37 685.098 1250.14 689.286 1255.16 689.286C1259.77 689.286 1263.54 685.1 1263.54 680.494C1263.54 675.89 1259.77 671.702 1255.16 671.702C1250.14 671.702 1246.37 675.888 1246.37 680.494ZM1246.37 646.16C1246.37 650.766 1250.14 654.534 1255.16 654.534C1259.77 654.534 1263.54 650.766 1263.54 646.16C1263.54 641.135 1259.77 637.368 1255.16 637.368C1250.14 637.368 1246.37 641.135 1246.37 646.16ZM1147.13 680.49H1138.76V674.209C1138.76 670.441 1135.83 667.51 1132.06 667.51H1125.78V659.136H1132.06C1135.83 659.136 1138.76 656.204 1138.76 652.437V646.155H1147.13V652.437C1147.13 656.204 1150.07 659.136 1153.83 659.136H1160.11V667.51H1153.83C1150.07 667.51 1147.13 670.441 1147.13 674.209V680.49Z" fill="white"/>
<path d="M623.829 300C571.731 300 529.053 340.506 525 391.979L578.153 414.139C582.656 411.03 588.101 409.219 593.952 409.219C594.48 409.219 595.001 409.234 595.514 409.262L619.155 374.709V374.225C619.155 353.433 635.931 336.513 656.553 336.513C677.175 336.513 693.951 353.433 693.951 374.225C693.951 395.016 677.175 411.943 656.553 411.943C656.267 411.943 655.989 411.936 655.704 411.929L621.988 436.178C622.009 436.627 622.023 437.077 622.023 437.519C622.023 453.134 609.429 465.832 593.952 465.832C580.366 465.832 568.998 456.05 566.43 443.102L528.411 427.251C540.185 469.226 578.432 500 623.829 500C678.602 500 723 455.223 723 400C723 344.77 678.602 300 623.829 300ZM587.147 451.733L574.967 446.657C577.122 451.191 580.861 454.985 585.82 457.067C596.538 461.573 608.897 456.446 613.364 445.63C615.526 440.396 615.54 434.621 613.399 429.373C611.259 424.125 607.213 420.033 602.025 417.851C596.866 415.691 591.343 415.769 586.491 417.616L599.078 422.863C606.984 426.186 610.723 435.341 607.427 443.313C604.137 451.284 595.054 455.056 587.147 451.733ZM681.473 374.225C681.473 360.371 670.292 349.092 656.556 349.092C642.812 349.092 631.631 360.371 631.631 374.225C631.631 388.079 642.812 399.352 656.556 399.352C670.292 399.352 681.473 388.079 681.473 374.225ZM637.875 374.183C637.875 363.758 646.259 355.309 656.591 355.309C666.931 355.309 675.315 363.758 675.315 374.183C675.315 384.607 666.931 393.056 656.591 393.056C646.259 393.056 637.875 384.607 637.875 374.183Z" fill="white"/>
<path d="M261.606 634.717C256.407 634.717 252.178 630.482 252.178 625.28C252.178 620.077 256.407 615.846 261.606 615.846C266.805 615.846 271.034 620.077 271.034 625.28C271.034 630.482 266.805 634.717 261.606 634.717ZM157.394 634.717C152.195 634.717 147.966 630.482 147.966 625.28C147.966 620.077 152.195 615.846 157.394 615.846C162.593 615.846 166.822 620.077 166.822 625.28C166.822 630.482 162.593 634.717 157.394 634.717ZM264.988 577.886L283.831 545.229C284.911 543.352 284.269 540.954 282.396 539.87C280.523 538.79 278.124 539.433 277.041 541.307L257.962 574.376C243.371 567.714 226.985 564.002 209.5 564.002C192.015 564.002 175.628 567.714 161.038 574.376L141.959 541.307C140.876 539.433 138.477 538.79 136.604 539.87C134.731 540.954 134.086 543.352 135.169 545.229L154.012 577.886C121.656 595.495 99.5255 628.274 96.288 667H322.712C319.472 628.274 297.341 595.495 264.988 577.886Z" fill="white"/>
</g>
<defs>
<radialGradient id="paint0_radial_95_1219" cx="0" cy="0" r="1" gradientUnits="userSpaceOnUse" gradientTransform="translate(750 1000) rotate(-90) scale(980.5 1470.75)">
<stop stop-color="#333F67"/>
<stop offset="1" stop-color="#478CBF"/>
</radialGradient>
<linearGradient id="paint1_linear_95_1219" x1="1103" y1="708.5" x2="417" y2="694" gradientUnits="userSpaceOnUse">
<stop offset="0.000573281" stop-color="#F57389"/>
<stop offset="0.505208" stop-color="#A880E9"/>
<stop offset="0.984752" stop-color="#78E5F6"/>
</linearGradient>
<clipPath id="clip0_95_1219">
<rect width="1500" height="1000" fill="white"/>
</clipPath>
</defs>
</svg>
