<svg height="500" viewBox="0 0 132.29166 132.29167" width="500" xmlns="http://www.w3.org/2000/svg" xmlns:xlink="http://www.w3.org/1999/xlink"><linearGradient id="a" gradientUnits="userSpaceOnUse" x1="28.383299" x2="103.903746" y1="258.292206" y2="185.211062"><stop offset="0" stop-color="#78e5f6"/><stop offset="1" stop-color="#f57389"/></linearGradient><g transform="translate(0 -164.71)"><rect fill="#333667" height="132.29" ry=".93543" width="132.29" y="164.71"/><path d="m66.146 185.18c-18.189 0-33.811 12.985-37.126 30.867-3.3148 17.882 6.6138 35.609 23.595 42.127a1.5104 1.5104 0 0 0 1.9516-.86865l8.4771-22.091a1.5104 1.5104 0 0 0 -.86866-1.9506c-4.9927-1.9168-7.8953-7.1-6.9206-12.357.97472-5.2573 5.5426-9.0539 10.891-9.0539 5.3482 0 9.9151 3.7966 10.89 9.0539.97474 5.2574-1.9279 10.441-6.9206 12.357a1.5104 1.5104 0 0 0 -.86866 1.9506l8.4771 22.091a1.5104 1.5104 0 0 0 1.9516.86865c16.982-6.5179 26.91-24.245 23.595-42.127-3.3148-17.882-18.936-30.867-37.125-30.867zm0 3.0202c16.753 0 31.101 11.927 34.154 28.397 2.9604 15.97-5.544 31.737-20.322 38.154l-7.42-19.333c5.4751-2.8124 8.5898-8.8966 7.4468-15.062-1.2366-6.67-7.0755-11.523-13.859-11.523s-12.624 4.8531-13.86 11.523c-1.1431 6.1653 1.9716 12.249 7.4468 15.062l-7.42 19.332c-14.777-6.417-23.282-22.183-20.322-38.153 3.0529-16.47 17.402-28.397 34.155-28.397z" fill="url(#a)"/><path d="m-65.619 208.11h4.4573v4.4573h-4.4573z" fill="#f57389" transform="matrix(.70710678 -.70710678 .70710678 .70710678 0 0)"/><path d="m-133.88 160.96h3.5765v3.5765h-3.5765z" fill="#78e5f6" transform="matrix(.70710678 -.70710678 .70710678 .70710678 0 0)"/><path d="m54.766 177.88.31902.31902 1.8934 1.8934 2.2125-2.2125-2.2125-2.2125zm1.2761-.00001.93636-.93636.93636.93636-.93636.93637z" fill="#eff1f5"/><g transform="matrix(.70710678 -.70710678 .70710678 .70710678 0 0)"><path d="m-162.14 193.2h4.5417v4.5417h-4.5417z" fill="#3d8fcc"/><path d="m-64.674 199.44h2.2265v2.2265h-2.2265z" fill="#f6aa78"/><path d="m-98.051 252.75h2.0026v2.0026h-2.0026z" fill="#3d8fcc"/></g><path d="m112.31 225.75.41441.4144 2.4595 2.4595 2.8739-2.8739-2.8739-2.8739zm1.6576-.00001 1.2163-1.2163 1.2163 1.2163-1.2163 1.2163z" fill="#67e6bb"/><path d="m-154.22 227.25h2.9454v2.9454h-2.9454z" fill="#f57389" transform="matrix(.70710678 -.70710678 .70710678 .70710678 0 0)"/></g></svg>