<?xml version="1.0" encoding="UTF-8"?>
<svg width="500" height="500" version="1.1" viewBox="0 0 132.29166 132.29167" xmlns="http://www.w3.org/2000/svg" xmlns:cc="http://creativecommons.org/ns#" xmlns:dc="http://purl.org/dc/elements/1.1/" xmlns:rdf="http://www.w3.org/1999/02/22-rdf-syntax-ns#" xmlns:xlink="http://www.w3.org/1999/xlink">
<defs>
<linearGradient id="a" x1="-25.6" x2="500" y1="516.95" y2="279.79" gradientUnits="userSpaceOnUse">
<stop stop-color="#67e6bb" offset="0"/>
<stop stop-color="#f6aa78" offset="1"/>
</linearGradient>
</defs>
<metadata>
<rdf:RDF>
<cc:Work rdf:about="">
<dc:format>image/svg+xml</dc:format>
<dc:type rdf:resource="http://purl.org/dc/dcmitype/StillImage"/>
<dc:title/>
</cc:Work>
</rdf:RDF>
</metadata>
<g transform="translate(0 -164.71)">
<rect y="164.71" width="132.29" height="132.29" ry="0" fill="#335767"/>
<rect transform="rotate(-45)" x="-96.834" y="175.48" width="4.4573" height="4.4573" ry="0" fill="#f57389" stroke-width="0"/>
<rect transform="rotate(-45)" x="-146.55" y="180.16" width="3.5765" height="3.5765" ry="0" fill="#78e5f6" stroke-width="0"/>
<path d="m48.718 179.39 0.31902 0.31902 1.8934 1.8934 2.2125-2.2125-2.2125-2.2125zm1.2761-1e-5 0.93636-0.93636 0.93636 0.93636-0.93636 0.93637z" color="#000000" color-rendering="auto" dominant-baseline="auto" fill="#eff1f5" image-rendering="auto" shape-rendering="auto" solid-color="#000000" style="font-feature-settings:normal;font-variant-alternates:normal;font-variant-caps:normal;font-variant-ligatures:normal;font-variant-numeric:normal;font-variant-position:normal;isolation:auto;mix-blend-mode:normal;shape-padding:0;text-decoration-color:#000000;text-decoration-line:none;text-decoration-style:solid;text-indent:0;text-orientation:mixed;text-transform:none;white-space:normal"/>
<rect transform="rotate(-45)" x="-145.1" y="162.46" width="4.5417" height="4.5417" ry="0" fill="#3d8fcc"/>
<rect transform="rotate(-45)" x="-68.149" y="231.25" width="2.2265" height="2.2265" ry="0" fill="#f6aa78" stroke-width="0"/>
<path transform="matrix(.26458 0 0 .26458 0 164.71)" d="m162.69 272.77a32.585 32.585 0 0 0 -32.586 32.588 32.585 32.585 0 0 0 22.721 31.037v10.602a56.481 56.481 0 0 0 -46.617 55.598c-0.0257-25.729-18.492-47.737-43.826-52.23v-10.029c12.706-4.0358 21.342-15.825 21.359-29.156 8.58e-4 -16.92-13.714-30.638-30.635-30.637-16.92-8.7e-4 -30.638 13.716-30.637 30.637 0.007937 13.34 8.6457 25.139 21.359 29.178v9.9687c-25.348 4.4959-43.82 26.526-43.826 52.27v97.402h500v-97.402h0.21484a50.767 50.767 0 0 0 -41.902 -49.936v-9.5879a29.288 29.288 0 0 0 20.422 -27.875 29.288 29.288 0 0 0 -29.289 -29.291 29.288 29.288 0 0 0 -29.291 29.291 29.288 29.288 0 0 0 20.422 27.896v9.5293a50.767 50.767 0 0 0 -41.9 49.973 42.553 42.553 0 0 0 -35.121 -41.855v-8.0371a24.55 24.55 0 0 0 17.117 -23.365 24.55 24.55 0 0 0 -24.551 -24.551 24.55 24.55 0 0 0 -24.551 24.551 24.55 24.55 0 0 0 17.117 23.383v7.9883a42.553 42.553 0 0 0 -35.121 41.887 47.195 47.195 0 0 0 -38.953 -46.422v-8.9141a27.228 27.228 0 0 0 18.986 -25.914 27.228 27.228 0 0 0 -27.23 -27.23 27.228 27.228 0 0 0 -27.229 27.23 27.228 27.228 0 0 0 18.984 25.934v8.8594a47.195 47.195 0 0 0 -38.953 46.457 56.481 56.481 0 0 0 -46.617 -55.557v-10.668a32.585 32.585 0 0 0 22.721 -31.012 32.585 32.585 0 0 0 -32.588 -32.588zm241.34 7.7832l-5.3516 5.3516 5.3516 5.3516 5.3535-5.3516-5.3535-5.3516z" fill="url(#a)"/>
<path d="m13.992 180.56 0.41441 0.4144 2.4595 2.4595 2.8739-2.8739-2.8739-2.8739zm1.6576-1e-5 1.2163-1.2163 1.2163 1.2163-1.2163 1.2163z" color="#000000" color-rendering="auto" dominant-baseline="auto" fill="#67e6bb" image-rendering="auto" shape-rendering="auto" solid-color="#000000" style="font-feature-settings:normal;font-variant-alternates:normal;font-variant-caps:normal;font-variant-ligatures:normal;font-variant-numeric:normal;font-variant-position:normal;isolation:auto;mix-blend-mode:normal;shape-padding:0;text-decoration-color:#000000;text-decoration-line:none;text-decoration-style:solid;text-indent:0;text-orientation:mixed;text-transform:none;white-space:normal"/>
<rect transform="rotate(-45)" x="-113.32" y="219.5" width="2.9454" height="2.9454" ry="0" fill="#f57389" stroke-width="0"/>
<g transform="matrix(.11773 0 0 -.11773 75.715 225.66)" fill="#78e5f6">
<g transform="scale(.1)" fill="#78e5f6">
<path d="m1308.7 601.65c-47.88 0-83.54-23.511-83.54-80.093 0-42.633 23.5-72.227 80.96-72.227 48.7 0 81.78 28.695 81.78 73.988 0 51.328-29.6 78.332-79.2 78.332zm-95.73-399.52c-11.33-13.906-22.62-28.68-22.62-46.117 0-34.786 44.36-45.254 105.3-45.254 50.48 0 119.24 3.535 119.24 50.468 0 27.895-33.08 29.622-74.88 32.243zm257.61 396.89c15.64-20.023 32.2-47.878 32.2-87.91 0-96.601-75.72-153.16-185.35-153.16-27.88 0-53.12 3.473-68.77 7.817l-28.73-46.118 85.28-5.21c150.58-9.594 239.32-13.954 239.32-129.66 0-100.11-87.88-156.65-239.32-156.65-157.52 0-217.57 40.039-217.57 108.78 0 39.18 17.41 60.02 47.87 88.782-28.73 12.144-38.29 33.89-38.29 57.398 0 19.16 9.56 36.562 25.25 53.109 15.66 16.52 33.06 33.078 53.95 52.219-42.64 20.883-74.85 66.141-74.85 130.56 0 100.07 66.15 168.8 199.28 168.8 37.43 0 60.07-3.445 80.09-8.699h169.72v-73.957l-80.08-6.094"/>
<path d="m1703.8 757.17c-49.62 0-78.33 28.746-78.33 78.371 0 49.563 28.71 76.563 78.33 76.563 50.48 0 79.2-27 79.2-76.563 0-49.625-28.72-78.371-79.2-78.371zm-112.29-523.01v68.719l44.4 6.074c12.19 1.766 13.92 4.356 13.92 17.442v255.87c0 9.555-2.6 15.672-11.33 18.262l-46.99 16.55 9.57 70.469h180.17v-361.15c0-13.95 0.84-15.676 13.93-17.442l44.39-6.074v-68.719h-248.06"/>
<path d="m2183.7 267.9c-37.44-18.254-92.26-34.793-141.89-34.793-103.56 0-142.71 41.734-142.71 140.12v228c0 5.211 0 8.707-6.99 8.707h-60.91v77.453c76.61 8.726 107.05 47.027 116.62 141.89h82.69v-123.62c0-6.07 0-8.699 6.97-8.699h122.7v-87.015h-129.67v-207.99c0-51.355 12.2-71.355 59.17-71.355 24.4 0 49.61 6.074 70.5 13.914l23.52-76.609"/>
<path d="m894.22 496.28-397.94 397.91c-22.898 22.918-60.066 22.918-82.996 0l-82.629-82.636 104.82-104.82c24.367 8.227 52.297 2.711 71.711-16.707 19.515-19.539 24.992-47.707 16.558-72.156l101.02-101.02c24.441 8.422 52.64 2.981 72.156-16.57 27.285-27.277 27.285-71.476 0-98.762-27.289-27.293-71.488-27.293-98.789 0-20.516 20.532-25.59 50.676-15.199 75.954l-94.215 94.218-8e-3 -247.93c6.652-3.293 12.93-7.688 18.473-13.207 27.277-27.274 27.277-71.465 0-98.782-27.285-27.273-71.504-27.273-98.762 0-27.281 27.317-27.281 71.508 0 98.782 6.742 6.73 14.543 11.824 22.867 15.238v250.23c-8.324 3.403-16.113 8.461-22.867 15.239-20.664 20.648-25.641 50.976-15.043 76.351l-103.32 103.34-272.85-272.84c-22.926-22.937-22.926-60.105 0-83.027l397.93-397.91c22.91-22.918 60.066-22.918 83.008 0l396.07 396.07c22.918 22.93 22.918 60.109 0 83.031"/>
</g>
</g>
<path d="m89.11 177.13c-7.4411 0-13.474 6.0331-13.474 13.476 0 5.9537 3.8608 11.004 9.2156 12.787 0.67421 0.123 0.91991-0.29278 0.91991-0.65022 0-0.31945-0.01143-1.1672-0.01796-2.2915-3.7483 0.814-4.5391-1.8067-4.5391-1.8067-0.613-1.5561-1.4965-1.9705-1.4965-1.9705-1.2235-0.83636 0.09263-0.81982 0.09263-0.81982 1.3526 0.0958 2.064 1.389 2.064 1.389 1.202 2.059 3.1543 1.4642 3.922 1.1201 0.12245-0.87113 0.46988-1.4651 0.85538-1.8017-2.9922-0.34014-6.1382-1.4965-6.1382-6.6602 0-1.4709 0.52528-2.6737 1.3873-3.6159-0.13899-0.34068-0.60141-1.7108 0.13154-3.5663 0 0 1.1317-0.36245 3.7061 1.3815 1.0746-0.29877 2.2278-0.44844 3.3735-0.45332 1.1441 4e-3 2.2973 0.15455 3.3735 0.45332 2.5728-1.7438 3.702-1.3815 3.702-1.3815 0.73543 1.8555 0.27298 3.2255 0.13404 3.5663 0.86365 0.94225 1.3857 2.1451 1.3857 3.6159 0 5.177-3.151 6.3161-6.1531 6.6495 0.48392 0.41633 0.91494 1.2384 0.91494 2.4958 0 1.8009-0.01633 3.2544-0.01633 3.6962 0 0.36082 0.2424 0.78009 0.92652 0.64854 5.3507-1.786 9.2081-6.8331 9.2081-12.785 0-7.4428-6.034-13.476-13.477-13.476" fill="#67e6bb" fill-rule="evenodd"/>
<rect transform="rotate(-45)" x="-50.116" y="209.28" width="2.0026" height="2.0026" ry="0" fill="#3d8fcc"/>
<g transform="matrix(.045927 0 0 .045927 27.528 180.59)">
<path d="m132.89 110.83c-5.9199-0.23317-12.028 0.0172-18.318 0.79887-36.951 4.589-59.131 23.185-67.061 45.187-14.149 32.726 4.3661 74.372 53.829 88.405 32.697 9.2848 37.802 23.95 34.284 39.933-3.9886 13.892-13.324 28.529-16.349 41.395-1.3258 4.2645-2.1128 8.3829-1.9016 12.231 1.624 29.472 60.667 40.162 107.23-37.243 10.466-17.402 15.589-37.281 16.124-57.44 3.2753-63.297-39.527-130.58-107.84-133.27zm-123.43 87.618c-12.901 1.2597-22.54 11.95-23.1 24.641-0.36224 2.1873-0.54903 4.4274-0.3263 6.7398 1.377 14.264 13.983 24.705 28.175 23.325 13.298-1.3104 23.13-12.537 23.19-25.677 0.0559-0.45395 0.06925-0.91268 0.10127-1.3727 0.09564-1.3513 0.09812-2.6306 0.01125-3.8819-0.0123-0.15605 0.01511-0.30489 0-0.46133-0.0079-0.0817-0.03642-0.15481-0.04501-0.23628-0.14286-1.4617-0.40182-2.7958-0.78763-3.9944-3.2014-12.003-14.538-20.322-27.218-19.083zm49.17 70.02c-3.8611-0.17739-7.8111 0.22108-11.747 1.2602-17.416 4.5993-28.989 20.299-29.3 37.604-0.43605 4.5232-0.15475 9.1872 1.0577 13.84 5.517 21.171 27.072 33.852 48.146 28.31v-0.0113c18.815-4.9471 30.843-22.739 29.288-41.564-0.01455-3.2648-0.3801-6.5748-1.2377-9.8791-4.4647-17.201-19.477-28.79-36.208-29.558zm182.83 105c-3.97 0-4.962 0.01-4.962 2.3517v61.401c5.052 0 4.962-1e-3 4.962-1.2152zm-50.701 1.1364c-1.983 0-2.9695 1.4681-3.0605 3.9832 0 2.862 0.89848 3.9084 2.7004 3.9943 2.076 0 3.0718-1.4804 3.0718-4.0844 0.09-2.688-0.63872-3.8931-2.7117-3.8931zm-191.96 17.947c-4.42 0-9.0146 0.96023-13.345 2.8692v41.8c5.141 0 4.962-1e-3 4.962-1.2152v-37.21c3.068-1.476 5.6878-1.9916 8.3038-1.9916 6.131 0 6.121 3.1251 6.121 11.623v28.793h3.7919c0.092999 0 0.17804-0.09 0.27004-0.09 0.63-0.086 0.81014-0.1696 0.90014-0.51762v-37.21c2.887-1.909 5.5988-2.5092 8.2138-2.5092 5.861 0 6.0422 2.6871 6.0422 11.533v28.793c5.14 0 4.962-1e-3 4.962-1.2152v-27.061c0-12.23-0.3602-16.394-10.644-16.394-3.428 0-7.8473 1.05-11.094 3.218-1.533-2.17-4.2449-3.218-8.4839-3.218zm54.47 0c-7.666 0-16.146 2.1698-16.146 25.328 0 17.866 6.2149 20.636 14.785 20.636 6.582 0 12.276-2.1648 12.276-3.2068 0-1.3-0.1801-3.294-0.6301-4.422-2.797 1.909-6.7775 2.948-11.196 2.948-6.043 0-10.101-1.7357-10.194-15.179 3.97 0 14.084-0.089 21.57-1.564 0.63-2.863 0.90014-7.0257 0.90014-10.667 0-8.673-3.5193-13.874-11.364-13.874zm31.291 0c-3.968 0-7.8474 1.0384-12.084 3.8144v40.855c5.14 0 5.0521-1.8e-4 5.0521-1.2152v-36.163c2.164-1.909 4.8675-2.6892 7.7525-2.6892 2.348 0 3.7881 0.6102 5.0521 1.3052 0.45-0.86799 0.73137-2.351 0.73137-3.218 0-1.476-2.0835-2.6892-6.5035-2.6892zm25.879 0c-7.31 0-16.236 2.5218-16.236 23.944 0 20.293 5.4069 22.11 14.875 22.11 4.69 0 8.9339-2.5174 8.9339-3.9044 0-0.77997-0.17611-1.996-0.63013-3.038-1.895 1.387-4.7775 2.6891-7.8425 2.6891-6.494 0-10.284-1.8128-10.284-17.598 0-17.433 6.2214-19.859 11.634-19.859 3.065 0 4.7783 0.86356 6.4923 1.9916 0.45402-1.04 0.63013-2.5115 0.63013-3.4655 0-1.128-3.7835-2.8692-7.5724-2.8692zm64.495 0c-3.967 0-7.8474 1.0384-12.084 3.8144v40.855c5.141 0 5.0521-1.8e-4 5.0521-1.2152v-36.163c2.165-1.909 4.8675-2.6892 7.7525-2.6892 2.346 0 3.788 0.6102 5.052 1.3052 0.44998-0.86799 0.72011-2.351 0.72011-3.218 0-1.476-2.0723-2.6892-6.4923-2.6892zm42.959 0c-7.485 0-14.072 1.1276-15.786 2.0816-0.36201 0.25901-0.54008 0.77876-0.54008 1.7328 0 0.52003 0.0881 1.994 0.63007 2.948 2.797-1.301 9.208-2.1604 13.806-2.1604 3.43 0 6.3122 1.2164 6.3122 6.8524v8.0675c-1.985-0.78205-4.9687-1.0465-7.4937-1.0465-6.674 0-13.345 1.9043-13.345 14.132 0 12.836 6.4916 13.442 12.985 13.356 6.317 0 10.2-1.732 12.276-2.8579 0 0 0.45005-11.533 0.45005-26.971v-5.6372c0-7.804-3.611-10.498-9.294-10.498zm-87.246 1.3052c-5.141 0-5.052-8.6e-4 -5.052 1.1252v27.151c0 11.536 1.7086 16.394 13.255 16.394 4.511 0 9.7469-0.78417 13.716-2.7792v-41.89c-5.14 0-4.962-8.6e-4 -4.962 1.1252v37.21c-2.706 1.562-6.318 2.0816-8.9339 2.0816-6.764 0-8.0226-2.9501-8.0226-11.623zm62.369 0c-3.97 0-5.1421-2e-3 -5.1421 2.3404v41.024c5.05 0 5.1421-1e-3 5.1421-1.2152zm-140.21 3.038c5.412 0 6.8636 3.5466 6.9536 10.487 0 1.82-0.08906 3.994-0.36006 6.076-5.051 1.214-13.63 1.2152-17.238 1.2152 0.635-15.783 6.0432-17.778 10.644-17.778zm163.65 17.868c1.713 0 4.1482 0.25837 5.8622 0.86638 0 6.504-0.44808 16.909-0.4501 16.911-0.99099 1.04-3.8866 1.8228-6.7736 1.8228-4.598 0-8.4726-0.091-8.4726-9.024 0-9.54 4.694-10.577 9.8341-10.577z" fill="#eff1f5"/>
</g>
<g transform="matrix(.059322 0 0 .059322 41.635 212.55)" fill="#3d8fcc">
<path d="m128 0c-70.268 0-127.99 18.822-127.99 42.663 0 6.274 15.057 95.364 21.331 130.5 2.51 16.312 43.918 38.898 106.66 38.898 62.74 0 102.89-22.586 106.66-38.898 6.274-35.134 21.331-124.22 21.331-130.5-1.254-23.841-57.72-42.663-127.99-42.663zm0 183.2c-22.586 0-40.153-17.567-40.153-40.153s17.567-40.153 40.153-40.153 40.153 17.567 40.153 40.153c0 21.331-17.567 40.153-40.153 40.153zm0-127.99c-45.172 0-81.561-7.53-81.561-17.567 0-10.039 36.389-17.567 81.561-17.567s81.561 7.528 81.561 17.567c0 10.038-36.389 17.567-81.561 17.567z"/>
<path d="m220.61 207.04c-2.51 0-3.764 1.255-3.764 1.255s-31.37 25.096-87.835 25.096c-56.466 0-87.835-25.096-87.835-25.096s-2.51-1.255-3.765-1.255c-2.51 0-5.019 1.255-5.019 5.02v1.254c5.02 26.35 8.784 45.172 8.784 47.682 3.764 18.822 41.408 33.88 86.58 33.88s82.816-15.058 86.58-33.88c0-2.51 3.765-21.332 8.784-47.682v-1.255c1.255-2.51 0-5.019-2.51-5.019z"/>
<circle cx="128" cy="141.79" r="20.077"/>
</g>
</g>
</svg>
