<svg clip-rule="evenodd" fill-rule="evenodd" stroke-linejoin="round" stroke-miterlimit="2" viewBox="0 0 920 1067" xmlns="http://www.w3.org/2000/svg"><path d="m1838.74 3.196H183.654C49.508 3.196.0 52.7.0 186.917V1806.4c0 15.19.612 29.29 1.95 42.36 3.058 29.29 3.629 57.69 30.879 90.01 2.659 3.16 30.475 23.86 30.475 23.86 14.963 7.34 25.183 12.75 42.054 19.54l814.988 341.45c42.308 19.39 60 26.96 90.734 26.34v.01h.24v-.01c30.73.62 48.42-6.95 90.73-26.34l814.98-341.45c16.88-6.79 27.09-12.2 42.06-19.54.0.0 27.82-20.7 30.47-23.86 27.25-32.32 27.82-60.72 30.88-90.01 1.34-13.07 1.95-27.17 1.95-42.36V186.917c0-134.217-49.51-183.721-183.65-183.721zM621.958 2028.45h783.562l-399.94 131.89zm-181.55-316.67c-21.225.0-40.833-3.51-58.82-10.52-17.992-7.02-33.58-16.76-46.78-29.23-13.2-12.46-23.558-27.33-31.058-44.61-7.512-17.27-11.263-36.16-11.263-56.68v-.78c0-20 3.688-38.57 11.067-55.71 7.375-17.15 17.533-32.15 30.475-45 12.942-12.86 28.404-22.92 46.396-30.2 17.983-7.27 37.467-10.91 58.433-10.91 24.067.0 44.842 3.51 62.313 10.52 17.466 7.01 33.446 16.76 47.946 29.22l-44.259 53.38c-9.841-8.31-19.87-14.67-30.091-19.09-10.225-4.42-22.067-6.62-35.521-6.62-9.842.0-18.963 1.94-27.375 5.84-8.413 3.9-15.725 9.22-21.934 15.97-6.212 6.76-11.133 14.68-14.754 23.76-3.629 9.11-5.437 18.84-5.437 29.23v.77c0 10.91 1.808 21.05 5.437 30.4 3.621 9.35 8.738 17.33 15.338 23.96 6.6 6.62 14.362 11.82 23.292 15.58 8.933 3.77 18.833 5.65 29.704 5.65 17.6.0 32.087-3.76 43.483-11.3v-33.11h-53.579v-55.33h125.012v122.73c-14.496 11.95-31.579 21.95-51.25 30-19.666 8.04-41.925 12.08-66.775 12.08zm1179.622-.78c-24.33.0-47.43-3.77-69.3-11.3s-41.22-18.83-58.04-33.9l41.93-50.26c27.18 21.82 56.55 32.73 88.13 32.73 10.1.0 17.8-1.62 23.1-4.87s7.96-7.85 7.96-13.83v-.78c0-2.86-.65-5.39-1.94-7.6-1.3-2.2-3.69-4.34-7.18-6.43-3.5-2.07-8.16-4.09-13.98-6.03-5.82-1.95-13.39-3.96-22.71-6.05-14.5-3.37-27.95-7.07-40.38-11.1-12.42-4.02-23.23-9.21-32.42-15.58-9.19-6.36-16.44-14.29-21.74-23.77-5.31-9.48-7.96-21.23-7.96-35.26v-.77c0-12.73 2.4-24.42 7.19-35.07s11.77-19.87 20.96-27.66c9.18-7.8 20.25-13.83 33.2-18.12 12.94-4.29 27.56-6.43 43.86-6.43 23.3.0 44.07 3.06 62.32 9.16s34.75 15.13 49.5 27.07l-37.66 53.38c-12.42-8.83-25.17-15.52-38.24-20.06-13.08-4.55-25.69-6.82-37.85-6.82-9.07.0-15.86 1.69-20.39 5.06-4.53 3.38-6.79 7.54-6.79 12.47v.78c0 3.12.71 5.84 2.13 8.18s3.88 4.48 7.38 6.43c3.49 1.95 8.28 3.9 14.37 5.84 6.07 1.95 13.78 3.97 23.1 6.04 15.52 3.38 29.56 7.35 42.12 11.89 12.55 4.54 23.22 10.06 32.03 16.55 8.8 6.5 15.53 14.36 20.19 23.57 4.66 9.23 6.98 20.2 6.98 32.93v.77c0 14.03-2.65 26.5-7.95 37.41-5.31 10.91-12.75 20.2-22.33 27.85-9.57 7.67-21.09 13.51-34.55 17.53-13.46 4.03-28.48 6.05-45.04 6.05zm-367.94-277.64h218.58v64.28h-144.04v41.3h130.45v59.61h-130.45v43.25h145.98v64.28h-220.52zm-339.186.0h79.584l64.842 105.58 64.83-105.58h79.59v272.72h-74.92v-156.62l-69.5 106.75h-1.55l-69.113-105.97v155.84h-73.763zm-214.833-1.98h72.6l115.692 274.68h-80.755l-19.8-48.7H680.987l-19.412 48.7h-79.204zm66 167.15-30.284-77.53-30.67 77.53zM1590.4 845.942v203.108c0 35.99-16.63 52.69-51.15 52.69h-25.6c-35.81.0-52.45-16.7-52.45-52.69V480.871c0-35.996 16.64-52.692 52.45-52.692h23.03c34.54.0 51.18 16.696 51.18 52.692v176.121h134.3V473.158c0-111.82-53.73-165.812-165-165.812h-66.54c-111.27.0-166.29 55.262-166.29 167.108v581.006c0 111.85 55.02 167.11 166.29 167.11h67.81c111.3.0 166.3-55.26 166.3-167.11V845.942zm-475.31 368.908h136.9V315.062h-136.9zM435.925 818.933h161.179V694.258H435.925V439.737h167.6V315.062H299.054v899.788h307.017v-124.67H435.925zM887.05 315.062H672.146v899.788h136.875v-326.5h78.029c111.3.0 166.3-55.262 166.3-167.088V482.167c0-111.842-55-167.105-166.3-167.105zm29.421 399.763c0 35.996-16.613 52.717-51.154 52.717h-56.296V435.888h56.296c34.541.0 51.154 16.708 51.154 52.695z" fill="#fff" transform="matrix(.455776 0 0 .455776 -2.60836 -1.33454)"/></svg>