<?xml version="1.0" encoding="UTF-8"?>
<svg width="64" height="64" version="1.1" viewBox="0 0 16.933333 16.933334" xmlns="http://www.w3.org/2000/svg" xmlns:cc="http://creativecommons.org/ns#" xmlns:dc="http://purl.org/dc/elements/1.1/" xmlns:rdf="http://www.w3.org/1999/02/22-rdf-syntax-ns#">
<metadata>
<rdf:RDF>
<cc:Work rdf:about="">
<dc:format>image/svg+xml</dc:format>
<dc:type rdf:resource="http://purl.org/dc/dcmitype/StillImage"/>
<dc:title/>
</cc:Work>
</rdf:RDF>
</metadata>
<g transform="translate(0 -280.07)">
<g transform="matrix(.15551 0 0 .15551 -120.85 193.15)" fill="#fff">
<path d="m833.79 560.5c-0.67896-1e-3 -1.3875 0.027-2.1256 0.0862-18.661 1.5021-13.711 21.218-13.988 27.819-0.34133 4.8279-1.3198 8.6332-4.6406 13.353-3.9 4.6382-9.3933 12.146-11.995 19.962-1.2273 3.6881-1.8114 7.4474-1.2729 11.006-0.16883 0.15155-0.32901 0.31074-0.48303 0.4734-1.1448 1.2236-1.9914 2.7046-2.934 3.7015-0.88105 0.87995-2.1354 1.2138-3.5155 1.7078-1.3801 0.49548-2.8947 1.2248-3.8139 2.9894 0 0 2e-5 1e-3 -1e-3 1e-3 -1e-3 2e-3 -2e-3 6e-3 -5e-3 8e-3 -0.43252 0.80711-0.57304 1.6782-0.57304 2.5617 0 0.81698 0.12085 1.6452 0.24284 2.4424 0.25384 1.6586 0.51124 3.2272 0.16991 4.2895-1.0918 2.9857-1.2322 5.0497-0.46328 6.5482 0.77137 1.5009 2.3549 2.1626 4.1453 2.5372 3.5809 0.74673 8.4297 0.56189 12.251 2.5877l0.32899-0.61973-0.32539 0.62092c4.091 2.1392 8.2389 2.8984 11.547 2.143 2.4004-0.54699 4.3472-1.9765 5.3477-4.1749 2.5877-0.0123 5.4281-1.1088 9.9775-1.3588 3.0867-0.24903 6.9424 1.0965 11.377 0.85005 0.1158 0.48058 0.28354 0.94396 0.51261 1.3839 2e-3 3e-3 5e-3 8e-3 7e-3 0.0123 1.7188 3.438 4.9128 5.0103 8.3176 4.7417 3.4082-0.26875 7.0322-2.2786 9.9626-5.7646l-0.53718-0.45103 0.54103 0.44622c2.7922-3.3862 7.4268-4.7897 10.501-6.643 1.5366-0.92663 2.7823-2.0874 2.8796-3.7732 0.0958-1.6845-0.89349-3.5721-3.1682-6.0969-1e-3 -1e-3 -2e-3 -2e-3 -2e-3 -3e-3 -0.74785-0.84409-1.104-2.409-1.4871-4.0763-0.38211-1.666-0.80956-3.4624-2.1774-4.6269-2e-3 -2e-3 -6e-3 -5e-3 -8e-3 -7e-3 -0.27109-0.2366-0.54964-0.43617-0.82935-0.60264-0.28084-0.16636-0.56553-0.30194-0.85005-0.40915 1.9013-5.6387 1.1557-11.254-0.76414-16.327-2.3548-6.2277-6.4666-11.653-9.6076-15.365-3.5156-4.4348-6.9538-8.6441-6.8858-14.862 0.10464-9.4895 1.0436-27.087-15.656-27.11zm2.2156 14.619h0.0455c0.94636 0 1.7559 0.27854 2.5877 0.88111 0.84408 0.61365 1.453 1.3802 1.9434 2.4522 0.48058 1.0449 0.7122 2.0664 0.73573 3.2777-1.1e-4 0.0321-1.9e-4 0.0592 8e-3 0.0911 9e-3 1.2433-0.20458 2.302-0.67653 3.3826-0.26862 0.61613-0.57782 1.1336-0.94872 1.5822-0.12582-0.0603-0.25615-0.11831-0.39182-0.17376-0.46949-0.20085-0.88477-0.36614-1.2568-0.50662-0.37225-0.14047-0.66264-0.23631-0.9622-0.33983 0.21699-0.26246 0.64428-0.57187 0.80336-0.96003 0.24151-0.58532 0.35977-1.1571 0.38194-1.8385 0-0.0271 8e-3 -0.0505 8e-3 -0.0825 0.0136-0.65308-0.0726-1.2111-0.26354-1.7829-0.19962-0.6001-0.45361-1.0315-0.82069-1.3901-0.36844-0.35858-0.73574-0.52119-1.1769-0.53597-0.0209-1e-3 -0.0407-1e-3 -0.0616-1e-3 -0.41403 1e-3 -0.77381 0.1441-1.1461 0.45463-0.39063 0.32654-0.68015 0.74424-0.92154 1.3258-0.24029 0.58162-0.35864 1.1584-0.38218 1.8436-3e-3 0.0271-3e-3 0.0503-3e-3 0.0774-8e-3 0.37707 0.0159 0.72211 0.0739 1.0573-0.84778-0.42266-1.9324-0.73082-2.6816-0.90949-0.0431-0.32409-0.0677-0.65798-0.0751-1.0079v-0.0949c-0.0136-1.2396 0.18978-2.3032 0.66666-3.3826 0.47687-1.0807 1.067-1.8569 1.8974-2.489 0.83176-0.63091 1.6489-0.92058 2.6161-0.93044zm-12.925 1.0279c0.62967 1e-3 1.1917 0.21054 1.7733 0.67509 0.6309 0.50399 1.1078 1.1486 1.5071 2.0568 0.40048 0.90816 0.61353 1.8162 0.67268 2.8883v8e-3c0.0284 0.44978 0.0247 0.87366-0.0116 1.284-0.12445 0.0357-0.24509 0.0739-0.36462 0.11452-0.67772 0.23413-1.216 0.49254-1.736 0.83633 0.0506-0.3598 0.058-0.72448 0.0185-1.1324-3e-3 -0.0222-3e-3 -0.0409-3e-3 -0.063-0.0542-0.54095-0.16905-0.99431-0.36004-1.4527-0.20332-0.47688-0.43125-0.81318-0.73069-1.072-0.27109-0.23413-0.52739-0.34278-0.81081-0.34032-0.0284 0-0.0578 1e-3 -0.0873 3e-3 -0.31791 0.0271-0.58162 0.18229-0.83176 0.48664-0.24892 0.30314-0.41288 0.68021-0.53117 1.1805-0.11829 0.49905-0.14916 0.98944-0.0999 1.5526 0 0.0222 5e-3 0.0407 5e-3 0.0628 0.0542 0.54588 0.1639 0.99936 0.35859 1.4578 0.19962 0.47194 0.43124 0.80836 0.73068 1.0671 0.0506 0.0431 0.0996 0.0827 0.14897 0.1172-0.31052 0.24029-0.51916 0.41078-0.77543 0.59807-0.16389 0.11953-0.35861 0.26226-0.58531 0.42985-0.49413-0.46333-0.8797-1.0448-1.2173-1.8125-0.39924-0.90693-0.61245-1.815-0.67652-2.8871v-8e-3c-0.0592-1.072 0.0456-1.9938 0.34007-2.9475 0.29574-0.95375 0.69005-1.6437 1.263-2.2106 0.57175-0.56805 1.1486-0.85403 1.8435-0.88976 0.0542-2e-3 0.10708-3e-3 0.16004-3e-3zm5.8989 7.4341c1.4614-6e-3 3.2196 0.47311 5.3477 1.8409 1.3074 0.85025 2.3241 0.92161 4.6666 1.9247l3e-3 1e-3 2e-3 1e-3c1.1263 0.46208 1.7881 1.066 2.1121 1.7006 0.32285 0.6346 0.33152 1.3221 0.0605 2.0467-0.54082 1.4479-2.2685 2.9724-4.6909 3.729l-2e-3 1e-3 -2e-3 1e-3c-1.1818 0.38324-2.2119 1.2321-3.4281 1.9259-1.2138 0.69498-2.5889 1.2557-4.457 1.1473-0.79602-0.0469-1.432-0.20464-1.9766-0.43754-0.54465-0.23289-0.99692-0.54088-1.4269-0.88591-0.8601-0.69128-1.6092-1.5601-2.7059-2.2046l-3e-3 -1e-3 -2e-3 -2e-3c-1.767-0.99934-2.733-2.1551-3.0349-3.1569-0.30313-1.0018-0.0186-1.857 0.85751-2.5138 0.98578-0.73935 1.6708-1.2422 2.128-1.5762 0.45345-0.3327 0.64087-0.45837 0.78627-0.59638 0-1e-3 1e-3 -1e-3 1e-3 -2e-3l1e-3 -1e-3c0.74057-0.70115 1.9224-1.9789 3.703-2.5913 0.61242-0.21195 1.2964-0.34748 2.0616-0.34993zm-1.7795 1.7068c-0.24606-0.0125-0.50731 0.0474-0.72947 0.13404-0.27623 0.10767-0.70546 0.29449-0.6669 0.58845 0.0292 0.2225 0.37832 0.3066 0.60264 0.30011 0.23505-7e-3 0.40324-0.24275 0.61227-0.35041 0.23823-0.12271 0.65049-0.0803 0.7302-0.33623 0.026-0.0835-0.0574-0.18301-0.13382-0.2255-0.12503-0.0695-0.26727-0.10301-0.41492-0.11045zm3.5328 0c-0.14765 7e-3 -0.28989 0.0409-0.41493 0.11045-0.0764 0.0424-0.15982 0.14204-0.13381 0.2255 0.0798 0.25585 0.49221 0.21352 0.73045 0.33623 0.20903 0.10766 0.37697 0.34363 0.61202 0.35041 0.22432 7e-3 0.57346-0.0777 0.60264-0.30012 0.0385-0.29396-0.39067-0.48074-0.6669-0.58844-0.22217-0.0866-0.48341-0.14653-0.72947-0.13405zm7.83 3.8248c-0.46761 0.0141-0.48597 0.57801-1.1307 1.0512-0.89883 0.65977-2.0001 1.5301-2.8657 2.0156-1.5278 0.85701-4.0308 2.1158-6.1749 2.1158-2.1478 0-3.863-0.992-5.1494-2.0111-0.64323-0.51015-1.1744-1.0239-1.5983-1.4207-0.31338-0.29307-0.3885-0.94846-0.88615-1.0106-0.29689-0.0236-0.38352 0.77639 0.3391 1.3468 0.41649 0.3894 0.96865 0.92552 1.6488 1.464 1.3604 1.0782 3.2517 2.1848 5.6459 2.1848 2.3955 0 4.6469-1.2185 6.5742-2.2231 1.0104-0.52666 2.2544-1.4473 3.0496-2.1412 0.79515-0.69396 1.215-1.3006 0.64716-1.3668-0.0355-5e-3 -0.0685-6e-3 -0.0996-5e-3zm2.7636 3.3788c1.592 6.2745 5.2938 15.338 7.6733 19.76 1.2655 2.3462 3.7816 7.3318 4.8686 13.339 0.68882-0.021 1.4478 0.079 2.2599 0.28713 2.8428-7.37-2.4103-15.307-4.8132-17.518-0.96977-0.94143-1.0166-1.3629-0.53476-1.3432 2.605 2.3055 6.0267 6.9399 7.2714 12.172 0.56793 2.3855 0.68898 4.8945 0.0801 7.3701 0.29696 0.12322 0.60002 0.25759 0.90684 0.40311 4.563 2.2216 6.25 4.1536 5.4392 6.7906-0.2674-9e-3 -0.53117-8e-3 -0.78748-2e-3 -0.0234 1e-3 -0.0469 1e-3 -0.0715 1e-3 0.66172-2.0899-0.80217-3.6313-4.7034-5.3958-4.0454-1.7792-7.269-1.6033-7.8136 2.0072-0.0345 0.18853-0.0628 0.38195-0.0837 0.57664-0.30313 0.10604-0.6063 0.23919-0.9119 0.40553-1.8989 1.04-2.9364 2.9254-3.5131 5.2397-0.57546 2.3117-0.74191 5.1052-0.89964 8.2461v2e-3c-0.0973 1.5786-0.74802 3.7153-1.406 5.9778-6.627 4.728-15.824 6.7759-23.634 1.4452-0.52862-0.83669-1.1362-1.666-1.761-2.4842-0.39925-0.52235-0.80947-1.0413-1.2161-1.5538 0.80094 1e-3 1.4824-0.13074 2.0332-0.37953 0.68512-0.31175 1.1657-0.80964 1.4048-1.4505 0.47564-1.2803-2e-3 -3.0866-1.5268-5.1506-1.5243-2.0628-4.1058-4.3904-7.8986-6.7169v-1e-3c-2.7873-1.7338-4.3448-3.8584-5.0743-6.165-0.73072-2.308-0.62859-4.8031-0.0655-7.2664 1.0794-4.7281 3.8521-9.327 5.6216-12.213 0.47564-0.34995 0.16993 0.6506-1.7918 4.2931-1.7572 3.3296-5.0436 11.014-0.54465 17.013 0.12076-4.2686 1.1399-8.6222 2.8515-12.695 2.4928-5.6498 7.7065-15.45 8.1205-23.26 0.21441 0.15526 0.94756 0.65051 1.2741 0.83657 1e-3 1e-3 1e-3 1e-3 2e-3 1e-3 0.95622 0.56314 1.6747 1.3863 2.605 2.1343 0.93281 0.7492 2.0971 1.3961 3.8568 1.4984 0.16882 9e-3 0.33412 0.0149 0.49555 0.0149 1.8139 0 3.2284-0.59165 4.4064-1.2657 1.2804-0.73196 2.303-1.5428 3.2729-1.8582 1e-3 -1e-3 2e-3 -1e-3 3e-3 -1e-3 2.0492-0.64076 3.677-1.7743 4.6036-3.0953zm9.6582 39.978c0.16647 2.7146 1.5107 5.4847 3.8864 6.0835 2.6001 0.68525 6.3475-1.545 7.9296-3.3651 0.31656-0.0124 0.62462-0.0285 0.92418-0.0358 1.3887-0.0334 2.5518 0.0469 3.7422 1.0869l3e-3 3e-3 3e-3 2e-3c0.91433 0.77508 1.3495 2.2388 1.7266 3.8777 0.37719 1.6402 0.67756 3.4257 1.8089 4.6986l1e-3 1e-3 1e-3 2e-3c2.1738 2.4115 2.8726 4.0405 2.8122 5.0818-0.0592 1.0399-0.81214 1.8126-2.2033 2.6505-2.78 1.6771-7.7078 3.1359-10.854 6.9472-2.7332 3.2519-6.0651 5.0374-8.999 5.269-2.9338 0.23166-5.4651-0.98562-6.9585-3.9812l-2e-3 -6e-3 -3e-3 -7e-3c-0.92678-1.7621-0.54127-4.5407 0.23874-7.4733 0.78001-2.9315 1.9014-5.9431 2.0517-8.3891v-8e-3c0.1576-3.1347 0.33389-5.8727 0.85992-7.986 0.5274-2.1133 1.3568-3.5428 2.8257-4.3475 0.0689-0.037 0.1368-0.0727 0.20457-0.10592zm-47.759 0.20458c0.0148 1e-3 0.0283 1e-3 0.0431 0 0.21934 1e-3 0.45223 0.0197 0.69867 0.058 1.6635 0.25138 3.1138 1.4145 4.5112 3.3097l4.0344 7.3528 1e-3 3e-3 2e-3 2e-3c1.0733 2.2414 3.3407 4.7071 5.2618 7.2221 1.9211 2.5139 3.4072 5.0387 3.2137 6.9708l-1e-3 7e-3v8e-3c-0.25138 3.295-2.1098 5.0891-4.9636 5.741-2.8514 0.65186-6.7193 2e-3 -10.581-2.0173-1e-3 0-2e-3 -1e-3 -3e-3 -1e-3 -4.2734-2.2636-9.3564-2.0382-12.618-2.7196-1.6302-0.34009-2.6949-0.85255-3.1829-1.8038-0.48796-0.95252-0.49916-2.6123 0.53838-5.4428l5e-3 -0.0126 3e-3 -0.0123c0.51384-1.5834 0.13314-3.3161-0.1158-4.9427-0.24892-1.6252-0.37091-3.1049 0.18483-4.1352l5e-3 -9e-3c0.711-1.3702 1.7535-1.8608 3.0474-2.3242 1.2951-0.46455 2.8291-0.82915 4.0404-2.0442l7e-3 -6e-3 6e-3 -6e-3c1.1201-1.1817 1.9617-2.6642 2.9463-3.7152 0.83053-0.88721 1.6623-1.4749 2.9155-1.4835z" fill="#fff" stroke-width=".12322"/>
</g>
</g>
</svg>
