<svg height="64" viewBox="0 0 16.933333 16.933334" width="64" xmlns="http://www.w3.org/2000/svg"><path d="m833.79 560.5c-.67896-.001-1.3875.027-2.1256.0862-18.661 1.5021-13.711 21.218-13.988 27.819-.34133 4.8279-1.3198 8.6332-4.6406 13.353-3.9 4.6382-9.3933 12.146-11.995 19.962-1.2273 3.6881-1.8114 7.4474-1.2729 11.006-.16883.15155-.32901.31074-.48303.4734-1.1448 1.2236-1.9914 2.7046-2.934 3.7015-.88105.87995-2.1354 1.2138-3.5155 1.7078-1.3801.49548-2.8947 1.2248-3.8139 2.9894 0 0 .00002.001-.001.001-.001.002-.002.006-.005.008-.43252.80711-.57304 1.6782-.57304 2.5617 0 .81698.12085 1.6452.24284 2.4424.25384 1.6586.51124 3.2272.16991 4.2895-1.0918 2.9857-1.2322 5.0497-.46328 6.5482.77137 1.5009 2.3549 2.1626 4.1453 2.5372 3.5809.74673 8.4297.56189 12.251 2.5877l.32899-.61973-.32539.62092c4.091 2.1392 8.2389 2.8984 11.547 2.143 2.4004-.54699 4.3472-1.9765 5.3477-4.1749 2.5877-.0123 5.4281-1.1088 9.9775-1.3588 3.0867-.24903 6.9424 1.0965 11.377.85005.1158.48058.28354.94396.51261 1.3839.002.003.005.008.007.0123 1.7188 3.438 4.9128 5.0103 8.3176 4.7417 3.4082-.26875 7.0322-2.2786 9.9626-5.7646l-.53718-.45103.54103.44622c2.7922-3.3862 7.4268-4.7897 10.501-6.643 1.5366-.92663 2.7823-2.0874 2.8796-3.7732.0958-1.6845-.89349-3.5721-3.1682-6.0969-.001-.001-.002-.002-.002-.003-.74785-.84409-1.104-2.409-1.4871-4.0763-.38211-1.666-.80956-3.4624-2.1774-4.6269-.002-.002-.006-.005-.008-.007-.27109-.2366-.54964-.43617-.82935-.60264-.28084-.16636-.56553-.30194-.85005-.40915 1.9013-5.6387 1.1557-11.254-.76414-16.327-2.3548-6.2277-6.4666-11.653-9.6076-15.365-3.5156-4.4348-6.9538-8.6441-6.8858-14.862.10464-9.4895 1.0436-27.087-15.656-27.11zm2.2156 14.619h.0455c.94636 0 1.7559.27854 2.5877.88111.84408.61365 1.453 1.3802 1.9434 2.4522.48058 1.0449.7122 2.0664.73573 3.2777-.00011.0321-.00019.0592.008.0911.009 1.2433-.20458 2.302-.67653 3.3826-.26862.61613-.57782 1.1336-.94872 1.5822-.12582-.0603-.25615-.11831-.39182-.17376-.46949-.20085-.88477-.36614-1.2568-.50662-.37225-.14047-.66264-.23631-.9622-.33983.21699-.26246.64428-.57187.80336-.96003.24151-.58532.35977-1.1571.38194-1.8385 0-.0271.008-.0505.008-.0825.0136-.65308-.0726-1.2111-.26354-1.7829-.19962-.6001-.45361-1.0315-.82069-1.3901-.36844-.35858-.73574-.52119-1.1769-.53597-.0209-.001-.0407-.001-.0616-.001-.41403.001-.77381.1441-1.1461.45463-.39063.32654-.68015.74424-.92154 1.3258-.24029.58162-.35864 1.1584-.38218 1.8436-.003.0271-.003.0503-.003.0774-.008.37707.0159.72211.0739 1.0573-.84778-.42266-1.9324-.73082-2.6816-.90949-.0431-.32409-.0677-.65798-.0751-1.0079v-.0949c-.0136-1.2396.18978-2.3032.66666-3.3826.47687-1.0807 1.067-1.8569 1.8974-2.489.83176-.63091 1.6489-.92058 2.6161-.93044zm-12.925 1.0279c.62967.001 1.1917.21054 1.7733.67509.6309.50399 1.1078 1.1486 1.5071 2.0568.40048.90816.61353 1.8162.67268 2.8883v.008c.0284.44978.0247.87366-.0116 1.284-.12445.0357-.24509.0739-.36462.11452-.67772.23413-1.216.49254-1.736.83633.0506-.3598.058-.72448.0185-1.1324-.003-.0222-.003-.0409-.003-.063-.0542-.54095-.16905-.99431-.36004-1.4527-.20332-.47688-.43125-.81318-.73069-1.072-.27109-.23413-.52739-.34278-.81081-.34032-.0284 0-.0578.001-.0873.003-.31791.0271-.58162.18229-.83176.48664-.24892.30314-.41288.68021-.53117 1.1805-.11829.49905-.14916.98944-.0999 1.5526 0 .0222.005.0407.005.0628.0542.54588.1639.99936.35859 1.4578.19962.47194.43124.80836.73068 1.0671.0506.0431.0996.0827.14897.1172-.31052.24029-.51916.41078-.77543.59807-.16389.11953-.35861.26226-.58531.42985-.49413-.46333-.8797-1.0448-1.2173-1.8125-.39924-.90693-.61245-1.815-.67652-2.8871v-.008c-.0592-1.072.0456-1.9938.34007-2.9475.29574-.95375.69005-1.6437 1.263-2.2106.57175-.56805 1.1486-.85403 1.8435-.88976.0542-.002.10708-.003.16004-.003zm5.8989 7.4341c1.4614-.006 3.2196.47311 5.3477 1.8409 1.3074.85025 2.3241.92161 4.6666 1.9247l.003.001.002.001c1.1263.46208 1.7881 1.066 2.1121 1.7006.32285.6346.33152 1.3221.0605 2.0467-.54082 1.4479-2.2685 2.9724-4.6909 3.729l-.002.001-.002.001c-1.1818.38324-2.2119 1.2321-3.4281 1.9259-1.2138.69498-2.5889 1.2557-4.457 1.1473-.79602-.0469-1.432-.20464-1.9766-.43754-.54465-.23289-.99692-.54088-1.4269-.88591-.8601-.69128-1.6092-1.5601-2.7059-2.2046l-.003-.001-.002-.002c-1.767-.99934-2.733-2.1551-3.0349-3.1569-.30313-1.0018-.0186-1.857.85751-2.5138.98578-.73935 1.6708-1.2422 2.128-1.5762.45345-.3327.64087-.45837.78627-.59638 0-.001.001-.001.001-.002l.001-.001c.74057-.70115 1.9224-1.9789 3.703-2.5913.61242-.21195 1.2964-.34748 2.0616-.34993zm-1.7795 1.7068c-.24606-.0125-.50731.0474-.72947.13404-.27623.10767-.70546.29449-.6669.58845.0292.2225.37832.3066.60264.30011.23505-.007.40324-.24275.61227-.35041.23823-.12271.65049-.0803.7302-.33623.026-.0835-.0574-.18301-.13382-.2255-.12503-.0695-.26727-.10301-.41492-.11045zm3.5328 0c-.14765.007-.28989.0409-.41493.11045-.0764.0424-.15982.14204-.13381.2255.0798.25585.49221.21352.73045.33623.20903.10766.37697.34363.61202.35041.22432.007.57346-.0777.60264-.30012.0385-.29396-.39067-.48074-.6669-.58844-.22217-.0866-.48341-.14653-.72947-.13405zm7.83 3.8248c-.46761.0141-.48597.57801-1.1307 1.0512-.89883.65977-2.0001 1.5301-2.8657 2.0156-1.5278.85701-4.0308 2.1158-6.1749 2.1158-2.1478 0-3.863-.992-5.1494-2.0111-.64323-.51015-1.1744-1.0239-1.5983-1.4207-.31338-.29307-.3885-.94846-.88615-1.0106-.29689-.0236-.38352.77639.3391 1.3468.41649.3894.96865.92552 1.6488 1.464 1.3604 1.0782 3.2517 2.1848 5.6459 2.1848 2.3955 0 4.6469-1.2185 6.5742-2.2231 1.0104-.52666 2.2544-1.4473 3.0496-2.1412.79515-.69396 1.215-1.3006.64716-1.3668-.0355-.005-.0685-.006-.0996-.005zm2.7636 3.3788c1.592 6.2745 5.2938 15.338 7.6733 19.76 1.2655 2.3462 3.7816 7.3318 4.8686 13.339.68882-.021 1.4478.079 2.2599.28713 2.8428-7.37-2.4103-15.307-4.8132-17.518-.96977-.94143-1.0166-1.3629-.53476-1.3432 2.605 2.3055 6.0267 6.9399 7.2714 12.172.56793 2.3855.68898 4.8945.0801 7.3701.29696.12322.60002.25759.90684.40311 4.563 2.2216 6.25 4.1536 5.4392 6.7906-.2674-.009-.53117-.008-.78748-.002-.0234.001-.0469.001-.0715.001.66172-2.0899-.80217-3.6313-4.7034-5.3958-4.0454-1.7792-7.269-1.6033-7.8136 2.0072-.0345.18853-.0628.38195-.0837.57664-.30313.10604-.6063.23919-.9119.40553-1.8989 1.04-2.9364 2.9254-3.5131 5.2397-.57546 2.3117-.74191 5.1052-.89964 8.2461v.002c-.0973 1.5786-.74802 3.7153-1.406 5.9778-6.627 4.728-15.824 6.7759-23.634 1.4452-.52862-.83669-1.1362-1.666-1.761-2.4842-.39925-.52235-.80947-1.0413-1.2161-1.5538.80094.001 1.4824-.13074 2.0332-.37953.68512-.31175 1.1657-.80964 1.4048-1.4505.47564-1.2803-.002-3.0866-1.5268-5.1506-1.5243-2.0628-4.1058-4.3904-7.8986-6.7169v-.001c-2.7873-1.7338-4.3448-3.8584-5.0743-6.165-.73072-2.308-.62859-4.8031-.0655-7.2664 1.0794-4.7281 3.8521-9.327 5.6216-12.213.47564-.34995.16993.6506-1.7918 4.2931-1.7572 3.3296-5.0436 11.014-.54465 17.013.12076-4.2686 1.1399-8.6222 2.8515-12.695 2.4928-5.6498 7.7065-15.45 8.1205-23.26.21441.15526.94756.65051 1.2741.83657.001.001.001.001.002.001.95622.56314 1.6747 1.3863 2.605 2.1343.93281.7492 2.0971 1.3961 3.8568 1.4984.16882.009.33412.0149.49555.0149 1.8139 0 3.2284-.59165 4.4064-1.2657 1.2804-.73196 2.303-1.5428 3.2729-1.8582.001-.001.002-.001.003-.001 2.0492-.64076 3.677-1.7743 4.6036-3.0953zm9.6582 39.978c.16647 2.7146 1.5107 5.4847 3.8864 6.0835 2.6001.68525 6.3475-1.545 7.9296-3.3651.31656-.0124.62462-.0285.92418-.0358 1.3887-.0334 2.5518.0469 3.7422 1.0869l.003.003.003.002c.91433.77508 1.3495 2.2388 1.7266 3.8777.37719 1.6402.67756 3.4257 1.8089 4.6986l.001.001.001.002c2.1738 2.4115 2.8726 4.0405 2.8122 5.0818-.0592 1.0399-.81214 1.8126-2.2033 2.6505-2.78 1.6771-7.7078 3.1359-10.854 6.9472-2.7332 3.2519-6.0651 5.0374-8.999 5.269-2.9338.23166-5.4651-.98562-6.9585-3.9812l-.002-.006-.003-.007c-.92678-1.7621-.54127-4.5407.23874-7.4733.78001-2.9315 1.9014-5.9431 2.0517-8.3891v-.008c.1576-3.1347.33389-5.8727.85992-7.986.5274-2.1133 1.3568-3.5428 2.8257-4.3475.0689-.037.1368-.0727.20457-.10592zm-47.759.20458c.0148.001.0283.001.0431 0 .21934.001.45223.0197.69867.058 1.6635.25138 3.1138 1.4145 4.5112 3.3097l4.0344 7.3528.001.003.002.002c1.0733 2.2414 3.3407 4.7071 5.2618 7.2221 1.9211 2.5139 3.4072 5.0387 3.2137 6.9708l-.001.007v.008c-.25138 3.295-2.1098 5.0891-4.9636 5.741-2.8514.65186-6.7193.002-10.581-2.0173-.001 0-.002-.001-.003-.001-4.2734-2.2636-9.3564-2.0382-12.618-2.7196-1.6302-.34009-2.6949-.85255-3.1829-1.8038-.48796-.95252-.49916-2.6123.53838-5.4428l.005-.0126.003-.0123c.51384-1.5834.13314-3.3161-.1158-4.9427-.24892-1.6252-.37091-3.1049.18483-4.1352l.005-.009c.711-1.3702 1.7535-1.8608 3.0474-2.3242 1.2951-.46455 2.8291-.82915 4.0404-2.0442l.007-.006.006-.006c1.1201-1.1817 1.9617-2.6642 2.9463-3.7152.83053-.88721 1.6623-1.4749 2.9155-1.4835z" fill="#fff" stroke-width=".12322" transform="matrix(.15551 0 0 .15551 -120.85 -86.92)"/></svg>