<svg height="84.688" viewBox="0 0 236.27499 84.6875" width="236.27" xmlns="http://www.w3.org/2000/svg"><g fill="#414042"><path d="m0 0c-1.082 0-1.989-.497-2.724-1.488-.732-.992-1.099-2.385-1.099-4.177 0-1.796.349-3.171 1.05-4.129.699-.961 1.617-1.439 2.756-1.439s2.064.484 2.775 1.457c.71.968 1.066 2.355 1.066 4.161 0 1.803-.367 3.192-1.1 4.162-.732.969-1.641 1.453-2.724 1.453m-.017-17.828c-3.168 0-5.752 1.037-7.749 3.11-1.994 2.075-2.991 5.104-2.991 9.084 0 3.984 1.008 6.999 3.027 9.053 2.018 2.051 4.624 3.077 7.815 3.077s5.769-1.008 7.73-3.029c1.964-2.018 2.945-5.076 2.945-9.167 0-4.094-1.004-7.139-3.012-9.137-2.008-1.994-4.595-2.991-7.765-2.991" transform="matrix(1.25 0 0 -1.25 140.975 36.2905)"/><path d="m0 0v-10.119c0-.473.035-.771.103-.896.066-.124.27-.186.607-.186 1.242 0 2.183.464 2.826 1.388.645.924.964 2.462.964 4.617s-.334 3.559-.997 4.212c-.666.654-1.721.984-3.165.984h-.338zm-6.495-15.7v20.298c0 .564.14 1.009.423 1.34.281.325.648.49 1.1.49h5.65c3.586 0 6.309-.905 8.168-2.709 1.862-1.804 2.794-4.645 2.794-8.525 0-8.3-3.543-12.45-10.625-12.45h-5.785c-1.149 0-1.725.518-1.725 1.556" transform="matrix(1.25 0 0 -1.25 166.2875 36.58425)"/><path d="m0 0c-1.083 0-1.991-.497-2.726-1.488-.731-.992-1.097-2.385-1.097-4.177 0-1.796.35-3.171 1.049-4.129.698-.961 1.617-1.439 2.756-1.439 1.14 0 2.065.484 2.775 1.457.711.968 1.067 2.355 1.067 4.161 0 1.803-.367 3.192-1.1 4.162-.734.969-1.641 1.453-2.724 1.453m-.018-17.828c-3.169 0-5.751 1.037-7.746 3.11-1.997 2.075-2.995 5.104-2.995 9.084 0 3.984 1.009 6.999 3.027 9.053 2.02 2.051 4.624 3.077 7.817 3.077 3.192 0 5.768-1.008 7.73-3.029 1.963-2.018 2.944-5.076 2.944-9.167 0-4.094-1.004-7.139-3.012-9.137-2.007-1.994-4.596-2.991-7.765-2.991" transform="matrix(1.25 0 0 -1.25 197.075 36.2905)"/><path d="m0 0c0-.448-1.115-.676-3.349-.676-2.232 0-3.35.228-3.35.676v16.985h-4.059c-.384 0-.655.518-.812 1.558-.068.495-.1 1.002-.1 1.521 0 .517.032 1.026.1 1.522.157 1.037.428 1.559.812 1.559h14.717c.383 0 .653-.522.812-1.559.067-.496.101-1.005.101-1.522 0-.519-.034-1.026-.101-1.521-.159-1.04-.429-1.558-.812-1.558h-3.959v-16.985z" transform="matrix(1.25 0 0 -1.25 226.275 57.4805)"/><path d="m0 0c-1.821.028-3.906-.352-3.906-.352v-3.554h2.096l-.023-1.585c0-.587-.582-.882-1.743-.882-1.162 0-2.188.492-3.078 1.474-.893.982-1.337 2.419-1.337 4.311 0 1.897.434 3.295 1.303 4.197.866.902 2.002 1.354 3.399 1.354.587 0 1.195-.095 1.827-.288.632-.192 1.055-.371 1.27-.539.214-.173.417-.255.609-.255.191 0 .501.223.929.676.429.451.813 1.134 1.152 2.046.337.916.506 1.618.506 2.116 0 .494-.01.835-.032 1.014-.474.519-1.348.93-2.624 1.236-1.273.304-2.7.456-4.279.456-3.474 0-6.191-1.094-8.153-3.281-1.963-2.189-2.943-5.03-2.943-8.527 0-4.105 1.003-7.218 3.008-9.338 2.01-2.12 4.648-3.178 7.919-3.178 1.759 0 3.321.151 4.684.456 1.366.303 2.274.615 2.726.93l.135 10.587c0 .615-1.624.895-3.445.926" transform="matrix(1.25 0 0 -1.25 120.055 42.45175)"/></g><path d="m0 0v-3.942c0-.39-.25-.734-.621-.852l-6.214-2.006c-.273-.091-.57-.042-.8.128-.232.168-.37.437-.37.721v4.305l-5.818-1.108v-4.381c0-.447-.332-.824-.775-.885l-8.41-1.152c-.039-.003-.081-.008-.121-.008-.214 0-.424.078-.588.22-.195.172-.306.416-.306.676v4.638l-4.341-.018v-.001l-.318.001-.319-.001v.001l-4.34.018v-4.638c0-.26-.112-.504-.307-.676-.164-.142-.374-.22-.587-.22-.041 0-.082.005-.123.008l-8.41 1.152c-.442.061-.774.438-.774.885v4.381l-5.819 1.108v-4.305c0-.284-.137-.553-.368-.721-.232-.17-.529-.219-.802-.128l-6.215 2.006c-.369.118-.619.462-.619.852v3.942l-3.837 1.29c-.19-.811-.295-1.642-.295-2.481 0-10.301 14.512-18.252 32.448-18.309h.022.023c17.936.057 32.448 8.008 32.448 18.309 0 .766-.088 1.521-.247 2.266l-3.197-1.075z" fill="#478cbf" transform="matrix(1.25 0 0 -1.25 80.39 57.44425)"/><path d="m0 0v-16.047l2.163-.729c.364-.122.61-.462.61-.847v-3.936l4.426-1.428v4.154c0 .27.118.52.323.689.206.172.474.241.739.192l7.608-1.452c.422-.079.728-.448.728-.877v-4.338l6.62-.904v4.509c0 .241.096.467.264.635.167.166.394.259.633.259h.002l5.551-.022 5.549.022c.245-.001.468-.093.635-.259.169-.168.264-.394.264-.635v-4.509l6.621.904v4.338c0 .429.304.798.726.877l7.609 1.452c.262.049.533-.02.738-.192.205-.169.325-.419.325-.689v-4.154l4.425 1.428v3.936c0 .385.245.725.609.847l1.475.497v16.279h.04c1.437 1.834 2.767 3.767 4.042 5.828-1.694 2.883-3.768 5.459-5.986 7.846-2.057-1.035-4.055-2.208-5.942-3.456-.944.938-2.008 1.706-3.052 2.509-1.027.824-2.183 1.428-3.281 2.132.327 2.433.489 4.828.554 7.327-2.831 1.424-5.85 2.369-8.903 3.047-1.219-2.048-2.334-4.267-3.304-6.436-1.152.192-2.309.264-3.467.277v.002c-.008 0-.015-.002-.022-.002-.008 0-.015.002-.022.002v-.002c-1.16-.013-2.316-.085-3.468-.277-.97 2.169-2.084 4.388-3.305 6.436-3.052-.678-6.071-1.623-8.901-3.047.064-2.499.226-4.894.554-7.327-1.099-.704-2.255-1.308-3.282-2.132-1.043-.803-2.108-1.571-3.052-2.509-1.888 1.248-3.885 2.421-5.942 3.456-2.218-2.387-4.292-4.963-5.986-7.846 1.275-2.061 2.605-3.994 4.042-5.828h.04z" fill="#478cbf" transform="matrix(1.25 0 0 -1.25 7.45425 34.6105)"/><path d="m0 0c0-3.611-2.926-6.537-6.537-6.537-3.608 0-6.535 2.926-6.535 6.537 0 3.609 2.927 6.533 6.535 6.533 3.611 0 6.537-2.924 6.537-6.533" fill="#fff" transform="matrix(1.25 0 0 -1.25 33.55375 44.238)"/><path d="m0 0c0-2.396-1.941-4.337-4.339-4.337-2.396 0-4.339 1.941-4.339 4.337s1.943 4.339 4.339 4.339c2.398 0 4.339-1.943 4.339-4.339" fill="#414042" transform="matrix(1.25 0 0 -1.25 31.5875 44.72175)"/><path d="m0 0c-1.162 0-2.104.856-2.104 1.912v6.018c0 1.054.942 1.912 2.104 1.912s2.106-.858 2.106-1.912v-6.018c0-1.056-.944-1.912-2.106-1.912" fill="#fff" transform="matrix(1.25 0 0 -1.25 44.6025 53.153)"/><path d="m0 0c0-3.611 2.926-6.537 6.537-6.537 3.609 0 6.535 2.926 6.535 6.537 0 3.609-2.926 6.533-6.535 6.533-3.611 0-6.537-2.924-6.537-6.533" fill="#fff" transform="matrix(1.25 0 0 -1.25 55.6525 44.238)"/><path d="m0 0c0-2.396 1.941-4.337 4.336-4.337 2.398 0 4.339 1.941 4.339 4.337s-1.941 4.339-4.339 4.339c-2.395 0-4.336-1.943-4.336-4.339" fill="#414042" transform="matrix(1.25 0 0 -1.25 57.61875 44.72175)"/></svg>