<?xml version="1.0" encoding="UTF-8"?>
<svg width="236.27" height="84.688" version="1.1" viewBox="0 0 236.27499 84.6875" xml:space="preserve" xmlns="http://www.w3.org/2000/svg" xmlns:cc="http://creativecommons.org/ns#" xmlns:dc="http://purl.org/dc/elements/1.1/" xmlns:rdf="http://www.w3.org/1999/02/22-rdf-syntax-ns#"><metadata><rdf:RDF><cc:Work rdf:about=""><dc:format>image/svg+xml</dc:format><dc:type rdf:resource="http://purl.org/dc/dcmitype/StillImage"/><dc:title/></cc:Work></rdf:RDF></metadata><g transform="matrix(1.25 0 0 -1.25 0 84.688)"><g transform="translate(0,-4.8)"><g transform="translate(112.78 43.518)"><path d="m0 0c-1.082 0-1.989-0.497-2.724-1.488-0.732-0.992-1.099-2.385-1.099-4.177 0-1.796 0.349-3.171 1.05-4.129 0.699-0.961 1.617-1.439 2.756-1.439s2.064 0.484 2.775 1.457c0.71 0.968 1.066 2.355 1.066 4.161 0 1.803-0.367 3.192-1.1 4.162-0.732 0.969-1.641 1.453-2.724 1.453m-0.017-17.828c-3.168 0-5.752 1.037-7.749 3.11-1.994 2.075-2.991 5.104-2.991 9.084 0 3.984 1.008 6.999 3.027 9.053 2.018 2.051 4.624 3.077 7.815 3.077s5.769-1.008 7.73-3.029c1.964-2.018 2.945-5.076 2.945-9.167 0-4.094-1.004-7.139-3.012-9.137-2.008-1.994-4.595-2.991-7.765-2.991" fill="#414042"/></g><g transform="translate(133.03 43.283)"><path d="m0 0v-10.119c0-0.473 0.035-0.771 0.103-0.896 0.066-0.124 0.27-0.186 0.607-0.186 1.242 0 2.183 0.464 2.826 1.388 0.645 0.924 0.964 2.462 0.964 4.617s-0.334 3.559-0.997 4.212c-0.666 0.654-1.721 0.984-3.165 0.984h-0.338zm-6.495-15.7v20.298c0 0.564 0.14 1.009 0.423 1.34 0.281 0.325 0.648 0.49 1.1 0.49h5.65c3.586 0 6.309-0.905 8.168-2.709 1.862-1.804 2.794-4.645 2.794-8.525 0-8.3-3.543-12.45-10.625-12.45h-5.785c-1.149 0-1.725 0.518-1.725 1.556" fill="#414042"/></g><g transform="translate(157.66 43.518)"><path d="m0 0c-1.083 0-1.991-0.497-2.726-1.488-0.731-0.992-1.097-2.385-1.097-4.177 0-1.796 0.35-3.171 1.049-4.129 0.698-0.961 1.617-1.439 2.756-1.439 1.14 0 2.065 0.484 2.775 1.457 0.711 0.968 1.067 2.355 1.067 4.161 0 1.803-0.367 3.192-1.1 4.162-0.734 0.969-1.641 1.453-2.724 1.453m-0.018-17.828c-3.169 0-5.751 1.037-7.746 3.11-1.997 2.075-2.995 5.104-2.995 9.084 0 3.984 1.009 6.999 3.027 9.053 2.02 2.051 4.624 3.077 7.817 3.077 3.192 0 5.768-1.008 7.73-3.029 1.963-2.018 2.944-5.076 2.944-9.167 0-4.094-1.004-7.139-3.012-9.137-2.007-1.994-4.596-2.991-7.765-2.991" fill="#414042"/></g><g transform="translate(181.02 26.566)"><path d="m0 0c0-0.448-1.115-0.676-3.349-0.676-2.232 0-3.35 0.228-3.35 0.676v16.985h-4.059c-0.384 0-0.655 0.518-0.812 1.558-0.068 0.495-0.1 1.002-0.1 1.521 0 0.517 0.032 1.026 0.1 1.522 0.157 1.037 0.428 1.559 0.812 1.559h14.717c0.383 0 0.653-0.522 0.812-1.559 0.067-0.496 0.101-1.005 0.101-1.522 0-0.519-0.034-1.026-0.101-1.521-0.159-1.04-0.429-1.558-0.812-1.558h-3.959v-16.985z" fill="#414042"/></g><g transform="translate(96.044 38.589)"><path d="m0 0c-1.821 0.028-3.906-0.352-3.906-0.352v-3.554h2.096l-0.023-1.585c0-0.587-0.582-0.882-1.743-0.882-1.162 0-2.188 0.492-3.078 1.474-0.893 0.982-1.337 2.419-1.337 4.311 0 1.897 0.434 3.295 1.303 4.197 0.866 0.902 2.002 1.354 3.399 1.354 0.587 0 1.195-0.095 1.827-0.288 0.632-0.192 1.055-0.371 1.27-0.539 0.214-0.173 0.417-0.255 0.609-0.255 0.191 0 0.501 0.223 0.929 0.676 0.429 0.451 0.813 1.134 1.152 2.046 0.337 0.916 0.506 1.618 0.506 2.116 0 0.494-0.01 0.835-0.032 1.014-0.474 0.519-1.348 0.93-2.624 1.236-1.273 0.304-2.7 0.456-4.279 0.456-3.474 0-6.191-1.094-8.153-3.281-1.963-2.189-2.943-5.03-2.943-8.527 0-4.105 1.003-7.218 3.008-9.338 2.01-2.12 4.648-3.178 7.919-3.178 1.759 0 3.321 0.151 4.684 0.456 1.366 0.303 2.274 0.615 2.726 0.93l0.135 10.587c0 0.615-1.624 0.895-3.445 0.926" fill="#414042"/></g></g><g transform="translate(64.312 21.795)"><path d="m0 0v-3.942c0-0.39-0.25-0.734-0.621-0.852l-6.214-2.006c-0.273-0.091-0.57-0.042-0.8 0.128-0.232 0.168-0.37 0.437-0.37 0.721v4.305l-5.818-1.108v-4.381c0-0.447-0.332-0.824-0.775-0.885l-8.41-1.152c-0.039-3e-3 -0.081-8e-3 -0.121-8e-3 -0.214 0-0.424 0.078-0.588 0.22-0.195 0.172-0.306 0.416-0.306 0.676v4.638l-4.341-0.018v-1e-3l-0.318 1e-3 -0.319-1e-3v1e-3l-4.34 0.018v-4.638c0-0.26-0.112-0.504-0.307-0.676-0.164-0.142-0.374-0.22-0.587-0.22-0.041 0-0.082 5e-3 -0.123 8e-3l-8.41 1.152c-0.442 0.061-0.774 0.438-0.774 0.885v4.381l-5.819 1.108v-4.305c0-0.284-0.137-0.553-0.368-0.721-0.232-0.17-0.529-0.219-0.802-0.128l-6.215 2.006c-0.369 0.118-0.619 0.462-0.619 0.852v3.942l-3.837 1.29c-0.19-0.811-0.295-1.642-0.295-2.481 0-10.301 14.512-18.252 32.448-18.309h0.022 0.023c17.936 0.057 32.448 8.008 32.448 18.309 0 0.766-0.088 1.521-0.247 2.266l-3.197-1.075z" fill="#478cbf"/></g><g transform="translate(5.9634 40.062)"><path d="m0 0v-16.047l2.163-0.729c0.364-0.122 0.61-0.462 0.61-0.847v-3.936l4.426-1.428v4.154c0 0.27 0.118 0.52 0.323 0.689 0.206 0.172 0.474 0.241 0.739 0.192l7.608-1.452c0.422-0.079 0.728-0.448 0.728-0.877v-4.338l6.62-0.904v4.509c0 0.241 0.096 0.467 0.264 0.635 0.167 0.166 0.394 0.259 0.633 0.259h2e-3l5.551-0.022 5.549 0.022c0.245-1e-3 0.468-0.093 0.635-0.259 0.169-0.168 0.264-0.394 0.264-0.635v-4.509l6.621 0.904v4.338c0 0.429 0.304 0.798 0.726 0.877l7.609 1.452c0.262 0.049 0.533-0.02 0.738-0.192 0.205-0.169 0.325-0.419 0.325-0.689v-4.154l4.425 1.428v3.936c0 0.385 0.245 0.725 0.609 0.847l1.475 0.497v16.279h0.04c1.437 1.834 2.767 3.767 4.042 5.828-1.694 2.883-3.768 5.459-5.986 7.846-2.057-1.035-4.055-2.208-5.942-3.456-0.944 0.938-2.008 1.706-3.052 2.509-1.027 0.824-2.183 1.428-3.281 2.132 0.327 2.433 0.489 4.828 0.554 7.327-2.831 1.424-5.85 2.369-8.903 3.047-1.219-2.048-2.334-4.267-3.304-6.436-1.152 0.192-2.309 0.264-3.467 0.277v2e-3c-8e-3 0-0.015-2e-3 -0.022-2e-3 -8e-3 0-0.015 2e-3 -0.022 2e-3v-2e-3c-1.16-0.013-2.316-0.085-3.468-0.277-0.97 2.169-2.084 4.388-3.305 6.436-3.052-0.678-6.071-1.623-8.901-3.047 0.064-2.499 0.226-4.894 0.554-7.327-1.099-0.704-2.255-1.308-3.282-2.132-1.043-0.803-2.108-1.571-3.052-2.509-1.888 1.248-3.885 2.421-5.942 3.456-2.218-2.387-4.292-4.963-5.986-7.846 1.275-2.061 2.605-3.994 4.042-5.828h0.04z" fill="#478cbf"/></g><g transform="translate(26.843 32.36)"><path d="m0 0c0-3.611-2.926-6.537-6.537-6.537-3.608 0-6.535 2.926-6.535 6.537 0 3.609 2.927 6.533 6.535 6.533 3.611 0 6.537-2.924 6.537-6.533" fill="#fff"/></g><g transform="translate(25.27 31.973)"><path d="m0 0c0-2.396-1.941-4.337-4.339-4.337-2.396 0-4.339 1.941-4.339 4.337s1.943 4.339 4.339 4.339c2.398 0 4.339-1.943 4.339-4.339" fill="#414042"/></g><g transform="translate(35.682 25.228)"><path d="m0 0c-1.162 0-2.104 0.856-2.104 1.912v6.018c0 1.054 0.942 1.912 2.104 1.912s2.106-0.858 2.106-1.912v-6.018c0-1.056-0.944-1.912-2.106-1.912" fill="#fff"/></g><g transform="translate(44.522 32.36)"><path d="m0 0c0-3.611 2.926-6.537 6.537-6.537 3.609 0 6.535 2.926 6.535 6.537 0 3.609-2.926 6.533-6.535 6.533-3.611 0-6.537-2.924-6.537-6.533" fill="#fff"/></g><g transform="translate(46.095 31.973)"><path d="m0 0c0-2.396 1.941-4.337 4.336-4.337 2.398 0 4.339 1.941 4.339 4.337s-1.941 4.339-4.339 4.339c-2.395 0-4.336-1.943-4.336-4.339" fill="#414042"/></g></g></svg>
