<svg xmlns="http://www.w3.org/2000/svg" width="336.2" height="317.05" viewBox="0 0 315.192 297.23"><defs><clipPath id="errlsvga"><path d="M0 595.276h841.89V0H0z"/></clipPath></defs><g clip-path="url(#errlsvga)" transform="matrix(1.25 0 0 -1.25 -139.25 551.61)"><path d="M348.13 279.27s-.368 2.255-.582 2.235l-40.924-3.949a6.65 6.65 0 0 1-6.014-6.174l-1.124-16.114-31.66-2.259-2.154 14.604c-.48 3.248-3.316 5.697-6.6 5.697h-43.193a6.71 6.71 0 0 1-6.599-5.697l-2.155-14.604-31.66 2.259-1.124 16.114a6.65 6.65 0 0 1-6.014 6.176l-40.944 3.947c-.212.02-.366-2.237-.578-2.237l-.055-8.856 34.676-5.592 1.136-16.258c.23-3.291 2.885-5.953 6.179-6.189l43.603-3.11.491-.018c3.277 0 6.109 2.45 6.588 5.698l2.216 15.027h31.675l2.216-15.027a6.71 6.71 0 0 1 6.595-5.697l.478.017 43.609 3.11c3.293.236 5.949 2.898 6.179 6.189l1.134 16.258 34.661 5.617z" fill="#fff"/><path d="M211.833 441.29c-11.519-2.561-22.913-6.125-33.596-11.502.244-9.433.854-18.471 2.09-27.652-4.149-2.658-8.509-4.939-12.384-8.05-3.937-3.029-7.959-5.928-11.524-9.47-7.122 4.711-14.66 9.138-22.425 13.046-8.371-9.009-16.199-18.733-22.592-29.613 4.81-7.782 9.832-15.076 15.255-21.998h.151v-66.779a4.44 4.44 0 0 0 .366-.018l40.939-3.946a4.41 4.41 0 0 0 3.974-4.083l1.263-18.072 35.711-2.549 2.459 16.68a4.41 4.41 0 0 0 4.362 3.765h43.193a4.41 4.41 0 0 0 4.361-3.765l2.459-16.68 35.713 2.549 1.261 18.072a4.41 4.41 0 0 0 3.974 4.083l40.923 3.946c.121.011.243.016.365.018v5.329l.018.006v61.445h.151c5.423 6.922 10.442 14.216 15.255 21.998-6.392 10.881-14.223 20.605-22.594 29.613-7.763-3.908-15.304-8.335-22.427-13.046-3.564 3.542-7.578 6.441-11.521 9.47-3.874 3.112-8.24 5.393-12.381 8.051 1.233 9.181 1.843 18.219 2.089 27.652-10.684 5.377-22.078 8.942-33.602 11.502-4.601-7.733-8.809-16.106-12.473-24.293-4.346.726-8.711.995-13.082 1.047v.006c-.031 0-.059-.006-.085-.006s-.056.006-.083.006v-.006c-4.379-.052-8.742-.321-13.088-1.047-3.662 8.186-7.867 16.56-12.475 24.293zm-85.095-170.85l.067-9.154c0-38.878 49.32-57.565 110.595-57.781h.151c61.276.215 110.58 18.902 110.58 57.781l.072 9.154-36.798-3.549-1.269-18.169a4.41 4.41 0 0 0-4.084-4.09l-43.609-3.111a4.23 4.23 0 0 0-.318-.012 4.41 4.41 0 0 0-4.356 3.768l-2.5 16.958h-35.582l-2.5-16.958c-.336-2.282-2.376-3.924-4.674-3.756l-43.609 3.111a4.41 4.41 0 0 0-4.084 4.09l-1.267 18.169-36.813 3.549z" fill="#478cbf"/><path d="M179.442 343.603c-13.62 0-24.668-11.037-24.668-24.659 0-13.631 11.048-24.673 24.668-24.673 13.627 0 24.672 11.042 24.672 24.673 0 13.622-11.045 24.659-24.672 24.659zm116.07 0c-13.629 0-24.673-11.037-24.673-24.659 0-13.631 11.044-24.673 24.673-24.673 13.619 0 24.665 11.042 24.665 24.673 0 13.622-11.046 24.659-24.665 24.659zm-58.04-14.43c-4.386 0-7.941-3.236-7.941-7.217v-22.712c0-3.985 3.555-7.217 7.941-7.217s7.95 3.233 7.95 7.217v22.712c0 3.981-3.563 7.217-7.95 7.217z" fill="#fff"/><path d="M170.16 301.49l-7.956 7.955 9.281 9.28-9.281 9.281 7.956 7.955 9.28-9.28 9.281 9.28 7.956-7.955-9.28-9.281 9.28-9.28-7.956-7.955-9.281 9.281zm116.06.265l-7.956 7.955 9.281 9.28-9.281 9.281 7.956 7.955 9.28-9.28 9.281 9.28 7.956-7.955-9.28-9.281 9.28-9.28-7.956-7.955-9.281 9.281z" fill="#414042"/></g></svg>