<svg xmlns="http://www.w3.org/2000/svg" viewBox="0 0 100 100"><path fill="#fff" d="M91 63.14V62l-15.4 1.5c-1.5.38-2.25 1.13-2.25 2.63l-.75 6-11.64.76-.75-5.63a2.82 2.82.0 00-2.63-1.88H41.44a2.82 2.82.0 00-2.63 1.88l-.75 5.63-12-.75-.38-6c0-1.5-.75-2.26-2.26-2.64L8.03 62v4.5l12.77 1.9.75 6c0 1.51.75 2.26 2.25 2.64l16.14 1.12h.38a2.42 2.42.0 002.25-2.25l1.13-5.63h11.63l1.13 5.63a2.63 2.63.0 002.63 2.25l16.14-1.12c1.5-.38 2.25-1.13 2.25-2.63l.75-6 12.76-1.88zm0 0"/><path fill="#478cbf" d="M39.94 2.33c-4.5.75-8.64 2.25-12.76 4.13l.75 10.5-4.5 3-4.51 3.39-8.26-4.88c-3 3.38-6 7.13-8.63 11.26l6 8.26v25.15l15.4 1.5c.75.0 1.5.75 1.5 1.5l.37 6.76 13.51.75 1.13-6c0-.76.75-1.5 1.5-1.5h16.14c.75.0 1.5.74 1.5 1.5l1.13 6 13.51-.75.38-6.76c0-.75.75-1.5 1.5-1.5l15.4-1.5V37.99l6-8.26a88.77 88.77.0 00-8.64-11.26l-8.25 4.88-4.5-3.38-4.51-3 .75-10.51a50.64 50.64.0 00-12.76-4.13l-4.51 9-4.88-.37h-.38l-4.87.38zM8.04 66.52v3.37c0 14.65 18.39 21.4 41.28 21.4h.38c22.9.0 41.3-6.75 41.3-21.4v-3.37l-13.9 1.12-.37 6.76c0 .75-.75 1.5-1.5 1.5L58.7 77.03c-.75.0-1.5-.38-1.5-1.13l-1.13-6.38H42.94l-1.12 6.38c0 .75-.75 1.5-1.5 1.13L23.8 75.9c-.75.0-1.5-.75-1.5-1.5l-.38-6.76zm0 0"/><path fill="#fff" d="M27.55 38.74a9.39 9.39.0 100 18.77 9.39 9.39.0 000-18.77zm43.92.0a9.39 9.39.0 10-.66 18.77 9.39 9.39.0 00.66-18.77zm-22.15 5.63A2.57 2.57.0 0046.7 47v8.63c0 1.5 1.12 2.63 2.62 2.63s3-1.13 3-2.63V47c0-1.5-1.12-2.63-3-2.63zm0 0"/><path fill="#414042" d="M28.68 42.5a6.2 6.2.0 10-.28 12.38 6.2 6.2.0 00.28-12.39zm41.66.0a6.2 6.2.0 10-.27 12.37 6.2 6.2.0 00.27-12.38zm0 0"/></svg>