<svg xmlns="http://www.w3.org/2000/svg" width="944" height="333.05" viewBox="0 0 885 312.233"><defs><clipPath id="logomsvga"><path d="M0 595.276h841.89V0H0z"/></clipPath></defs><g clip-path="url(#logomsvga)" transform="matrix(1.25 0 0 -1.25 -131.75 559.11)"><path d="M453.43 368.3c-13.113 0-23.367-4.129-30.772-12.385-7.411-8.26-11.109-18.981-11.109-32.18 0-15.497 3.786-27.245 11.357-35.247 7.585-8.001 17.543-11.997 29.889-11.997 6.639 0 12.532.572 17.681 1.723 5.154 1.146 8.58 2.321 10.285 3.511l.511 39.959c0 2.322-6.129 3.377-13.003 3.495-6.875.106-14.742-1.327-14.742-1.327v-13.418h7.912l-.088-5.981c0-2.216-2.197-3.328-6.577-3.328-4.386 0-8.26 1.856-11.621 5.56-3.368 3.709-5.043 9.131-5.043 16.274 0 7.158 1.637 12.435 4.915 15.841 3.271 3.402 7.559 5.109 12.833 5.109 2.216 0 4.51-.357 6.895-1.087 2.387-.723 3.98-1.4 4.793-2.035.806-.653 1.573-.962 2.298-.962s1.891.845 3.507 2.552 3.068 4.282 4.348 7.721c1.274 3.458 1.912 6.108 1.912 7.988 0 1.865-.042 3.151-.125 3.829-1.788 1.957-5.089 3.509-9.902 4.663-4.805 1.15-10.192 1.721-16.151 1.721zm78.344 0c-12.047 0-21.882-3.874-29.5-11.615-7.616-7.751-11.424-19.134-11.424-34.167 0-15.025 3.765-26.454 11.292-34.286 7.537-7.826 17.288-11.739 29.247-11.739s21.727 3.762 29.307 11.288c7.58 7.542 11.367 19.035 11.367 34.487 0 15.44-3.701 26.984-11.115 34.6-7.4 7.63-17.129 11.433-29.174 11.433zm169.36 0c-12.051 0-21.88-3.874-29.505-11.615-7.615-7.751-11.423-19.134-11.423-34.167 0-15.025 3.766-26.454 11.303-34.286 7.531-7.826 17.275-11.739 29.238-11.739s21.73 3.762 29.307 11.288c7.579 7.542 11.367 19.035 11.367 34.487 0 15.44-3.701 26.984-11.109 34.6-7.409 7.63-17.131 11.433-29.178 11.433zm-112.05-1.143c-1.708 0-3.089-.623-4.151-1.85-1.069-1.246-1.598-2.927-1.598-5.057V283.64c0-3.919 2.175-5.873 6.514-5.873h21.831c26.732 0 40.103 15.661 40.103 46.991 0 14.645-3.514 25.366-10.544 32.175-7.017 6.811-17.296 10.225-30.829 10.225zm159.32 0c-1.449 0-2.471-1.967-3.064-5.883-.256-1.872-.378-3.792-.378-5.742 0-1.961.122-3.874.378-5.742.594-3.926 1.616-5.88 3.064-5.88h15.321v-64.109c0-1.692 4.22-2.55 12.645-2.55 8.432 0 12.642.858 12.642 2.55v64.109h14.941c1.447 0 2.465 1.954 3.067 5.88.25 1.868.379 3.781.379 5.742a43.41 43.41 0 0 1-.379 5.742c-.603 3.916-1.621 5.883-3.067 5.883zm-216.96-23.376c4.09 0 7.517-1.829 10.28-5.484s4.154-8.901 4.154-15.71c0-6.815-1.344-12.049-4.025-15.706-2.682-3.67-6.174-5.499-10.472-5.499s-7.766 1.807-10.405 5.435c-2.643 3.616-3.962 8.805-3.962 15.583 0 6.764 1.388 12.02 4.148 15.765 2.776 3.741 6.197 5.618 10.282 5.618zm169.36 0c4.09 0 7.513-1.829 10.28-5.484s4.151-8.901 4.151-15.71c0-6.815-1.342-12.049-4.025-15.706-2.678-3.67-6.173-5.499-10.472-5.499s-7.769 1.807-10.405 5.435c-2.635 3.616-3.958 8.805-3.958 15.583 0 6.764 1.381 12.02 4.141 15.765 2.771 3.741 6.202 5.618 10.288 5.618zm-92.959-.885h1.277c5.448 0 9.43-1.246 11.944-3.715 2.502-2.462 3.76-7.763 3.76-15.898s-1.203-13.936-3.636-17.423c-2.427-3.49-5.977-5.241-10.664-5.241-1.274 0-2.042.235-2.295.705s-.387 1.596-.387 3.379z" fill="#414042"/><path d="M348.13 279.27s-.368 2.255-.582 2.235l-40.924-3.949a6.65 6.65 0 0 1-6.014-6.174l-1.124-16.114-31.66-2.259-2.154 14.604c-.48 3.248-3.316 5.697-6.6 5.697h-43.193a6.71 6.71 0 0 1-6.599-5.697l-2.155-14.604-31.66 2.259-1.124 16.114a6.65 6.65 0 0 1-6.014 6.176l-40.944 3.947c-.212.02-.366-2.237-.578-2.237l-.055-8.856 34.676-5.592 1.136-16.258c.23-3.291 2.885-5.953 6.179-6.189l43.603-3.11.491-.018c3.277 0 6.109 2.45 6.588 5.698l2.216 15.027h31.675l2.216-15.027a6.71 6.71 0 0 1 6.595-5.697l.478.017 43.609 3.11c3.293.236 5.949 2.898 6.179 6.189l1.134 16.258 34.661 5.617z" fill="#fff"/><path d="M211.833 441.29c-11.519-2.561-22.913-6.125-33.596-11.502.244-9.433.854-18.471 2.09-27.652-4.149-2.658-8.509-4.939-12.384-8.05-3.937-3.029-7.959-5.928-11.524-9.47-7.122 4.711-14.66 9.138-22.425 13.046-8.371-9.009-16.199-18.733-22.592-29.613 4.81-7.782 9.832-15.076 15.255-21.998h.151v-66.779a4.46 4.46 0 0 0 .366-.018l40.939-3.946a4.41 4.41 0 0 0 3.974-4.083l1.263-18.072 35.711-2.549 2.459 16.68a4.41 4.41 0 0 0 4.362 3.765h43.193a4.41 4.41 0 0 0 4.361-3.765l2.459-16.68 35.713 2.549 1.261 18.072a4.41 4.41 0 0 0 3.974 4.083l40.923 3.946c.121.011.243.016.365.018v5.329l.018.006v61.445h.151c5.423 6.922 10.442 14.216 15.255 21.998-6.392 10.881-14.223 20.605-22.594 29.613-7.763-3.908-15.305-8.335-22.427-13.046-3.564 3.542-7.578 6.441-11.521 9.47-3.874 3.112-8.24 5.393-12.381 8.051 1.233 9.181 1.843 18.219 2.089 27.652-10.684 5.377-22.078 8.942-33.602 11.502-4.601-7.733-8.809-16.106-12.473-24.293-4.346.726-8.711.995-13.082 1.047v.006c-.031 0-.059-.006-.085-.006s-.056.006-.083.006v-.006c-4.379-.052-8.742-.321-13.088-1.047-3.662 8.186-7.867 16.56-12.475 24.293zm-85.095-170.85l.067-9.154c0-38.878 49.32-57.565 110.595-57.781h.151c61.276.215 110.58 18.902 110.58 57.781l.072 9.154-36.798-3.549-1.269-18.169a4.41 4.41 0 0 0-4.084-4.09l-43.609-3.111c-.106-.008-.213-.012-.318-.012a4.41 4.41 0 0 0-4.356 3.768l-2.501 16.958h-35.582l-2.5-16.958c-.336-2.282-2.376-3.924-4.674-3.756l-43.609 3.111a4.41 4.41 0 0 0-4.084 4.09l-1.267 18.169-36.813 3.549z" fill="#478cbf"/><path d="M179.442 343.603c-13.62 0-24.668-11.037-24.668-24.659 0-13.631 11.048-24.673 24.668-24.673 13.627 0 24.672 11.042 24.672 24.673 0 13.622-11.045 24.659-24.672 24.659zm116.07 0c-13.629 0-24.673-11.037-24.673-24.659 0-13.631 11.044-24.673 24.673-24.673 13.619 0 24.665 11.042 24.665 24.673 0 13.622-11.046 24.659-24.665 24.659zm-58.04-14.43c-4.386 0-7.941-3.236-7.941-7.217v-22.712c0-3.985 3.555-7.217 7.941-7.217s7.95 3.233 7.95 7.217v22.712c0 3.981-3.563 7.217-7.95 7.217z" fill="#fff"/><path d="M181.803 333.853c-9.044 0-16.375-7.335-16.375-16.377s7.332-16.37 16.375-16.37 16.377 7.328 16.377 16.37a16.38 16.38 0 0 1-16.377 16.377zm111.345 0c-9.042 0-16.368-7.335-16.368-16.377a16.37 16.37 0 1 1 32.744 0c0 9.042-7.325 16.377-16.375 16.377z" fill="#414042"/></g></svg>