<svg xmlns="http://www.w3.org/2000/svg" height="333.05" viewBox="0 0 885 312.233" width="944"><path d="M435.038 98.735c-16.391 0-29.209 5.161-38.465 15.481-9.263 10.325-13.886 23.726-13.886 40.225 0 19.371 4.732 34.056 14.196 44.059 9.481 10.001 21.929 14.996 37.361 14.996 8.299 0 15.665-.715 22.101-2.153 6.443-1.432 10.725-2.902 12.856-4.389l.639-49.949c0-2.903-7.661-4.222-16.254-4.369-8.593-.133-18.428 1.659-18.428 1.659v16.773h9.889l-.11 7.476c0 2.77-2.746 4.16-8.221 4.16-5.483 0-10.325-2.32-14.526-6.951-4.21-4.636-6.304-11.413-6.304-20.342 0-8.948 2.046-15.544 6.143-19.801 4.089-4.253 9.449-6.387 16.041-6.387 2.77 0 5.637.447 8.619 1.359 2.983.903 4.975 1.75 5.991 2.543 1.008.816 1.967 1.203 2.873 1.203s2.363-1.056 4.384-3.19c2.023-2.128 3.836-5.352 5.435-9.651 1.592-4.322 2.389-7.635 2.389-9.985 0-2.331-.052-3.938-.156-4.786-2.235-2.446-6.361-4.386-12.378-5.828-6.006-1.438-12.74-2.152-20.189-2.152zm97.93 0c-15.059 0-27.353 4.842-36.875 14.519-9.521 9.689-14.28 23.917-14.28 42.709 0 18.781 4.707 33.067 14.115 42.857 9.422 9.782 21.61 14.674 36.559 14.674 14.955 0 27.159-4.703 36.634-14.11 9.475-9.427 14.209-23.794 14.209-43.109 0-19.3-4.626-33.73-13.894-43.25-9.251-9.538-21.411-14.291-36.467-14.291zm211.7 0c-15.064 0-27.35 4.842-36.881 14.519-9.519 9.689-14.279 23.917-14.279 42.709 0 18.781 4.708 33.067 14.129 42.857 9.413 9.782 21.594 14.674 36.548 14.674s27.163-4.703 36.634-14.11c9.474-9.427 14.209-23.794 14.209-43.109 0-19.3-4.626-33.73-13.886-43.25-9.262-9.538-21.414-14.291-36.472-14.291zm-140.062 1.428c-2.135 0-3.862.779-5.189 2.313-1.336 1.558-1.998 3.659-1.998 6.321v95.764c0 4.899 2.719 7.341 8.143 7.341h27.289c33.415 0 50.129-19.576 50.129-58.739 0-18.306-4.393-31.707-13.18-40.219-8.771-8.514-21.62-12.781-38.536-12.781zm199.15 0c-1.811 0-3.088 2.459-3.831 7.353a53.01 53.01 0 0 0-.472 7.178 52.99 52.99 0 0 0 .472 7.178c.742 4.907 2.019 7.35 3.831 7.35h19.151v80.136c0 2.115 5.275 3.188 15.806 3.188 10.54 0 15.803-1.073 15.803-3.188v-80.136h18.676c1.808 0 3.081-2.442 3.834-7.35.312-2.336.474-4.726.474-7.178a54.35 54.35 0 0 0-.474-7.178c-.754-4.895-2.026-7.353-3.834-7.353zm-271.2 29.22c5.112 0 9.396 2.286 12.85 6.856s5.193 11.127 5.193 19.637c0 8.518-1.68 15.061-5.032 19.632-3.352 4.588-7.718 6.874-13.09 6.874s-9.707-2.259-13.006-6.793c-3.304-4.52-4.953-11.006-4.953-19.479 0-8.455 1.734-15.025 5.186-19.706 3.47-4.677 7.747-7.022 12.852-7.022zm211.7 0c5.112 0 9.391 2.286 12.85 6.856s5.189 11.127 5.189 19.637c0 8.518-1.678 15.061-5.032 19.632-3.348 4.588-7.716 6.874-13.09 6.874s-9.712-2.259-13.006-6.793c-3.294-4.52-4.947-11.006-4.947-19.479 0-8.455 1.727-15.025 5.176-19.706 3.464-4.677 7.753-7.022 12.86-7.022zm-116.199 1.106h1.597c6.81 0 11.788 1.557 14.93 4.643 3.127 3.078 4.7 9.704 4.7 19.873s-1.504 17.42-4.545 21.779c-3.034 4.363-7.471 6.552-13.33 6.552-1.592 0-2.553-.294-2.869-.881s-.483-1.995-.483-4.224zm-324.644 79.534s-.459-2.819-.728-2.794l-51.155 4.936c-4.07.393-7.232 3.639-7.517 7.718l-1.405 20.142-39.575 2.823-2.692-18.255a8.39 8.39 0 0 0-8.25-7.121H138.1a8.39 8.39 0 0 0-8.248 7.121l-2.693 18.255-39.575-2.823-1.405-20.142c-.286-4.08-3.447-7.326-7.517-7.72l-51.18-4.934c-.264-.025-.458 2.796-.722 2.796l-.069 11.07 43.345 6.99 1.419 20.322c.287 4.114 3.607 7.441 7.724 7.736l54.504 3.888a8.99 8.99 0 0 0 .614.023c4.096 0 7.636-3.062 8.236-7.123l2.77-18.784h39.594l2.77 18.784c.598 4.059 4.143 7.121 8.244 7.121a8.27 8.27 0 0 0 .598-.021l54.511-3.888c4.116-.295 7.437-3.622 7.724-7.736l1.418-20.322 43.326-7.021z" fill="#fff"/><path d="M133.041 7.498c-14.398 3.201-28.642 7.656-41.995 14.378.305 11.791 1.068 23.089 2.613 34.565-5.186 3.322-10.636 6.174-15.48 10.063-4.921 3.786-9.949 7.41-14.405 11.838-8.903-5.889-18.324-11.422-28.031-16.308-10.463 11.261-20.248 23.416-28.24 37.016 6.013 9.727 12.291 18.845 19.069 27.497h.189v83.474a5.38 5.38 0 0 1 .458.022l51.174 4.933a5.51 5.51 0 0 1 4.968 5.103l1.578 22.59 44.639 3.186 3.074-20.85a5.51 5.51 0 0 1 5.453-4.706h53.991a5.51 5.51 0 0 1 5.451 4.706l3.074 20.85 44.641-3.186 1.577-22.59c.188-2.686 2.287-4.843 4.968-5.103l51.154-4.933a5.45 5.45 0 0 1 .456-.022v-6.661l.022-.007v-76.806h.189c6.779-8.653 13.053-17.77 19.069-27.497-7.989-13.601-17.779-25.756-28.242-37.016-9.704 4.885-19.131 10.418-28.033 16.308-4.455-4.428-9.473-8.052-14.401-11.838-4.842-3.889-10.3-6.741-15.476-10.063 1.541-11.476 2.304-22.774 2.611-34.565-13.355-6.722-27.597-11.177-42.003-14.378-5.751 9.667-11.011 20.133-15.592 30.367-5.432-.908-10.889-1.244-16.353-1.309v-.007c-.038 0-.074.007-.106.007s-.07-.007-.104-.007v.007c-5.474.065-10.928.402-16.36 1.309-4.578-10.233-9.833-20.7-15.593-30.367zM26.672 221.06l.084 11.442c0 48.598 61.65 71.957 138.244 72.226h.189c76.595-.269 138.225-23.628 138.225-72.226l.09-11.442-45.997 4.437-1.586 22.711c-.191 2.737-2.368 4.916-5.105 5.112l-54.511 3.889c-.133.01-.266.015-.397.015-2.709 0-5.045-1.989-5.446-4.709l-3.126-21.198h-44.478l-3.126 21.198a5.51 5.51 0 0 1-5.843 4.695l-54.511-3.889c-2.737-.197-4.914-2.375-5.105-5.112l-1.584-22.711-46.016-4.437z" fill="#478cbf"/><path d="M92.553 129.607c-17.025 0-30.835 13.796-30.835 30.824 0 17.039 13.809 30.842 30.835 30.842 17.033 0 30.84-13.803 30.84-30.842 0-17.028-13.807-30.824-30.84-30.824zm145.087 0c-17.036 0-30.842 13.796-30.842 30.824 0 17.039 13.806 30.842 30.842 30.842 17.024 0 30.832-13.803 30.832-30.842 0-17.028-13.808-30.824-30.832-30.824zm-72.55 18.038c-5.483 0-9.926 4.045-9.926 9.022v28.39c0 4.981 4.443 9.022 9.926 9.022s9.938-4.041 9.938-9.022v-28.39c0-4.977-4.454-9.022-9.937-9.022z" fill="#fff"/><path d="M95.503 141.794c-11.305 0-20.469 9.169-20.469 20.471s9.164 20.462 20.469 20.462c11.311 0 20.471-9.16 20.471-20.462s-9.161-20.471-20.471-20.471zm139.181 0c-11.303 0-20.46 9.169-20.46 20.471s9.158 20.462 20.46 20.462c11.314 0 20.469-9.16 20.469-20.462s-9.156-20.471-20.469-20.471z" fill="#414042"/></svg>