<?xml version="1.0" encoding="UTF-8" standalone="no"?>
<svg
   width="869"
   height="140"
   fill="none"
   version="1.1"
   id="svg50"
   xml:space="preserve"
   xmlns="http://www.w3.org/2000/svg"
   xmlns:svg="http://www.w3.org/2000/svg"><path
     fill="#ffffff"
     stroke="#333639"
     stroke-width="6"
     d="m 281.4305,106.137 v 3 h 57.665 V 128.2 h 42.379 v -19.063 h 14.773 V 74.066 h -14.773 V 57.069 h -36.462 l 27.54,-41.408 3.101,-4.661 h -45.616 l -0.895,1.295 -47.18,68.309 -0.532,0.769 v 0.936 z m 58.777,-41.845 v 9.774 h -6.501 z"
     id="path3-6" /><path
     fill="#ffffff"
     stroke="#333639"
     stroke-width="6"
     d="m 284.292,124.756 0.015,0.014 0.015,0.014 c 3.651,3.363 8.168,5.005 13.345,5.005 5.177,0 9.693,-1.642 13.344,-5.005 l 0.016,-0.014 0.014,-0.014 c 3.686,-3.489 5.511,-7.96 5.511,-13.176 0,-5.276 -1.816,-9.752 -5.572,-13.115 -3.654,-3.272 -8.16,-4.859 -13.313,-4.859 -5.154,0 -9.66,1.587 -13.314,4.859 l 2.001,2.236 -2.001,-2.236 c -3.756,3.363 -5.572,7.839 -5.572,13.115 0,5.216 1.825,9.687 5.511,13.176 z"
     id="path2" /><path
     fill="#ffffff"
     stroke="#333639"
     stroke-width="6"
     d="m 176,106.137 v 3 h 57.665 V 128.2 h 42.379 v -19.063 h 14.773 V 74.066 H 276.044 V 57.069 H 239.582 L 267.122,15.661 270.223,11 h -45.616 l -0.895,1.295 -47.18,68.309 -0.532,0.769 v 0.936 z m 58.777,-41.845 v 9.774 h -6.501 z"
     id="path3" /><mask
     id="b"
     width="436"
     height="73"
     x="764"
     y="153"
     fill="#000000"
     maskUnits="userSpaceOnUse"><path
       fill="#ffffff"
       d="m 764,153 h 436 v 73 H 764 Z"
       id="path4" /><path
       d="m 767,221.712 v -64.424 h 29.339 c 5.868,0 10.911,0.951 15.129,2.853 4.278,1.903 7.579,4.663 9.902,8.283 2.322,3.559 3.484,7.793 3.484,12.701 0,4.847 -1.162,9.05 -3.484,12.609 -2.323,3.497 -5.624,6.196 -9.902,8.098 -4.218,1.841 -9.261,2.761 -15.129,2.761 h -19.254 l 8.069,-7.638 v 24.757 z m 39.7,0 -15.953,-23.469 h 19.345 l 16.045,23.469 z m -21.546,-22.825 -8.069,-8.375 h 18.154 c 3.79,0 6.602,-0.828 8.435,-2.485 1.895,-1.656 2.843,-3.957 2.843,-6.902 0,-3.006 -0.948,-5.338 -2.843,-6.995 -1.833,-1.656 -4.645,-2.484 -8.435,-2.484 h -18.154 l 8.069,-8.375 z m 66.402,-16.658 h 29.798 v 13.621 h -29.798 z m 1.283,25.401 h 33.557 v 14.082 h -51.527 v -64.424 h 50.335 v 14.082 h -32.365 z m 43.631,14.082 v -64.424 h 18.154 v 49.974 h 30.623 v 14.45 z m 72.648,-39.483 h 29.798 v 13.621 h -29.798 z m 1.283,25.401 h 33.559 v 14.082 h -51.529 v -64.424 h 50.339 v 14.082 h -32.369 z m 35.929,14.082 28.33,-64.424 h 17.88 l 28.42,64.424 h -18.88 l -22.19,-55.496 h 7.15 l -22.19,55.496 z m 15.5,-12.517 4.67,-13.437 h 31.36 l 4.67,13.437 z M 1108.66,223 c -5.25,0 -10.33,-0.644 -15.22,-1.933 -4.82,-1.35 -8.77,-3.067 -11.82,-5.154 l 5.96,-13.436 c 2.87,1.84 6.17,3.374 9.9,4.601 3.79,1.166 7.55,1.749 11.28,1.749 2.5,0 4.52,-0.215 6.05,-0.644 1.53,-0.491 2.63,-1.105 3.3,-1.841 0.73,-0.798 1.1,-1.718 1.1,-2.761 0,-1.472 -0.67,-2.638 -2.02,-3.497 -1.34,-0.859 -3.09,-1.565 -5.23,-2.117 -2.13,-0.552 -4.52,-1.104 -7.15,-1.657 a 78.192,78.192 0 0 1 -7.79,-2.116 c -2.57,-0.859 -4.92,-1.964 -7.06,-3.314 a 17.095,17.095 0 0 1 -5.23,-5.429 c -1.34,-2.271 -2.01,-5.124 -2.01,-8.56 0,-3.865 1.04,-7.362 3.11,-10.491 2.14,-3.129 5.32,-5.645 9.54,-7.547 4.22,-1.902 9.47,-2.853 15.77,-2.853 4.22,0 8.34,0.491 12.38,1.473 4.09,0.92 7.73,2.3 10.91,4.141 l -5.59,13.529 c -3.06,-1.657 -6.09,-2.884 -9.08,-3.681 -3,-0.859 -5.9,-1.289 -8.71,-1.289 -2.51,0 -4.53,0.276 -6.05,0.828 -1.53,0.491 -2.63,1.166 -3.3,2.025 -0.68,0.859 -1.01,1.841 -1.01,2.945 0,1.411 0.64,2.546 1.92,3.405 1.35,0.798 3.09,1.473 5.23,2.025 2.2,0.491 4.58,1.012 7.15,1.565 2.63,0.552 5.23,1.257 7.79,2.116 2.63,0.798 5.02,1.902 7.16,3.314 2.13,1.349 3.85,3.159 5.13,5.43 1.34,2.208 2.02,5 2.02,8.375 0,3.742 -1.07,7.209 -3.21,10.399 -2.08,3.129 -5.23,5.645 -9.45,7.547 -4.15,1.902 -9.41,2.853 -15.77,2.853 z m 53.5,-40.771 h 29.8 v 13.621 h -29.8 z m 1.28,25.401 H 1197 v 14.082 h -51.53 v -64.424 h 50.34 v 14.082 h -32.37 z"
       id="path5" /></mask><path
     stroke="url(#a)"
     stroke-linejoin="round"
     stroke-width="6"
     d="m 767,221.712 v -64.424 h 29.339 c 5.868,0 10.911,0.951 15.129,2.853 4.278,1.903 7.579,4.663 9.902,8.283 2.322,3.559 3.484,7.793 3.484,12.701 0,4.847 -1.162,9.05 -3.484,12.609 -2.323,3.497 -5.624,6.196 -9.902,8.098 -4.218,1.841 -9.261,2.761 -15.129,2.761 h -19.254 l 8.069,-7.638 v 24.757 z m 39.7,0 -15.953,-23.469 h 19.345 l 16.045,23.469 z m -21.546,-22.825 -8.069,-8.375 h 18.154 c 3.79,0 6.602,-0.828 8.435,-2.485 1.895,-1.656 2.843,-3.957 2.843,-6.902 0,-3.006 -0.948,-5.338 -2.843,-6.995 -1.833,-1.656 -4.645,-2.484 -8.435,-2.484 h -18.154 l 8.069,-8.375 z"
     mask="url(#b)"
     style="stroke:url(#a)"
     transform="translate(-331,-144)"
     id="path6" /><path
     stroke="url(#c)"
     stroke-linejoin="round"
     stroke-width="6"
     d="m 851.556,182.229 h 29.798 v 13.621 h -29.798 z m 1.283,25.401 h 33.557 v 14.082 h -51.527 v -64.424 h 50.335 v 14.082 h -32.365 z"
     mask="url(#b)"
     style="stroke:url(#c)"
     transform="translate(-331,-144)"
     id="path7" /><path
     stroke="url(#d)"
     stroke-linejoin="round"
     stroke-width="6"
     d="m 896.47,221.712 v -64.424 h 18.154 v 49.974 h 30.623 v 14.45 z"
     mask="url(#b)"
     style="stroke:url(#d)"
     transform="translate(-331,-144)"
     id="path8" /><path
     stroke="url(#e)"
     stroke-linejoin="round"
     stroke-width="6"
     d="m 969.118,182.229 h 29.798 v 13.621 h -29.798 z m 1.283,25.401 h 33.559 v 14.082 h -51.529 v -64.424 h 50.339 v 14.082 h -32.369 z"
     mask="url(#b)"
     style="stroke:url(#e)"
     transform="translate(-331,-144)"
     id="path9" /><path
     stroke="url(#f)"
     stroke-linejoin="round"
     stroke-width="6"
     d="m 1006.33,221.712 28.33,-64.424 h 17.88 l 28.42,64.424 h -18.88 l -22.19,-55.496 h 7.15 l -22.19,55.496 z m 15.5,-12.517 4.67,-13.437 h 31.36 l 4.67,13.437 z"
     mask="url(#b)"
     style="stroke:url(#f)"
     transform="translate(-331,-144)"
     id="path10" /><path
     stroke="url(#g)"
     stroke-linejoin="round"
     stroke-width="6"
     d="m 1108.66,223 c -5.25,0 -10.33,-0.644 -15.22,-1.933 -4.82,-1.35 -8.77,-3.067 -11.82,-5.154 l 5.96,-13.436 c 2.87,1.84 6.17,3.374 9.9,4.601 3.79,1.166 7.55,1.749 11.28,1.749 2.5,0 4.52,-0.215 6.05,-0.644 1.53,-0.491 2.63,-1.105 3.3,-1.841 0.73,-0.798 1.1,-1.718 1.1,-2.761 0,-1.472 -0.67,-2.638 -2.02,-3.497 -1.34,-0.859 -3.09,-1.565 -5.23,-2.117 -2.13,-0.552 -4.52,-1.104 -7.15,-1.657 a 78.192,78.192 0 0 1 -7.79,-2.116 c -2.57,-0.859 -4.92,-1.964 -7.06,-3.314 a 17.095,17.095 0 0 1 -5.23,-5.429 c -1.34,-2.271 -2.01,-5.124 -2.01,-8.56 0,-3.865 1.04,-7.362 3.11,-10.491 2.14,-3.129 5.32,-5.645 9.54,-7.547 4.22,-1.902 9.47,-2.853 15.77,-2.853 4.22,0 8.34,0.491 12.38,1.473 4.09,0.92 7.73,2.3 10.91,4.141 l -5.59,13.529 c -3.06,-1.657 -6.09,-2.884 -9.08,-3.681 -3,-0.859 -5.9,-1.289 -8.71,-1.289 -2.51,0 -4.53,0.276 -6.05,0.828 -1.53,0.491 -2.63,1.166 -3.3,2.025 -0.68,0.859 -1.01,1.841 -1.01,2.945 0,1.411 0.64,2.546 1.92,3.405 1.35,0.798 3.09,1.473 5.23,2.025 2.2,0.491 4.58,1.012 7.15,1.565 2.63,0.552 5.23,1.257 7.79,2.116 2.63,0.798 5.02,1.902 7.16,3.314 2.13,1.349 3.85,3.159 5.13,5.43 1.34,2.208 2.02,5 2.02,8.375 0,3.742 -1.07,7.209 -3.21,10.399 -2.08,3.129 -5.23,5.645 -9.45,7.547 -4.15,1.902 -9.41,2.853 -15.77,2.853 z"
     mask="url(#b)"
     style="stroke:url(#g)"
     transform="translate(-331,-144)"
     id="path11" /><path
     stroke="url(#h)"
     stroke-linejoin="round"
     stroke-width="6"
     d="m 1162.16,182.229 h 29.8 v 13.621 h -29.8 z m 1.28,25.401 H 1197 v 14.082 h -51.53 v -64.424 h 50.34 v 14.082 h -32.37 z"
     mask="url(#b)"
     style="stroke:url(#h)"
     transform="translate(-331,-144)"
     id="path12" /><mask
     id="j"
     width="436"
     height="73"
     x="764"
     y="199"
     fill="#000000"
     maskUnits="userSpaceOnUse"><path
       fill="#ffffff"
       d="m 764,199 h 436 v 73 H 764 Z"
       id="path13" /><path
       d="m 767,267.712 v -64.424 h 29.339 c 5.868,0 10.911,0.951 15.129,2.853 4.278,1.903 7.579,4.663 9.902,8.283 2.322,3.559 3.484,7.793 3.484,12.701 0,4.847 -1.162,9.05 -3.484,12.609 -2.323,3.497 -5.624,6.196 -9.902,8.098 -4.218,1.841 -9.261,2.761 -15.129,2.761 h -19.254 l 8.069,-7.638 v 24.757 z m 39.7,0 -15.953,-23.469 h 19.345 l 16.045,23.469 z m -21.546,-22.825 -8.069,-8.375 h 18.154 c 3.79,0 6.602,-0.828 8.435,-2.485 1.895,-1.656 2.843,-3.957 2.843,-6.902 0,-3.006 -0.948,-5.338 -2.843,-6.995 -1.833,-1.656 -4.645,-2.484 -8.435,-2.484 h -18.154 l 8.069,-8.375 z m 66.402,-16.658 h 29.798 v 13.621 h -29.798 z m 1.283,25.401 h 33.557 v 14.082 h -51.527 v -64.424 h 50.335 v 14.082 h -32.365 z m 43.631,14.082 v -64.424 h 18.154 v 49.974 h 30.623 v 14.45 z m 72.648,-39.483 h 29.798 v 13.621 h -29.798 z m 1.283,25.401 h 33.559 v 14.082 h -51.529 v -64.424 h 50.339 v 14.082 h -32.369 z m 35.929,14.082 28.33,-64.424 h 17.88 l 28.42,64.424 h -18.88 l -22.19,-55.496 h 7.15 l -22.19,55.496 z m 15.5,-12.517 4.67,-13.437 h 31.36 l 4.67,13.437 z M 1108.66,269 c -5.25,0 -10.33,-0.644 -15.22,-1.933 -4.82,-1.35 -8.77,-3.067 -11.82,-5.154 l 5.96,-13.436 c 2.87,1.84 6.17,3.374 9.9,4.601 3.79,1.166 7.55,1.749 11.28,1.749 2.5,0 4.52,-0.215 6.05,-0.644 1.53,-0.491 2.63,-1.105 3.3,-1.841 0.73,-0.798 1.1,-1.718 1.1,-2.761 0,-1.472 -0.67,-2.638 -2.02,-3.497 -1.34,-0.859 -3.09,-1.565 -5.23,-2.117 -2.13,-0.552 -4.52,-1.104 -7.15,-1.657 a 78.192,78.192 0 0 1 -7.79,-2.116 c -2.57,-0.859 -4.92,-1.964 -7.06,-3.314 a 17.095,17.095 0 0 1 -5.23,-5.429 c -1.34,-2.271 -2.01,-5.124 -2.01,-8.56 0,-3.865 1.04,-7.362 3.11,-10.491 2.14,-3.129 5.32,-5.645 9.54,-7.547 4.22,-1.902 9.47,-2.853 15.77,-2.853 4.22,0 8.34,0.491 12.38,1.473 4.09,0.92 7.73,2.3 10.91,4.141 l -5.59,13.529 c -3.06,-1.657 -6.09,-2.884 -9.08,-3.681 -3,-0.859 -5.9,-1.289 -8.71,-1.289 -2.51,0 -4.53,0.276 -6.05,0.828 -1.53,0.491 -2.63,1.166 -3.3,2.025 -0.68,0.859 -1.01,1.841 -1.01,2.945 0,1.411 0.64,2.546 1.92,3.405 1.35,0.798 3.09,1.473 5.23,2.025 2.2,0.491 4.58,1.012 7.15,1.565 2.63,0.552 5.23,1.257 7.79,2.116 2.63,0.798 5.02,1.902 7.16,3.314 2.13,1.349 3.85,3.159 5.13,5.43 1.34,2.208 2.02,5 2.02,8.375 0,3.742 -1.07,7.209 -3.21,10.399 -2.08,3.129 -5.23,5.645 -9.45,7.547 -4.15,1.902 -9.41,2.853 -15.77,2.853 z m 53.5,-40.771 h 29.8 v 13.621 h -29.8 z m 1.28,25.401 H 1197 v 14.082 h -51.53 v -64.424 h 50.34 v 14.082 h -32.37 z"
       id="path14" /></mask><path
     stroke="url(#i)"
     stroke-linejoin="round"
     stroke-width="6"
     d="m 767,267.712 v -64.424 h 29.339 c 5.868,0 10.911,0.951 15.129,2.853 4.278,1.903 7.579,4.663 9.902,8.283 2.322,3.559 3.484,7.793 3.484,12.701 0,4.847 -1.162,9.05 -3.484,12.609 -2.323,3.497 -5.624,6.196 -9.902,8.098 -4.218,1.841 -9.261,2.761 -15.129,2.761 h -19.254 l 8.069,-7.638 v 24.757 z m 39.7,0 -15.953,-23.469 h 19.345 l 16.045,23.469 z m -21.546,-22.825 -8.069,-8.375 h 18.154 c 3.79,0 6.602,-0.828 8.435,-2.485 1.895,-1.656 2.843,-3.957 2.843,-6.902 0,-3.006 -0.948,-5.338 -2.843,-6.995 -1.833,-1.656 -4.645,-2.484 -8.435,-2.484 h -18.154 l 8.069,-8.375 z"
     mask="url(#j)"
     style="stroke:url(#i)"
     transform="translate(-331,-144)"
     id="path15" /><path
     stroke="url(#k)"
     stroke-linejoin="round"
     stroke-width="6"
     d="m 851.556,228.229 h 29.798 v 13.621 h -29.798 z m 1.283,25.401 h 33.557 v 14.082 h -51.527 v -64.424 h 50.335 v 14.082 h -32.365 z"
     mask="url(#j)"
     style="stroke:url(#k)"
     transform="translate(-331,-144)"
     id="path16" /><path
     stroke="url(#l)"
     stroke-linejoin="round"
     stroke-width="6"
     d="m 896.47,267.712 v -64.424 h 18.154 v 49.974 h 30.623 v 14.45 z"
     mask="url(#j)"
     style="stroke:url(#l)"
     transform="translate(-331,-144)"
     id="path17" /><path
     stroke="url(#m)"
     stroke-linejoin="round"
     stroke-width="6"
     d="m 969.118,228.229 h 29.798 v 13.621 h -29.798 z m 1.283,25.401 h 33.559 v 14.082 h -51.529 v -64.424 h 50.339 v 14.082 h -32.369 z"
     mask="url(#j)"
     style="stroke:url(#m)"
     transform="translate(-331,-144)"
     id="path18" /><path
     stroke="url(#n)"
     stroke-linejoin="round"
     stroke-width="6"
     d="m 1006.33,267.712 28.33,-64.424 h 17.88 l 28.42,64.424 h -18.88 l -22.19,-55.496 h 7.15 l -22.19,55.496 z m 15.5,-12.517 4.67,-13.437 h 31.36 l 4.67,13.437 z"
     mask="url(#j)"
     style="stroke:url(#n)"
     transform="translate(-331,-144)"
     id="path19" /><path
     stroke="url(#o)"
     stroke-linejoin="round"
     stroke-width="6"
     d="m 1108.66,269 c -5.25,0 -10.33,-0.644 -15.22,-1.933 -4.82,-1.35 -8.77,-3.067 -11.82,-5.154 l 5.96,-13.436 c 2.87,1.84 6.17,3.374 9.9,4.601 3.79,1.166 7.55,1.749 11.28,1.749 2.5,0 4.52,-0.215 6.05,-0.644 1.53,-0.491 2.63,-1.105 3.3,-1.841 0.73,-0.798 1.1,-1.718 1.1,-2.761 0,-1.472 -0.67,-2.638 -2.02,-3.497 -1.34,-0.859 -3.09,-1.565 -5.23,-2.117 -2.13,-0.552 -4.52,-1.104 -7.15,-1.657 a 78.192,78.192 0 0 1 -7.79,-2.116 c -2.57,-0.859 -4.92,-1.964 -7.06,-3.314 a 17.095,17.095 0 0 1 -5.23,-5.429 c -1.34,-2.271 -2.01,-5.124 -2.01,-8.56 0,-3.865 1.04,-7.362 3.11,-10.491 2.14,-3.129 5.32,-5.645 9.54,-7.547 4.22,-1.902 9.47,-2.853 15.77,-2.853 4.22,0 8.34,0.491 12.38,1.473 4.09,0.92 7.73,2.3 10.91,4.141 l -5.59,13.529 c -3.06,-1.657 -6.09,-2.884 -9.08,-3.681 -3,-0.859 -5.9,-1.289 -8.71,-1.289 -2.51,0 -4.53,0.276 -6.05,0.828 -1.53,0.491 -2.63,1.166 -3.3,2.025 -0.68,0.859 -1.01,1.841 -1.01,2.945 0,1.411 0.64,2.546 1.92,3.405 1.35,0.798 3.09,1.473 5.23,2.025 2.2,0.491 4.58,1.012 7.15,1.565 2.63,0.552 5.23,1.257 7.79,2.116 2.63,0.798 5.02,1.902 7.16,3.314 2.13,1.349 3.85,3.159 5.13,5.43 1.34,2.208 2.02,5 2.02,8.375 0,3.742 -1.07,7.209 -3.21,10.399 -2.08,3.129 -5.23,5.645 -9.45,7.547 -4.15,1.902 -9.41,2.853 -15.77,2.853 z"
     mask="url(#j)"
     style="stroke:url(#o)"
     transform="translate(-331,-144)"
     id="path20" /><path
     stroke="url(#p)"
     stroke-linejoin="round"
     stroke-width="6"
     d="m 1162.16,228.229 h 29.8 v 13.621 h -29.8 z m 1.28,25.401 H 1197 v 14.082 h -51.53 v -64.424 h 50.34 v 14.082 h -32.37 z"
     mask="url(#j)"
     style="stroke:url(#p)"
     transform="translate(-331,-144)"
     id="path21" /><path
     fill="#ffffff"
     d="M 436,100.692 V 35.308 h 29.339 c 5.868,0 10.911,0.965 15.129,2.895 4.278,1.931 7.579,4.733 9.902,8.407 2.322,3.612 3.484,7.908 3.484,12.89 0,4.919 -1.162,9.185 -3.484,12.797 -2.323,3.549 -5.624,6.289 -9.902,8.219 -4.218,1.869 -9.261,2.803 -15.129,2.803 h -19.254 l 8.069,-7.753 v 25.126 z m 39.7,0 -15.953,-23.818 h 19.345 l 16.045,23.818 z m -21.546,-23.165 -8.069,-8.5 h 18.154 c 3.79,0 6.602,-0.84 8.435,-2.522 1.895,-1.681 2.843,-4.016 2.843,-7.005 0,-3.051 -0.948,-5.418 -2.843,-7.099 -1.833,-1.681 -4.645,-2.522 -8.435,-2.522 h -18.154 l 8.069,-8.5 z m 66.402,-16.906 h 29.798 v 13.824 h -29.798 z m 1.283,25.78 h 33.557 v 14.291 H 503.869 V 35.308 h 50.335 v 14.291 h -32.365 z m 43.631,14.291 V 35.308 h 18.154 v 50.719 h 30.623 v 14.665 z m 72.648,-40.071 h 29.798 v 13.824 h -29.798 z m 1.283,25.78 h 33.559 v 14.291 H 621.431 V 35.308 h 50.339 v 14.291 h -32.369 z m 35.929,14.291 28.33,-65.384 h 17.88 l 28.42,65.384 H 731.08 L 708.89,44.368 h 7.15 l -22.19,56.324 z m 15.5,-12.703 4.67,-13.637 h 31.36 l 4.67,13.637 z M 777.66,102 c -5.25,0 -10.33,-0.654 -15.22,-1.962 -4.82,-1.37 -8.77,-3.113 -11.82,-5.23 l 5.96,-13.638 c 2.87,1.868 6.17,3.425 9.9,4.671 3.79,1.183 7.55,1.774 11.28,1.774 2.5,0 4.52,-0.218 6.05,-0.653 1.53,-0.499 2.63,-1.121 3.3,-1.869 0.73,-0.809 1.1,-1.743 1.1,-2.802 0,-1.494 -0.67,-2.677 -2.02,-3.549 -1.34,-0.872 -3.09,-1.588 -5.23,-2.149 -2.13,-0.56 -4.52,-1.12 -7.15,-1.681 a 77.176,77.176 0 0 1 -7.79,-2.148 c -2.57,-0.872 -4.92,-1.993 -7.06,-3.363 -2.14,-1.432 -3.88,-3.269 -5.23,-5.511 -1.34,-2.304 -2.01,-5.2 -2.01,-8.687 0,-3.923 1.04,-7.472 3.11,-10.648 2.14,-3.176 5.32,-5.729 9.54,-7.659 4.22,-1.931 9.47,-2.896 15.77,-2.896 4.22,0 8.34,0.498 12.38,1.495 4.09,0.934 7.73,2.335 10.91,4.203 l -5.59,13.731 c -3.06,-1.682 -6.09,-2.927 -9.08,-3.737 -3,-0.871 -5.9,-1.307 -8.71,-1.307 -2.51,0 -4.53,0.28 -6.05,0.84 -1.53,0.498 -2.63,1.183 -3.3,2.055 -0.68,0.872 -1.01,1.868 -1.01,2.989 0,1.432 0.64,2.584 1.92,3.456 1.35,0.81 3.09,1.495 5.23,2.055 2.2,0.498 4.58,1.028 7.15,1.588 2.63,0.561 5.23,1.277 7.79,2.148 2.63,0.81 5.02,1.931 7.16,3.363 2.13,1.37 3.85,3.207 5.13,5.511 1.34,2.242 2.02,5.075 2.02,8.5 0,3.799 -1.07,7.317 -3.21,10.555 -2.08,3.176 -5.23,5.729 -9.45,7.659 -4.15,1.931 -9.41,2.896 -15.77,2.896 z m 53.5,-41.379 h 29.8 v 13.824 h -29.8 z m 1.28,25.78 H 866 v 14.291 H 814.47 V 35.308 h 50.34 V 49.599 H 832.44 Z M 59.13,0 c -6.782,1.508 -13.49,3.607 -19.78,6.773 0.144,5.554 0.503,10.875 1.231,16.28 -2.443,1.565 -5.01,2.908 -7.291,4.74 -2.319,1.784 -4.686,3.489 -6.785,5.575 A 129.963,129.963 0 0 0 13.302,25.687 C 8.373,30.991 3.764,36.716 0,43.122 c 2.958,4.644 6.132,9.312 9.07,12.952 v 39.317 c 0.072,0 0.145,0.003 0.216,0.009 l 24.104,2.325 a 2.594,2.594 0 0 1 2.339,2.403 l 0.744,10.64 21.025,1.501 1.448,-9.821 a 2.597,2.597 0 0 1 2.569,-2.217 h 25.43 c 1.287,0 2.38,0.944 2.567,2.217 l 1.448,9.821 21.027,-1.501 0.742,-10.64 a 2.597,2.597 0 0 1 2.34,-2.403 L 139.163,95.4 a 3.09,3.09 0 0 1 0.215,-0.009 v -3.138 l 0.011,-0.002 V 56.074 c 3.394,-4.273 6.607,-8.986 9.07,-12.952 -3.763,-6.406 -8.374,-12.131 -13.302,-17.435 a 130.102,130.102 0 0 0 -13.205,7.681 c -2.098,-2.086 -4.461,-3.791 -6.783,-5.575 -2.28,-1.832 -4.851,-3.175 -7.289,-4.74 0.726,-5.405 1.085,-10.726 1.23,-16.28 C 102.819,3.607 96.111,1.508 89.326,0 86.617,4.553 84.14,9.484 81.982,14.304 79.424,13.876 76.854,13.718 74.28,13.687 v -0.004 c -0.018,0 -0.035,0.004 -0.05,0.004 -0.016,0 -0.033,-0.004 -0.049,-0.004 v 0.004 c -2.579,0.031 -5.147,0.189 -7.706,0.617 C 64.319,9.484 61.843,4.553 59.13,0 Z M 40.061,57.516 c 8.023,0 14.526,6.498 14.526,14.518 0,8.026 -6.503,14.527 -14.526,14.527 -8.019,0 -14.524,-6.501 -14.524,-14.527 0,-8.02 6.505,-14.518 14.524,-14.518 z m 68.339,0 c 8.018,0 14.522,6.498 14.522,14.518 0,8.026 -6.504,14.527 -14.522,14.527 -8.024,0 -14.527,-6.501 -14.527,-14.527 0,-8.02 6.503,-14.518 14.527,-14.518 z m -34.172,8.496 c 2.583,0 4.681,1.905 4.681,4.249 v 13.372 c 0,2.346 -2.098,4.249 -4.681,4.249 -2.582,0 -4.675,-1.903 -4.675,-4.249 V 70.261 c 0,-2.344 2.093,-4.249 4.675,-4.249 z"
     id="path22" /><path
     fill="#ffffff"
     d="m 117.755,102.681 -0.747,10.697 a 2.596,2.596 0 0 1 -2.405,2.408 l -25.674,1.832 a 2.595,2.595 0 0 1 -2.752,-2.211 l -1.473,-9.985 H 63.755 l -1.472,9.985 a 2.595,2.595 0 0 1 -2.753,2.211 l -25.674,-1.832 a 2.596,2.596 0 0 1 -2.405,-2.408 l -0.747,-10.697 -21.673,-2.09 c 0.01,2.33 0.04,4.882 0.04,5.39 0,22.89 29.037,33.892 65.114,34.019 h 0.089 c 36.077,-0.127 65.104,-11.129 65.104,-34.019 0,-0.518 0.032,-3.059 0.042,-5.39 z M 51.091,72.896 c 0,5.323 -4.314,9.637 -9.642,9.637 -5.324,0 -9.641,-4.314 -9.641,-9.637 0,-5.324 4.317,-9.642 9.641,-9.642 a 9.64,9.64 0 0 1 9.642,9.642 z m 46.278,0 a 9.635,9.635 0 0 0 9.636,9.637 c 5.329,0 9.642,-4.314 9.642,-9.637 a 9.64,9.64 0 1 0 -19.278,0 z"
     id="path23" /><defs
     id="defs50"><linearGradient
       id="a"
       x1="767"
       x2="767"
       y1="156"
       y2="208.483"
       gradientUnits="userSpaceOnUse"><stop
         stop-color="#fff"
         id="stop23" /><stop
         offset="1"
         stop-color="#25282B"
         stop-opacity="0"
         id="stop24" /></linearGradient><linearGradient
       id="c"
       x1="767"
       x2="767"
       y1="156"
       y2="208.483"
       gradientUnits="userSpaceOnUse"><stop
         stop-color="#fff"
         id="stop25" /><stop
         offset="1"
         stop-color="#25282B"
         stop-opacity="0"
         id="stop26" /></linearGradient><linearGradient
       id="d"
       x1="767"
       x2="767"
       y1="156"
       y2="208.483"
       gradientUnits="userSpaceOnUse"><stop
         stop-color="#fff"
         id="stop27" /><stop
         offset="1"
         stop-color="#25282B"
         stop-opacity="0"
         id="stop28" /></linearGradient><linearGradient
       id="e"
       x1="767"
       x2="767"
       y1="156"
       y2="208.483"
       gradientUnits="userSpaceOnUse"><stop
         stop-color="#fff"
         id="stop29" /><stop
         offset="1"
         stop-color="#25282B"
         stop-opacity="0"
         id="stop30" /></linearGradient><linearGradient
       id="f"
       x1="767"
       x2="767"
       y1="156"
       y2="208.483"
       gradientUnits="userSpaceOnUse"><stop
         stop-color="#fff"
         id="stop31" /><stop
         offset="1"
         stop-color="#25282B"
         stop-opacity="0"
         id="stop32" /></linearGradient><linearGradient
       id="g"
       x1="767"
       x2="767"
       y1="156"
       y2="208.483"
       gradientUnits="userSpaceOnUse"><stop
         stop-color="#fff"
         id="stop33" /><stop
         offset="1"
         stop-color="#25282B"
         stop-opacity="0"
         id="stop34" /></linearGradient><linearGradient
       id="h"
       x1="767"
       x2="767"
       y1="156"
       y2="208.483"
       gradientUnits="userSpaceOnUse"><stop
         stop-color="#fff"
         id="stop35" /><stop
         offset="1"
         stop-color="#25282B"
         stop-opacity="0"
         id="stop36" /></linearGradient><linearGradient
       id="i"
       x1="767"
       x2="767"
       y1="230.89799"
       y2="269.026"
       gradientUnits="userSpaceOnUse"><stop
         stop-color="#25282B"
         stop-opacity="0"
         id="stop37" /><stop
         offset="1"
         stop-color="#fff"
         id="stop38" /></linearGradient><linearGradient
       id="k"
       x1="767"
       x2="767"
       y1="230.89799"
       y2="269.026"
       gradientUnits="userSpaceOnUse"><stop
         stop-color="#25282B"
         stop-opacity="0"
         id="stop39" /><stop
         offset="1"
         stop-color="#fff"
         id="stop40" /></linearGradient><linearGradient
       id="l"
       x1="767"
       x2="767"
       y1="230.89799"
       y2="269.026"
       gradientUnits="userSpaceOnUse"><stop
         stop-color="#25282B"
         stop-opacity="0"
         id="stop41" /><stop
         offset="1"
         stop-color="#fff"
         id="stop42" /></linearGradient><linearGradient
       id="m"
       x1="767"
       x2="767"
       y1="230.89799"
       y2="269.026"
       gradientUnits="userSpaceOnUse"><stop
         stop-color="#25282B"
         stop-opacity="0"
         id="stop43" /><stop
         offset="1"
         stop-color="#fff"
         id="stop44" /></linearGradient><linearGradient
       id="n"
       x1="767"
       x2="767"
       y1="230.89799"
       y2="269.026"
       gradientUnits="userSpaceOnUse"><stop
         stop-color="#25282B"
         stop-opacity="0"
         id="stop45" /><stop
         offset="1"
         stop-color="#fff"
         id="stop46" /></linearGradient><linearGradient
       id="o"
       x1="767"
       x2="767"
       y1="230.89799"
       y2="269.026"
       gradientUnits="userSpaceOnUse"><stop
         stop-color="#25282B"
         stop-opacity="0"
         id="stop47" /><stop
         offset="1"
         stop-color="#fff"
         id="stop48" /></linearGradient><linearGradient
       id="p"
       x1="767"
       x2="767"
       y1="230.89799"
       y2="269.026"
       gradientUnits="userSpaceOnUse"><stop
         stop-color="#25282B"
         stop-opacity="0"
         id="stop49" /><stop
         offset="1"
         stop-color="#fff"
         id="stop50" /></linearGradient></defs></svg>
