<svg xmlns="http://www.w3.org/2000/svg" width="510" height="823" fill="none"><g fill="#EFF1F5" opacity=".05"><path d="M-38.155-37c-41.615 9.252-82.783 22.134-121.379 41.56.883 34.08 3.086 66.734 7.552 99.903-14.988 9.603-30.741 17.845-44.741 29.087-14.224 10.943-28.754 21.41-41.634 34.209-25.732-17.02-52.963-33.015-81.02-47.133C-349.62 153.174-377.9 188.304-401 227.615c18.154 28.497 37.626 57.138 55.659 79.474v241.265c.441.003.886.018 1.323.059l147.909 14.262a15.926 15.926 0 0 1 14.358 14.75l4.562 65.291 129.021 9.209 8.886-60.264a15.931 15.931 0 0 1 15.76-13.606h156.049c7.899 0 14.603 5.793 15.755 13.606l8.886 60.264 129.026-9.209 4.557-65.291a15.933 15.933 0 0 1 14.358-14.75l147.851-14.262c.437-.041.876-.054 1.317-.059v-19.253l.064-.016V307.089c20.828-26.22 40.549-55.141 55.659-79.474-23.092-39.311-51.385-74.441-81.628-106.989-28.049 14.118-55.294 30.113-81.025 47.133-12.876-12.799-27.379-23.266-41.624-34.209-13.996-11.242-29.771-19.484-44.731-29.087 4.454-33.169 6.66-65.822 7.547-99.903-38.6-19.426-79.764-32.309-121.4-41.56-16.623 27.938-31.824 58.196-45.064 87.773-15.7-2.624-31.472-3.596-47.265-3.784v-.027c-.11 0-.213.027-.307.027-.098 0-.204-.027-.302-.027v.027c-15.822.188-31.583 1.16-47.287 3.784C-6.317 21.196-21.507-9.062-38.155-37Zm-117.018 352.938c49.233 0 89.138 39.874 89.138 89.091 0 49.248-39.905 89.143-89.138 89.143-49.208 0-89.122-39.895-89.122-89.143 0-49.217 39.914-89.091 89.122-89.091Zm419.356 0c49.204 0 89.112 39.874 89.112 89.091 0 49.248-39.908 89.143-89.112 89.143-49.24 0-89.143-39.895-89.143-89.143 0-49.217 39.903-89.091 89.143-89.091Zm-209.69 52.134c15.846 0 28.72 11.692 28.72 26.076v82.057c0 14.396-12.874 26.075-28.72 26.075-15.848 0-28.69-11.679-28.69-26.075v-82.057c0-14.384 12.842-26.076 28.69-26.076Z"/><path d="m321.587 593.09-4.581 65.639c-.552 7.911-6.845 14.208-14.756 14.776l-157.549 11.242a15.3 15.3 0 0 1-1.149.04c-7.829 0-14.584-5.745-15.74-13.607l-9.035-61.271H-9.776l-9.035 61.271c-1.213 8.246-8.585 14.175-16.889 13.567l-157.549-11.242c-7.911-.568-14.204-6.865-14.756-14.776l-4.581-65.639-132.998-12.823c.061 14.294.245 29.953.245 33.071 0 140.464 178.185 207.979 399.568 208.755h.543c221.382-.776 399.507-68.291 399.507-208.755 0-3.176.192-18.769.257-33.071L321.587 593.09ZM-87.484 410.315c0 32.666-26.476 59.141-59.166 59.141-32.675 0-59.167-26.475-59.167-59.141 0-32.667 26.492-59.167 59.167-59.167 32.69 0 59.166 26.5 59.166 59.167ZM196.49 410.315c0 32.666 26.468 59.141 59.134 59.141 32.699 0 59.166-26.475 59.166-59.141 0-32.667-26.467-59.167-59.166-59.167-32.666 0-59.134 26.5-59.134 59.167Z"/></g></svg>