<svg height="250" viewBox="0 0 66.145833 66.145833" width="250" xmlns="http://www.w3.org/2000/svg" xmlns:xlink="http://www.w3.org/1999/xlink"><linearGradient id="a" gradientUnits="userSpaceOnUse" x1="14.032" x2="221.75" y1="225.51" y2="60"><stop offset="0" stop-color="#f6aa78"/><stop offset="1" stop-color="#f57389"/></linearGradient><g transform="translate(0 -230.85)"><path d="m43.34 58.891c-3.9523 0-7.1914 3.245-7.1914 7.1973v126.18c0 3.9523 3.2391 7.1914 7.1914 7.1914h163.32c3.9523 0 7.1895-3.2392 7.1895-7.1914v-126.18c0-3.9523-3.2372-7.1973-7.1895-7.1973zm0 3.7793h163.32c1.9238 0 3.4102 1.4942 3.4102 3.418v9.5879h-170.15v-9.5879c0-1.9238 1.4883-3.418 3.4121-3.418zm157.11 4.5254v3.7793h3.9277v-3.7793zm-160.52 12.262h32.807v116.22h-29.395c-1.9238 0-3.4121-1.4864-3.4121-3.4102v-112.81zm36.586 0h133.56v112.81c0 1.9238-1.4864 3.4102-3.4102 3.4102h-130.15v-116.22z" fill="url(#a)" transform="matrix(.26458 0 0 .26458 0 230.85)"/><g fill="#3d8fcc"><path d="m11.76 253.23v1h6.0469v-1z"/><path d="m13.965 255.36v1h3.8418v-1z"/><path d="m13.965 257.49v1h3.8418v-1z"/></g><path d="m82.123 84.564v3.7793h37.5v-3.7793zm42.145 0v3.7793h23.031v-3.7793z" fill="#678ee6" transform="matrix(.26458 0 0 .26458 0 230.85)"/><path d="m89.705 92.561v3.7812h48.1v-3.7812zm7.7734 39.986v3.7793h26.463v-3.7793zm-15.355 16.521v3.7793h23.998v-3.7793z" fill="#78e5f6" transform="matrix(.26458 0 0 .26458 0 230.85)"/><path d="m23.734 257.46v1h8.918v-1z" fill="#678ee6"/><path d="m23.734 259.58v1h6.4863v-1z" fill="#f6aa78"/><path d="m89.705 116.55v3.7812h33.705v-3.7812zm38.18 0v3.7812h15.324v-3.7812zm-38.18 7.9961v3.7812h26.457v-3.7812z" fill="#f57389" transform="matrix(.26458 0 0 .26458 0 230.85)"/><path d="m-150.07 233.02h3.3234v3.3234h-3.3234z" fill="#f6aa78" opacity=".545" transform="matrix(.70710678 -.70710678 .70710678 .70710678 0 0)"/><path d="m-142.62 197.92h3.0474v3.0474h-3.0474z" fill="#678ee6" transform="matrix(.70710678 -.70710678 .70710678 .70710678 0 0)"/><path d="m2.4735 271.88.31903.31904 1.8934 1.8934 2.2125-2.2125-2.2125-2.2125zm1.2761 0 .93636-.93636.93636.93636-.93636.93637z" fill="#678ee6" opacity=".528"/><g transform="matrix(.70710678 -.70710678 .70710678 .70710678 0 0)"><path d="m-171.72 236.85h3.4078v3.4078h-3.4078z" fill="#f57389" opacity=".694"/><path d="m-184.85 222.06h2.2265v2.2265h-2.2265z" fill="#3d8fcc" opacity=".528"/><path d="m-141.76 191.51h1.8567v1.8567h-1.8567z" fill="#f6aa78"/></g><path d="m14.2 286.03c-.41742 0-.75582.33838-.75582.75582v3.7791c0 .41742.3384.75582.75582.75582h3.7791c.41742 0 .75582-.3384.75582-.75582v-3.4012l-1.1337-1.1337h-.3779v2.2674h-3.0233zm.3779 0v1.8895h1.1337v-1.8895zm1.5116 3.0232c.41743 0 .75581.33841.75581.75583 0 .41743-.33838.7558-.75581.7558-.41742 0-.75582-.33837-.75582-.7558s.33839-.75583.75582-.75583z" fill="#f57389"/><path d="m23.18 236.7-.44918.89837.44918.89833v1.7967h-.89835v1.5721c0 .62208.50084 1.123 1.123 1.123.6221 0 1.1229-.50083 1.1229-1.123v-1.5721h-.89836v-1.7967l.44918-.89833-.44918-.89837zm2.6951.0781a1.3475 1.3475 0 0 0 -.89836 1.2695 1.3475 1.3475 0 0 0 .89836 1.2695v3.2223c0 .24886.20034.44921.44918.44921s.44916-.20035.44916-.44921v-3.2232a1.3475 1.3475 0 0 0 .89838-1.2686 1.3475 1.3475 0 0 0 -.89838-1.2686v1.2686a.44918.44918 0 0 1 -.44916.44915.44918.44918 0 0 1 -.44918-.44915z" fill="#3d8fcc"/></g></svg>