<?xml version="1.0" encoding="UTF-8"?>
<svg width="250" height="250" version="1.1" viewBox="0 0 66.145833 66.145833" xmlns="http://www.w3.org/2000/svg" xmlns:cc="http://creativecommons.org/ns#" xmlns:dc="http://purl.org/dc/elements/1.1/" xmlns:rdf="http://www.w3.org/1999/02/22-rdf-syntax-ns#" xmlns:xlink="http://www.w3.org/1999/xlink">
<defs>
<linearGradient id="a" x1="-99.702" x2="199.05" y1="316.47" y2="42.464" gradientTransform="matrix(.26458 0 0 .26458 8.1619 230.85)" gradientUnits="userSpaceOnUse">
<stop stop-color="#f6aa78" offset="0"/>
<stop stop-color="#f57389" offset="1"/>
</linearGradient>
</defs>
<metadata>
<rdf:RDF>
<cc:Work rdf:about="">
<dc:format>image/svg+xml</dc:format>
<dc:type rdf:resource="http://purl.org/dc/dcmitype/StillImage"/>
<dc:title/>
</cc:Work>
</rdf:RDF>
</metadata>
<g transform="translate(0 -230.85)">
<rect transform="rotate(-45)" x="-180.6" y="232.63" width="3.0474" height="3.0474" ry="0" fill="#678ee6" stroke-width="0"/>
<path d="m54.86 279.38 0.31903 0.31903 1.8934 1.8934 2.2125-2.2125-2.2125-2.2125zm1.2761 0 0.93636-0.93636 0.93636 0.93636-0.93636 0.93637z" color="#000000" color-rendering="auto" dominant-baseline="auto" fill="#3d8fcc" image-rendering="auto" opacity=".528" shape-rendering="auto" solid-color="#000000" style="font-feature-settings:normal;font-variant-alternates:normal;font-variant-caps:normal;font-variant-ligatures:normal;font-variant-numeric:normal;font-variant-position:normal;isolation:auto;mix-blend-mode:normal;shape-padding:0;text-decoration-color:#000000;text-decoration-line:none;text-decoration-style:solid;text-indent:0;text-orientation:mixed;text-transform:none;white-space:normal"/>
<path d="m15.689 240.3c-0.27631-9e-5 -0.50033 0.22392-0.50023 0.50023v45.7c-9.8e-5 0.27631 0.22392 0.50032 0.50023 0.50023h32.849c1.331 0 2.4185-1.0874 2.4185-2.4185v-41.864c0-1.331-1.0874-2.4185-2.4185-2.4185h-3.7316c-0.27631-9e-5 -0.50032 0.22392-0.50023 0.50023v19.956l-4.3419-3.5626c-0.18443-0.15141-0.45015-0.15141-0.63459 0l-4.3419 3.5626v-19.956c9.8e-5 -0.27631-0.22392-0.50032-0.50023-0.50023h-16.88zm0.50023 1.0005h17.798v20.513c-1.65e-4 0.42244 0.49114 0.65474 0.81752 0.38654l4.8421-3.9729 4.8421 3.9729c0.32638 0.2682 0.81768 0.0359 0.81752-0.38654v-20.513h3.2313c0.79434 0 1.418 0.62365 1.418 1.418v41.864c0 0.79435-0.62366 1.418-1.418 1.418h-32.349v-43.282zm1.7627 1.3079c-0.27673 3e-3 -0.49815 0.23075-0.49403 0.50746v41.07c-0.01218 0.67869 1.0121 0.67869 0.99994 0v-41.07c0.0042-0.28137-0.22453-0.51079-0.50591-0.50746z" color="#000000" color-rendering="auto" dominant-baseline="auto" fill="url(#a)" image-rendering="auto" opacity=".938" shape-rendering="auto" solid-color="#000000" style="font-feature-settings:normal;font-variant-alternates:normal;font-variant-caps:normal;font-variant-ligatures:normal;font-variant-numeric:normal;font-variant-position:normal;isolation:auto;mix-blend-mode:normal;shape-padding:0;text-decoration-color:#000000;text-decoration-line:none;text-decoration-style:solid;text-indent:0;text-orientation:mixed;text-transform:none;white-space:normal"/>
<path d="m34.488 238.97c-0.27613 3e-5 -0.49997 0.22387-0.5 0.5v22.337c4.53e-4 0.42143 0.49004 0.65334 0.81641 0.38672l4.8438-3.9746 4.8418 3.9746c0.32637 0.26662 0.81595 0.0347 0.81641-0.38672v-22.337c-2.8e-5 -0.27613-0.22387-0.49997-0.5-0.5zm0.5 1h9.3184v20.778l-4.3418-3.5625c-0.18447-0.15151-0.4503-0.15151-0.63476 0l-4.3418 3.5644z" color="#000000" color-rendering="auto" dominant-baseline="auto" fill="#678ee6" image-rendering="auto" opacity=".938" shape-rendering="auto" solid-color="#000000" style="font-feature-settings:normal;font-variant-alternates:normal;font-variant-caps:normal;font-variant-ligatures:normal;font-variant-numeric:normal;font-variant-position:normal;isolation:auto;mix-blend-mode:normal;shape-padding:0;text-decoration-color:#000000;text-decoration-line:none;text-decoration-style:solid;text-indent:0;text-orientation:mixed;text-transform:none;white-space:normal"/>
<rect transform="rotate(-45)" x="-132.18" y="204.24" width="3.4078" height="3.4078" ry="0" fill="#f57389"/>
<path d="m6.3236 264.55 0.31902 0.31903 1.8921 1.8921 2.2125-2.2125-2.2111-2.2111zm1.2747-1e-3 0.93636-0.93636 0.93774 0.93774-0.93637 0.93637z" color="#000000" color-rendering="auto" dominant-baseline="auto" fill="#3d8fcc" image-rendering="auto" shape-rendering="auto" solid-color="#000000" style="font-feature-settings:normal;font-variant-alternates:normal;font-variant-caps:normal;font-variant-ligatures:normal;font-variant-numeric:normal;font-variant-position:normal;isolation:auto;mix-blend-mode:normal;shape-padding:0;text-decoration-color:#000000;text-decoration-line:none;text-decoration-style:solid;text-indent:0;text-orientation:mixed;text-transform:none;white-space:normal"/>
<path d="m43.779 274.69a2.0996 2.0996 0 0 0 -2.0996 2.0996 2.0996 2.0996 0 0 0 0.2932 1.0642l-1.1892 1.1892 0.74226 0.74226 1.1892-1.1892a2.0996 2.0996 0 0 0 1.0642 0.29321 2.0996 2.0996 0 0 0 2.0996 -2.0996 2.0996 2.0996 0 0 0 -2.0996 -2.0996zm0 1.0498a1.0498 1.0498 0 0 1 1.0498 1.0498 1.0498 1.0498 0 0 1 -1.0498 1.0498 1.0498 1.0498 0 0 1 -1.0498 -1.0498 1.0498 1.0498 0 0 1 1.0498 -1.0498zm-4.7242 4.1992v3.1494h1.0498c0.86968 0 1.5747-0.70501 1.5747-1.5747 0-0.86968-0.70504-1.5747-1.5747-1.5747zm2.6245 1.5747c0 0.8697 0.70501 1.5747 1.5747 1.5747 0.86967 0 1.5747-0.70501 1.5747-1.5747 0-0.86968-0.70504-1.5747-1.5747-1.5747-0.86971 0-1.5747 0.70503-1.5747 1.5747zm3.1494 0c0 0.8697 0.70501 1.5747 1.5747 1.5747h0.52489v-1.0498h-0.52489c-0.28991-3e-5 -0.5249-0.23501-0.52492-0.52492 2e-5 -0.28989 0.23501-0.52491 0.52492-0.52491h0.52489v-1.0498h-0.52489c-0.86971 0-1.5747 0.70503-1.5747 1.5747zm-4.7242-0.52491c0.28989 0 0.5249 0.23502 0.5249 0.52491 0 0.28991-0.23501 0.52492-0.5249 0.52492zm3.1494 0c0.28989 0 0.5249 0.23502 0.5249 0.52491 0 0.28991-0.23501 0.52489-0.5249 0.52492-0.2899-3e-5 -0.5249-0.23501-0.52492-0.52492 2e-5 -0.28989 0.23502-0.52491 0.52492-0.52491z" fill="#678ee6" stroke-linecap="round" stroke-linejoin="round" stroke-opacity=".32549" stroke-width="1.0498"/>
<circle cx="10.451" cy="255.39" r="1.5214" fill="#f6aa78"/>
<circle cx="10.451" cy="250.2" r="1.5214" fill="#78e5f6"/>
<circle cx="10.451" cy="245.01" r="1.5214" fill="#f57389"/>
<path d="m9.2959 277.25a0.52491 0.52491 0 0 0 -0.52491 0.52493v2.6245h-1.0498c-0.5816 0-1.0498 0.46824-1.0498 1.0498v0.52491h5.2491v-0.52491c0-0.58157-0.4682-1.0498-1.0498-1.0498h-1.0498v-2.6245a0.52491 0.52491 0 0 0 -0.5249 -0.52493zm-2.6245 5.2491v2.0996l5.2491-0.52487v-1.5747z" fill="#678ee6"/>
<path d="m55.446 256.95a0.52491 0.52491 0 0 0 -0.52489 0.5249 0.52491 0.52491 0 0 0 0.52489 0.52493c2.3254 0 4.1993 1.8738 4.1993 4.1992a0.52491 0.52491 0 0 0 0.5249 0.52493 0.52491 0.52491 0 0 0 0.5249 -0.52493c0-2.8927-2.3563-5.249-5.2491-5.249zm0 2.0996a0.52491 0.52491 0 0 0 -0.52489 0.52492 0.52491 0.52491 0 0 0 0.52489 0.5249c1.1658 0 2.0996 0.9338 2.0996 2.0996a0.52491 0.52491 0 0 0 0.52492 0.52493 0.52491 0.52491 0 0 0 0.52491 -0.52493c0-1.7331-1.4163-3.1494-3.1494-3.1494zm0 2.0996a1.0498 1.0498 0 0 0 -1.0498 1.0498 1.0498 1.0498 0 0 0 1.0498 1.0498 1.0498 1.0498 0 0 0 1.0498 -1.0498 1.0498 1.0498 0 0 0 -1.0498 -1.0498z" fill="#78e5f6"/>
</g>
</svg>
