<svg height="250" viewBox="0 0 66.145833 66.145833" width="250" xmlns="http://www.w3.org/2000/svg" xmlns:xlink="http://www.w3.org/1999/xlink"><linearGradient id="a" gradientUnits="userSpaceOnUse" x1="-18.217255" x2="60.826549" y1="314.581633" y2="242.085125"><stop offset="0" stop-color="#f6aa78"/><stop offset="1" stop-color="#f57389"/></linearGradient><g transform="translate(0 -230.85)"><path d="m-180.6 232.63h3.0474v3.0474h-3.0474z" fill="#678ee6" transform="matrix(.70710678 -.70710678 .70710678 .70710678 0 0)"/><path d="m54.86 279.38.31903.31903 1.8934 1.8934 2.2125-2.2125-2.2125-2.2125zm1.2761 0 .93636-.93636.93636.93636-.93636.93637z" fill="#3d8fcc" opacity=".528"/><path d="m15.689 240.3c-.27631-.00009-.50033.22392-.50023.50023v45.7c-.000098.27631.22392.50032.50023.50023h32.849c1.331 0 2.4185-1.0874 2.4185-2.4185v-41.864c0-1.331-1.0874-2.4185-2.4185-2.4185h-3.7316c-.27631-.00009-.50032.22392-.50023.50023v19.956l-4.3419-3.5626c-.18443-.15141-.45015-.15141-.63459 0l-4.3419 3.5626v-19.956c.000098-.27631-.22392-.50032-.50023-.50023h-16.88zm.50023 1.0005h17.798v20.513c-.000165.42244.49114.65474.81752.38654l4.8421-3.9729 4.8421 3.9729c.32638.2682.81768.0359.81752-.38654v-20.513h3.2313c.79434 0 1.418.62365 1.418 1.418v41.864c0 .79435-.62366 1.418-1.418 1.418h-32.349v-43.282zm1.7627 1.3079c-.27673.003-.49815.23075-.49403.50746v41.07c-.01218.67869 1.0121.67869.99994 0v-41.07c.0042-.28137-.22453-.51079-.50591-.50746z" fill="url(#a)" opacity=".938"/><path d="m34.488 238.97c-.27613.00003-.49997.22387-.5.5v22.337c.000453.42143.49004.65334.81641.38672l4.8438-3.9746 4.8418 3.9746c.32637.26662.81595.0347.81641-.38672v-22.337c-.000028-.27613-.22387-.49997-.5-.5zm.5 1h9.3184v20.778l-4.3418-3.5625c-.18447-.15151-.4503-.15151-.63476 0l-4.3418 3.5644z" fill="#678ee6" opacity=".938"/><path d="m-132.18 204.24h3.4078v3.4078h-3.4078z" fill="#f57389" transform="matrix(.70710678 -.70710678 .70710678 .70710678 0 0)"/><path d="m6.3236 264.55.31902.31903 1.8921 1.8921 2.2125-2.2125-2.2111-2.2111zm1.2747-.001.93636-.93636.93774.93774-.93637.93637z" fill="#3d8fcc"/><path d="m43.779 274.69a2.0996 2.0996 0 0 0 -2.0996 2.0996 2.0996 2.0996 0 0 0 .2932 1.0642l-1.1892 1.1892.74226.74226 1.1892-1.1892a2.0996 2.0996 0 0 0 1.0642.29321 2.0996 2.0996 0 0 0 2.0996-2.0996 2.0996 2.0996 0 0 0 -2.0996-2.0996zm0 1.0498a1.0498 1.0498 0 0 1 1.0498 1.0498 1.0498 1.0498 0 0 1 -1.0498 1.0498 1.0498 1.0498 0 0 1 -1.0498-1.0498 1.0498 1.0498 0 0 1 1.0498-1.0498zm-4.7242 4.1992v3.1494h1.0498c.86968 0 1.5747-.70501 1.5747-1.5747 0-.86968-.70504-1.5747-1.5747-1.5747zm2.6245 1.5747c0 .8697.70501 1.5747 1.5747 1.5747.86967 0 1.5747-.70501 1.5747-1.5747 0-.86968-.70504-1.5747-1.5747-1.5747-.86971 0-1.5747.70503-1.5747 1.5747zm3.1494 0c0 .8697.70501 1.5747 1.5747 1.5747h.52489v-1.0498h-.52489c-.28991-.00003-.5249-.23501-.52492-.52492.00002-.28989.23501-.52491.52492-.52491h.52489v-1.0498h-.52489c-.86971 0-1.5747.70503-1.5747 1.5747zm-4.7242-.52491c.28989 0 .5249.23502.5249.52491 0 .28991-.23501.52492-.5249.52492zm3.1494 0c.28989 0 .5249.23502.5249.52491 0 .28991-.23501.52489-.5249.52492-.2899-.00003-.5249-.23501-.52492-.52492.00002-.28989.23502-.52491.52492-.52491z" fill="#678ee6" stroke-linecap="round" stroke-linejoin="round" stroke-opacity=".32549" stroke-width="1.0498"/><circle cx="10.451" cy="255.39" fill="#f6aa78" r="1.5214"/><circle cx="10.451" cy="250.2" fill="#78e5f6" r="1.5214"/><circle cx="10.451" cy="245.01" fill="#f57389" r="1.5214"/><path d="m9.2959 277.25a.52491.52491 0 0 0 -.52491.52493v2.6245h-1.0498c-.5816 0-1.0498.46824-1.0498 1.0498v.52491h5.2491v-.52491c0-.58157-.4682-1.0498-1.0498-1.0498h-1.0498v-2.6245a.52491.52491 0 0 0 -.5249-.52493zm-2.6245 5.2491v2.0996l5.2491-.52487v-1.5747z" fill="#678ee6"/><path d="m55.446 256.95a.52491.52491 0 0 0 -.52489.5249.52491.52491 0 0 0 .52489.52493c2.3254 0 4.1993 1.8738 4.1993 4.1992a.52491.52491 0 0 0 .5249.52493.52491.52491 0 0 0 .5249-.52493c0-2.8927-2.3563-5.249-5.2491-5.249zm0 2.0996a.52491.52491 0 0 0 -.52489.52492.52491.52491 0 0 0 .52489.5249c1.1658 0 2.0996.9338 2.0996 2.0996a.52491.52491 0 0 0 .52492.52493.52491.52491 0 0 0 .52491-.52493c0-1.7331-1.4163-3.1494-3.1494-3.1494zm0 2.0996a1.0498 1.0498 0 0 0 -1.0498 1.0498 1.0498 1.0498 0 0 0 1.0498 1.0498 1.0498 1.0498 0 0 0 1.0498-1.0498 1.0498 1.0498 0 0 0 -1.0498-1.0498z" fill="#78e5f6"/></g></svg>