<?xml version="1.0" encoding="UTF-8"?>
<svg width="460.36" height="440.86" version="1.1" viewBox="0 0 121.80291 116.64404" xmlns="http://www.w3.org/2000/svg" xmlns:cc="http://creativecommons.org/ns#" xmlns:dc="http://purl.org/dc/elements/1.1/" xmlns:rdf="http://www.w3.org/1999/02/22-rdf-syntax-ns#" xmlns:xlink="http://www.w3.org/1999/xlink">
<defs>
<linearGradient id="a" x1="-42.505" x2="122.11" y1="163" y2="1.7968" gradientUnits="userSpaceOnUse">
<stop stop-color="#f6aa78" offset="0"/>
<stop stop-color="#f57389" offset="1"/>
</linearGradient>
</defs>
<metadata>
<rdf:RDF>
<cc:Work rdf:about="">
<dc:format>image/svg+xml</dc:format>
<dc:type rdf:resource="http://purl.org/dc/dcmitype/StillImage"/>
<dc:title/>
</cc:Work>
</rdf:RDF>
</metadata>
<rect transform="rotate(225)" x="-125.33" y="-31.747" width="8.19" height="8.19" fill="none" stroke="#7e9fea" stroke-linecap="round" stroke-width=".5"/>
<path d="m35.864 21.652a12.571 12.571 0 0 0 -17.121 4.7892 12.571 12.571 0 0 0 4.7892 17.121 12.571 12.571 0 0 0 14.491 -1.5541c-0.0021 4e-3 -0.0123 0.0279-0.01151 0.0291 0.0329 0.0556 4.0774 0.13257 4.142 0.13186 0.0646-8e-4 4.1068-0.16607 4.1385-0.22233 0.0317-0.0563-1.9243-3.5977-1.9572-3.6532s-2.197-3.4736-2.2615-3.4729c-2.65e-4 7.94e-4 -0.01651 0.02331-0.0199 0.0267a12.571 12.571 0 0 0 -6.1893 -13.196z" fill="none" stroke="#3d8fcc" stroke-dasharray="1.00000001, 2.00000002" stroke-linecap="round"/>
<circle cx="67.456" cy="66.124" r="1.5214" fill="#eff1f5"/>
<circle cx="72.417" cy="66.124" r="1.5214" fill="#f57389"/>
<circle cx="82.34" cy="66.124" r="1.5214" fill="#eff1f5"/>
<rect transform="rotate(-45)" x="77.208" y="80.927" width="2.7945" height="2.7945" ry="0" fill="none" stroke="#efefef" stroke-linecap="round" stroke-width=".6"/>
<rect transform="rotate(-45)" x="20.983" y="38.458" width="2.1917" height="2.1917" ry="0" fill="#83a3eb"/>
<rect transform="rotate(-45)" x="-14.362" y="126.71" width="5.1757" height="5.1757" ry="0" fill="#eff1f5"/>
<rect transform="rotate(-45)" x="-10.942" y="62.067" width="4.8375" height="4.8375" ry="0" fill="#ff8083"/>
<path d="m52.975 15.596c-1.0379 0-1.8908 0.85088-1.8908 1.8888v41.805c0 1.0379 0.85293 1.8888 1.8908 1.8888h41.041v13.881c0 0.91803-0.7325 1.6521-1.6506 1.6521h-6.7557c-1.4585 0-2.6526 1.192-2.6526 2.6505s1.1941 2.6525 2.6526 2.6525h11.518c0.91803 0 1.6521 0.732 1.6521 1.65 0 0.91802-0.73406 1.6526-1.6521 1.6526h-21.621l-9.3405-9.3405-9.3384 9.3384h-16.693v-12.861c0-1.5143-1.2361-2.7482-2.7502-2.7482h-34.637c-1.5143 0-2.7482 1.2339-2.7482 2.7482v26.722c0 1.5143 1.2339 2.7502 2.7482 2.7502h34.637c1.5141 0 2.7502-1.2359 2.7502-2.7502v-12.861h16.692l8.8403 8.8403v7.2564l-2.3626 2.3626h-12.929c-1.4585 0-2.6505 1.1936-2.6505 2.652v9.2185h0.99994v-9.2185c0-0.91805 0.7325-1.6521 1.6506-1.6521h12.931l2.8623 2.8618 0.35348-0.35345 3.0081-3.0081-2.8629-2.8623v-7.2564l8.8387-8.8382h21.621c1.4585 0 2.652-1.1941 2.652-2.6525 0-1.4585-1.1936-2.65-2.652-2.65h-11.518c-0.91803 0-1.6526-0.73457-1.6526-1.6526s0.73459-1.6506 1.6526-1.6506h6.7557c1.4585 0 2.6505-1.1936 2.6505-2.652v-13.881h24.898c1.0379 0 1.8888-0.85088 1.8888-1.8888v-41.805c0-1.0379-0.85087-1.8888-1.8888-1.8888h-21.281v-5.1015h3.2866c0.81849 0 1.4774-0.6589 1.4774-1.4774v-5.1713h-2.9548v-1.4774c0-1.2239-0.99195-2.2164-2.2159-2.2164-1.224 0-2.2164 0.99246-2.2164 2.2164v1.4774h-2.9548v5.1713c0 0.81852 0.65892 1.4774 1.4774 1.4774h3.1001v5.1015zm22.771-15.595-3.6597 3.6597 3.6597 3.6597 3.6597-3.6597zm22.481 1.6294c0.40796 0 0.73845 0.33049 0.73845 0.73845v1.4774h-1.4774v-1.4774c0-0.40796 0.33099-0.73845 0.73898-0.73845zm-14.881 5.8539-1.9756 1.9761 1.9756 1.9761 1.9761-1.9761zm-30.371 9.1121h66.939c0.5012 0 0.88884 0.38765 0.88884 0.88883v5.0271h-3.8633v-1.8418h-10.977l-7e-3 1.8418h-28.96v-1.8418h-10.979l-6e-3 1.8418h-3.8334v-1.8495h-10.094v-3.1776c0-0.501 0.38947-0.88856 0.8904-0.88883zm0.54467 1.1818v0.99994h7.7716v-0.99994zm9.4258 0v0.99994h4.4318v-0.99994zm20.041 0v0.99994h7.7711v-0.99994zm28.707 0v0.99994h7.7716v-0.99994zm-7.2146 3.2887v1.0004h1.0258v-1.0004zm-52.395 0.59583h9.094v1.8495h4.8297v36.666h-13.033c-0.5012 0-0.8909-0.38764-0.8909-0.88883zm14.931 8e-3h8.9808v1.848h0.99994v-6e-3h28.955v32.145h-38.943v-31.959zm39.944 0h8.9803v1.848h0.99993v-6e-3h3.8633v35.778c0 0.50119-0.38764 0.88883-0.88884 0.88883h-12.963v-36.481zm0.93794 4.4705v0.99994h0.96118v-0.99994zm1.8691 0v0.99994h7.381v-0.99994zm-83.892 0.11007-0.89916 1.7978 0.89916 1.7983v3.5962h-1.7984v3.1471c0 1.2452 1.0027 2.2479 2.2479 2.2479s2.2479-1.0027 2.2479-2.2479v-3.1471h-1.7983v-3.5962l0.89919-1.7983-0.89919-1.7978zm5.3945 0.15606c-1.0772 0.38077-1.7977 1.3989-1.7984 2.5414 0 1.1423 0.72131 2.1602 1.7984 2.5409v6.4497c0 0.49813 0.40106 0.89917 0.89916 0.89917 0.49811 0 0.89916-0.40104 0.89916-0.89917v-6.4518c1.0763-0.38068 1.7964-1.3977 1.7978-2.5394-3e-3 -1.1414-0.72173-2.1582-1.7978-2.5389v2.5389c5e-5 0.49661-0.40254 0.89921-0.89916 0.89916-0.49662 5e-5 -0.89921-0.40255-0.89916-0.89916zm77.868 1.8784v0.99994h0.96118v-0.99994zm1.8691 0v0.99994h7.381v-0.99994zm-1.8691 1.988v0.99994h0.96118v-0.99994zm1.8691 0v0.99994h7.381v-0.99994zm-1.8691 1.9513v0.99994h0.96118v-0.99994zm1.8691 0v0.99994h7.381v-0.99994zm-56.688 10.918c-0.65312 0-1.1953 0.54268-1.1953 1.1958v2.5234c0 0.65313 0.54216 1.1953 1.1953 1.1953h2.791c0.65315 0 1.1932-0.54214 1.1932-1.1953v-2.5231c0-0.65312-0.54007-1.1958-1.1932-1.1958zm6.4162 0c-0.65313 0-1.1937 0.54268-1.1937 1.1958v2.5234c0 0.65313 0.54059 1.1953 1.1937 1.1953h2.791c0.65313 0 1.1953-0.54214 1.1953-1.1953v-2.5231c0-0.65312-0.54215-1.1958-1.1953-1.1958zm-6.4162 1.0005h2.791c0.11641 0 0.19328 0.0789 0.19328 0.19534v2.5234c0 0.11642-0.0768 0.19533-0.19328 0.19533h-2.791c-0.11642 0-0.19534-0.0789-0.19534-0.19533v-2.5231c0-0.11641 0.0789-0.19534 0.19534-0.19534zm6.4162 0h2.791c0.11642 0 0.19484 0.0789 0.19484 0.19534v2.5234c0 0.11642-0.0784 0.19533-0.19484 0.19533h-2.791c-0.11642 0-0.19378-0.0789-0.19378-0.19533v-2.5231c0-0.11641 0.0774-0.19534 0.19378-0.19534zm-6.4162 5.2224c-0.65312 0-1.1953 0.54215-1.1953 1.1953v2.5234c0 0.65314 0.54216 1.1953 1.1953 1.1953h2.791c0.65315 0 1.1932-0.54214 1.1932-1.1953v-2.5234c0-0.65313-0.54007-1.1953-1.1932-1.1953zm0 0.99994h2.791c0.11641 0 0.19328 0.0789 0.19328 0.19534v2.5234c0 0.11643-0.0768 0.19534-0.19328 0.19534h-2.791c-0.11642 0-0.19534-0.0789-0.19534-0.19534v-2.5234c0-0.11643 0.0789-0.19534 0.19534-0.19534zm12.689 6.2911h38.943v3.5217h-38.943zm1.1937 1.1544v0.99994h7.7711v-0.99994zm9.9219 0v0.99994h5.6208v-0.99994zm7.5153 0v0.99994h5.6234v-0.99994zm-35.235 6.3185c-3.2714-2.2e-4 -5.9236 2.6517-5.9237 5.9232v4.2308c-2.9e-5 0.9347 0.75771 1.6924 1.6924 1.6924h1.6924v-4.2308h-1.6924v-1.6924c1e-4 -2.3367 1.8945-4.2309 4.2313-4.2308 2.3365 1e-4 4.2306 1.8942 4.2307 4.2308v1.6924h-1.6924v4.2308h1.6924c0.93469 2e-5 1.6924-0.7577 1.6924-1.6924v-4.2308c-6.9e-5 -3.2712-2.6519-5.9231-5.9231-5.9232zm55.943 1.0149c-2.012 1.8e-4 -3.8738 1.0754-4.8798 2.8179-0.19492 0.3369-0.0797 0.76803 0.25736 0.96273 0.33716 0.19473 0.76835 0.079 0.96271-0.25838 0.75563-1.3087 2.1486-2.113 3.6597-2.113 1.5112 0 2.9042 0.80436 3.6597 2.113 0.19436 0.3377 0.62595 0.45347 0.96324 0.25838 0.33703-0.1947 0.45228-0.62583 0.25736-0.96273-1.006-1.7425-2.8678-2.8177-4.8798-2.8179zm0 2.8179c-1.2719 0-2.3926 0.85966-2.7218 2.0882-0.10086 0.37589 0.12224 0.76233 0.49816 0.863 0.37573 0.10052 0.76181-0.12248 0.86249-0.49816 0.16578-0.61927 0.72011-1.0444 1.3611-1.0444 0.64106 0 1.1947 0.42512 1.3606 1.0444 0.10067 0.37568 0.48675 0.59868 0.86249 0.49816 0.37592-0.10067 0.59902-0.48711 0.49816-0.863-0.32922-1.2286-1.4494-2.0882-2.7213-2.0882zm-103.6 2.7425h34.637c0.9774 0 1.7503 0.77065 1.7503 1.7482v26.722c0 0.97758-0.77287 1.7503-1.7503 1.7503h-34.637c-0.97759 0-1.7477-0.77269-1.7477-1.7503v-26.722c0-0.97757 0.77012-1.7482 1.7477-1.7482zm103.6 0.0749c-0.39023 0-0.70485 0.31409-0.70485 0.70435v0.70487h-2.1131c-1.9e-4 1.0068 0.53684 1.9372 1.4087 2.4407 0.87185 0.50341 1.9461 0.50341 2.8179 0 0.87188-0.50346 1.4089-1.4339 1.4087-2.4407h-2.1131v-0.70487c0-0.39026-0.31406-0.70435-0.70435-0.70435zm-103.73 2.4836v24.822h34.709v-24.822zm0.99994 1.0005h32.709v17.832h-32.709zm62.547 3.1264 8.4259 8.4258-8.4243 8.4243-8.4259-8.4258zm-49.867 2.1441c-0.69363-8e-5 -1.256 0.5621-1.2562 1.2557l-1.2563 3.7682h-2.512v5.0245h1.3198c0.29099-1.4332 1.5572-2.512 3.0763-2.512s2.7858 1.0788 3.0768 2.512h2.6396c0.29099-1.4332 1.5572-2.512 3.0763-2.512s2.7852 1.0788 3.0763 2.512h1.3203v-5.0245h-5.0245v-5.024zm1.2557 1.2557h5.0245v3.7682h-5.0245zm48.612 1.0558-3.9693 3.9698 3.9693 3.9692 3.9698-3.9692zm-50.496 6.4807c-1.0408 3e-5 -1.8844 0.84386-1.8841 1.8846 2e-5 1.0406 0.84357 1.8841 1.8841 1.8841 1.0406-2e-5 1.8841-0.84357 1.8841-1.8841 0-1.0408-0.84336-1.8846-1.8841-1.8846zm8.7928 0c-1.0408 3e-5 -1.8844 0.84386-1.8841 1.8846 3e-5 1.0406 0.84357 1.8841 1.8841 1.8841 1.0406-2e-5 1.8841-0.84357 1.8841-1.8841 2.65e-4 -1.0408-0.84336-1.8846-1.8841-1.8846zm-20.844 4.7692h32.709v3.9899h-32.709zm62.548 10.229 1.9487 1.9487-1.9472 1.9477-1.9487-1.9487z" color="#000000" color-rendering="auto" dominant-baseline="auto" fill="url(#a)" image-rendering="auto" shape-rendering="auto" solid-color="#000000" style="font-feature-settings:normal;font-variant-alternates:normal;font-variant-caps:normal;font-variant-ligatures:normal;font-variant-numeric:normal;font-variant-position:normal;isolation:auto;mix-blend-mode:normal;shape-padding:0;text-decoration-color:#000000;text-decoration-line:none;text-decoration-style:solid;text-indent:0;text-orientation:mixed;text-transform:none;white-space:normal"/>
</svg>
