<svg height="500" viewBox="0 0 132.29166 132.29167" width="500" xmlns="http://www.w3.org/2000/svg"><circle cx="66.146289" cy="81.01" fill="#fefefe" r="41.655"/><g transform="matrix(.16621 0 0 .16621 33.856289 51.44)"><g transform="translate(-104.52 -343.86)"><path d="m294.87 344.65c-17.996.20347-32.918 12.382-34.164 28.452-.13622 1.7556-.0824 3.4723.1076 5.1731-5.8943-1.8879-12.254-3.1437-18.968-3.6643-29.235-2.2669-54.666 10.514-60.461 29.314-19.335 6.2616-34.682 18.44-42.247 34.056-17.17-.89371-32.07 12.147-33.41 29.422-1.3607 17.549 11.692 32.914 29.207 34.272 5.5425.42975 10.9-.64981 15.627-2.8021 13.679 14.401 34.762 24.529 58.952 26.404 21.791 1.6897 42.023-3.6569 57.335-13.579 6.0496 10.001 17.285 17.4 30.715 19.399v.32315c.40102-.0393.78811-.16657 1.1855-.21555.40533.05.77641.1752 1.1855.21555v-.32315c13.452-1.9886 24.659-9.3862 30.715-19.399 15.313 9.9225 35.652 15.269 57.443 13.579 24.19-1.8757 45.165-12.004 58.844-26.404 4.7276 2.1523 10.085 3.2319 15.627 2.8021 17.514-1.358 30.675-16.723 29.314-34.272-1.3395-17.275-16.24-30.316-33.41-29.422-7.5648-15.616-23.02-27.795-42.355-34.056-5.7952-18.801-31.118-31.581-60.353-29.314-6.7137.52058-13.074 1.7764-18.968 3.6643.19003-1.7008.24418-3.4175.1076-5.1731-1.246-16.07-16.276-28.249-34.272-28.452-1.1998-.0138-2.4408.0138-3.6643.1076-.0724.007-.14381-.007-.21555 0-.0717-.007-.14312.007-.21554 0-1.2234-.0948-2.4646-.12174-3.6643-.1076zm3.4487 21.555h.53887c3.0537 0 5.8219.85901 7.8675 2.371 2.0456 1.512 3.341 3.6658 3.341 6.0353 0 .6994-.21658 1.3887-.43109 2.0477l9.053 6.682c1.8835-1.0555 4.069-1.7244 6.5742-1.7244 3.0528 0 5.8216.86702 7.8674 2.371 2.0459 1.504 3.4488 3.6659 3.4488 6.0353 0 1.5593-.75038 2.9541-1.7244 4.2032l12.717 9.2685c1.6105-.67375 3.4198-1.0777 5.3887-1.0777 3.0537 0 5.9297.85898 7.9752 2.371 2.0456 1.512 3.341 3.6658 3.341 6.0353 0 1.3381-.56249 2.5538-1.2933 3.6643l12.071 8.7296c1.6294-.69337 3.4989-1.1855 5.4964-1.1855 3.0537 0 5.8219.85898 7.8675 2.371 2.0456 1.512 3.341 3.6659 3.341 6.0353 0 2.3695-1.2954 4.5233-3.341 6.0353s-4.8137 2.371-7.8675 2.371c-3.0537 0-5.8219-.85902-7.8674-2.371s-3.4488-3.6658-3.4488-6.0353c0-1.8292.96593-3.4828 2.2632-4.8498l-11.316-8.2985c-1.9604 1.2374-4.4853 2.0477-7.2208 2.0477-2.494 0-4.6975-.67813-6.5742-1.7244l-9.053 6.5742c.78087.95272 1.4531 1.983 1.7244 3.1254.0904.38081.1076.78066.1076 1.1855 0 2.3694-1.2954 4.5233-3.341 6.0353-1.0228.756-2.2271 1.4284-3.5565 1.8322-.66471.20175-1.3268.32694-2.0477.43109s-1.4998.1076-2.2632.1076c-2.4015 0-4.6301-.5329-6.4664-1.5088l-12.717 9.3763c1.3108 1.1051 2.2856 2.5601 2.6943 4.0954.13623.51176.21555.96755.21555 1.5088 0 2.3694-1.2954 4.4155-3.341 5.9275-.51138.37802-1.0217.77449-1.6166 1.0777-1.1898.60653-2.5458 1.0648-3.9876 1.2933-.72089.11415-1.4998.1076-2.2632.1076-3.0537 0-5.8219-.96675-7.8674-2.4788-1.0228-.75603-1.8992-1.5899-2.4788-2.5866-.28969-.49834-.49324-1.0679-.64664-1.6166-.15347-.54866-.21555-1.132-.21555-1.7244 0-2.3694 1.2954-4.5233 3.341-6.0353s4.8137-2.4788 7.8674-2.4788c1.5244 0 2.983.33729 4.3109.75442l13.687-9.9152c-.48897-.62305-.87667-1.2405-1.1855-1.9399-.30901-.69941-.53887-1.4807-.53887-2.2632 0-2.3695 1.2951-4.5313 3.341-6.0353.51145-.37598 1.0216-.67719 1.6166-.96996 1.7849-.87832 3.9613-1.401 6.2508-1.401 2.2957 0 4.3503.60977 6.1431 1.5088l9.2685-6.682c-.4521-.60405-.89437-1.2546-1.1855-1.9399-.29107-.6853-.43109-1.4053-.43109-2.1555 0-1.8533 1.0419-3.4704 2.371-4.8498l-12.502-9.1607c-1.8254.95168-3.9912 1.6166-6.3586 1.6166-2.6873 0-5.0606-.74203-7.0053-1.9399l-10.454 7.6519c.93402 1.0087 1.6256 2.1785 1.9399 3.4487.10484.42341.21554.84567.21554 1.2933 0 2.3695-1.2954 4.5233-3.341 6.0353-.51138.37802-1.1194.78459-1.7244 1.0777-1.21.58632-2.5256.97721-3.9876 1.1855-.73099.10415-1.4998.1076-2.2632.1076-3.0537 0-5.8219-.85898-7.8674-2.371-2.0456-1.512-3.341-3.6658-3.341-6.0353s1.2951-4.5313 3.341-6.0353 4.8147-2.371 7.8674-2.371c2.1046 0 4.1287.4214 5.8198 1.1855l10.885-7.9752c-.73538-1.1155-1.2933-2.3231-1.2933-3.6643 0-.36526.0345-.72717.1076-1.0777.22313-1.0517.75704-2.029 1.401-2.9099l-8.1908-6.0353c-2.0807 1.8664-5.0747 3.1254-8.5141 3.1254-2.8633 0-5.4356-1.0253-7.4364-2.371l-8.083 5.6042c.7142 1.1032 1.1855 2.3458 1.1855 3.6643 0 2.3695-1.2954 4.4155-3.341 5.9275s-4.8138 2.4788-7.8674 2.4788c-2.0387 0-3.9492-.46465-5.6042-1.1855l-12.717 8.6219c1.4164 1.403 2.5866 3.0367 2.5866 4.9576 0 .38629-.0207.81611-.1076 1.1855-.26038 1.1082-.89788 2.0858-1.6166 3.0176l9.2685 6.682c1.3695-.45024 2.831-.75442 4.4187-.75442 3.0537 0 5.8219.96683 7.8675 2.4788 2.0456 1.512 3.341 3.558 3.341 5.9275s-1.2954 4.5233-3.341 6.0353-4.8137 2.4788-7.8675 2.4788c-3.0537 0-5.8296-.96634-7.8674-2.4788s-3.341-3.667-3.341-6.0353c0-1.0858.24693-2.0997.75441-3.0176.25383-.45896.61467-.87836.96996-1.2933s.74565-.81604 1.1855-1.1855l-8.5141-6.2508c-1.8308.96448-3.9734 1.7244-6.3586 1.7244-2.9561 0-5.6309-1.0539-7.6519-2.4788l-11.855 8.1908c1.4318 1.1216 2.5557 2.5966 3.0177 4.2032.15381.53552.21554 1.0472.21554 1.6166 0 1.0297-.41388 1.9-.86218 2.8021l10.454 7.5441c1.4063-.47644 2.8908-.75441 4.5265-.75441 3.0537 0 5.9297.85901 7.9752 2.371 2.0456 1.512 3.341 3.6659 3.341 6.0353 0 2.3695-1.2951 4.5313-3.341 6.0353s-4.9225 2.371-7.9752 2.371c-1.5264 0-2.9814-.13416-4.3109-.53887-.66478-.20244-1.345-.46165-1.9399-.75441-.59498-.2928-1.1052-.70175-1.6166-1.0777-2.0459-1.504-3.341-3.6658-3.341-6.0353 0-2.1118 1.3407-3.921 3.0177-5.3887l-9.4841-6.7897c-2.0414 1.5065-4.7111 2.5866-7.7597 2.5866-3.4878 0-6.5443-1.2143-8.6219-3.1254l-11.208 7.7597c.54266.64482 1.0517 1.4192 1.401 2.1555.17451.36816.33384.68654.43109 1.0777.0973.39119.1076.7712.1076 1.1855 0 2.3696-1.2951 4.5313-3.341 6.0353-.51145.37598-1.0216.78493-1.6166 1.0777-1.19.58556-2.5459.97593-3.9876 1.1855-.72082.10484-1.5001.1076-2.2632.1076-3.0528 0-5.9294-.86702-7.9752-2.371-2.0459-1.504-3.341-3.6658-3.341-6.0353 0-2.3694 1.2954-4.5233 3.341-6.0353s4.9215-2.371 7.9752-2.371c2.1279 0 4.0053.51238 5.712 1.2933l12.609-8.6219c-.17899-.5718-.4311-1.0906-.4311-1.7244 0-2.3694 1.2954-4.5233 3.341-6.0353s4.8138-2.4788 7.8674-2.4788c1.3021 0 2.6024.22969 3.7721.53887l1.7244-1.2933.21555-.1076 11.424-7.7597c-.45327-.91357-.86219-1.8756-.86219-2.9099 0-2.3694 1.2954-4.5233 3.341-6.0353s4.9215-2.371 7.9752-2.371c1.7331 0 3.2698.33073 4.742.86219l1.5088-.96996 11.424-7.8675c-1.1011-1.2967-2.0477-2.7481-2.0477-4.4187 0-2.3695 1.4029-4.5314 3.4487-6.0353 2.0459-1.504 4.8147-2.371 7.8675-2.371 2.6192 0 4.9694.68699 6.8975 1.8321l8.2986-5.6042c-.54221-.98531-.96996-2.0951-.96996-3.2332 0-2.3694 1.2954-4.5233 3.341-6.0353 1.911-1.4126 4.6184-2.1515 7.4364-2.2632v-.1076zm.53887 3.5565c-2.089 0-4.0163.6785-5.2809 1.6166-.95272.70661-1.5842 1.5096-1.8322 2.371-.0828.28728-.1076.5549-.1076.86219 0 .92216.3535 1.8026 1.0777 2.5866.24141.26141.54462.51883.86218.75441.94847.70347 2.2894 1.274 3.7721 1.5088.4942.0783.98658.1076 1.5088.1076 2.0892 0 3.8986-.67599 5.1731-1.6166 1.2803-.94499 1.9399-2.1205 1.9399-3.341 0-1.2201-.65967-2.2884-1.9399-3.2332-1.2746-.94075-3.0839-1.6166-5.1731-1.6166zm-25.542 15.412c-2.0901 0-4.0154.5766-5.2809 1.5088-.95365.70265-1.5071 1.5859-1.7244 2.4788-.0724.29762-.1076.55487-.1076.86218 0 .92189.27589 1.8025.96996 2.5866.23141.26142.54462.51887.86218.75442 1.2646.93809 3.1918 1.5088 5.2809 1.5088 2.0892 0 3.8985-.56807 5.1731-1.5088 1.2802-.94482 1.9399-2.1207 1.9399-3.341 0-1.2202-.6584-2.4015-1.9399-3.341-1.2755-.93489-3.0829-1.5088-5.1731-1.5088zm51.947 0c-2.0901 0-3.9076.5766-5.1731 1.5088-.95365.70265-1.5846 1.5859-1.8322 2.4788-.0824.29762-.1076.55487-.1076.86218 0 .92189.3535 1.8025 1.0777 2.5866.24142.26142.54463.51887.86219.75442 1.2646.93809 3.0841 1.5088 5.1731 1.5088 2.0892 0 4.0063-.56807 5.2809-1.5088 1.2802-.94482 1.9399-2.1207 1.9399-3.341 0-1.2202-.6584-2.4015-1.9399-3.341-1.2755-.93489-3.1906-1.5088-5.2809-1.5088zm-26.62 18.86c-2.0902 0-3.8976.68161-5.1731 1.6166-.9611.70444-1.5869 1.5102-1.8322 2.371-.0817.28694-.1076.55715-.1076.86219 0 .91536.35208 1.8001 1.0777 2.5866.24176.2621.54215.51821.86219.75441.95596.70558 2.2143 1.2747 3.6643 1.5088.48334.0779.98651.1076 1.5088.1076 2.089 0 4.0163-.67847 5.2809-1.6166 1.2703-.94213 1.9399-2.1116 1.9399-3.341 0-1.229-.6684-2.2965-1.9399-3.2332-1.2655-.93236-3.1908-1.6166-5.2809-1.6166zm-52.27 1.9399c-2.0901 0-4.0154.68423-5.2809 1.6166-.95365.70247-1.5846 1.5858-1.8322 2.4788-.0824.29763-.1076.55487-.1076.86219 0 .92199.35349 1.8329 1.0777 2.5866.24141.25141.54463.41109.86219.64664.94847.70348 2.2894 1.274 3.7721 1.5088.49421.0783.98655.1076 1.5088.1076 2.0892 0 3.8985-.67589 5.1731-1.6166 1.2803-.94499 1.9399-2.0129 1.9399-3.2332 0-1.2202-.6584-2.4015-1.9399-3.341-1.2755-.93489-3.0829-1.6166-5.1731-1.6166zm106.59 0c-2.0902 0-3.8976.68171-5.1731 1.6166-.96113.70458-1.5869 1.5877-1.8322 2.4788-.0817.29694-.1076.55715-.1076.86219 0 .91523.35208 1.8304 1.0777 2.5866.24176.2521.54211.4104.86219.64664.95596.70555 2.2143 1.2746 3.6643 1.5088.48334.0779.98652.1076 1.5088.1076 2.089 0 4.0162-.67865 5.2809-1.6166 1.2703-.94216 1.9399-2.0039 1.9399-3.2332 0-1.2292-.66843-2.4043-1.9399-3.341-1.2655-.93241-3.1908-1.6166-5.2809-1.6166zm-25.003 17.675c-2.0901 0-4.0154.68424-5.2809 1.6166-.95365.70262-1.5071 1.5084-1.7244 2.371-.0724.28762-.10761.5549-.10761.86218 0 .92199.2759 1.8025.96996 2.5866.23142.26141.54463.51882.86219.75441.94848.70347 2.2894 1.274 3.7721 1.5088.4942.0783.98655.1076 1.5088.1076 2.0892 0 4.0063-.67603 5.2809-1.6166 1.2803-.945 1.8322-2.1206 1.8322-3.341 0-1.2202-.55063-2.2938-1.8322-3.2332-1.2755-.93488-3.1906-1.6166-5.2809-1.6166zm-58.413.86219c-2.089 0-3.9085.67865-5.1731 1.6166-.95272.70679-1.5843 1.5871-1.8322 2.4788-.0828.29728-.1076.55483-.1076.86219 0 1.2292.66964 2.3988 1.9399 3.341.94847.70358 2.212 1.1966 3.6643 1.401.4841.0683.98658.1076 1.5088.1076 2.0892 0 4.0063-.56807 5.2809-1.5088 1.2802-.94482 1.9399-2.1207 1.9399-3.341s-.65964-2.396-1.9399-3.341c-1.2746-.94075-3.1916-1.6166-5.2809-1.6166zm111.01 1.0777c-2.0901 0-4.0154.68441-5.2809 1.6166-.95365.70265-1.5071 1.5084-1.7244 2.371-.0724.28762-.1076.55494-.1076.86219 0 .92216.2759 1.8025.96996 2.5866.23141.26141.5446.51876.86219.75441.94844.70347 2.2894 1.274 3.7721 1.5088.4942.0783.98655.1076 1.5088.1076 2.089 0 3.9085-.67861 5.1731-1.6166 1.2704-.94258 1.9399-2.1114 1.9399-3.341 0-1.229-.66841-2.2964-1.9399-3.2332-1.2655-.93223-3.083-1.6166-5.1731-1.6166zm-161.77.32315c-2.089 0-3.9085.67847-5.1731 1.6166-.95271.70662-1.5842 1.5871-1.8321 2.4788-.0828.29728-.1076.55487-.1076.86219 0 .92188.35332 1.8336 1.0777 2.5866.24141.25106.54432.41247.86219.64664.94909.6993 2.212 1.2727 3.6643 1.5088.4841.0786.98631.1076 1.5088.1076 2.0901 0 4.0154-.68419 5.2809-1.6166 1.2715-.93668 1.9399-2.004 1.9399-3.2332s-.66964-2.3988-1.9399-3.341c-1.2646-.93813-3.1918-1.6166-5.2809-1.6166zm-29.099 17.567c-2.0891 0-4.0162.67861-5.2809 1.6166-.95268.70658-1.5842 1.5871-1.8322 2.4788-.0828.29729-.1076.55487-.1076.86219 0 .92161.35333 1.8335 1.0777 2.5866.24141.25107.54431.41244.86218.64664.94917.69916 2.2895 1.2727 3.7721 1.5088.49417.0786.98631.1076 1.5088.1076 2.09 0 3.9076-.68437 5.1731-1.6166 1.2715-.93685 1.9399-2.0044 1.9399-3.2332 0-1.2293-.66968-2.3988-1.9399-3.341-1.2647-.93799-3.0841-1.6166-5.1731-1.6166zm54.533.53886c-2.0891 0-3.9085.67848-5.1731 1.6166-.95271.70662-1.5842 1.5097-1.8322 2.371-.0828.28728-.1076.55487-.1076.86218 0 .61467.21279 1.2677.53887 1.8322.16313.28211.29728.49334.53887.75441.24141.26107.54431.52025.86218.75442.94913.69926 2.212 1.2727 3.6643 1.5088.4841.0786.9863.1076 1.5088.1076 2.0902 0 4.0054-.68161 5.2809-1.6166 1.2815-.9393 1.9399-2.1207 1.9399-3.341 0-1.2201-.65971-2.2884-1.9399-3.2332-1.2746-.94078-3.1917-1.6166-5.2809-1.6166zm56.258 1.5088c-2.0902 0-3.8976.57394-5.1731 1.5088-.9611.7044-1.5869 1.5877-1.8321 2.4788-.0817.29694-.1076.55718-.1076.86219 0 .91537.35208 1.8001 1.0777 2.5866.24175.2621.54211.51817.86218.75441 1.2746.94072 3.0839 1.5088 5.1731 1.5088 2.0891 0 4.0163-.57087 5.2809-1.5088 1.2703-.94216 1.8321-2.1116 1.8321-3.341 0-1.2288-.56059-2.4042-1.8321-3.341-1.2655-.93227-3.1908-1.5088-5.2809-1.5088z" fill="#afe478" fill-rule="evenodd"/><path d="m242.97 155.62 29.656 23.219-26.812.15625-14.875-11.406-14.656-.0937 26.375 20.688.3125-.21875v.0625l41.094-.21875.8125.625-15.062 82.594 57.969.4375-16.031-82.219 1.7812-1.4062 41.125.21875v-.0625l.28125.21875 26.375-20.688-14.656.0937-14.875 11.406-26.812-.15625 29.688-23.219-15.906.1875-29.094 22.688-2.0938-10.812-18.875-.1875-1.8438 10.094-27.969-21.812-15.906-.1875z" fill="#577632" transform="translate(0 308.27)"/></g><g fill="#577632"><g transform="matrix(.88882 0 0 .88882 1002.4 -402.09)"><path d="m-1032.3 754.61c-.0001 2.1406-.5626 3.8164-1.6875 5.0273-1.125 1.2109-2.75 1.8164-4.875 1.8164-1.1563 0-2.1719-.14844-3.0469-.44531-.875-.29688-1.5547-.625-2.0391-.98438v-2.6016c.5781.57813 1.3438 1.043 2.2969 1.3945s1.9297.52734 2.9297.52734c1.3125 0 2.3437-.42968 3.0937-1.2891.75-.85937 1.125-2.0078 1.125-3.4453 0-1.125-.2695-2.0742-.8086-2.8477-.539-.77343-1.5664-1.6523-3.082-2.6367-1.7344-1.0937-2.918-1.9687-3.5508-2.625-.6328-.65623-1.125-1.3906-1.4765-2.2031-.3516-.81248-.5274-1.7812-.5274-2.9062 0-1.8281.6172-3.3398 1.8516-4.5352 1.2344-1.1953 2.8047-1.7929 4.7109-1.793 2.0469.00003 3.7578.4844 5.1328 1.4531l-1.1484 1.9453c-1.2813-.85935-2.6406-1.289-4.0781-1.2891-1.3125.00002-2.3594.38674-3.1407 1.1602-.7812.77346-1.1718 1.793-1.1718 3.0586 0 1.125.2656 2.0664.7968 2.8242.5313.75783 1.6563 1.6758 3.375 2.7539 1.6875 1.1094 2.8438 1.9961 3.4688 2.6602.625.66407 1.0898 1.3984 1.3945 2.2031s.457 1.7305.4571 2.7774z"/><path d="m-1012.9 748.21c-.0001 4.2813-.6758 7.5586-2.0274 9.832s-3.2852 3.4102-5.8008 3.4102c-2.4844 0-4.3867-1.1367-5.707-3.4102-1.3203-2.2734-1.9805-5.5508-1.9805-9.832 0-8.7656 2.5938-13.148 7.7813-13.148 2.4375.00003 4.3359 1.1485 5.6953 3.4453 1.3593 2.2969 2.039 5.5313 2.0391 9.7031zm-13.195 0c0 3.6719.4375 6.4453 1.3125 8.3203s2.2422 2.8125 4.1016 2.8125c3.6406 0 5.4609-3.7109 5.4609-11.133 0-7.3594-1.8203-11.039-5.4609-11.039-1.9063.00002-3.2852.9219-4.1367 2.7656-.8516 1.8438-1.2774 4.6016-1.2774 8.2734z"/><path d="m-1000.8 737.52h-3.9844v23.461h-2.2031v-23.461h-3.2344v-1.2656l3.2344-.96094v-1.9219c0-3.2343.3828-5.5625 1.1484-6.9844.7656-1.4218 2.0938-2.1328 3.9844-2.1328 1.0937.00003 2.0859.19534 2.9766.58593l-.77344 2.0625c-.82806-.39059-1.5781-.5859-2.25-.58593-.7656.00003-1.3437.22659-1.7344.67968-.3906.45316-.6797 1.1875-.8671 2.2031-.1876 1.0156-.2813 2.4219-.2813 4.2188v2.1328h3.9844z"/><path d="m-992 759.39c.68749 0 1.2969-.0937 1.8281-.28125v1.875c-.68751.3125-1.5703.46875-2.6484.46875-2.625 0-3.9375-1.9609-3.9375-5.8828v-18.047h-2.2969v-1.3125l2.25-.65625.72657-6.0469h1.5469v6.0469h4.0312v1.9688h-4.0312v17.414c-.00001 1.7188.18749 2.8906.5625 3.5156.37499.625 1.0312.9375 1.9688.9375z"/><path d="m-972.03 760.98-3.5156-17.227c-.0313-.12499-.0586-.2578-.082-.39844-.0235-.14061-.26954-1.6406-.73828-4.5h-.0469l-.32813 1.9922-.53906 2.9062-3.6328 17.227h-2.6484l-5.5312-25.43h2.2266l3.1641 14.812 1.4766 7.7344h.14062c.28124-2.2344.73437-4.8281 1.3594-7.7812l3.1641-14.766h2.3438l3.1875 14.812c.24998 1.1094.69529 3.6875 1.3359 7.7344h.14062c.0469-.51563.27733-1.8125.69141-3.8906.41404-2.0781 1.7383-8.2969 3.9727-18.656h2.2031l-5.7188 25.43z"/><path d="m-949.98 760.98-.28125-3.5625h-.0937c-1.2188 2.6875-3.0625 4.0312-5.5312 4.0312-1.6563 0-2.9883-.66016-3.9961-1.9805s-1.5117-3.0898-1.5117-5.3086c-.00001-2.4219.72655-4.3398 2.1797-5.7539 1.4531-1.414 3.4922-2.1836 6.1172-2.3086l2.7422-.14063v-2.1094c-.00002-2.375-.29689-4.1054-.89063-5.1914-.59376-1.0859-1.5781-1.6289-2.9531-1.6289-1.4531.00003-2.9375.47659-4.4531 1.4297l-.96093-1.7578c1.7656-1.0937 3.6172-1.6406 5.5547-1.6406 2.0937.00003 3.6016.66018 4.5234 1.9805.92186 1.3203 1.3828 3.5274 1.3828 6.6211v17.32zm-5.4141-1.4297c1.5937 0 2.832-.78515 3.7148-2.3555.8828-1.5703 1.3242-3.793 1.3242-6.668v-2.6484l-2.6484.14062c-2.0469.10939-3.5664.67579-4.5586 1.6992-.9922 1.0234-1.4883 2.5195-1.4883 4.4883-.00001 1.8438.32812 3.1953.98437 4.0547.65624.85937 1.5469 1.2891 2.6719 1.2891z"/><path d="m-934.39 735.06c.79686.00003 1.539.1094 2.2266.32813l-.53906 2.2266c-.56252-.23435-1.1406-.35154-1.7344-.35156-.85938.00002-1.6602.44143-2.4023 1.3242-.7422.88283-1.3242 2.1133-1.7461 3.6914-.42188 1.5782-.63282 3.3203-.63281 5.2266v13.477h-2.2266v-25.43h1.8281l.23438 4.4531h.16406c1.1875-3.2969 2.7969-4.9453 4.8281-4.9453z"/><path d="m-921.1 761.45c-2.6875 0-4.7539-1.1445-6.1992-3.4336-1.4453-2.289-2.168-5.4805-2.168-9.5742 0-4.3437.64453-7.6601 1.9336-9.9492 1.2891-2.289 3.1445-3.4336 5.5664-3.4336 2.1094.00003 3.7734 1.0039 4.9922 3.0117 1.2187 2.0078 1.8281 4.7149 1.8281 8.1211v2.0625h-12.047c.0312 3.7031.55468 6.4766 1.5703 8.3203 1.0156 1.8438 2.5547 2.7656 4.6172 2.7656 1.5937 0 3.2734-.52343 5.0391-1.5703v2.1562c-1.625 1.0156-3.336 1.5234-5.1328 1.5234zm-1.0078-24.375c-3.0625.00002-4.7422 3.0547-5.0391 9.1641h9.7734c-.00001-2.7969-.4258-5.0234-1.2773-6.6797-.85158-1.6562-2.0039-2.4844-3.457-2.4844z"/><path d="m-893.98 737.52h-3.9844v23.461h-2.2031v-23.461h-3.2344v-1.2656l3.2344-.96094v-1.9219c-.00001-3.2343.3828-5.5625 1.1484-6.9844.76562-1.4218 2.0938-2.1328 3.9844-2.1328 1.0937.00003 2.0859.19534 2.9766.58593l-.77344 2.0625c-.82813-.39059-1.5781-.5859-2.25-.58593-.76563.00003-1.3438.22659-1.7344.67968-.39063.45316-.6797 1.1875-.86719 2.2031-.18751 1.0156-.28126 2.4219-.28125 4.2188v2.1328h3.9844z"/><path d="m-882.83 735.06c.79686.00003 1.539.1094 2.2266.32813l-.53906 2.2266c-.56252-.23435-1.1406-.35154-1.7344-.35156-.85938.00002-1.6602.44143-2.4023 1.3242-.7422.88283-1.3242 2.1133-1.7461 3.6914-.42188 1.5782-.63282 3.3203-.63281 5.2266v13.477h-2.2266v-25.43h1.8281l.23438 4.4531h.16406c1.1875-3.2969 2.7969-4.9453 4.8281-4.9453z"/><path d="m-869.54 761.45c-2.6875 0-4.7539-1.1445-6.1992-3.4336-1.4453-2.289-2.168-5.4805-2.168-9.5742 0-4.3437.64453-7.6601 1.9336-9.9492 1.2891-2.289 3.1445-3.4336 5.5664-3.4336 2.1094.00003 3.7734 1.0039 4.9922 3.0117 1.2187 2.0078 1.8281 4.7149 1.8281 8.1211v2.0625h-12.047c.0312 3.7031.55468 6.4766 1.5703 8.3203 1.0156 1.8438 2.5547 2.7656 4.6172 2.7656 1.5937 0 3.2734-.52343 5.0391-1.5703v2.1562c-1.625 1.0156-3.336 1.5234-5.1328 1.5234zm-1.0078-24.375c-3.0625.00002-4.7422 3.0547-5.0391 9.1641h9.7734c-.00001-2.7969-.4258-5.0234-1.2773-6.6797-.85158-1.6562-2.0039-2.4844-3.457-2.4844z"/><path d="m-850.7 761.45c-2.6875 0-4.7539-1.1445-6.1992-3.4336-1.4453-2.289-2.168-5.4805-2.168-9.5742 0-4.3437.64453-7.6601 1.9336-9.9492 1.2891-2.289 3.1445-3.4336 5.5664-3.4336 2.1094.00003 3.7734 1.0039 4.9922 3.0117 1.2187 2.0078 1.8281 4.7149 1.8281 8.1211v2.0625h-12.047c.0312 3.7031.55468 6.4766 1.5703 8.3203 1.0156 1.8438 2.5547 2.7656 4.6172 2.7656 1.5937 0 3.2734-.52343 5.0391-1.5703v2.1562c-1.625 1.0156-3.336 1.5234-5.1328 1.5234zm-1.0078-24.375c-3.0625.00002-4.7422 3.0547-5.0391 9.1641h9.7734c-.00001-2.7969-.4258-5.0234-1.2773-6.6797-.85158-1.6562-2.0039-2.4844-3.457-2.4844z"/><path d="m-832.86 761.45c-4.9375 0-7.4063-4.3828-7.4062-13.148-.00001-4.3125.61718-7.5976 1.8516-9.8555 1.2344-2.2578 3.0547-3.3867 5.4609-3.3867 1.1406.00003 2.2226.32815 3.2461.98438 1.0234.65627 1.8398 1.5625 2.4492 2.7188h.1875l-.0937-2.8359v-11.414h2.2266v36.469h-1.8281l-.1875-3.5625h-.21094c-.60939 1.2969-1.3984 2.293-2.3672 2.9883-.96876.69531-2.0781 1.043-3.3281 1.043zm.14062-1.9453c1.7812 0 3.1523-.82422 4.1133-2.4727.96092-1.6484 1.4414-4.0742 1.4414-7.2773v-1.4531c-.00002-3.8437-.46486-6.6601-1.3945-8.4492-.9297-1.789-2.3477-2.6836-4.2539-2.6836-1.8281.00002-3.1406.95705-3.9375 2.8711-.79688 1.9141-1.1953 4.6836-1.1953 8.3086-.00001 3.6562.41406 6.4297 1.2422 8.3203.82811 1.8906 2.1562 2.8359 3.9844 2.8359z"/><path d="m-803.84 748.21c-.00002 4.2813-.6758 7.5586-2.0273 9.832-1.3516 2.2734-3.2852 3.4102-5.8008 3.4102-2.4844 0-4.3867-1.1367-5.707-3.4102-1.3203-2.2734-1.9805-5.5508-1.9805-9.832-.00001-8.7656 2.5937-13.148 7.7812-13.148 2.4375.00003 4.3359 1.1485 5.6953 3.4453 1.3594 2.2969 2.039 5.5313 2.0391 9.7031zm-13.195 0c-.00001 3.6719.43749 6.4453 1.3125 8.3203.87499 1.875 2.2422 2.8125 4.1016 2.8125 3.6406 0 5.4609-3.7109 5.4609-11.133-.00002-7.3594-1.8203-11.039-5.4609-11.039-1.9063.00002-3.2852.9219-4.1367 2.7656-.85157 1.8438-1.2774 4.6016-1.2773 8.2734z"/><path d="m-776.59 760.98v-17.32c-.00002-4.2656-1.25-6.3984-3.75-6.3984-1.7188.00002-2.957.74611-3.7148 2.2383-.75783 1.4922-1.1367 3.6914-1.1367 6.5977v14.883h-2.2031v-17.32c-.00002-2.1562-.30471-3.7617-.91407-4.8164-.60939-1.0547-1.5547-1.582-2.8359-1.582-1.6875.00002-2.9141.76565-3.6797 2.2969-.76563 1.5313-1.1484 4.0156-1.1484 7.4531v13.969h-2.2266v-25.43h1.875l.1875 3.5391h.21094c1.0156-2.6875 2.7422-4.0312 5.1797-4.0312 1.4062.00003 2.5156.37503 3.3281 1.125.81248.75003 1.3984 1.8438 1.7578 3.2812.60936-1.5625 1.3594-2.6875 2.25-3.375.89061-.68747 2.0468-1.0312 3.4688-1.0312 1.9218.00003 3.3281.73831 4.2188 2.2148.8906 1.4766 1.3359 3.8399 1.3359 7.0898v16.617z"/></g><path d="m55.917 283.81c-4.1654.00003-7.2583 1.443-9.25 4.375s-2.9688 7.3677-2.9688 13.312c0 5.682 1.0533 10.006 3.1562 12.938s5.1636 4.4062 9.1875 4.4062c2.568 0 4.9081-.68566 7.0312-2v-7.0938c-2.2041 1.4154-4.3217 2.125-6.3438 2.125-1.6985.00001-2.9081-.86489-3.6562-2.5938-.74817-1.7288-1.125-4.3456-1.125-7.8438-.00001-3.579.36672-6.2417 1.125-8.0312.75826-1.7895 2-2.6875 3.7188-2.6875 1.2941.00003 2.7904.47797 4.4688 1.4688l2.3125-6.2812c-1.0919-.68747-2.3438-1.1985-3.7188-1.5625-1.375-.36394-2.6838-.53122-3.9375-.53125zm24 0c-4.125.00003-7.3622 1.5414-9.6875 4.625-2.3254 3.0837-3.4688 7.364-3.4688 12.844 0 3.5588.52206 6.6535 1.5938 9.3125 1.0717 2.659 2.6121 4.7096 4.5938 6.125 1.9816 1.4154 4.2555 2.125 6.8438 2.125 4.0845 0 7.3106-1.5414 9.6562-4.625s3.5-7.3971 3.5-12.938c-.00003-5.3584-1.1756-9.6369-3.5312-12.781-2.3557-3.1443-5.5166-4.6875-9.5-4.6875zm34.469 0c-1.8199.00003-3.3952.43294-4.75 1.3125-1.2804.83132-2.2795 1.97-3 3.4062v-4.1562h-7.9688v.0625h-.0312v33.781h8.0625v-16.219c-.00001-4.1048.40992-7.0211 1.2188-8.75.80881-1.7288 2.0735-2.5937 3.8125-2.5938 1.3143.00003 2.2573.62135 2.8438 1.875.58638 1.2537.87498 3.1158.875 5.5625v20.125h8.125v-22.031c-.00003-4.0441-.75463-7.147-2.2812-9.25-1.5267-2.1029-3.8328-3.125-6.9062-3.125zm25.281 0c-3.4375.00003-6.1535.82173-8.125 2.5-1.9715 1.6783-2.9375 3.9412-2.9375 6.8125 0 2.2445.53217 4.1958 1.5938 5.8438 1.0616 1.648 2.8033 3.2004 5.25 4.6562 1.8401 1.1121 3.0937 2.0754 3.7812 2.8438.68749.76839 1.0312 1.6563 1.0312 2.6875-.00001 1.011-.3116 1.8208-.96875 2.4375-.65718.61673-1.6213.93751-2.875.9375-1.1324.00001-2.4513-.27573-3.9375-.78125-1.4862-.50551-2.7629-1.1379-3.875-1.9062v7c2.1838 1.3143 4.9448 2 8.2812 2 3.761 0 6.6002-.93107 8.5312-2.7812 1.931-1.8502 2.875-4.4228 2.875-7.7188-.00002-1.5165-.22245-2.8364-.6875-3.9688-.46509-1.1323-1.1195-2.1415-1.9688-3.0312-.84928-.88969-2.3346-1.9761-4.4375-3.25-1.739-1.0514-2.9256-1.9485-3.5625-2.6562-.63696-.7077-.93751-1.4963-.9375-2.4062-.00001-.78858.23437-1.454.75-2 .51561-.54593 1.3125-.84372 2.3438-.84375 1.6378.00003 3.5239.60849 5.6875 1.7812l2.6562-5.8125c-2.6489-1.5772-5.4761-2.3437-8.4688-2.3438zm25.125 0c-3.943.00003-7.0147 1.5534-9.2188 4.6875-2.204 3.1342-3.2812 7.4816-3.2812 13.062 0 5.5 1.2197 9.7473 3.6562 12.75 2.4366 3.0028 5.7426 4.5312 9.9688 4.5312 3.6195 0 6.7242-.78677 9.3125-2.3438v-6.6562c-2.75 1.6379-5.4338 2.4688-8.0625 2.4688-2.0625.00001-3.671-.75275-4.8438-2.2188-1.1728-1.466-1.7831-3.6746-1.8438-6.6875h16.219v-4.3125c-.00003-4.8327-1.0644-8.602-3.1875-11.281-2.1232-2.6792-5.0386-4-8.7188-4zm31.719 0c-1.3952.00003-2.636.43386-3.6875 1.3438-1.0515.90996-2.0166 2.4394-2.9062 4.5625h-.28125l-.90625-5.2812h-6.625v33.781h8.0625v-17.375c-.00001-2.9522.51102-5.2031 1.5625-6.75 1.0514-1.5468 2.5698-2.3125 4.5312-2.3125.90991.00003 1.6526.0791 2.2188.28125l.9375-7.8125c-.95039-.30327-1.9155-.43747-2.9062-.4375zm-31.75 6.1875c1.2334.00003 2.1985.66363 2.9062 1.9375.7077 1.2739 1.0845 3.1269 1.125 5.5938h-8.1875c.12131-2.568.53308-4.4641 1.2812-5.6875.74815-1.2233 1.7224-1.8437 2.875-1.8438zm-84.906.71875c1.6783.00003 2.909.87595 3.6875 2.625.77847 1.7491 1.1562 4.3989 1.1562 7.9375-.00002 7.1176-1.6085 10.656-4.8438 10.656-1.6985.00001-2.9504-.88786-3.7188-2.6875-.76839-1.7996-1.125-4.4504-1.125-7.9688-.00001-3.5386.35661-6.1884 1.125-7.9375.76837-1.749 2.0202-2.625 3.7188-2.625z"/><path d="m245.92 283.81c-3.943.00003-7.5809 1.0331-10.938 3.1562l2.7812 5.5938c2.6287-1.5772 4.9467-2.375 6.9688-2.375 2.7298.00003 4.0937 1.5956 4.0938 4.75v2.4062l-4.4688.1875c-3.8824.18201-6.7987 1.1462-8.75 2.875-1.9513 1.7289-2.9375 4.3787-2.9375 7.9375 0 3.3162.69945 5.8897 2.125 7.75 1.4255 1.8603 3.3879 2.7812 5.875 2.7812 1.9412 0 3.5386-.34559 4.8125-1.0938 1.2739-.74816 2.5257-2.1121 3.7188-4.0938h.1875l1.5938 4.5938h5.9062v-22.688c-.00003-3.761-.91087-6.6663-2.7812-8.7188-1.8704-2.0524-4.6085-3.0625-8.1875-3.0625zm33.281.0312c-1.8199.00003-3.4265.46419-4.7812 1.3438-1.318.85577-2.3378 2.0344-3.0625 3.5312v-4.2812h-7.9688v18.156h.0312v15.688h8.0625v-16.219c-.00001-4.1048.40992-7.0211 1.2188-8.75.80881-1.7288 2.0735-2.5937 3.8125-2.5938 1.3143.00003 2.2886.62135 2.875 1.875.58638 1.2537.87498 3.1158.875 5.5625v20.125h8.125v-22.062c-.00003-4.0441-.75463-7.1158-2.2812-9.2188-1.5267-2.1029-3.8328-3.1562-6.9062-3.1562zm26.812 0c-4.1654.00003-7.2583 1.4743-9.25 4.4062-1.9917 2.932-2.9688 7.3677-2.9688 13.312 0 5.682 1.0533 10.006 3.1562 12.938s5.1636 4.375 9.1875 4.375c2.568 0 4.9081-.65441 7.0312-1.9688v-7.0938c-2.2041 1.4154-4.3217 2.125-6.3438 2.125-1.6985.00001-2.9081-.86489-3.6562-2.5938-.74817-1.7288-1.125-4.3456-1.125-7.8438-.00001-3.579.36672-6.2417 1.125-8.0312.75826-1.7895 2-2.6875 3.7188-2.6875 1.2941.00003 2.7904.47797 4.4688 1.4688l2.2812-6.2812c-1.0919-.68747-2.3125-1.1985-3.6875-1.5625-1.375-.36394-2.6838-.56247-3.9375-.5625zm-102.69.65625 8.8438 33.781h10l8.875-33.781h-8.375c-2.9522 13.447-4.5258 20.643-4.6875 21.594-.16178.95038-.31711 1.9927-.46875 3.125-.15167 1.1324-.22979 1.9871-.25 2.5938h-.125c-.0607-.76837-.21601-2.0322-.46875-3.7812-.25277-1.7491-.47428-3.0588-.65625-3.9688l-4.3125-19.562zm45.5 17.938v2.875c-.00002 2.204-.43292 3.9568-1.3125 5.2812-.87961 1.3244-2.0552 2-3.5312 2-1.9816.00001-2.9688-1.3971-2.9688-4.1875-.00001-1.8805.42187-3.2996 1.2812-4.25.85936-.95035 2.2224-1.4926 4.0625-1.5938z"/><path d="m-1008.6 872.03h6.4688l3.6093 14.742c.35936 1.3125.64842 3.1484.86718 5.5078h.14063c.0156-.37499.0859-1.043.21094-2.0039.12498-.96093.22655-1.7148.30468-2.2617.0781-.54687 1.1562-5.875 3.2344-15.984h6.5625l-7.4766 27.984c-.90627 3.4375-2.1094 5.9062-3.6094 7.4062s-3.5 2.25-6 2.25c-1.2344-.00001-2.3359-.13283-3.3047-.39844v-5.2266c.6406.18749 1.3594.28124 2.1563.28125 2.0937-.00001 3.4687-1.375 4.125-4.125l.4453-1.6406z" transform="matrix(1.2941 0 0 1.2941 1622.4 -844.71)"/></g></g><circle cx="66.146289" cy="81.01" r="45.207" style="fill:none;stroke:#fefefe;stroke-dasharray:1.678322 5.034965;stroke-linecap:round;stroke-linejoin:round;stroke-opacity:.26971;stroke-width:1.6783"/><path d="m-58.117 71.757h3.0013v3.0013h-3.0013z" fill="#f57389" transform="matrix(.70710678 -.70710678 .70710678 .70710678 0 0)"/><path d="m119.59 76.368.47094.47094 5.2909 5.2909 5.7632-5.7632-5.7618-5.7618zm1.8865-.000002 3.8767-3.8767 3.8753 3.8753-3.8767 3.8767z" fill="#678ee6"/><path d="m8.5467 53.94a.49995.49995 0 0 0 0 .70448l3.0243 3.0242a.49995.49995 0 0 0 .70714 0l3.0243-3.0242a.49995.49995 0 0 0 -.0025-.70716l-3.0242-3.0243a.49995.49995 0 0 0 -.70453 0zm1.062.35228 2.3145-2.3145 2.3171 2.317-2.3145 2.3147z" fill="#78e5f6"/><g transform="matrix(.70710678 -.70710678 .70710678 .70710678 0 0)"><path d="m3.9729 154.62h3.0013v3.0013h-3.0013z" fill="#3d8fcc"/><path d="m22.452 57.547h4.4143v4.4143h-4.4143z" fill="#f57389"/><path d="m23.368 51.457h2.5826v2.5826h-2.5826z" fill="#678ee6"/><path d="m-70.237 101.8h3.0013v3.0013h-3.0013z" fill="#f6aa78"/></g></svg>