<svg xmlns="http://www.w3.org/2000/svg" width="869" height="140" fill="none"><path d="m333.918 51.441.82-11.322h44.47V10.91h-76.303l-5.743 69.74h33.31c13.948.0 17.394 3.281 17.394 8.204.0 5.907-6.4 9.025-15.096 9.025-9.682.0-20.84-2.626-30.685-8.369l-13.128 28.552c12.307 6.892 29.537 10.338 45.29 10.338 36.756.0 52.509-19.855 52.509-40.367.0-20.347-12.964-36.592-46.93-36.592z" aria-label="5" style="text-align:center;text-anchor:middle;fill:#fff;stroke:#333639;stroke-width:6.1902"/><path fill="#fff" stroke="#333639" stroke-width="6" d="m284.292 124.756.015.014.015.014c3.651 3.363 8.168 5.005 13.345 5.005s9.693-1.642 13.344-5.005l.016-.014.014-.014c3.686-3.489 5.511-7.96 5.511-13.176.0-5.276-1.816-9.752-5.572-13.115-3.654-3.272-8.16-4.859-13.313-4.859-5.154.0-9.66 1.587-13.314 4.859l2.001 2.236-2.001-2.236c-3.756 3.363-5.572 7.839-5.572 13.115.0 5.216 1.825 9.687 5.511 13.176z"/><path fill="#fff" stroke="#333639" stroke-width="6" d="M176 106.137v3h57.665V128.2h42.379v-19.063h14.773V74.066h-14.773V57.069h-36.462l27.54-41.408L270.223 11h-45.616l-.895 1.295-47.18 68.309-.532.769v.936zm58.777-41.845v9.774h-6.501z"/><mask id="b" width="436" height="73" x="764" y="153" fill="#000" maskUnits="userSpaceOnUse"><path fill="#fff" d="M764 153h436v73H764z"/><path d="M767 221.712v-64.424h29.339c5.868.0 10.911.951 15.129 2.853 4.278 1.903 7.579 4.663 9.902 8.283 2.322 3.559 3.484 7.793 3.484 12.701.0 4.847-1.162 9.05-3.484 12.609-2.323 3.497-5.624 6.196-9.902 8.098-4.218 1.841-9.261 2.761-15.129 2.761h-19.254l8.069-7.638v24.757zm39.7.0-15.953-23.469h19.345l16.045 23.469zm-21.546-22.825-8.069-8.375h18.154c3.79.0 6.602-.828 8.435-2.485 1.895-1.656 2.843-3.957 2.843-6.902.0-3.006-.948-5.338-2.843-6.995-1.833-1.656-4.645-2.484-8.435-2.484h-18.154l8.069-8.375zm66.402-16.658h29.798v13.621h-29.798zm1.283 25.401h33.557v14.082h-51.527v-64.424h50.335v14.082h-32.365zm43.631 14.082v-64.424h18.154v49.974h30.623v14.45zm72.648-39.483h29.798v13.621h-29.798zm1.283 25.401h33.559v14.082h-51.529v-64.424h50.339v14.082h-32.369zm35.929 14.082 28.33-64.424h17.88l28.42 64.424h-18.88l-22.19-55.496h7.15l-22.19 55.496zm15.5-12.517 4.67-13.437h31.36l4.67 13.437zM1108.66 223c-5.25.0-10.33-.644-15.22-1.933-4.82-1.35-8.77-3.067-11.82-5.154l5.96-13.436c2.87 1.84 6.17 3.374 9.9 4.601 3.79 1.166 7.55 1.749 11.28 1.749 2.5.0 4.52-.215 6.05-.644 1.53-.491 2.63-1.105 3.3-1.841.73-.798 1.1-1.718 1.1-2.761.0-1.472-.67-2.638-2.02-3.497-1.34-.859-3.09-1.565-5.23-2.117-2.13-.552-4.52-1.104-7.15-1.657a78.192 78.192.0 01-7.79-2.116c-2.57-.859-4.92-1.964-7.06-3.314a17.095 17.095.0 01-5.23-5.429c-1.34-2.271-2.01-5.124-2.01-8.56.0-3.865 1.04-7.362 3.11-10.491 2.14-3.129 5.32-5.645 9.54-7.547s9.47-2.853 15.77-2.853c4.22.0 8.34.491 12.38 1.473 4.09.92 7.73 2.3 10.91 4.141l-5.59 13.529c-3.06-1.657-6.09-2.884-9.08-3.681-3-.859-5.9-1.289-8.71-1.289-2.51.0-4.53.276-6.05.828-1.53.491-2.63 1.166-3.3 2.025-.68.859-1.01 1.841-1.01 2.945.0 1.411.64 2.546 1.92 3.405 1.35.798 3.09 1.473 5.23 2.025 2.2.491 4.58 1.012 7.15 1.565 2.63.552 5.23 1.257 7.79 2.116 2.63.798 5.02 1.902 7.16 3.314 2.13 1.349 3.85 3.159 5.13 5.43 1.34 2.208 2.02 5 2.02 8.375.0 3.742-1.07 7.209-3.21 10.399-2.08 3.129-5.23 5.645-9.45 7.547-4.15 1.902-9.41 2.853-15.77 2.853zm53.5-40.771h29.8v13.621h-29.8zm1.28 25.401H1197v14.082h-51.53v-64.424h50.34v14.082h-32.37z"/></mask><path stroke="url(#a)" stroke-linejoin="round" stroke-width="6" d="M767 221.712v-64.424h29.339c5.868.0 10.911.951 15.129 2.853 4.278 1.903 7.579 4.663 9.902 8.283 2.322 3.559 3.484 7.793 3.484 12.701.0 4.847-1.162 9.05-3.484 12.609-2.323 3.497-5.624 6.196-9.902 8.098-4.218 1.841-9.261 2.761-15.129 2.761h-19.254l8.069-7.638v24.757zm39.7.0-15.953-23.469h19.345l16.045 23.469zm-21.546-22.825-8.069-8.375h18.154c3.79.0 6.602-.828 8.435-2.485 1.895-1.656 2.843-3.957 2.843-6.902.0-3.006-.948-5.338-2.843-6.995-1.833-1.656-4.645-2.484-8.435-2.484h-18.154l8.069-8.375z" mask="url(#b)" style="stroke:url(#a)" transform="translate(-331 -144)"/><path stroke="url(#c)" stroke-linejoin="round" stroke-width="6" d="M851.556 182.229h29.798v13.621h-29.798zm1.283 25.401h33.557v14.082h-51.527v-64.424h50.335v14.082h-32.365z" mask="url(#b)" style="stroke:url(#c)" transform="translate(-331 -144)"/><path stroke="url(#d)" stroke-linejoin="round" stroke-width="6" d="M896.47 221.712v-64.424h18.154v49.974h30.623v14.45z" mask="url(#b)" style="stroke:url(#d)" transform="translate(-331 -144)"/><path stroke="url(#e)" stroke-linejoin="round" stroke-width="6" d="M969.118 182.229h29.798v13.621h-29.798zm1.283 25.401h33.559v14.082h-51.529v-64.424h50.339v14.082h-32.369z" mask="url(#b)" style="stroke:url(#e)" transform="translate(-331 -144)"/><path stroke="url(#f)" stroke-linejoin="round" stroke-width="6" d="m1006.33 221.712 28.33-64.424h17.88l28.42 64.424h-18.88l-22.19-55.496h7.15l-22.19 55.496zm15.5-12.517 4.67-13.437h31.36l4.67 13.437z" mask="url(#b)" style="stroke:url(#f)" transform="translate(-331 -144)"/><path stroke="url(#g)" stroke-linejoin="round" stroke-width="6" d="M1108.66 223c-5.25.0-10.33-.644-15.22-1.933-4.82-1.35-8.77-3.067-11.82-5.154l5.96-13.436c2.87 1.84 6.17 3.374 9.9 4.601 3.79 1.166 7.55 1.749 11.28 1.749 2.5.0 4.52-.215 6.05-.644 1.53-.491 2.63-1.105 3.3-1.841.73-.798 1.1-1.718 1.1-2.761.0-1.472-.67-2.638-2.02-3.497-1.34-.859-3.09-1.565-5.23-2.117-2.13-.552-4.52-1.104-7.15-1.657a78.192 78.192.0 01-7.79-2.116c-2.57-.859-4.92-1.964-7.06-3.314a17.095 17.095.0 01-5.23-5.429c-1.34-2.271-2.01-5.124-2.01-8.56.0-3.865 1.04-7.362 3.11-10.491 2.14-3.129 5.32-5.645 9.54-7.547s9.47-2.853 15.77-2.853c4.22.0 8.34.491 12.38 1.473 4.09.92 7.73 2.3 10.91 4.141l-5.59 13.529c-3.06-1.657-6.09-2.884-9.08-3.681-3-.859-5.9-1.289-8.71-1.289-2.51.0-4.53.276-6.05.828-1.53.491-2.63 1.166-3.3 2.025-.68.859-1.01 1.841-1.01 2.945.0 1.411.64 2.546 1.92 3.405 1.35.798 3.09 1.473 5.23 2.025 2.2.491 4.58 1.012 7.15 1.565 2.63.552 5.23 1.257 7.79 2.116 2.63.798 5.02 1.902 7.16 3.314 2.13 1.349 3.85 3.159 5.13 5.43 1.34 2.208 2.02 5 2.02 8.375.0 3.742-1.07 7.209-3.21 10.399-2.08 3.129-5.23 5.645-9.45 7.547-4.15 1.902-9.41 2.853-15.77 2.853z" mask="url(#b)" style="stroke:url(#g)" transform="translate(-331 -144)"/><path stroke="url(#h)" stroke-linejoin="round" stroke-width="6" d="M1162.16 182.229h29.8v13.621h-29.8zm1.28 25.401H1197v14.082h-51.53v-64.424h50.34v14.082h-32.37z" mask="url(#b)" style="stroke:url(#h)" transform="translate(-331 -144)"/><mask id="j" width="436" height="73" x="764" y="199" fill="#000" maskUnits="userSpaceOnUse"><path fill="#fff" d="M764 199h436v73H764z"/><path d="M767 267.712v-64.424h29.339c5.868.0 10.911.951 15.129 2.853 4.278 1.903 7.579 4.663 9.902 8.283 2.322 3.559 3.484 7.793 3.484 12.701.0 4.847-1.162 9.05-3.484 12.609-2.323 3.497-5.624 6.196-9.902 8.098-4.218 1.841-9.261 2.761-15.129 2.761h-19.254l8.069-7.638v24.757zm39.7.0-15.953-23.469h19.345l16.045 23.469zm-21.546-22.825-8.069-8.375h18.154c3.79.0 6.602-.828 8.435-2.485 1.895-1.656 2.843-3.957 2.843-6.902.0-3.006-.948-5.338-2.843-6.995-1.833-1.656-4.645-2.484-8.435-2.484h-18.154l8.069-8.375zm66.402-16.658h29.798v13.621h-29.798zm1.283 25.401h33.557v14.082h-51.527v-64.424h50.335v14.082h-32.365zm43.631 14.082v-64.424h18.154v49.974h30.623v14.45zm72.648-39.483h29.798v13.621h-29.798zm1.283 25.401h33.559v14.082h-51.529v-64.424h50.339v14.082h-32.369zm35.929 14.082 28.33-64.424h17.88l28.42 64.424h-18.88l-22.19-55.496h7.15l-22.19 55.496zm15.5-12.517 4.67-13.437h31.36l4.67 13.437zM1108.66 269c-5.25.0-10.33-.644-15.22-1.933-4.82-1.35-8.77-3.067-11.82-5.154l5.96-13.436c2.87 1.84 6.17 3.374 9.9 4.601 3.79 1.166 7.55 1.749 11.28 1.749 2.5.0 4.52-.215 6.05-.644 1.53-.491 2.63-1.105 3.3-1.841.73-.798 1.1-1.718 1.1-2.761.0-1.472-.67-2.638-2.02-3.497-1.34-.859-3.09-1.565-5.23-2.117-2.13-.552-4.52-1.104-7.15-1.657a78.192 78.192.0 01-7.79-2.116c-2.57-.859-4.92-1.964-7.06-3.314a17.095 17.095.0 01-5.23-5.429c-1.34-2.271-2.01-5.124-2.01-8.56.0-3.865 1.04-7.362 3.11-10.491 2.14-3.129 5.32-5.645 9.54-7.547s9.47-2.853 15.77-2.853c4.22.0 8.34.491 12.38 1.473 4.09.92 7.73 2.3 10.91 4.141l-5.59 13.529c-3.06-1.657-6.09-2.884-9.08-3.681-3-.859-5.9-1.289-8.71-1.289-2.51.0-4.53.276-6.05.828-1.53.491-2.63 1.166-3.3 2.025-.68.859-1.01 1.841-1.01 2.945.0 1.411.64 2.546 1.92 3.405 1.35.798 3.09 1.473 5.23 2.025 2.2.491 4.58 1.012 7.15 1.565 2.63.552 5.23 1.257 7.79 2.116 2.63.798 5.02 1.902 7.16 3.314 2.13 1.349 3.85 3.159 5.13 5.43 1.34 2.208 2.02 5 2.02 8.375.0 3.742-1.07 7.209-3.21 10.399-2.08 3.129-5.23 5.645-9.45 7.547-4.15 1.902-9.41 2.853-15.77 2.853zm53.5-40.771h29.8v13.621h-29.8zm1.28 25.401H1197v14.082h-51.53v-64.424h50.34v14.082h-32.37z"/></mask><path stroke="url(#i)" stroke-linejoin="round" stroke-width="6" d="M767 267.712v-64.424h29.339c5.868.0 10.911.951 15.129 2.853 4.278 1.903 7.579 4.663 9.902 8.283 2.322 3.559 3.484 7.793 3.484 12.701.0 4.847-1.162 9.05-3.484 12.609-2.323 3.497-5.624 6.196-9.902 8.098-4.218 1.841-9.261 2.761-15.129 2.761h-19.254l8.069-7.638v24.757zm39.7.0-15.953-23.469h19.345l16.045 23.469zm-21.546-22.825-8.069-8.375h18.154c3.79.0 6.602-.828 8.435-2.485 1.895-1.656 2.843-3.957 2.843-6.902.0-3.006-.948-5.338-2.843-6.995-1.833-1.656-4.645-2.484-8.435-2.484h-18.154l8.069-8.375z" mask="url(#j)" style="stroke:url(#i)" transform="translate(-331 -144)"/><path stroke="url(#k)" stroke-linejoin="round" stroke-width="6" d="M851.556 228.229h29.798v13.621h-29.798zm1.283 25.401h33.557v14.082h-51.527v-64.424h50.335v14.082h-32.365z" mask="url(#j)" style="stroke:url(#k)" transform="translate(-331 -144)"/><path stroke="url(#l)" stroke-linejoin="round" stroke-width="6" d="M896.47 267.712v-64.424h18.154v49.974h30.623v14.45z" mask="url(#j)" style="stroke:url(#l)" transform="translate(-331 -144)"/><path stroke="url(#m)" stroke-linejoin="round" stroke-width="6" d="M969.118 228.229h29.798v13.621h-29.798zm1.283 25.401h33.559v14.082h-51.529v-64.424h50.339v14.082h-32.369z" mask="url(#j)" style="stroke:url(#m)" transform="translate(-331 -144)"/><path stroke="url(#n)" stroke-linejoin="round" stroke-width="6" d="m1006.33 267.712 28.33-64.424h17.88l28.42 64.424h-18.88l-22.19-55.496h7.15l-22.19 55.496zm15.5-12.517 4.67-13.437h31.36l4.67 13.437z" mask="url(#j)" style="stroke:url(#n)" transform="translate(-331 -144)"/><path stroke="url(#o)" stroke-linejoin="round" stroke-width="6" d="M1108.66 269c-5.25.0-10.33-.644-15.22-1.933-4.82-1.35-8.77-3.067-11.82-5.154l5.96-13.436c2.87 1.84 6.17 3.374 9.9 4.601 3.79 1.166 7.55 1.749 11.28 1.749 2.5.0 4.52-.215 6.05-.644 1.53-.491 2.63-1.105 3.3-1.841.73-.798 1.1-1.718 1.1-2.761.0-1.472-.67-2.638-2.02-3.497-1.34-.859-3.09-1.565-5.23-2.117-2.13-.552-4.52-1.104-7.15-1.657a78.192 78.192.0 01-7.79-2.116c-2.57-.859-4.92-1.964-7.06-3.314a17.095 17.095.0 01-5.23-5.429c-1.34-2.271-2.01-5.124-2.01-8.56.0-3.865 1.04-7.362 3.11-10.491 2.14-3.129 5.32-5.645 9.54-7.547s9.47-2.853 15.77-2.853c4.22.0 8.34.491 12.38 1.473 4.09.92 7.73 2.3 10.91 4.141l-5.59 13.529c-3.06-1.657-6.09-2.884-9.08-3.681-3-.859-5.9-1.289-8.71-1.289-2.51.0-4.53.276-6.05.828-1.53.491-2.63 1.166-3.3 2.025-.68.859-1.01 1.841-1.01 2.945.0 1.411.64 2.546 1.92 3.405 1.35.798 3.09 1.473 5.23 2.025 2.2.491 4.58 1.012 7.15 1.565 2.63.552 5.23 1.257 7.79 2.116 2.63.798 5.02 1.902 7.16 3.314 2.13 1.349 3.85 3.159 5.13 5.43 1.34 2.208 2.02 5 2.02 8.375.0 3.742-1.07 7.209-3.21 10.399-2.08 3.129-5.23 5.645-9.45 7.547-4.15 1.902-9.41 2.853-15.77 2.853z" mask="url(#j)" style="stroke:url(#o)" transform="translate(-331 -144)"/><path stroke="url(#p)" stroke-linejoin="round" stroke-width="6" d="M1162.16 228.229h29.8v13.621h-29.8zm1.28 25.401H1197v14.082h-51.53v-64.424h50.34v14.082h-32.37z" mask="url(#j)" style="stroke:url(#p)" transform="translate(-331 -144)"/><path fill="#fff" d="M436 100.692V35.308h29.339c5.868.0 10.911.965 15.129 2.895 4.278 1.931 7.579 4.733 9.902 8.407 2.322 3.612 3.484 7.908 3.484 12.89.0 4.919-1.162 9.185-3.484 12.797-2.323 3.549-5.624 6.289-9.902 8.219-4.218 1.869-9.261 2.803-15.129 2.803h-19.254l8.069-7.753v25.126zm39.7.0-15.953-23.818h19.345l16.045 23.818zm-21.546-23.165-8.069-8.5h18.154c3.79.0 6.602-.84 8.435-2.522 1.895-1.681 2.843-4.016 2.843-7.005.0-3.051-.948-5.418-2.843-7.099-1.833-1.681-4.645-2.522-8.435-2.522h-18.154l8.069-8.5zm66.402-16.906h29.798v13.824h-29.798zm1.283 25.78h33.557v14.291h-51.527V35.308h50.335v14.291h-32.365zm43.631 14.291V35.308h18.154v50.719h30.623v14.665zm72.648-40.071h29.798v13.824h-29.798zm1.283 25.78h33.559v14.291h-51.529V35.308h50.339v14.291h-32.369zm35.929 14.291 28.33-65.384h17.88l28.42 65.384h-18.88l-22.19-56.324h7.15l-22.19 56.324zm15.5-12.703 4.67-13.637h31.36l4.67 13.637zM777.66 102c-5.25.0-10.33-.654-15.22-1.962-4.82-1.37-8.77-3.113-11.82-5.23l5.96-13.638c2.87 1.868 6.17 3.425 9.9 4.671 3.79 1.183 7.55 1.774 11.28 1.774 2.5.0 4.52-.218 6.05-.653 1.53-.499 2.63-1.121 3.3-1.869.73-.809 1.1-1.743 1.1-2.802.0-1.494-.67-2.677-2.02-3.549-1.34-.872-3.09-1.588-5.23-2.149-2.13-.56-4.52-1.12-7.15-1.681a77.176 77.176.0 01-7.79-2.148c-2.57-.872-4.92-1.993-7.06-3.363-2.14-1.432-3.88-3.269-5.23-5.511-1.34-2.304-2.01-5.2-2.01-8.687.0-3.923 1.04-7.472 3.11-10.648 2.14-3.176 5.32-5.729 9.54-7.659 4.22-1.931 9.47-2.896 15.77-2.896 4.22.0 8.34.498 12.38 1.495 4.09.934 7.73 2.335 10.91 4.203l-5.59 13.731c-3.06-1.682-6.09-2.927-9.08-3.737-3-.871-5.9-1.307-8.71-1.307-2.51.0-4.53.28-6.05.84-1.53.498-2.63 1.183-3.3 2.055-.68.872-1.01 1.868-1.01 2.989.0 1.432.64 2.584 1.92 3.456 1.35.81 3.09 1.495 5.23 2.055 2.2.498 4.58 1.028 7.15 1.588 2.63.561 5.23 1.277 7.79 2.148 2.63.81 5.02 1.931 7.16 3.363 2.13 1.37 3.85 3.207 5.13 5.511 1.34 2.242 2.02 5.075 2.02 8.5.0 3.799-1.07 7.317-3.21 10.555-2.08 3.176-5.23 5.729-9.45 7.659-4.15 1.931-9.41 2.896-15.77 2.896zm53.5-41.379h29.8v13.824h-29.8zm1.28 25.78H866v14.291h-51.53V35.308h50.34v14.291h-32.37zM59.13.0c-6.782 1.508-13.49 3.607-19.78 6.773.144 5.554.503 10.875 1.231 16.28-2.443 1.565-5.01 2.908-7.291 4.74-2.319 1.784-4.686 3.489-6.785 5.575a129.963 129.963.0 00-13.203-7.681C8.373 30.991 3.764 36.716.0 43.122c2.958 4.644 6.132 9.312 9.07 12.952v39.317c.072.0.145.003.216.009l24.104 2.325a2.594 2.594.0 012.339 2.403l.744 10.64 21.025 1.501 1.448-9.821a2.597 2.597.0 012.569-2.217h25.43c1.287.0 2.38.944 2.567 2.217l1.448 9.821 21.027-1.501.742-10.64a2.597 2.597.0 012.34-2.403l24.094-2.325a3.09 3.09.0 01.215-.009v-3.138l.011-.002V56.074c3.394-4.273 6.607-8.986 9.07-12.952-3.763-6.406-8.374-12.131-13.302-17.435a130.102 130.102.0 00-13.205 7.681c-2.098-2.086-4.461-3.791-6.783-5.575-2.28-1.832-4.851-3.175-7.289-4.74.726-5.405 1.085-10.726 1.23-16.28C102.819 3.607 96.111 1.508 89.326.0c-2.709 4.553-5.186 9.484-7.344 14.304-2.558-.428-5.128-.586-7.702-.617v-.004c-.018.0-.035.004-.05.004-.016.0-.033-.004-.049-.004v.004c-2.579.031-5.147.189-7.706.617C64.319 9.484 61.843 4.553 59.13.0zM40.061 57.516c8.023.0 14.526 6.498 14.526 14.518.0 8.026-6.503 14.527-14.526 14.527-8.019.0-14.524-6.501-14.524-14.527.0-8.02 6.505-14.518 14.524-14.518zm68.339.0c8.018.0 14.522 6.498 14.522 14.518.0 8.026-6.504 14.527-14.522 14.527-8.024.0-14.527-6.501-14.527-14.527.0-8.02 6.503-14.518 14.527-14.518zm-34.172 8.496c2.583.0 4.681 1.905 4.681 4.249v13.372c0 2.346-2.098 4.249-4.681 4.249-2.582.0-4.675-1.903-4.675-4.249V70.261c0-2.344 2.093-4.249 4.675-4.249z"/><path fill="#fff" d="m117.755 102.681-.747 10.697a2.596 2.596.0 01-2.405 2.408l-25.674 1.832a2.595 2.595.0 01-2.752-2.211l-1.473-9.985H63.755l-1.472 9.985a2.595 2.595.0 01-2.753 2.211l-25.674-1.832a2.596 2.596.0 01-2.405-2.408l-.747-10.697-21.673-2.09c.01 2.33.04 4.882.04 5.39.0 22.89 29.037 33.892 65.114 34.019h.089c36.077-.127 65.104-11.129 65.104-34.019.0-.518.032-3.059.042-5.39zM51.091 72.896c0 5.323-4.314 9.637-9.642 9.637-5.324.0-9.641-4.314-9.641-9.637.0-5.324 4.317-9.642 9.641-9.642a9.64 9.64.0 019.642 9.642zm46.278.0a9.635 9.635.0 009.636 9.637c5.329.0 9.642-4.314 9.642-9.637a9.64 9.64.0 10-19.278.0z"/><defs><linearGradient id="a" x1="767" x2="767" y1="156" y2="208.483" gradientUnits="userSpaceOnUse"><stop stop-color="#fff"/><stop offset="1" stop-color="#25282b" stop-opacity="0"/></linearGradient><linearGradient id="c" x1="767" x2="767" y1="156" y2="208.483" gradientUnits="userSpaceOnUse"><stop stop-color="#fff"/><stop offset="1" stop-color="#25282b" stop-opacity="0"/></linearGradient><linearGradient id="d" x1="767" x2="767" y1="156" y2="208.483" gradientUnits="userSpaceOnUse"><stop stop-color="#fff"/><stop offset="1" stop-color="#25282b" stop-opacity="0"/></linearGradient><linearGradient id="e" x1="767" x2="767" y1="156" y2="208.483" gradientUnits="userSpaceOnUse"><stop stop-color="#fff"/><stop offset="1" stop-color="#25282b" stop-opacity="0"/></linearGradient><linearGradient id="f" x1="767" x2="767" y1="156" y2="208.483" gradientUnits="userSpaceOnUse"><stop stop-color="#fff"/><stop offset="1" stop-color="#25282b" stop-opacity="0"/></linearGradient><linearGradient id="g" x1="767" x2="767" y1="156" y2="208.483" gradientUnits="userSpaceOnUse"><stop stop-color="#fff"/><stop offset="1" stop-color="#25282b" stop-opacity="0"/></linearGradient><linearGradient id="h" x1="767" x2="767" y1="156" y2="208.483" gradientUnits="userSpaceOnUse"><stop stop-color="#fff"/><stop offset="1" stop-color="#25282b" stop-opacity="0"/></linearGradient><linearGradient id="i" x1="767" x2="767" y1="230.898" y2="269.026" gradientUnits="userSpaceOnUse"><stop stop-color="#25282b" stop-opacity="0"/><stop offset="1" stop-color="#fff"/></linearGradient><linearGradient id="k" x1="767" x2="767" y1="230.898" y2="269.026" gradientUnits="userSpaceOnUse"><stop stop-color="#25282b" stop-opacity="0"/><stop offset="1" stop-color="#fff"/></linearGradient><linearGradient id="l" x1="767" x2="767" y1="230.898" y2="269.026" gradientUnits="userSpaceOnUse"><stop stop-color="#25282b" stop-opacity="0"/><stop offset="1" stop-color="#fff"/></linearGradient><linearGradient id="m" x1="767" x2="767" y1="230.898" y2="269.026" gradientUnits="userSpaceOnUse"><stop stop-color="#25282b" stop-opacity="0"/><stop offset="1" stop-color="#fff"/></linearGradient><linearGradient id="n" x1="767" x2="767" y1="230.898" y2="269.026" gradientUnits="userSpaceOnUse"><stop stop-color="#25282b" stop-opacity="0"/><stop offset="1" stop-color="#fff"/></linearGradient><linearGradient id="o" x1="767" x2="767" y1="230.898" y2="269.026" gradientUnits="userSpaceOnUse"><stop stop-color="#25282b" stop-opacity="0"/><stop offset="1" stop-color="#fff"/></linearGradient><linearGradient id="p" x1="767" x2="767" y1="230.898" y2="269.026" gradientUnits="userSpaceOnUse"><stop stop-color="#25282b" stop-opacity="0"/><stop offset="1" stop-color="#fff"/></linearGradient></defs></svg>