<svg xmlns="http://www.w3.org/2000/svg" fill-rule="evenodd" stroke-linejoin="round" stroke-miterlimit="2" viewBox="0 0 920 1067"><path d="M835.445.122H81.097C19.956.122-2.608 22.685-2.608 83.858v738.121c0 6.923.279 13.35.889 19.307 1.394 13.35 1.654 26.294 14.074 41.024 1.212 1.44 13.89 10.875 13.89 10.875 6.82 3.345 11.478 5.811 19.167 8.906l371.452 155.625c19.283 8.837 27.347 12.288 41.354 12.005v.005h.109v-.005c14.006.283 22.069-3.168 41.353-12.005l371.448-155.625c7.693-3.095 12.347-5.56 19.17-8.906 0 0 12.68-9.435 13.887-10.875 12.42-14.731 12.68-27.675 14.074-41.024.611-5.957.889-12.383.889-19.307V83.858c0-61.173-22.565-83.736-83.703-83.736zm-554.58 923.062h357.129l-182.283 60.112zm-82.746-144.331c-9.674 0-18.611-1.6-26.809-4.795s-15.305-7.639-21.321-13.322-10.737-12.456-14.155-20.332c-3.424-7.871-5.133-16.481-5.133-25.833v-.356c0-9.116 1.681-17.579 5.044-25.391s7.991-14.653 13.89-20.51 12.946-10.446 21.146-13.764 17.077-4.973 26.632-4.973c10.969 0 20.438 1.6 28.401 4.795s15.244 7.639 21.853 13.318l-20.172 24.329c-4.485-3.787-9.056-6.686-13.715-8.701s-10.058-3.017-16.19-3.017c-4.486 0-8.643.884-12.477 2.662s-7.167 4.202-9.997 7.279-5.074 6.691-6.725 10.829c-1.654 4.152-2.478 8.587-2.478 13.322v.351c0 4.973.824 9.594 2.478 13.856s3.983 7.899 6.991 10.92 6.546 5.387 10.616 7.101 8.584 2.575 13.538 2.575c8.022 0 14.624-1.714 19.819-5.15v-15.091h-24.42v-25.218h56.977v55.937c-6.607 5.447-14.393 10.004-23.359 13.673s-19.108 5.506-30.434 5.506zm537.643-.356c-11.089 0-21.617-1.718-31.585-5.15s-18.787-8.582-26.453-15.451l19.111-22.907c12.388 9.945 25.774 14.918 40.168 14.918 4.603 0 8.113-.738 10.528-2.22s3.628-3.578 3.628-6.303v-.356c0-1.304-.296-2.457-.884-3.464s-1.682-1.978-3.272-2.931c-1.595-.943-3.719-1.864-6.372-2.748s-6.103-1.805-10.351-2.757c-6.609-1.536-12.739-3.222-18.404-5.059s-10.588-4.198-14.776-7.101-7.493-6.513-9.909-10.834-3.628-9.676-3.628-16.071v-.351c0-5.802 1.094-11.13 3.277-15.984s5.364-9.056 9.553-12.607 9.229-6.303 15.132-8.259 12.561-2.931 19.99-2.931c10.62 0 20.086 1.395 28.404 4.175s15.838 6.896 22.561 12.338l-17.165 24.329c-5.661-4.025-11.472-7.074-17.429-9.143s-11.709-3.108-17.251-3.108c-4.134 0-7.229.77-9.293 2.306s-3.095 3.437-3.095 5.684v.356c0 1.422.324 2.662.971 3.728s1.768 2.042 3.364 2.931 3.774 1.778 6.55 2.662c2.767.889 6.281 1.809 10.528 2.753 7.074 1.541 13.473 3.35 19.197 5.419s10.583 4.585 14.599 7.543 7.078 6.545 9.202 10.743c2.124 4.207 3.181 9.207 3.181 15.009v.351c0 6.395-1.208 12.078-3.623 17.051s-5.811 9.207-10.177 12.693c-4.362 3.496-9.612 6.158-15.747 7.99s-12.981 2.757-20.528 2.757zM568.064 651.957h99.624v29.297h-65.65v18.824h59.456v27.169h-59.456v19.712h66.534v29.297H568.064zm-154.593 0h36.272l29.553 48.121 29.548-48.121h36.275v124.299h-34.147v-71.384l-31.676 48.654h-.706l-31.5-48.299v71.028h-33.619zm-97.916-.902h33.089l52.73 125.193h-36.806l-9.024-22.196h-47.775l-8.848 22.196h-36.099zm30.081 76.183l-13.803-35.336-13.979 35.336zm376.621-343.012v92.572c0 16.403-7.58 24.015-23.313 24.015h-11.668c-16.321 0-23.905-7.611-23.905-24.015V217.835c0-16.406 7.584-24.016 23.905-24.016h10.497c15.743 0 23.327 7.61 23.327 24.016v80.272h61.211V214.32c0-50.965-24.489-75.573-75.203-75.573H676.78c-50.714 0-75.791 25.187-75.791 76.164v264.809c0 50.979 25.077 76.165 75.791 76.165h30.906c50.728 0 75.796-25.186 75.796-76.165v-95.493zM505.623 552.365h62.396V142.263h-62.396zM196.076 371.915h73.462v-56.824h-73.462V199.087h76.388v-56.824H133.693v410.102h139.931v-56.822h-77.548zm205.612-229.652H303.74v410.102h62.384V403.554h35.564c50.728 0 75.796-25.187 75.796-76.155V218.426c0-50.975-25.068-76.162-75.796-76.162zm13.409 182.202c0 16.406-7.572 24.027-23.315 24.027h-25.658v-151.16h25.658c15.743 0 23.315 7.615 23.315 24.017z" fill="#fff"/></svg>