<svg xmlns="http://www.w3.org/2000/svg" viewBox="0 0 100 100"><g fill="#fff"><path d="M90.133 65.7s-.133-.818-.211-.811l-14.843 1.432a2.41 2.41 0 0 0-2.181 2.239l-.408 5.844-11.483.819-.781-5.297c-.174-1.178-1.203-2.066-2.394-2.066H42.167c-1.19 0-2.219.888-2.393 2.066l-.781 5.297-11.483-.819-.408-5.844a2.41 2.41 0 0 0-2.181-2.24l-14.85-1.432c-.077-.007-.133.811-.21.811l-.02 3.212 12.577 2.028.412 5.897a2.43 2.43 0 0 0 2.241 2.245l15.814 1.128.178.007c1.188 0 2.216-.889 2.39-2.067l.804-5.45h11.488l.804 5.45c.174 1.178 1.202 2.066 2.392 2.066l.174-.006 15.816-1.128c1.194-.086 2.158-1.051 2.241-2.245l.411-5.897 12.571-2.037z"/><path d="M40.764 4.2c-.224-.01-.447.016-.666.064-4.332.963-8.688 2.318-12.83 4.402-.959.483-1.553 1.476-1.525 2.549.075 2.887.327 5.695.645 8.529-1.078.645-2.154 1.232-3.342 2.186-.846.649-1.788 1.473-2.711 2.236-2.149-1.349-4.32-2.692-6.619-3.85-1.102-.555-2.439-.315-3.279.59-3.126 3.365-6.098 7.046-8.553 11.223-.521.887-.508 1.989.033 2.863 1.623 2.626 3.352 5.079 5.172 7.459v29.805c0 8.223 5.472 14.496 13.299 18.238s18.185 5.452 29.576 5.492h.074c11.391-.04 21.749-1.749 29.574-5.492s13.295-10.016 13.295-18.238l.004-29.031c1.849-2.712 3.382-5.334 5.174-8.23.54-.874.553-1.975.033-2.861-2.454-4.177-5.428-7.86-8.555-11.225-.84-.904-2.175-1.144-3.277-.59-2.299 1.157-4.47 2.502-6.619 3.852-.922-.764-1.862-1.588-2.711-2.238-1.195-.961-2.268-1.547-3.342-2.19.317-2.834.569-5.643.645-8.529.028-1.073-.566-2.066-1.525-2.549-4.142-2.085-8.498-3.439-12.832-4.402-1.169-.259-2.372.26-2.984 1.289-1.401 2.354-2.602 4.855-3.764 7.326-1.035-.094-2.086-.238-3.088-.25-.011 0-.022 0-.033 0h-.061c-.011 0-.022 0-.033 0-1.004.012-2.056.156-3.092.25-1.115-2.372-2.277-4.764-3.615-7.035a2.77 2.77 0 0 0-.15-.293c-.488-.82-1.363-1.331-2.316-1.353z"/></g><path d="M40.699 6.9c-4.178.929-8.31 2.222-12.185 4.172.089 3.421.31 6.699.758 10.029-1.505.964-3.086 1.792-4.492 2.92-1.428 1.099-2.886 2.15-4.18 3.434-2.583-1.709-5.317-3.314-8.134-4.732-3.036 3.267-5.875 6.794-8.194 10.74 1.745 2.822 3.566 5.468 5.533 7.978h.055v24.22c.044 0 .089 0 .132.01l14.848 1.432a1.6 1.6 0 0 1 1.442 1.48l.458 6.554 12.952.924.892-6.049a1.6 1.6 0 0 1 1.582-1.366h15.665a1.6 1.6 0 0 1 1.581 1.366l.892 6.049 12.953-.924.458-6.554a1.6 1.6 0 0 1 1.442-1.48L90 65.672c.044 0 .088-.01.132-.01V63.73h.006V41.445h.055c1.967-2.511 3.787-5.156 5.533-7.978-2.318-3.946-5.159-7.473-8.195-10.74-2.816 1.417-5.551 3.023-8.134 4.732-1.293-1.285-2.748-2.336-4.178-3.434-1.405-1.129-2.988-1.956-4.49-2.92.447-3.33.668-6.608.757-10.029-3.875-1.95-8.007-3.243-12.187-4.172-1.669 2.805-3.195 5.842-4.524 8.811-1.576-.263-3.16-.361-4.745-.38h-.031-.03c-1.588.019-3.17.117-4.747.38-1.328-2.969-2.853-6.006-4.525-8.811zM9.837 68.866l.024 3.32c0 14.101 17.888 20.878 40.112 20.956h.054c22.224-.078 40.106-6.855 40.106-20.956l.026-3.32-13.346 1.287-.46 6.59a1.6 1.6 0 0 1-1.481 1.483l-15.816 1.129h-.115a1.6 1.6 0 0 1-1.58-1.366l-.907-6.151H43.549l-.907 6.151a1.6 1.6 0 0 1-1.696 1.362L25.13 78.222a1.6 1.6 0 0 1-1.481-1.483l-.46-6.59z" fill="#478cbf"/><path d="M37.9 51.3a8.95 8.95 0 0 1-8.948 8.949 8.95 8.95 0 0 1-8.947-8.949c0-4.941 4.007-8.944 8.947-8.944A8.95 8.95 0 0 1 37.9 51.3M50 61.1c-1.591 0-2.88-1.172-2.88-2.618v-8.238c0-1.444 1.289-2.618 2.88-2.618s2.883 1.174 2.883 2.618v8.238c0 1.445-1.292 2.618-2.883 2.618m12.101-9.8a8.95 8.95 0 0 0 8.949 8.949 8.95 8.95 0 0 0 8.946-8.949c0-4.941-4.007-8.944-8.946-8.944a8.95 8.95 0 0 0-8.949 8.944" fill="#fff"/><path d="M29.807 45.9a5.94 5.94 0 0 0-5.939 5.939 5.94 5.94 0 0 0 5.939 5.937 5.94 5.94 0 0 0 5.94-5.937 5.94 5.94 0 0 0-5.94-5.939zm40.383 0a5.94 5.94 0 0 0-5.936 5.939c0 3.279 2.657 5.937 5.936 5.937a5.94 5.94 0 0 0 5.94-5.937 5.94 5.94 0 0 0-5.94-5.939z" fill="#414042"/></svg>