<?xml version="1.0" encoding="UTF-8"?>
<svg version="1.1" viewBox="0 0 100 100" xmlns="http://www.w3.org/2000/svg" xmlns:cc="http://creativecommons.org/ns#" xmlns:dc="http://purl.org/dc/elements/1.1/" xmlns:rdf="http://www.w3.org/1999/02/22-rdf-syntax-ns#">
<metadata>
<rdf:RDF>
<cc:Work rdf:about="">
<dc:format>image/svg+xml</dc:format>
<dc:type rdf:resource="http://purl.org/dc/dcmitype/StillImage"/>
<dc:title/>
</cc:Work>
</rdf:RDF>
</metadata>
<g transform="translate(0 -1022.5)">
<g transform="matrix(.41022 0 0 -.41022 90.133 1088.2)" stroke-width=".32031">
<path d="m0 0s-0.325 1.994-0.515 1.976l-36.182-3.491c-2.879-0.278-5.115-2.574-5.317-5.459l-0.994-14.247-27.992-1.997-1.904 12.912c-0.424 2.872-2.932 5.037-5.835 5.037h-38.188c-2.902 0-5.41-2.165-5.834-5.037l-1.905-12.912-27.992 1.997-0.994 14.247c-0.202 2.886-2.438 5.182-5.317 5.46l-36.2 3.49c-0.187 0.018-0.324-1.978-0.511-1.978l-0.049-7.83 30.658-4.944 1.004-14.374c0.203-2.91 2.551-5.263 5.463-5.472l38.551-2.75c0.146-0.01 0.29-0.016 0.434-0.016 2.897 0 5.401 2.166 5.825 5.038l1.959 13.286h28.005l1.959-13.286c0.423-2.871 2.93-5.037 5.831-5.037 0.142 0 0.284 5e-3 0.423 0.015l38.556 2.75c2.911 0.209 5.26 2.562 5.463 5.472l1.003 14.374 30.645 4.966z" fill="#fff"/>
</g>
<path d="m40.764 1026.7c-0.22378-0.01-0.44741 0.016-0.66602 0.064-4.3317 0.963-8.6879 2.3175-12.83 4.4024-0.95895 0.4827-1.5531 1.4756-1.5254 2.5488 0.07479 2.8867 0.32664 5.695 0.64453 8.5293-1.0776 0.645-2.1541 1.232-3.3418 2.1856-0.84553 0.6493-1.7885 1.4733-2.7109 2.2363-2.1487-1.3494-4.3197-2.6924-6.6191-3.8496-1.1025-0.5551-2.4393-0.3147-3.2793 0.5898-3.1265 3.3648-6.0985 7.0462-8.5527 11.223-0.52064 0.8868-0.50786 1.9888 0.033203 2.8633 1.6231 2.6255 3.3518 5.0794 5.1719 7.4589v29.805c0 8.223 5.472 14.496 13.299 18.238 7.8268 3.7426 18.185 5.4523 29.576 5.4922h0.074249c11.391-0.04 21.749-1.7494 29.574-5.4922s13.295-10.016 13.295-18.238l0.0039-29.031c1.8487-2.7118 3.3825-5.3341 5.1738-8.2305 0.54026-0.874 0.55303-1.975 0.0332-2.8613-2.4537-4.1771-5.4284-7.8601-8.5547-11.225-0.83968-0.9036-2.1753-1.144-3.2773-0.5899-2.2985 1.157-4.4703 2.5023-6.6191 3.8516-0.92228-0.7635-1.8625-1.5876-2.7109-2.2383-0.0034 0-0.0064 0-0.0098-0.01-1.1855-0.951-2.2584-1.537-3.332-2.1797 0.3171-2.834 0.56942-5.643 0.64453-8.5293 0.02779-1.0733-0.56641-2.0662-1.5254-2.5489-4.1423-2.0846-8.4981-3.4392-12.832-4.4023-1.1688-0.2595-2.3721 0.2603-2.9844 1.2891-1.4005 2.3538-2.6017 4.8552-3.7637 7.3261-1.0352-0.094-2.0858-0.238-3.0879-0.25-0.01107-1e-4 -0.02213-1e-4 -0.0332 0h-0.06054c-0.01107-1e-4 -0.02213-1e-4 -0.0332 0-1.0041 0.012-2.0561 0.1556-3.0918 0.25-1.1152-2.3725-2.2767-4.7643-3.6152-7.0351-0.04428-0.1006-0.0945-0.1984-0.15039-0.293-0.48802-0.8195-1.3629-1.3307-2.3164-1.3535z" color="#000000" color-rendering="auto" dominant-baseline="auto" fill="#fff" image-rendering="auto" shape-rendering="auto" solid-color="#000000" style="font-feature-settings:normal;font-variant-alternates:normal;font-variant-caps:normal;font-variant-ligatures:normal;font-variant-numeric:normal;font-variant-position:normal;isolation:auto;mix-blend-mode:normal;shape-padding:0;text-decoration-color:#000000;text-decoration-line:none;text-decoration-style:solid;text-indent:0;text-orientation:mixed;text-transform:none;white-space:normal"/>
<path d="m40.699 1029.4c-4.1777 0.9287-8.3103 2.2217-12.185 4.1719 0.08864 3.4213 0.3098 6.6993 0.75817 10.029-1.5047 0.9641-3.086 1.7915-4.4915 2.9199-1.428 1.0985-2.8864 2.1496-4.1795 3.4344-2.5831-1.7086-5.3171-3.3141-8.1337-4.7315-3.036 3.2674-5.8748 6.7939-8.1937 10.74 1.7447 2.8222 3.566 5.4678 5.5326 7.9784h0.055057v24.22c0.044277 4e-4 0.088553 0 0.13242 0.01l14.848 1.4317c0.77777 0.075 1.3873 0.701 1.4415 1.4804l0.4579 6.5545 12.952 0.924 0.89232-6.0493c0.11568-0.7844 0.78842-1.3657 1.5818-1.3657h15.665c0.79295 0 1.4657 0.5813 1.5814 1.3657l0.89232 6.0493 12.953-0.924 0.45752-6.5545c0.05457-0.7794 0.66369-1.405 1.4415-1.4804l14.842-1.4317c0.0439 0 0.08778-0.01 0.13204-0.01v-1.9326h0.0058v-22.285h0.05506c1.967-2.5105 3.7871-5.1561 5.5326-7.9784-2.3181-3.9462-5.1585-7.4728-8.1945-10.74-2.8157 1.4174-5.5507 3.023-8.1339 4.7315-1.2926-1.2848-2.7485-2.3358-4.1785-3.4343-1.405-1.1286-2.9883-1.9559-4.4901-2.9199 0.44714-3.3298 0.66819-6.6079 0.75721-10.029-3.8749-1.9501-8.007-3.2432-12.187-4.1719-1.6688 2.8047-3.1949 5.8418-4.524 8.811-1.5761-0.2633-3.1595-0.3609-4.745-0.3798h-0.0308-0.03003c-1.5884 0.019-3.1704 0.1165-4.7469 0.3798-1.3283-2.9692-2.8535-6.0063-4.5248-8.811zm-30.862 61.966c0.00577 1.4349 0.024448 3.007 0.024448 3.32 0 14.101 17.888 20.878 40.112 20.956h0.05448c22.224-0.078 40.106-6.8554 40.106-20.956 0-0.3188 0.01926-1.8844 0.02579-3.32l-13.346 1.2872-0.46002 6.5895c-0.05535 0.7941-0.68712 1.4261-1.4813 1.4831l-15.816 1.1286h-0.11529c-0.78597 0-1.4641-0.5767-1.5802-1.366l-0.90696-6.151h-12.905l-0.90695 6.151c-0.12183 0.8277-0.86196 1.4229-1.6955 1.3617l-15.816-1.1285c-0.79418-0.057-1.4259-0.6889-1.4813-1.4831l-0.45983-6.5896z" fill="#478cbf"/>
<g transform="matrix(.41022 0 0 -.41022 37.9 1073.8)" stroke-width=".32031">
<path d="m0 0c0-12.052-9.765-21.815-21.813-21.815-12.042 0-21.81 9.763-21.81 21.815 0 12.044 9.768 21.802 21.81 21.802 12.048 0 21.813-9.758 21.813-21.802" fill="#fff"/>
</g>
<g transform="matrix(.41022 0 0 -.41022 50 1083.6)" stroke-width=".32031">
<path d="m0 0c-3.878 0-7.021 2.858-7.021 6.381v20.081c0 3.52 3.143 6.381 7.021 6.381s7.028-2.861 7.028-6.381v-20.081c0-3.523-3.15-6.381-7.028-6.381" fill="#fff"/>
</g>
<g transform="matrix(.41022 0 0 -.41022 62.101 1073.8)" stroke-width=".32031">
<path d="m0 0c0-12.052 9.765-21.815 21.815-21.815 12.041 0 21.808 9.763 21.808 21.815 0 12.044-9.767 21.802-21.808 21.802-12.05 0-21.815-9.758-21.815-21.802" fill="#fff"/>
</g>
<path d="m29.807 1068.4c-3.2801 0-5.9395 2.6601-5.9395 5.9394 0 3.2794 2.6594 5.9371 5.9395 5.9371 3.2818 0 5.9397-2.6577 5.9397-5.9371 0-3.2793-2.6579-5.9394-5.9397-5.9394zm40.383 0c-3.2793 0-5.9362 2.6601-5.9362 5.9394 0 3.2794 2.6569 5.9371 5.9362 5.9371 3.2826 0 5.9396-2.6577 5.9396-5.9371 0-3.2793-2.6571-5.9394-5.9396-5.9394z" fill="#414042"/>
</g>
</svg>
