<svg xmlns="http://www.w3.org/2000/svg" height="64" viewBox="0 0 16.933 16.933" width="64"><path d="M8.471.939A7.52 7.52 0 0 0 .968 7.959l.003.004 4.04 1.663c.11-.072.227-.135.352-.186a2.06 2.06 0 0 1 .881-.156l1.84-2.673c-.001-.012-.001-.025-.001-.037 0-1.577 1.281-2.86 2.856-2.86a2.86 2.86 0 0 1 2.856 2.86c0 1.577-1.281 2.862-2.856 2.862-.021 0-.043-.001-.064-.001l-2.633 1.881c.008.29-.046.581-.161.859-.441 1.062-1.665 1.567-2.726 1.124-.649-.27-1.088-.833-1.232-1.474l-2.846-1.174c.939 3.083 3.804 5.326 7.194 5.326a7.52 7.52 0 0 0 7.519-7.519A7.52 7.52 0 0 0 8.47.939zm2.469 3.73c-1.049 0-1.903.855-1.903 1.906s.854 1.906 1.903 1.906a1.91 1.91 0 0 0 1.903-1.906 1.91 1.91 0 0 0-1.903-1.906zm.003.471a1.43 1.43 0 1 1 0 2.864 1.43 1.43 0 1 1 0-2.864zM6.174 9.762a1.61 1.61 0 0 0-.585.105l.961.398c.604.252.89.946.638 1.551s-.945.891-1.549.639l-.93-.385a1.6 1.6 0 0 0 .828.79 1.61 1.61 0 0 0 2.104-.868c.165-.396.166-.835.003-1.233s-.471-.709-.868-.874c-.197-.082-.401-.122-.602-.123z" fill="#fff"/></svg>