<?xml version="1.0" encoding="UTF-8"?>
<svg width="64" height="64" version="1.1" viewBox="0 0 16.933333 16.933334" xmlns="http://www.w3.org/2000/svg" xmlns:cc="http://creativecommons.org/ns#" xmlns:dc="http://purl.org/dc/elements/1.1/" xmlns:rdf="http://www.w3.org/1999/02/22-rdf-syntax-ns#">
<metadata>
<rdf:RDF>
<cc:Work rdf:about="">
<dc:format>image/svg+xml</dc:format>
<dc:type rdf:resource="http://purl.org/dc/dcmitype/StillImage"/>
<dc:title/>
</cc:Work>
</rdf:RDF>
</metadata>
<g transform="translate(0 -280.07)">
<g transform="matrix(.064542 0 0 .064542 .93958 281.01)">
<path transform="matrix(1.4845 0 0 1.4845 8034 -741.49)" d="m-5333.3 499.48c-41.589 0-75.621 32.353-78.309 73.262 0.013 0.0211 0.023 0.0395 0.035 0.0605v-0.0137l42.168 17.359c1.1472-0.75444 2.3691-1.4073 3.6739-1.9394 2.9598-1.2192 6.0806-1.7665 9.1914-1.625l19.205-27.895c-0.01-0.12395-0.01-0.25665-0.01-0.38867 0-16.463 13.371-29.855 29.807-29.855 16.443 0 29.809 13.392 29.809 29.855 0 16.462-13.366 29.867-29.809 29.867-0.2223 0-0.4496-7e-3 -0.6719-0.0137l-27.477 19.637c0.081 3.0312-0.4787 6.0683-1.6777 8.9648-4.6075 11.081-17.379 16.356-28.455 11.729-6.7698-2.8224-11.359-8.69-12.855-15.379l-29.707-12.258c9.7969 32.175 39.702 55.584 75.08 55.584 43.34 0 78.475-35.136 78.475-78.477 0-43.341-35.134-78.475-78.475-78.475zm25.764 38.93c-10.946 0-19.857 8.9276-19.857 19.891 0 10.972 8.9112 19.898 19.857 19.898 10.953 0 19.865-8.9266 19.865-19.898 0-10.963-8.9123-19.891-19.865-19.891zm0.035 4.9121c8.2383 0 14.92 6.6955 14.92 14.949 0 8.2544-6.6817 14.941-14.92 14.941-8.2315 0-14.914-6.687-14.914-14.941 0-8.2538 6.6825-14.949 14.914-14.949zm-49.768 48.234c-2.0977-0.0168-4.1663 0.36342-6.1016 1.0977l10.031 4.1562c6.3037 2.6271 9.288 9.8758 6.6583 16.188-2.6217 6.305-9.859 9.295-16.166 6.668l-9.7031-4.0215c1.7184 3.5904 4.6972 6.6005 8.6426 8.2442 8.5522 3.5634 18.391-0.497 21.957-9.0586 1.7245-4.136 1.7316-8.7177 0.027-12.867-1.7043-4.1494-4.9198-7.3966-9.0645-9.1211-2.0555-0.85549-4.1835-1.2683-6.2812-1.2852z" fill="#fff" stroke-width=".67361"/>
</g>
</g>
</svg>
