<?xml version="1.0" encoding="UTF-8"?>
<svg width="500" height="600" version="1.1" viewBox="0 0 132.29167 158.75" xmlns="http://www.w3.org/2000/svg" xmlns:cc="http://creativecommons.org/ns#" xmlns:dc="http://purl.org/dc/elements/1.1/" xmlns:rdf="http://www.w3.org/1999/02/22-rdf-syntax-ns#" xmlns:xlink="http://www.w3.org/1999/xlink">
<defs>
<linearGradient id="a" x1="-259.55" x2="-174.09" y1="104.53" y2="44.205" gradientTransform="translate(0 1.0583)" gradientUnits="userSpaceOnUse" xlink:href="#b"/>
<linearGradient id="f" x1="-259.55" x2="-174.09" y1="104.53" y2="44.205" gradientTransform="translate(.37418 .21643)" gradientUnits="userSpaceOnUse" xlink:href="#b"/>
<linearGradient id="e" x1="-259.55" x2="-174.09" y1="104.53" y2="44.205" gradientTransform="translate(-.56127 .7777)" gradientUnits="userSpaceOnUse" xlink:href="#b"/>
<linearGradient id="c" x1="-255.58" x2="-216.95" y1="180.19" y2="155.4" gradientTransform="translate(-.65481 .58148)" gradientUnits="userSpaceOnUse" xlink:href="#b"/>
<linearGradient id="d" x1="-261.8" x2="-166.28" y1="198.19" y2="152.5" gradientTransform="translate(1.2435e-5 1.0583)" gradientUnits="userSpaceOnUse" xlink:href="#b"/>
<linearGradient id="b">
<stop stop-color="#f6aa78" offset="0"/>
<stop stop-color="#f57389" offset="1"/>
</linearGradient>
</defs>
<metadata>
<rdf:RDF>
<cc:Work rdf:about="">
<dc:format>image/svg+xml</dc:format>
<dc:type rdf:resource="http://purl.org/dc/dcmitype/StillImage"/>
<dc:title/>
</cc:Work>
</rdf:RDF>
</metadata>
<g transform="translate(270.27 -26.214)">
<circle cx="-99.73" cy="-193.08" r="0" fill="#282828" stroke-width=".26458"/>
<circle cx="-343.75" cy="-202.08" r="0" fill="#e0e0e0" stroke-width=".52917"/>
<circle cx="-370.95" cy="-411.24" r="0" fill="#282828" stroke-width=".26458"/>
<circle cx="483.66" cy="-112.07" r="0" fill="#282828" stroke-width=".26458"/>
<path d="m-232.98 62.404a1.5747 1.5747 0 0 0 -1.5747 1.5747 1.5747 1.5747 0 0 0 1.0498 1.4835v0.0913h-1.0498v1.0498h1.0498v2.0463a2.6245 2.6245 0 0 1 -2.0094 -1.8915l-1.015 0.27164a3.6743 3.6743 0 0 0 3.5493 2.723 3.6743 3.6743 0 0 0 3.5492 -2.723l-1.017-0.27269a2.6245 2.6245 0 0 1 -2.0073 1.8915v-2.0453h1.0498v-1.0498h-1.0498v-0.0923a1.5747 1.5747 0 0 0 1.0498 -1.4825 1.5747 1.5747 0 0 0 -1.5747 -1.5747zm0 1.0498a0.52491 0.52491 0 0 1 0.5249 0.52493 0.52491 0.52491 0 0 1 -0.5249 0.5249 0.52491 0.52491 0 0 1 -0.52492 -0.5249 0.52491 0.52491 0 0 1 0.52492 -0.52493z" fill="url(#a)"/>
<path d="m-232.68 31.759c-0.43368 0-0.78524 0.35155-0.78524 0.78523v0.39261h5.4966v-0.39261c0-0.43367-0.35156-0.78523-0.78522-0.78523zm3.5335 0.39261h0.39262v0.39262h-0.39262zm-4.3188 1.1778v3.1409c0 0.43365 0.35156 0.78521 0.78524 0.78521h3.9261c0.43366 0 0.78522-0.35156 0.78522-0.78521v-3.1409zm3.7199 0.64262 0.55516 0.55516-1.9431 1.9431-1.1103-1.1104 0.55518-0.55518 0.55515 0.55518z" fill="url(#f)"/>
<path d="m-244.27 43.692v6.4226h0.53493v-0.9175h0.84135v0.9175h3.6701v-0.9175h0.91752v0.9175h0.45876v-6.4226h-0.45876v0.91751h-0.91752v-0.91751h-3.6701v0.91751h-0.84135v-0.91751zm1.8351 1.3763h0.91751v0.91751h1.835v0.91753h-0.91753v0.91753h0.91753v0.9175h-1.3763a0.45881 0.45881 0 0 1 -0.45877 -0.45876v-1.3763h-0.45876a0.45881 0.45881 0 0 1 -0.45875 -0.45876v-0.91753zm-1.3001 0.45875h0.84135v0.91753h-0.84135zm4.5114 0h0.91752v0.91753h-0.91752zm-4.5114 1.835h0.84135v0.91753h-0.84135zm4.5114 0h0.91752v0.91753h-0.91752z" fill="#f6aa78"/>
<path d="m-191.01 93.369-2.257 0.90282v5.4169l2.257-0.90284 1.8056 0.90284 2.257-0.90284v-5.4169l-2.257 0.90282zm0 0.90282 1.8056 0.9028v3.6113l-1.8056-0.90282z" fill="#78e5f6"/>
<path d="m-217.9 42.72c-1.1438 0-2.071 0.92724-2.071 2.071v1.3808h-2.7614v4.8324c0 0.76493 0.6158 1.3807 1.3807 1.3807h6.9035c0.76492 0 1.3807-0.61581 1.3807-1.3807v-4.8324h-2.7614v-1.3808c0-1.1438-0.92726-2.071-2.0711-2.071zm0 1.3807c0.38126 0 0.69035 0.30908 0.69035 0.69033v1.3808h-1.3807v-1.3808c0-0.38125 0.30908-0.69033 0.69035-0.69033z" fill="#78e5f6"/>
<path d="m-199.28 58.545v1.0498h6.2989v-1.0498zm-0.52492 1.5747v4.7242a1.0498 1.0498 0 0 0 1.0498 1.0498h5.249a1.0498 1.0498 0 0 0 1.0498 -1.0498v-4.7242zm1.0498 0.5249h0.52489v0.52492h-0.52489zm1.5747 0h0.5249v0.52492h-0.5249zm1.5747 0h0.5249v0.52492h-0.5249zm1.5747 0h0.5249v0.52492h-0.5249zm-4.7241 1.0498h5.249v3.1494h-5.249zm1.5747 0.5249v0.52491h2.0996v-0.52491z" fill="#ff8e87" fill-opacity=".96863"/>
<path d="m-205.97 41.451v1.0216h1.3209l-1.8317 1.8317-2.1929-2.1929-0.72233 0.72232 2.1929 2.1929-2.1929 2.1929 0.72233 0.72229 2.1929-2.1929 1.8317 1.8317h-1.3209v1.0217h2.5541a0.51086 0.51086 0 0 0 0.5108 -0.5108v-2.5541h-1.0216v1.3209l-1.8318-1.8317 1.8318-1.8317v1.3209h1.0216v-2.554a0.51086 0.51086 0 0 0 -0.5108 -0.51086z" color="#000000" color-rendering="auto" dominant-baseline="auto" fill="#678ee6" image-rendering="auto" shape-rendering="auto" solid-color="#000000" style="font-feature-settings:normal;font-variant-alternates:normal;font-variant-caps:normal;font-variant-ligatures:normal;font-variant-numeric:normal;font-variant-position:normal;isolation:auto;mix-blend-mode:normal;shape-padding:0;text-decoration-color:#000000;text-decoration-line:none;text-decoration-style:solid;text-indent:0;text-orientation:mixed;text-transform:none;white-space:normal"/>
<path d="m-181.01 61.869a2.3581 2.3581 0 0 0 -2.3489 2.1831 2.358 2.358 0 0 0 -1.5812 -0.61106 2.358 2.358 0 0 0 -2.3581 2.358 2.358 2.358 0 0 0 1.572 2.22v1.7101c0 0.43546 0.35057 0.78602 0.78603 0.78602h4.7161c0.43549 0 0.78605-0.35057 0.78605-0.78602v-0.78602l2.358 1.572v-4.7161l-2.358 1.5721v-1.3909a2.3581 2.3581 0 0 0 0.786 -1.7532 2.3581 2.3581 0 0 0 -2.358 -2.358z" fill="url(#a)"/>
<path d="m-241.09 54.182v1.6444l-0.75864-0.50646-0.58231 0.87347 1.5747 1.0498a0.52496 0.52496 0 0 0 0.58231 0l1.5747-1.0498-0.58232-0.87347-0.75866 0.50646v-1.6444zm-0.78734 4.1993c-0.4362 0-0.78737 0.35115-0.78737 0.78734v0.78737h-1.0498v1.0498h6.2989v-1.0498h-1.0498v-0.78737c0-0.43619-0.35117-0.78734-0.78737-0.78734z" fill="#678ee6"/>
<path d="m-198.39 34.435c-0.5816 0-1.0498 0.46822-1.0498 1.0498v1.0498h-0.5249v1.0498h0.5249v2.6245a1.0498 1.0498 0 0 0 0.5249 0.90732v0.66739h1.0498v-0.66638a1.0498 1.0498 0 0 0 0.5249 -0.90834v-2.6245h0.52492v-1.0498h-0.52492v-1.0498c0-0.5816-0.46822-1.0498-1.0498-1.0498zm-0.52492 3.1494h1.0498v2.6245a0.52491 0.52491 0 0 1 -0.5249 0.52492 0.52491 0.52491 0 0 1 -0.52492 -0.52492z" fill="#f88886"/>
<path transform="matrix(.26458 0 0 .26458 -270.27 26.214)" d="m220.04 24.355a2.1356 2.1356 0 0 0 -1.5098 0.62695l-8.541 8.541a2.1356 2.1356 0 0 0 0 3.0195l8.541 8.541a2.1356 2.1356 0 0 0 1.5098 0.62695h17.084a2.1356 2.1356 0 0 0 2.1348 -2.1367v-17.082a2.1356 2.1356 0 0 0 -2.1348 -2.1367h-17.084zm-2.1348 8.543a2.1354 2.1354 0 0 1 2.1348 2.1348 2.1354 2.1354 0 0 1 -2.1348 2.1348 2.1354 2.1354 0 0 1 -2.1348 -2.1348 2.1354 2.1354 0 0 1 2.1348 -2.1348zm212.4 80.467l-10.08 10.08 1.3359 1.3359 8.7441 8.7441 10.078-10.08-10.078-10.08zm0 5.3457l4.7344 4.7344-4.7344 4.7344-4.7344-4.7344 4.7344-4.7344zm-334.65 37.498l-6.9082 6.9102 6.9082 6.9082 6.9102-6.9082-6.9102-6.9102zm45.377 22.682c-4.237 0-8.1569 2.2643-10.275 5.9336a1.4833 1.4833 0 0 0 0.54102 2.0273 1.4833 1.4833 0 0 0 2.0293 -0.54492c1.591-2.7556 4.5231-4.4492 7.7051-4.4492 3.1819 0 6.1161 1.6936 7.707 4.4492a1.4833 1.4833 0 0 0 2.0273 0.54492 1.4833 1.4833 0 0 0 0.54101 -2.0273c-2.1185-3.6693-6.0384-5.9336-10.275-5.9336zm0 5.9336c-2.6782 0-5.0373 1.8096-5.7305 4.3965a1.4833 1.4833 0 0 0 1.0488 1.8164 1.4833 1.4833 0 0 0 1.8164 -1.0488c0.34923-1.304 1.5154-2.1973 2.8652-2.1973s2.5159 0.8933 2.8652 2.1973a1.4833 1.4833 0 0 0 1.8164 1.0488 1.4833 1.4833 0 0 0 1.0488 -1.8164c-0.69324-2.5869-3.0523-4.3965-5.7305-4.3965zm0 5.9316c-0.8217 0-1.4824 0.66263-1.4824 1.4844v1.4824h-4.4492a5.9331 5.9331 0 0 0 2.9668 5.1406 5.9331 5.9331 0 0 0 5.9316 0 5.9331 5.9331 0 0 0 2.9668 -5.1406h-4.4492v-1.4824c0-0.82174-0.66263-1.4844-1.4844-1.4844zm122.54 54.68c-1.1537 0-2.084 0.92837-2.084 2.082v4.166h8.3301v-4.166c0-1.1537-0.92833-2.082-2.082-2.082h-4.1641zm-2.084 8.3301v14.578l4.166 6.248 4.1641-6.248v-14.578h-8.3301zm2.084 2.082h2.082v10.414h-2.082v-10.414zm140.94 155.07l-10.08 10.08 1.3379 1.3359 8.7422 8.7441 10.08-10.08-10.08-10.08zm0 5.3457l4.7344 4.7344-4.7344 4.7344-4.7344-4.7344 4.7344-4.7344zm-81.266 124.65c-5.4526 0-9.8418 4.389-9.8418 9.8418v14.764c0 5.4527 4.3891 9.8418 9.8418 9.8418h14.764c5.4528 0 9.8418-4.3891 9.8418-9.8418v-14.764c0-5.4528-4.389-9.8418-9.8418-9.8418h-14.764zm-2.4609 12.303c1.3632 0 2.4609 1.0977 2.4609 2.4609v4.9199c0 1.3632-1.0978 2.4609-2.4609 2.4609-1.3632 0-2.4609-1.0977-2.4609-2.4609v-4.9199c0-1.3632 1.0977-2.4609 2.4609-2.4609zm19.686 0c1.3633 0 2.4609 1.0977 2.4609 2.4609v4.9199c0 1.3632-1.0977 2.4609-2.4609 2.4609-1.3631 0-2.4609-1.0977-2.4609-2.4609v-4.9199c0-1.3632 1.0978-2.4609 2.4609-2.4609zm-4.6484 12.566a2.4609 2.4609 0 0 1 1.7637 4.2344c-1.8451 1.8453-4.3494 2.8828-6.959 2.8828-2.6094 0-5.1137-1.0376-6.959-2.8828a2.4609 2.4609 0 0 1 1.7168 -4.2246 2.4609 2.4609 0 0 1 1.7637 0.74609c0.92345 0.92342 2.1724 1.4414 3.4785 1.4414 1.3062 0 2.5569-0.51724 3.4805-1.4414a2.4609 2.4609 0 0 1 1.7148 -0.7539v-0.00196z" fill="#8b6ce1"/>
<path d="m-176.19 32.879a0.48486 0.48486 0 0 0 -0.48485 0.48483v5.8178a0.48486 0.48486 0 0 0 0.48485 0.48478h1.9393v-0.96965h-1.4545v-4.8481h4.3634v-0.96962zm4.3633 1.4544a1.9393 1.9393 0 0 0 -1.9393 1.9393 1.9393 1.9393 0 0 0 0.96965 1.677v0.26228c0 0.2686 0.21622 0.48479 0.48482 0.48479h0.96963c0.26857 0 0.48481-0.21619 0.48481-0.48479v-0.26228a1.9393 1.9393 0 0 0 0.96963 -1.677 1.9393 1.9393 0 0 0 -1.9393 -1.9393zm0 0.96963a0.96964 0.96964 0 0 1 0.96963 0.96965 0.96964 0.96964 0 0 1 -0.96963 0.9696 0.96964 0.96964 0 0 1 -0.96963 -0.9696 0.96964 0.96964 0 0 1 0.96963 -0.96965zm-0.48481 3.8786v0.48478h0.96963v-0.48478z" fill="url(#e)"/>
<path d="m-194.81 45.679-4.1421 2.071v5.5228l4.1421 2.0711 4.1421-2.0711v-1.3807l-1.3807-0.69033-2.7614 1.3807-1.3807-0.69034v-2.7614l1.3807-0.69037v-1.3807l1.3807-0.69037zm2.7614 1.3807-1.3807 0.69032v1.3807l1.3807 0.69032 1.3807-0.69032v-1.3807z" fill="#f78" fill-opacity=".95294"/>
<path d="m-185.35 32.011c-1.2293 0-2.7842 0.93647-3.3441 2.7431a0.48086 0.48086 0 0 0 -4e-3 0.2742c0.54063 1.8922 2.1449 2.7524 3.3469 2.7524s2.8063-0.86028 3.3469-2.7524a0.48086 0.48086 0 0 0 0 -0.26577c-0.52908-1.8211-2.1187-2.7515-3.3469-2.7515zm0 0.96163a1.9232 1.9232 0 0 1 1.9232 1.9232 1.9232 1.9232 0 0 1 -1.9232 1.9232 1.9232 1.9232 0 0 1 -1.9232 -1.9232 1.9232 1.9232 0 0 1 1.9232 -1.9232zm0 0.9616a0.96162 0.96162 0 0 0 -0.96164 0.96162 0.96162 0.96162 0 0 0 0.96164 0.96162 0.96162 0.96162 0 0 0 0.96159 -0.96162 0.96162 0.96162 0 0 0 -0.96159 -0.96162z" color="#000000" color-rendering="auto" fill="#678ee6" fill-rule="evenodd" image-rendering="auto" shape-rendering="auto" solid-color="#000000" style="isolation:auto;mix-blend-mode:normal;text-decoration-color:#000000;text-decoration-line:none;text-decoration-style:solid;text-indent:0;text-transform:none;white-space:normal"/>
<path d="m-183.08 76.16a0.86082 0.86082 0 0 0 -0.86083 0.86081 0.86082 0.86082 0 0 0 0.43042 0.74482v4.4201h0.86082v-4.4209a0.86082 0.86082 0 0 0 0.3144 -0.31358h1.9545a0.86082 0.86082 0 0 0 0.31355 0.3144v1.4072h-0.86081v0.86084l-0.43042 0.86081 1.2912 0.86084v-1.7216h0.86083v1.7216l1.2912-0.86084-0.43041-0.86081v-0.86084h-0.86083v-1.4081a0.86082 0.86082 0 0 0 0.43041 -0.744 0.86082 0.86082 0 0 0 -0.86081 -0.86081 0.86082 0.86082 0 0 0 -0.74483 0.43042h-1.9545a0.86082 0.86082 0 0 0 -0.74397 -0.43042z" color="#000000" color-rendering="auto" dominant-baseline="auto" fill="#70e1dd" fill-rule="evenodd" image-rendering="auto" shape-rendering="auto" solid-color="#000000" style="font-feature-settings:normal;font-variant-alternates:normal;font-variant-caps:normal;font-variant-ligatures:normal;font-variant-numeric:normal;font-variant-position:normal;isolation:auto;mix-blend-mode:normal;shape-padding:0;text-decoration-color:#000000;text-decoration-line:none;text-decoration-style:solid;text-indent:0;text-orientation:mixed;text-transform:none;white-space:normal"/>
<path d="m-203.49 149.42v7.5391c0 1.4585 1.1968 2.6505 2.666 2.6505h4.7832c0.91803 0 1.6526 0.73406 1.6526 1.6521s-0.73458 1.6506-1.6526 1.6506h-18.297c-1.4585 0-2.6526 1.1936-2.6526 2.652v2.0112h-8.833c-0.69692 6e-5 -1.2619 0.56553-1.2619 1.2624v10.096c4e-5 0.69695 0.56502 1.2619 1.2619 1.2619h17.667c0.69693-2e-5 1.2619-0.56499 1.2619-1.2619v-10.096c-4e-5 -0.69692-0.565-1.2624-1.2619-1.2624h-7.8342v-2.0112c0-0.91804 0.73458-1.6521 1.6526-1.6521h18.297c1.4585 0 2.6526-1.192 2.6526-2.6505s-1.1941-2.652-2.6526-2.652h-4.7832c-0.93492-2e-5 -1.666-0.73252-1.666-1.6506v-7.5391zm-19.809 20.68h2.5239v2.5239h2.5239v2.5239h-2.5239v2.5239h-2.5239v-2.5239h-2.5239v-2.5239h2.5239zm13.25 0a1.8929 1.8929 0 0 1 1.8929 1.8929 1.8929 1.8929 0 0 1 -1.8929 1.8929 1.8929 1.8929 0 0 1 -1.8929 -1.8929 1.8929 1.8929 0 0 1 1.8929 -1.8929zm-3.7858 3.7858a1.8929 1.8929 0 0 1 1.8929 1.8929 1.8929 1.8929 0 0 1 -1.8929 1.8929 1.8929 1.8929 0 0 1 -1.8929 -1.8929 1.8929 1.8929 0 0 1 1.8929 -1.8929z" color="#000000" color-rendering="auto" fill="url(#d)" fill-rule="evenodd" image-rendering="auto" shape-rendering="auto" solid-color="#000000" style="isolation:auto;mix-blend-mode:normal;text-decoration-color:#000000;text-decoration-line:none;text-decoration-style:solid;text-indent:0;text-transform:none;white-space:normal"/>
<path d="m-209.45 64.909c-0.32725 0-0.59068 0.26344-0.59068 0.59067v1.772c0 0.32723 0.26343 0.59064 0.59068 0.59064h0.59065v0.58489a0.59072 0.59072 0 0 0 -0.18686 0.03657l-1.2113 0.40377-0.40379-1.2113a0.59072 0.59072 0 0 0 -0.58488 -0.4118 0.59072 0.59072 0 0 0 -0.53641 0.78444l0.59064 1.772a0.59072 0.59072 0 0 0 0.74754 0.37377l0.99446-0.33106v0.36106c0 0.02408 0.0112 0.0449 0.0135 0.06807l-2.7041 1.8032a0.59072 0.59072 0 1 0 0.65526 0.98288l2.9868-1.9912 0.88251 1.7639a0.59072 0.59072 0 0 0 0.71524 0.29647l1.772-0.59069a0.59072 0.59072 0 1 0 -0.37376 -1.1202l-1.2863 0.42799-0.57565-1.1524c0.16296-0.10499 0.27686-0.27896 0.27686-0.48802v-0.59064h0.81677l0.42684 0.85485a0.59075 0.59075 0 1 0 1.0567 -0.52841l-0.59068-1.1813a0.59072 0.59072 0 0 0 -0.52834 -0.32648h-1.772v-0.59064h0.59064c0.32723 0 0.59066-0.26346 0.59066-0.59069v-1.772c0-0.32722-0.26343-0.59066-0.59066-0.59066zm0 1.1813h0.59065v1.1813h-0.59065z" fill="url(#a)"/>
<path d="m-222.17 36.005a1.7826 1.7826 0 0 0 -1.5438 0.89132 1.7826 1.7826 0 0 0 0 1.7826 1.7826 1.7826 0 0 0 1.5438 0.89132h0.35651v-0.71304h-0.35651a1.0696 1.0696 0 0 1 -1.0696 -1.0696 1.0696 1.0696 0 0 1 1.0696 -1.0696h0.35651v-0.71306zm1.0696 0v0.71306h0.35652a1.0696 1.0696 0 0 1 1.0696 1.0696 1.0696 1.0696 0 0 1 -1.0696 1.0696h-0.35652v0.71304h0.35652a1.7826 1.7826 0 0 0 1.5438 -0.89132 1.7826 1.7826 0 0 0 0 -1.7826 1.7826 1.7826 0 0 0 -1.5438 -0.89132zm-1.0696 1.4261a0.35652 0.35652 0 0 0 -0.35652 0.35654 0.35652 0.35652 0 0 0 0.35652 0.35652h1.4261a0.35652 0.35652 0 0 0 0.35654 -0.35652 0.35652 0.35652 0 0 0 -0.35654 -0.35654z" fill="#678ee6"/>
<path d="m-172.53 56.922a1.0498 1.0498 0 0 0 -1.0498 1.0498 1.0498 1.0498 0 0 0 0.52493 0.90835v3.4334a1.0498 1.0498 0 0 0 -0.52493 0.9073 1.0498 1.0498 0 0 0 1.0498 1.0498 1.0498 1.0498 0 0 0 0.90832 -0.5249h1.3164l0.39368-1.0498h-1.7111a1.0498 1.0498 0 0 0 -0.38241 -0.38344v-3.0736l2.4656 2.4656 0.40494-1.0796-2.1283-2.1283h3.0746a1.0498 1.0498 0 0 0 0.3824 0.38343v0.14245a1.0499 1.0499 0 0 1 0.0125 0 1.0499 1.0499 0 0 1 0.97087 0.68073l0.0666 0.17736v-1.0017a1.0498 1.0498 0 0 0 0.5249 -0.90731 1.0498 1.0498 0 0 0 -1.0498 -1.0498 1.0498 1.0498 0 0 0 -0.90831 0.52492h-3.4334a1.0498 1.0498 0 0 0 -0.90732 -0.52492zm4.7242 3.1494-1.5747 4.1992 1.5747-1.0498 1.5747 1.0498z" fill="#f67587"/>
<path d="m-208.51 52.946a0.52496 0.52496 0 0 0 -0.52492 0.45931l-0.30961 2.4789-0.27475-0.54952a0.52496 0.52496 0 0 0 -0.46955 -0.29011h-1.0498a0.52496 0.52496 0 1 0 0 1.0498h0.72584l0.90424 1.8095a0.52496 0.52496 0 0 0 0.99034 -0.16921l0.30963-2.479 0.27475 0.54849a0.52496 0.52496 0 0 0 0.46955 0.29012h1.5747a0.52496 0.52496 0 1 0 0 -1.0498h-1.2497l-0.90525-1.8095a0.52496 0.52496 0 0 0 -0.46544 -0.28912zm1.0385 3.6733v3.6743h2.6245c0.28989 0 0.5249-0.23501 0.5249-0.5249v-2.6245c0-0.2899-0.23501-0.5249-0.5249-0.5249v2.0996l-0.52492-0.52491-0.5249 0.52491v-2.0996z" fill="#f98f87"/>
<path d="m-185.12 52.468c-0.28989 0-0.5249 0.23501-0.5249 0.52492v4.7682c2.1e-4 0.2656 0.23515 0.48083 0.5249 0.48083h4.1992c0.28976 0 0.52471-0.21523 0.52491-0.48083v-4.7682c0-0.28991-0.235-0.52492-0.52491-0.52492zm-1.5747 1.0498v4.7241a1.0498 1.0498 0 0 0 1.0498 1.0498h5.249a1.0498 1.0498 0 0 0 1.0498 -1.0498v-4.7241h-0.5249v4.7241a0.5249 0.5249 0 0 1 -0.52491 0.52491h-5.249a0.52491 0.52491 0 0 1 -0.5249 -0.52491v-4.7241zm3.1494 0h1.5747l-0.52491 1.5747h1.0498l-2.0996 2.0996 0.52492-1.5747h-1.0498z" fill="#7597f6"/>
<path d="m-221.72 56.51a2.9733 2.9733 0 0 0 -2.9732 2.9732 2.9733 2.9733 0 0 0 1.4866 2.5668v2.6365a1.4866 1.4866 0 0 0 0.74332 1.2877 1.4866 1.4866 0 0 0 0.74331 0.1975h2.9732a1.4866 1.4866 0 0 0 0.74334 -0.1975 1.4866 1.4866 0 0 0 0.74329 -1.2877v-2.6365a2.9733 2.9733 0 0 0 1.4867 -2.5668 2.9733 2.9733 0 0 0 -2.9733 -2.9732zm-0.74331 2.2299a0.74333 0.74333 0 0 1 0.74331 0.74331 0.74333 0.74333 0 0 1 -0.74331 0.74334 0.74333 0.74333 0 0 1 -0.74332 -0.74334 0.74333 0.74333 0 0 1 0.74332 -0.74331zm4.4599 0a0.74333 0.74333 0 0 1 0.74329 0.74331 0.74333 0.74333 0 0 1 -0.74329 0.74334 0.74333 0.74333 0 0 1 -0.74334 -0.74334 0.74333 0.74333 0 0 1 0.74334 -0.74331zm-2.9733 1.4866h1.4866v0.74331h-1.4866zm-1.4866 1.4866h0.74331v0.74334h0.7433v-0.74334h1.4866v0.74334h0.74331v-0.74334h0.74334v2.9733h-0.74334v-0.74332h-0.74331v0.74332h-1.4866v-0.74332h-0.7433v0.74332h-0.74331v-2.3273z" fill="url(#a)"/>
<path d="m-232.86 40.397a0.63523 0.63523 0 0 0 -0.63521 0.63522 0.63523 0.63523 0 0 0 0.63521 0.63526c2.8142 0 5.0818 2.2677 5.0818 5.0818a0.63523 0.63523 0 0 0 0.63522 0.63526 0.63523 0.63523 0 0 0 0.63523 -0.63526c0-3.5007-2.8515-6.3523-6.3523-6.3523zm0 2.5409a0.63523 0.63523 0 0 0 -0.63521 0.63525 0.63523 0.63523 0 0 0 0.63521 0.63522c1.4108 0 2.5409 1.1301 2.5409 2.5409a0.63523 0.63523 0 0 0 0.63525 0.63526 0.63523 0.63523 0 0 0 0.63523 -0.63526c0-2.0974-1.714-3.8113-3.8114-3.8113zm0 2.5409a1.2705 1.2705 0 0 0 -1.2704 1.2704 1.2705 1.2705 0 0 0 1.2704 1.2705 1.2705 1.2705 0 0 0 1.2705 -1.2705 1.2705 1.2705 0 0 0 -1.2705 -1.2704z" fill="#678ee6"/>
<path d="m-171.89 43.562a0.55003 0.55003 0 0 0 -0.55003 0.55004v2.0315c-0.98243 0.47636-1.6501 1.3534-1.6501 2.3688h2.2001a1.1001 1.1001 0 0 0 1.1001 1.1 1.1001 1.1001 0 0 0 1.1 -1.1h2.2001c0-1.0154-0.66766-1.8924-1.6501-2.3688v-2.0315a0.55003 0.55003 0 0 0 -0.55004 -0.55004zm-0.60374 5.2995-0.95289 0.55002 0.55003 0.95181 0.95289-0.55002zm3.4076 0-0.55005 0.95181 0.95289 0.55002 0.55005-0.95181zm-2.2539 1.301v1.1001h1.1001v-1.1001z" fill="url(#a)"/>
<path d="m-198.16 73.008c-2.1546 0-3.8892 1.7346-3.8892 3.8893v5.8339c0 2.1547 1.7346 3.8893 3.8892 3.8893h5.8339c2.1547 0 3.8892-1.7346 3.8892-3.8893v-5.8339c0-2.1547-1.7346-3.8893-3.8892-3.8893zm-0.97228 4.8616c0.53867 0 0.97228 0.43366 0.97228 0.97232v1.9446c0 0.53865-0.43361 0.97234-0.97228 0.97234s-0.97235-0.43369-0.97235-0.97234v-1.9446c0-0.53867 0.43368-0.97232 0.97235-0.97232zm7.7785 0c0.53869 0 0.97237 0.43366 0.97237 0.97232v1.9446c0 0.53865-0.43368 0.97234-0.97237 0.97234-0.53864 0-0.97229-0.43369-0.97229-0.97234v-1.9446c0-0.53867 0.43365-0.97232 0.97229-0.97232zm-1.8364 4.966a0.97241 0.97241 0 0 1 0.69695 1.673c-0.7291 0.72918-1.7186 1.1394-2.7498 1.1394-1.0311 0-2.0207-0.41028-2.7498-1.1394a0.97241 0.97241 0 0 1 0.67802 -1.6692 0.97241 0.97241 0 0 1 0.69694 0.29436c0.3649 0.3649 0.85876 0.56977 1.3749 0.56977 0.51615 0 1.01-0.20456 1.3749-0.56977a0.97241 0.97241 0 0 1 0.67793 -0.29803z" fill="url(#a)"/>
<path d="m-172.81 70.931a0.43141 0.43141 0 0 0 -0.16682 0.03378 0.43141 0.43141 0 0 0 -8.2e-4 0c-8.2e-4 4.11e-4 -2e-3 8.22e-4 -3e-3 0.0016a0.43141 0.43141 0 0 0 -0.13401 0.09016c-4.4e-4 4.11e-4 -2e-3 8.22e-4 -2e-3 0.0016a0.43141 0.43141 0 0 0 -0.0885 0.13141c-2e-3 0.0033-3e-3 0.0049-5e-3 0.0082a0.43141 0.43141 0 0 0 -0.0329 0.16429c0 0.64704 0.41713 1.1322 0.80798 1.5789 0.3282 0.37508 0.61086 0.70854 0.80882 1.0093-0.19794 0.30084-0.4806 0.63509-0.80882 1.0102-0.39085 0.44668-0.80798 0.93098-0.80798 1.578a0.43141 0.43141 0 0 0 0.0338 0.16768v8.21e-4c4.4e-4 8.22e-4 2e-3 0.0016 2e-3 0.0033a0.43141 0.43141 0 0 0 0.0902 0.13223c4.4e-4 4.13e-4 2e-3 0.0016 2e-3 0.0033a0.43141 0.43141 0 0 0 0.12978 0.08752c3e-3 0.0016 8e-3 0.0033 0.0114 0.0049a0.43141 0.43141 0 0 0 0.16255 0.03279h4.3137a0.43141 0.43141 0 0 0 0.16173 -0.03189c5e-3 -0.0016 8e-3 -0.0033 0.0131-0.0058a0.43141 0.43141 0 0 0 0.12635 -0.08595c2e-3 -0.0016 3e-3 -0.0033 7e-3 -0.0058a0.43141 0.43141 0 0 0 0.0867 -0.12717c2e-3 -0.0033 3e-3 -0.0082 5e-3 -0.01142a0.43141 0.43141 0 0 0 0.0329 -0.16254c0-0.64704-0.4171-1.1314-0.80796-1.5781-0.32823-0.37506-0.61087-0.70934-0.80884-1.0102 0.19797-0.30079 0.48065-0.63425 0.80884-1.0093 0.39086-0.4467 0.80796-0.93184 0.80796-1.5789a0.43141 0.43141 0 0 0 -0.0338 -0.16849 0.43141 0.43141 0 0 0 -0.0926 -0.13647 0.43141 0.43141 0 0 0 -0.13402 -0.09095 0.43141 0.43141 0 0 0 -5e-3 -0.0033 0.43141 0.43141 0 0 0 -0.16597 -0.03296zm0.68498 0.86276h2.9438c-0.10255 0.19014-0.13173 0.34044-0.34037 0.57879-0.36405 0.41607-0.81888 0.85083-1.086 1.3851a0.43141 0.43141 0 0 0 -0.0454 0.19292 0.43141 0.43141 0 0 0 -0.0455 -0.19292c-0.26714-0.5343-0.72197-0.96905-1.086-1.3851-0.20859-0.23837-0.23779-0.38865-0.34038-0.57879z" fill="#708ee1"/>
<path d="m-183.64 41.906-0.41585 0.83171 0.41585 0.83169v1.6634h-0.83169v1.4555c0 0.57593 0.46367 1.0396 1.0396 1.0396 0.57594 0 1.0396-0.46367 1.0396-1.0396v-1.4555h-0.8317v-1.6634l0.41585-0.83169-0.41585-0.83171zm2.4951 0.07233a1.2476 1.2476 0 0 0 -0.8317 1.1753 1.2476 1.2476 0 0 0 0.8317 1.1753v2.9832c0 0.2304 0.18548 0.41589 0.41586 0.41589s0.41583-0.18549 0.41583-0.41589v-2.984a1.2476 1.2476 0 0 0 0.83172 -1.1744 1.2476 1.2476 0 0 0 -0.83172 -1.1745v1.1745a0.41585 0.41585 0 0 1 -0.41583 0.41583 0.41585 0.41585 0 0 1 -0.41586 -0.41583z" fill="#f67587"/>
<path d="m-209.98 96.402v3.6299c2e-5 0.15423 0.12502 0.27921 0.27923 0.27923h3.6299v-0.55843h-3.3506v-1.6753h0.55844v0.83766c1e-5 0.1542 0.12502 0.27919 0.27922 0.2792h2.513v-0.55843h-2.2338v-0.55844h2.2338v-0.55846h-3.3506v-0.55842h3.3506v-0.55845z" fill="#fca386"/>
<path d="m-160.86 64.884a0.52491 0.52491 0 0 0 -0.5249 0.52493l-0.52492 1.5747h-1.0498v2.0996h0.55156c0.12162-0.59898 0.65076-1.0498 1.2856-1.0498 0.63485 0 1.164 0.45084 1.2856 1.0498h1.1031c0.12162-0.59898 0.65076-1.0498 1.2856-1.0498 0.63484 0 1.164 0.45084 1.2856 1.0498h0.55156v-2.0996h-2.0996v-2.0996zm0.52489 0.52493h2.0996v1.5747h-2.0996zm-0.78735 3.1494a0.78736 0.78736 0 0 0 -0.78736 0.78735 0.78736 0.78736 0 0 0 0.78736 0.78736 0.78736 0.78736 0 0 0 0.78736 -0.78736 0.78736 0.78736 0 0 0 -0.78736 -0.78735zm3.6743 0a0.78736 0.78736 0 0 0 -0.78735 0.78735 0.78736 0.78736 0 0 0 0.78735 0.78736 0.78736 0.78736 0 0 0 0.78737 -0.78736 0.78736 0.78736 0 0 0 -0.78737 -0.78735z" fill="#678ee6"/>
<path d="m-220.97 85.684v2.1133h0.70443v-2.1133zm-1.4089 0.70444c-0.90053 0-2.0396 0.686-2.4497 2.0094a0.35225 0.35225 0 0 0 -2e-3 0.20086c0.39603 1.3861 1.5712 2.0163 2.4518 2.0163 0.52503 0 1.1523-0.22969 1.6593-0.70443h-0.95484v-0.19055a1.4089 1.4089 0 0 1 -0.70442 0.19055 1.4089 1.4089 0 0 1 -1.4089 -1.4089 1.4089 1.4089 0 0 1 1.4089 -1.4089 1.4089 1.4089 0 0 1 0.70442 0.19055v-0.76841c-0.24061-0.084-0.48056-0.12659-0.70442-0.12659zm0 1.4089a0.70443 0.70443 0 0 0 -0.70443 0.70443 0.70443 0.70443 0 0 0 0.70443 0.70445 0.70443 0.70443 0 0 0 0.70442 -0.70445 0.70443 0.70443 0 0 0 -0.70442 -0.70443zm1.4089 0.70443v0.70445h0.70443v-0.70445z" color="#000000" color-rendering="auto" fill="#78e5f6" fill-rule="evenodd" image-rendering="auto" shape-rendering="auto" solid-color="#000000" style="isolation:auto;mix-blend-mode:normal;text-decoration-color:#000000;text-decoration-line:none;text-decoration-style:solid;text-indent:0;text-transform:none;white-space:normal"/>
<g transform="matrix(.67004 0 0 .67004 -215.23 -612.8)" fill="#678ee6">
<path transform="translate(0 1036.4)" d="m7.9824 1a1.0001 1.0001 0 0 0 -0.81445 0.44531l-4.7012 7.0527c-0.80117 0.58197-1.3801 1.3563-1.4492 2.3145a1.0001 1.0001 0 0 0 -0.017578 0.1875c0 0.21449 0.033976 0.41628 0.082031 0.61328 0.0072 0.02831 0.015306 0.05597 0.023438 0.08399 0.053631 0.19149 0.1274 0.37452 0.2207 0.54883 0.19678 0.36764 0.47105 0.69651 0.80273 0.98633 0.00799 7e-3 0.013443 0.01647 0.021484 0.02344 0.016953 0.01468 0.03747 0.02653 0.054687 0.04102 0.10299 0.08611 0.21259 0.16531 0.32422 0.24414 0.23883 0.16992 0.49083 0.33075 0.76953 0.4707 0.00253 0.0013 0.00528 0.0026 0.00781 0.0039 0.00131 6.58e-4 0.00259 0.0013 0.00391 2e-3 0.00858 0.0043 0.018732 0.0075 0.027344 0.01172 0.26499 0.13103 0.55174 0.24596 0.84961 0.35156 0.10487 0.03763 0.21202 0.07115 0.32031 0.10547 0.072945 0.0229 0.1402 0.05072 0.21484 0.07227 0.16777 0.04843 0.34161 0.08638 0.51367 0.12695 0.093562 0.02191 0.18185 0.04875 0.27734 0.06836 0.010733 0.0022 0.022447 0.0037 0.033203 0.0059 0.34623 0.07118 0.69974 0.12196 1.0566 0.16211 0.057889 0.0062 0.11544 0.01213 0.17383 0.01758 0.81052 0.0795 1.6348 0.0795 2.4453 0 0.058387-0.0054 0.11594-0.01135 0.17383-0.01758 0.3569-0.04015 0.71041-0.09093 1.0566-0.16211 0.01095-0.0023 0.02227-0.0036 0.0332-0.0059 0.09549-0.01961 0.18378-0.04645 0.27734-0.06836 0.17206-0.04057 0.3459-0.07852 0.51367-0.12695 0.07464-0.02155 0.1419-0.04936 0.21484-0.07227 0.10829-0.03432 0.21544-0.06784 0.32031-0.10547 0.29787-0.1056 0.58462-0.22053 0.84961-0.35156 0.01-0.0049 0.02135-0.0087 0.03125-0.01367l0.0078-0.0039c0.2787-0.13995 0.5307-0.30078 0.76953-0.4707 0.11163-0.07883 0.22123-0.15803 0.32422-0.24414 0.01722-0.01448 0.03773-0.02634 0.05469-0.04102 8e-3 -7e-3 0.0135-0.01641 0.02149-0.02344 0.33169-0.28982 0.60596-0.61869 0.80273-0.98633 0.0933-0.17431 0.16707-0.35733 0.2207-0.54883 0.0081-0.02801 0.01624-0.05567 0.02344-0.08399 0.04806-0.19705 0.082036-0.39884 0.082036-0.61333a1.0001 1.0001 0 0 0 -0.01758 -0.18164 1.0001 1.0001 0 0 0 -2e-3 -0.01758c-0.073032-0.95264-0.64936-1.7232-1.4472-2.3027l-4.7012-7.0527a1.0001 1.0001 0 0 0 -0.84961 -0.44531zm-0.98242 4.3027v1.7461c-0.43911 0.033461-0.86366 0.087835-1.2734 0.16406zm2 0 1.2734 1.9102c-0.40978-0.076228-0.83432-0.1306-1.2734-0.16406zm-2 3.748v1.9492a1.0001 1.0001 0 1 0 2 0v-1.9492c1.1126 0.10487 2.0951 0.37277 2.7949 0.72266 0.12146 0.060728 0.20622 0.12218 0.30664 0.18359l0.80078 1.2012c-0.03296 0.14677-0.08965 0.30658-0.30469 0.51758-0.05146 0.04915-0.10034 0.09814-0.16406 0.14844-0.04519 0.03531-0.09137 0.07015-0.14258 0.10547-0.11245 0.07827-0.24511 0.15838-0.39062 0.23633-0.07543 0.0402-0.1553 0.07837-0.23828 0.11719-0.16195 0.07548-0.33452 0.14662-0.52148 0.21289-0.07059 0.02532-0.14454 0.04841-0.21875 0.07226-0.23425 0.07447-0.48077 0.14392-0.74414 0.20117-0.02134 0.0046-0.04104 0.01119-0.0625 0.01563-0.2559 0.05368-0.53101 0.09052-0.80859 0.125-0.856 0.10229-1.7573 0.10229-2.6133 0-0.27759-0.03448-0.5527-0.07132-0.80859-0.125-0.021462-0.0044-0.041156-0.01105-0.0625-0.01563-0.26337-0.057249-0.50989-0.12669-0.74414-0.20117-0.074211-0.023856-0.14816-0.046941-0.21875-0.072265-0.18697-0.066266-0.35954-0.13741-0.52148-0.21289-0.082979-0.038816-0.16285-0.076983-0.23828-0.11719-0.14552-0.077951-0.27818-0.15806-0.39062-0.23633-0.051205-0.035321-0.097386-0.070157-0.14258-0.10547-0.06372-0.050301-0.1126-0.099289-0.16406-0.14844-0.21503-0.21099-0.27173-0.37081-0.30469-0.51758l0.80078-1.2012c0.10043-0.061415 0.18518-0.12287 0.30664-0.18359 0.69978-0.34989 1.6823-0.61778 2.7949-0.72266z" color="#000000" color-rendering="auto" dominant-baseline="auto" fill="#678ee6" image-rendering="auto" shape-rendering="auto" solid-color="#000000" style="font-feature-settings:normal;font-variant-alternates:normal;font-variant-caps:normal;font-variant-ligatures:normal;font-variant-numeric:normal;font-variant-position:normal;isolation:auto;mix-blend-mode:normal;shape-padding:0;text-decoration-color:#000000;text-decoration-line:none;text-decoration-style:solid;text-indent:0;text-orientation:mixed;text-transform:none;white-space:normal"/>
</g>
<g transform="matrix(.77733 0 0 .77733 -32.275 -728.13)" fill="#f57389">
<path d="m-238.8 1029.6c-0.0833 0-0.16593 0.014-0.24609 0.037l-7 2c-0.42881 0.1229-0.7244 0.5149-0.72461 0.961v5.5507c-0.16454-0.034-0.33205-0.051-0.5-0.051-1.3807 0-2.5 1.1192-2.5 2.5-1e-5 1.3807 1.1193 2.5 2.5 2.5 1.3456 0 2.4488-1.0674 2.4961-2.4122 3e-3 -0.029 4e-3 -0.059 4e-3 -0.088v-7.2442l5-1.4277v3.1719l2-1v-3.5c-9.2e-4 -0.5632-0.4664-1.0145-1.0293-0.9981zm-1.4707 6.9981c-0.277 0-0.5 0.223-0.5 0.5v5c0 0.277 0.223 0.5 0.5 0.5s0.5-0.223 0.5-0.5v-5c0-0.277-0.223-0.5-0.5-0.5zm2 1c-0.277 0-0.5 0.223-0.5 0.5v3c0 0.277 0.223 0.5 0.5 0.5s0.5-0.223 0.5-0.5v-3c0-0.277-0.223-0.5-0.5-0.5zm-4 1c-0.277 0-0.5 0.223-0.5 0.5v1c0 0.277 0.223 0.5 0.5 0.5s0.5-0.223 0.5-0.5v-1c0-0.277-0.223-0.5-0.5-0.5zm6 0c-0.277 0-0.5 0.223-0.5 0.5v1c0 0.277 0.223 0.5 0.5 0.5s0.5-0.223 0.5-0.5v-1c0-0.277-0.223-0.5-0.5-0.5z" color="#000000" color-rendering="auto" dominant-baseline="auto" fill="#f57389" image-rendering="auto" shape-rendering="auto" solid-color="#000000" style="font-feature-settings:normal;font-variant-alternates:normal;font-variant-caps:normal;font-variant-ligatures:normal;font-variant-numeric:normal;font-variant-position:normal;isolation:auto;mix-blend-mode:normal;shape-padding:0;text-decoration-color:#000000;text-decoration-line:none;text-decoration-style:solid;text-indent:0;text-orientation:mixed;text-transform:none;white-space:normal"/>
</g>
<path d="m-217.41 92.488a0.3725 0.3725 0 0 0 -0.15276 0.03852l-2.2348 1.1174a0.3725 0.3725 0 0 0 -0.20587 0.33318v2.2348a0.3725 0.3725 0 0 0 0.20587 0.33317l2.2348 1.1174a0.3725 0.3725 0 0 0 0.33317 0l2.2348-1.1174a0.3725 0.3725 0 0 0 0.20587 -0.33317v-2.2348a0.3725 0.3725 0 0 0 -0.20587 -0.33318l-2.2348-1.1174a0.3725 0.3725 0 0 0 -0.18041 -0.03852zm0.0139 0.78857 1.4018 0.70055-0.51431 0.25751-1.4018-0.70127zm-1.8623 1.3036 1.4898 0.74491v1.4018l-1.4898-0.74491zm3.7246 0v1.4018l-1.4899 0.74491v-1.4018z" color="#000000" color-rendering="auto" fill="url(#a)" fill-rule="evenodd" image-rendering="auto" shape-rendering="auto" solid-color="#000000" style="isolation:auto;mix-blend-mode:normal;text-decoration-color:#000000;text-decoration-line:none;text-decoration-style:solid;text-indent:0;text-transform:none;white-space:normal"/>
<path d="m-231.35 51.201v1.5747h1.0498v-1.5747zm-1.3307 1.0765-0.74224 0.74225 0.74224 0.74224 0.74224-0.74224zm3.7112 0-0.74224 0.74225 0.74224 0.74224 0.74224-0.74224zm-1.8556 1.0232c-0.86968 0-1.5747 0.70504-1.5747 1.5747 0 0.86966 0.70502 1.5747 1.5747 1.5747 0.86969 0 1.5747-0.70504 1.5747-1.5747 0-0.86965-0.70501-1.5747-1.5747-1.5747zm-3.6743 1.0498v1.0498h1.5747v-1.0498zm5.7739 0v1.0498h1.5747v-1.0498zm-3.9552 1.6382-0.74224 0.74226 0.74224 0.74224 0.74224-0.74224zm3.7112 0-0.74224 0.74226 0.74224 0.74224 0.74224-0.74224zm-2.3805 0.98625v1.5747h1.0498v-1.5747z" fill="#f88a86"/>
<rect transform="rotate(-45)" x="-229.95" y="-102.27" width="4.0819" height="4.0819" ry="0" fill="#678ee6"/>
<rect transform="rotate(-45)" x="-193.57" y="-64.993" width="2.211" height="2.211" ry="0" fill="#678ee6"/>
<rect transform="rotate(-45)" x="-171.29" y="-61.773" width="4.4561" height="4.4561" ry="0" fill="#78e5f6"/>
<path d="m-245.42 78.442 0.35355 0.35355 3.0011 3.0011 3.3546-3.3546-3.3546-3.3546zm1.4142 0 1.9404-1.9404 1.9404 1.9404-1.9404 1.9404z" color="#000000" color-rendering="auto" dominant-baseline="auto" fill="#f57389" image-rendering="auto" shape-rendering="auto" solid-color="#000000" style="font-feature-settings:normal;font-variant-alternates:normal;font-variant-caps:normal;font-variant-ligatures:normal;font-variant-numeric:normal;font-variant-position:normal;isolation:auto;mix-blend-mode:normal;shape-padding:0;text-decoration-color:#000000;text-decoration-line:none;text-decoration-style:solid;text-indent:0;text-orientation:mixed;text-transform:none;white-space:normal"/>
<rect transform="rotate(-45)" x="-217.37" y="-140.39" width="4.4561" height="4.4561" ry="0" fill="#f6aa78"/>
<rect transform="rotate(-45)" x="-226.14" y="-131.67" width="1.593" height="1.593" ry="0" fill="#78e5f6"/>
<rect transform="rotate(-45)" x="-184" y="-64.684" width="2.6079" height="2.6079" ry="0" fill="#f67587"/>
<rect transform="rotate(-45)" x="-202.03" y="-149.65" width="2.5852" height="2.5852" ry="0" fill="#fa9186"/>
<rect transform="rotate(-45)" x="-141.39" y="-83.892" width="2.211" height="2.211" ry="0" fill="#f57389"/>
<rect transform="rotate(-45)" x="-227.48" y="-116.54" width="1.6892" height="1.6892" ry="0" fill="#70e1dd"/>
<rect transform="rotate(-45)" x="-194.06" y="-59.106" width="1.3304" height="1.3304" ry="0" fill="#676ce6"/>
<rect transform="rotate(-45)" x="-149.24" y="-81.816" width="3.24" height="3.24" ry="0" fill="#f6aa78"/>
<rect transform="rotate(-45)" x="-141.35" y="-91.706" width="2.211" height="2.211" ry="0" fill="none" stroke="#708ee1" stroke-dashoffset="10" stroke-linecap="round"/>
<rect transform="rotate(-45)" x="-165.99" y="-106.25" width="2.211" height="2.211" ry="0" fill="#78e5f6"/>
<rect transform="rotate(-45)" x="-267.6" y="-92.832" width="1.6892" height="1.6892" ry="0" fill="#78e5f6"/>
<rect transform="rotate(-45)" x="-272.43" y="-84.446" width="3.1444" height="3.1444" ry="0" fill="#f57389"/>
<rect transform="rotate(-45)" x="-204.23" y="-16.07" width="4.454" height="4.454" ry="0" fill="#f57389"/>
<path d="m-216.99 104.27v3.4375l4.3827 4.8235h-13.069l1.5844-2.6422-2.2639-2.2639-3.1921 1.9136c-0.35405-0.17912-0.72093-0.33162-1.0976-0.45631l-0.90021-3.6086h-3.2019l-0.90382 3.6142c-0.37853 0.12138-0.74748 0.27079-1.1038 0.447l-3.1828-1.91-2.2634 2.2639 1.9136 3.1921c-0.1791 0.35405-0.33162 0.72093-0.4563 1.0976l-3.608 0.90021v3.2019l3.6142 0.9033c0.12153 0.37747 0.27094 0.74538 0.447 1.1007l-1.91 3.1858 2.2634 2.264 1.9436-1.1653v7.0337h-1.8237c-2.5037 0-4.5351 2.0314-4.5351 4.5351v2.5135c0 2.5037 2.0314 4.533 4.5351 4.533h1.8237v1.7064c0 1.8097 1.4568 3.2665 3.2665 3.2665h24.846v5.4064l13.19-2.1983v-3.2081h24.846c1.8097 0 3.267-1.4568 3.267-3.2665v-16.311h6.7427c3.1999 0 5.7929-2.5909 5.7929-5.7909 0-3.1999-2.593-5.7929-5.7929-5.7929h-6.7427v-1.1984c0-1.8097-1.4573-3.2665-3.267-3.2665h-4.8255v-1.5828h-4.2333v1.5828h-2.6458v-1.5828h-4.2333v1.5828h-8.3147l4.3827-4.8235v-3.4375zm10.052 2.8174h11.179c0.67866-0.0121 0.67866 1.0121 0 0.99994h-11.179c-0.67867 0.0121-0.67867-1.0121 0-0.99994zm-26.615 5.6973c2.0323 1e-4 3.6798 1.6476 3.6799 3.6799 1.9e-4 2.0325-1.6474 3.6803-3.6799 3.6804-2.0325-9e-5 -3.6801-1.6479-3.6799-3.6804 1e-4 -2.0323 1.6476-3.6798 3.6799-3.6799zm0 0.7984c-1.5914 4e-5 -2.8814 1.2901-2.8815 2.8815 5e-5 1.5914 1.2901 2.8814 2.8815 2.8815 1.5914-4e-5 2.8814-1.2901 2.8815-2.8815-4e-5 -1.5914-1.2901-2.8814-2.8815-2.8815zm0 0.5209c1.3037 1.1e-4 2.3605 1.0569 2.3606 2.3606 1.7e-4 1.3039-1.0567 2.361-2.3606 2.3611-1.3039-1.1e-4 -2.3608-1.0572-2.3606-2.3611 1.2e-4 -1.3037 1.0569-2.3605 2.3606-2.3606zm64.974 3.8918h6.7427c2.6632 0 4.793 2.1298 4.793 4.793 0 2.6632-2.1298 4.7909-4.793 4.7909h-6.7427v-1.064c0.0627 3e-3 0.12462 9e-3 0.1881 9e-3h6.4978c2.0616 0 3.7362-1.6746 3.7362-3.7362 0-2.0616-1.6746-3.7367-3.7362-3.7367h-6.4978c-0.0635 0-0.12541 6e-3 -0.1881 9e-3zm-40.95 0.90279 0.54881 0.0765 0.4687 0.0176-2e-3 0.045 0.0641 0.01 0.49455 0.0682-0.13488 0.99064-0.49609-0.0687-0.46871-0.0646h-0.4749v-0.0191l-0.51935-0.0196-0.50023-0.0196 0.0393-0.99788 0.50023 0.0176 0.48008 0.0196zm-4.1388 0.51624 0.3514 0.93535-0.46664 0.17776-0.93586 0.35141-0.46871 0.17776-0.35346-0.93534 0.4687-0.17777 0.93534-0.3514zm8.6775 0.27906 0.49196 0.0899 0.98444 0.17777 0.49248 0.0879-0.17777 0.98444-0.49248-0.0879-0.98392-0.17777-0.49247-0.0899zm36.6 0.35863h6.4978c1.5249 0 2.7363 1.2114 2.7363 2.7363s-1.2114 2.7363-2.7363 2.7363h-6.4978c-0.0635 0-0.12571-5e-3 -0.1881-9e-3v-5.4539c0.0624-4e-3 0.12455-9e-3 0.1881-9e-3zm-31.68 0.53227 0.49196 0.0879 0.98443 0.17777 0.49196 0.0894-0.17776 0.98443-0.49196-0.0894-0.98444-0.17776-0.49196-0.0884zm4.9217 0.88832 0.49041 0.0899 0.98444 0.17777 0.49196 0.0878-0.17777 0.98444-0.49196-0.0879-0.98444-0.17777-0.49247-0.0899zm-23.061 0.39842 0.68006 0.73433-0.36948 0.34002-0.47077 0.4315-4e-3 6e-3 -0.20516 0.22635-0.33383 0.3731-0.74414-0.66818 0.33383-0.3731 0.20671-0.23203 0.016-0.0176 0.0176-0.016 0.50591-0.46663zm27.981 0.49248 0.49195 0.0879 0.98237 0.17777 0.49248 0.0894-0.17777 0.98443-0.49247-0.0894-0.98237-0.17776-0.49196-0.0899zm-20.336 0.54105 2.4407 0.21601 0.44287 2.8112c0.27864 0.12057 0.54793 0.26169 0.80563 0.42219l2.5626-1.2433 1.5725 1.8784-1.6712 2.2996c0.11027 0.28256 0.19939 0.57292 0.26665 0.86868l2.6939 0.93276-0.21601 2.4407-2.8112 0.44286c-0.12041 0.27862-0.26136 0.54791-0.42168 0.80564l1.2433 2.5626-1.8784 1.5725-2.2996-1.6712c-0.28256 0.11027-0.57292 0.1994-0.86868 0.26665l-0.93276 2.6939-2.4407-0.216-0.44287-2.8112c-0.27863-0.12057-0.54792-0.26169-0.80563-0.4222l-2.5626 1.2433-1.5725-1.8784 1.6712-2.2991c-0.1103-0.28273-0.19943-0.57326-0.26665-0.8692l-2.6939-0.93276 0.21601-2.4407 2.8112-0.44287c0.1204-0.27862 0.26135-0.54791 0.42168-0.80563l-1.2433-2.5621 1.8784-1.573 2.297 1.6712c0.28357-0.11041 0.57497-0.19954 0.87178-0.26665zm25.255 0.34727 0.49248 0.0879 0.98443 0.17983 0.49196 0.0879-0.17983 0.98444-0.48989-0.0899-0.98444-0.17777-0.49248-0.0878zm4.9025 0.87488 0.49403 0.0703 0.20102 0.0274 0.0258 4e-3 0.0253 6e-3 0.77308 0.18914 0.48628 0.11937-0.23823 0.97048-0.48628-0.11885-0.74414-0.1819-0.17931-0.0253-0.4961-0.0703zm-40.991 1.7973 0.90641 0.42581-0.21291 0.45113-0.15658 0.3359-0.19327 0.54674-0.16795 0.47077-0.94103-0.33228 0.16589-0.47232 0.20308-0.5762 0.01-0.0238 0.0103-0.0233 0.16588-0.34933zm45.866 0.12712 0.3731 0.33383 0.5917 0.52916 0.0176 0.0176 0.0176 0.0181 0.13901 0.15038 0.33744 0.3669-0.73432 0.678-0.33951-0.36742-0.12919-0.14056-0.01-0.01-0.55862-0.49816-0.37311-0.33435zm-6.3981 1.6423 1.8014 0.15968 0.32659 2.0748c0.20572 0.089 0.40453 0.19313 0.5948 0.3116l1.8919-0.91725 1.1606 1.386-1.2335 1.6976c0.0815 0.20877 0.14726 0.4233 0.19689 0.64182l1.9885 0.68833-0.15917 1.8014-2.0753 0.32711c-0.0888 0.2057-0.1928 0.40451-0.31109 0.5948l0.91725 1.8914-1.3865 1.1612-1.6976-1.234c-0.20859 0.0814-0.42295 0.14723-0.6413 0.19689l-0.68833 1.989-1.8014-0.15968-0.32711-2.0753c-0.20573-0.089-0.40453-0.19314-0.5948-0.31161l-1.8914 0.91778-1.1612-1.3865 1.2335-1.6976c-0.0812-0.20862-0.14688-0.42298-0.19637-0.64131l-1.989-0.68833 0.15968-1.8014 2.0748-0.32711c0.089-0.20572 0.19314-0.40453 0.31161-0.5948l-0.91777-1.8914 1.3865-1.1612 1.696 1.2335c0.2091-0.0815 0.42398-0.1473 0.64285-0.19688zm-28.128 1.4113c-1.2855-0.0224-2.3696 0.95277-2.483 2.2335-0.11914 1.3476 0.87657 2.5367 2.2242 2.6562 1.3478 0.11944 2.5372-0.87634 2.6567-2.2242 0.11942-1.348-0.87666-2.5375-2.2247-2.6567-0.0576-5e-3 -0.11533-8e-3 -0.17312-9e-3zm37.7 1.048 0.17777 0.4687 0.13435 0.35915 0.0103 0.0233 6e-3 0.0238 0.1602 0.59376 0.12919 0.48214-0.9648 0.25994-0.13126-0.48266-0.15606-0.5762-0.12299-0.33176-0.17776-0.46663zm-50.342 0.76533 0.99994 0.0372-0.0191 0.49971-0.0103 0.27544 0.0434 0.67231 0.031 0.49971-0.99788 0.0625-0.0315-0.49816-0.045-0.709v-0.0506l0.0119-0.28888zm41.144 1.3518c-0.94925-0.0168-1.7499 0.70329-1.8335 1.649-0.0882 0.99508 0.64717 1.8732 1.6423 1.9611 0.99509 0.0882 1.8732-0.64717 1.9611-1.6423 0.0879-0.99489-0.64739-1.8727-1.6423-1.9606-0.0425-4e-3 -0.085-6e-3 -0.12764-7e-3zm-58.262 0.33228h1.8237v9.5818h-1.8237c-1.967 0-3.5352-1.5661-3.5352-3.5331v-2.5135c0-1.967 1.5682-3.5352 3.5352-3.5352zm67.186 2.5502 0.99012 0.1385-0.0682 0.49609-0.0238 0.16846-4e-3 0.0233-6e-3 0.0253-0.19741 0.80667-0.11886 0.48627-0.971-0.23822 0.11731-0.48421 0.1912-0.78342 0.0196-0.14262zm-48.336 0.50953 0.1757 0.46716 0.0176 0.047 0.39842 0.80822 0.22066 0.44959-0.89659 0.44131-0.22065-0.44958-0.4098-0.83199-0.0119-0.0212-8e-3 -0.0238-0.0253-0.0661-0.1757-0.46871zm-13.398 0.62425h5.1625c0.53041 0 0.95705 0.42716 0.95705 0.95757 0 0.5304-0.42664 0.95653-0.95705 0.95653h-5.1625c-0.53041 0-0.95757-0.42613-0.95757-0.95653 0-0.53041 0.42716-0.95757 0.95757-0.95757zm0 2.9698h5.1625c0.53041 0 0.95705 0.42715 0.95705 0.95756s-0.42664 0.95757-0.95705 0.95757h-5.1625c-0.53041 0-0.95757-0.42716-0.95757-0.95757s0.42716-0.95756 0.95757-0.95756zm60.039 0.23616 0.74414 0.66611-0.33434 0.3731-0.50747 0.56844-0.016 0.0176-0.0176 0.0155-0.17571 0.16226-0.3669 0.33796-0.67799-0.73483 0.36742-0.33952 0.15606-0.14263 0.49403-0.55293zm-44.127 0.1757 0.3731 0.33228 0.64803 0.58188 0.0646 0.0491 0.40256 0.29455-0.59169 0.80667-0.40256-0.29662-0.0801-0.0589-0.0176-0.0134-0.0196-0.0155-0.67179-0.60151-0.37104-0.33435zm-15.912 2.559h5.1625c0.53041 0 0.95705 0.42663 0.95705 0.95704s-0.42664 0.95757-0.95705 0.95757h-5.1625c-0.53041 0-0.95757-0.42716-0.95757-0.95757s0.42716-0.95704 0.95757-0.95704zm19.878 0.0997 0.47077 0.16588 0.55294 0.19741 0.01 2e-3 0.34365 0.0837 0.48473 0.11937-0.23668 0.97255-0.48627-0.11937-0.35347-0.0858-0.0253-8e-3 -0.0233-8e-3 -0.59944-0.21084-0.47078-0.16795zm36.442 0.0579 0.35192 0.93534-0.46716 0.17622-0.32969 0.12454-0.0217 8e-3 -0.0232 6e-3 -0.62736 0.1695-0.48214 0.12919-0.25993-0.9648 0.48266-0.13074 0.6072-0.16227 0.30076-0.11523zm-4.7243 0.68781 4e-3 0.99994-0.49971 2e-3 -0.99994 2e-3h-0.50023l-4e-3 -0.99994h0.50023l0.99994-2e-3zm-5.4999 0.0119h0.49971l4e-3 0.99994h-0.50023l-0.99993 2e-3 -0.49971 2e-3 -4e-3 -0.99994 0.49971-2e-3zm-5.0002 0.0114h0.50023l4e-3 0.99994h-0.49971l-0.99994 2e-3 -0.50023 2e-3 -4e-3 -0.99994 0.50023-2e-3zm-4.5 0.0103 4e-3 0.99994-0.50023 2e-3 -0.99994 2e-3 -0.50023 2e-3 -4e-3 -0.99994 0.49972-2e-3 0.99994-2e-3zm-5.0002 0.0114 4e-3 0.99994-0.49971 2e-3 -1.0004 2e-3h-0.49971l-4e-3 -0.99994h0.50023l0.99994-2e-3zm-5.4999 0.0119h0.50023l4e-3 1.0004h-0.49971l-0.73277 2e-3h-0.0212l-0.22479 0.0119-0.49971 0.0232-0.045-0.99994 0.49816-0.0233 0.24598-0.01 0.0114-2e-3h0.0119zm-0.38448 5.0085h0.99994v3.0882h-0.99994z" fill="#678ee6"/>
<circle cx="-233.6" cy="116.45" r="1.3564" fill="#78e5f6"/>
<path d="m-210.06 126.96c-2.5301 0-4.5918 2.0636-4.5918 4.5938s2.0617 4.5918 4.5918 4.5918 4.5918-2.0617 4.5918-4.5918-2.0617-4.5938-4.5918-4.5938zm0 1c1.9897 0 3.5918 1.6041 3.5918 3.5938s-1.6021 3.5918-3.5918 3.5918c-1.9897 0-3.5918-1.6021-3.5918-3.5918s1.6021-3.5938 3.5918-3.5938z" color="#000000" color-rendering="auto" dominant-baseline="auto" fill="#f57389" image-rendering="auto" shape-rendering="auto" solid-color="#000000" style="font-feature-settings:normal;font-variant-alternates:normal;font-variant-caps:normal;font-variant-ligatures:normal;font-variant-numeric:normal;font-variant-position:normal;isolation:auto;mix-blend-mode:normal;shape-padding:0;text-decoration-color:#000000;text-decoration-line:none;text-decoration-style:solid;text-indent:0;text-orientation:mixed;text-transform:none;white-space:normal"/>
<path d="m-197.84 169.33c-1.4427 0-2.6041 1.1614-2.6041 2.6042v3.9062c0 1.4427 1.1614 2.6042 2.6041 2.6042h3.9062c1.4427 0 2.6041-1.1614 2.6041-2.6042v-3.9062c0-1.4427-1.1614-2.6042-2.6041-2.6042zm-0.651 3.2552c0.36067 0 0.651 0.29036 0.651 0.65104v1.302c0 0.36068-0.29033 0.65105-0.651 0.65105-0.36068 0-0.65106-0.29037-0.65106-0.65105v-1.302c0-0.36068 0.29038-0.65104 0.65106-0.65104zm5.2082 0c0.3607 0 0.65107 0.29036 0.65107 0.65104v1.302c0 0.36068-0.29037 0.65105-0.65107 0.65105-0.36065 0-0.65101-0.29037-0.65101-0.65105v-1.302c0-0.36068 0.29036-0.65104 0.65101-0.65104zm-1.2296 3.3251a0.6511 0.6511 0 0 1 0.46666 1.1202c-0.48818 0.48823-1.1508 0.76292-1.8412 0.76292-0.6904 0-1.353-0.27471-1.8412-0.76292a0.6511 0.6511 0 0 1 0.45399 -1.1177 0.6511 0.6511 0 0 1 0.46665 0.19711c0.24433 0.24432 0.575 0.3815 0.92059 0.3815 0.3456 0 0.67625-0.13698 0.92062-0.3815a0.6511 0.6511 0 0 1 0.45392 -0.19956z" fill="#678ee6"/>
<path d="m-235.11 168.22a0.50005 0.50005 0 1 0 0 1h3.9629a0.50005 0.50005 0 1 0 0 -1z" color="#000000" color-rendering="auto" dominant-baseline="auto" fill="#78e5f6" image-rendering="auto" shape-rendering="auto" solid-color="#000000" style="font-feature-settings:normal;font-variant-alternates:normal;font-variant-caps:normal;font-variant-ligatures:normal;font-variant-numeric:normal;font-variant-position:normal;isolation:auto;mix-blend-mode:normal;shape-padding:0;text-decoration-color:#000000;text-decoration-line:none;text-decoration-style:solid;text-indent:0;text-orientation:mixed;text-transform:none;white-space:normal"/>
<path d="m-226.19 160.54a0.50005 0.50005 0 0 0 -0.49219 0.50586v2.709a0.50005 0.50005 0 1 0 1 0v-2.709a0.50005 0.50005 0 0 0 -0.50781 -0.50586z" color="#000000" color-rendering="auto" dominant-baseline="auto" fill="url(#c)" image-rendering="auto" shape-rendering="auto" solid-color="#000000" style="font-feature-settings:normal;font-variant-alternates:normal;font-variant-caps:normal;font-variant-ligatures:normal;font-variant-numeric:normal;font-variant-position:normal;isolation:auto;mix-blend-mode:normal;shape-padding:0;text-decoration-color:#000000;text-decoration-line:none;text-decoration-style:solid;text-indent:0;text-orientation:mixed;text-transform:none;white-space:normal"/>
<path d="m-226.19 153.56a0.50005 0.50005 0 0 0 -0.49219 0.50586v5.0234a0.50005 0.50005 0 1 0 1 0v-5.0234a0.50005 0.50005 0 0 0 -0.50781 -0.50586z" color="#000000" color-rendering="auto" dominant-baseline="auto" fill="#f57487" image-rendering="auto" shape-rendering="auto" solid-color="#000000" style="font-feature-settings:normal;font-variant-alternates:normal;font-variant-caps:normal;font-variant-ligatures:normal;font-variant-numeric:normal;font-variant-position:normal;isolation:auto;mix-blend-mode:normal;shape-padding:0;text-decoration-color:#000000;text-decoration-line:none;text-decoration-style:solid;text-indent:0;text-orientation:mixed;text-transform:none;white-space:normal"/>
<path d="m-237.69 168.22a0.50005 0.50005 0 1 0 0 1h0.75586a0.50005 0.50005 0 1 0 0 -1z" color="#000000" color-rendering="auto" dominant-baseline="auto" fill="#f57389" image-rendering="auto" shape-rendering="auto" solid-color="#000000" style="font-feature-settings:normal;font-variant-alternates:normal;font-variant-caps:normal;font-variant-ligatures:normal;font-variant-numeric:normal;font-variant-position:normal;isolation:auto;mix-blend-mode:normal;shape-padding:0;text-decoration-color:#000000;text-decoration-line:none;text-decoration-style:solid;text-indent:0;text-orientation:mixed;text-transform:none;white-space:normal"/>
<path d="m-233.95 163.76a0.50005 0.50005 0 0 0 -0.21289 0.93555l3.4316 1.9805a0.50005 0.50005 0 1 0 0.5 -0.86523l-3.4316-1.9805a0.50005 0.50005 0 0 0 -0.28711 -0.0703z" color="#000000" color-rendering="auto" dominant-baseline="auto" fill="#678ee6" image-rendering="auto" shape-rendering="auto" solid-color="#000000" style="font-feature-settings:normal;font-variant-alternates:normal;font-variant-caps:normal;font-variant-ligatures:normal;font-variant-numeric:normal;font-variant-position:normal;isolation:auto;mix-blend-mode:normal;shape-padding:0;text-decoration-color:#000000;text-decoration-line:none;text-decoration-style:solid;text-indent:0;text-orientation:mixed;text-transform:none;white-space:normal"/>
<path d="m-238.94 160.88a0.50005 0.50005 0 0 0 -0.21289 0.93554l2.8047 1.6191a0.50005 0.50005 0 1 0 0.5 -0.86523l-2.8047-1.6191a0.50005 0.50005 0 0 0 -0.28711 -0.0703z" color="#000000" color-rendering="auto" dominant-baseline="auto" fill="#78e5f6" image-rendering="auto" shape-rendering="auto" solid-color="#000000" style="font-feature-settings:normal;font-variant-alternates:normal;font-variant-caps:normal;font-variant-ligatures:normal;font-variant-numeric:normal;font-variant-position:normal;isolation:auto;mix-blend-mode:normal;shape-padding:0;text-decoration-color:#000000;text-decoration-line:none;text-decoration-style:solid;text-indent:0;text-orientation:mixed;text-transform:none;white-space:normal"/>
<path d="m-229.25 162.94a0.50005 0.50005 0 0 0 -0.41015 0.75586l0.55859 0.96875a0.50005 0.50005 0 1 0 0.86524 -0.5l-0.5586-0.96875a0.50005 0.50005 0 0 0 -0.45508 -0.25586z" color="#000000" color-rendering="auto" dominant-baseline="auto" fill="#678ee6" image-rendering="auto" shape-rendering="auto" solid-color="#000000" style="font-feature-settings:normal;font-variant-alternates:normal;font-variant-caps:normal;font-variant-ligatures:normal;font-variant-numeric:normal;font-variant-position:normal;isolation:auto;mix-blend-mode:normal;shape-padding:0;text-decoration-color:#000000;text-decoration-line:none;text-decoration-style:solid;text-indent:0;text-orientation:mixed;text-transform:none;white-space:normal"/>
<path d="m-232.73 156.9a0.50005 0.50005 0 0 0 -0.41015 0.75585l2.5117 4.3496a0.50005 0.50005 0 1 0 0.86524 -0.5l-2.5117-4.3496a0.50005 0.50005 0 0 0 -0.45508 -0.25585z" color="#000000" color-rendering="auto" dominant-baseline="auto" fill="url(#c)" image-rendering="auto" shape-rendering="auto" solid-color="#000000" style="font-feature-settings:normal;font-variant-alternates:normal;font-variant-caps:normal;font-variant-ligatures:normal;font-variant-numeric:normal;font-variant-position:normal;isolation:auto;mix-blend-mode:normal;shape-padding:0;text-decoration-color:#000000;text-decoration-line:none;text-decoration-style:solid;text-indent:0;text-orientation:mixed;text-transform:none;white-space:normal"/>
<path d="m-230.59 170.53a0.50005 0.50005 0 0 0 -0.22461 0.0606l-7.4375 3.8926a0.50005 0.50005 0 1 0 0.46289 0.88476l7.4375-3.8926a0.50005 0.50005 0 0 0 -0.23828 -0.94531z" color="#000000" color-rendering="auto" dominant-baseline="auto" fill="url(#c)" image-rendering="auto" shape-rendering="auto" solid-color="#000000" style="font-feature-settings:normal;font-variant-alternates:normal;font-variant-caps:normal;font-variant-ligatures:normal;font-variant-numeric:normal;font-variant-position:normal;isolation:auto;mix-blend-mode:normal;shape-padding:0;text-decoration-color:#000000;text-decoration-line:none;text-decoration-style:solid;text-indent:0;text-orientation:mixed;text-transform:none;white-space:normal"/>
<path d="m-171.65 169.33c-1.4427 0-2.6041 1.1614-2.6041 2.6042v3.9062c0 1.4427 1.1614 2.6042 2.6041 2.6042h3.9062c1.4427 0 2.6041-1.1614 2.6041-2.6042v-3.9062c0-1.4427-1.1614-2.6042-2.6041-2.6042zm-0.651 3.2552c0.36067 0 0.651 0.29036 0.651 0.65104v1.302c0 0.36068-0.29033 0.65105-0.651 0.65105-0.36068 0-0.65106-0.29037-0.65106-0.65105v-1.302c0-0.36068 0.29038-0.65104 0.65106-0.65104zm5.2082 0c0.3607 0 0.65107 0.29036 0.65107 0.65104v1.302c0 0.36068-0.29037 0.65105-0.65107 0.65105-0.36065 0-0.65101-0.29037-0.65101-0.65105v-1.302c0-0.36068 0.29036-0.65104 0.65101-0.65104zm-1.2296 3.3251a0.6511 0.6511 0 0 1 0.46666 1.1202c-0.48818 0.48823-1.1508 0.76292-1.8412 0.76292-0.6904 0-1.353-0.27471-1.8412-0.76292a0.6511 0.6511 0 0 1 0.45399 -1.1177 0.6511 0.6511 0 0 1 0.46665 0.19711c0.24433 0.24432 0.575 0.3815 0.92059 0.3815 0.3456 0 0.67625-0.13698 0.92062-0.3815a0.6511 0.6511 0 0 1 0.45392 -0.19956z" fill="#fa9486"/>
</g>
</svg>
