<svg width="250" height="250" viewBox="0 0 66.145833 66.145833" xmlns="http://www.w3.org/2000/svg" xmlns:cc="http://creativecommons.org/ns#" xmlns:dc="http://purl.org/dc/elements/1.1/" xmlns:rdf="http://www.w3.org/1999/02/22-rdf-syntax-ns#" xmlns:xlink="http://www.w3.org/1999/xlink"><defs><linearGradient id="a" x1="14.032" x2="221.75" y1="225.51" y2="60" gradientUnits="userSpaceOnUse"><stop stop-color="#f6aa78" offset="0"/><stop stop-color="#f57389" offset="1"/></linearGradient></defs><g transform="translate(0 -230.85)"><path transform="matrix(.26458 0 0 .26458 0 230.85)" d="m43.34 58.891c-3.9523.0-7.1914 3.245-7.1914 7.1973v126.18c0 3.9523 3.2391 7.1914 7.1914 7.1914h163.32c3.9523.0 7.1895-3.2392 7.1895-7.1914v-126.18c0-3.9523-3.2372-7.1973-7.1895-7.1973H43.34zm0 3.7793h163.32c1.9238.0 3.4102 1.4942 3.4102 3.418v9.5879h-170.15v-9.5879c0-1.9238 1.4883-3.418 3.4121-3.418zm157.11 4.5254v3.7793h3.9277v-3.7793H200.45zM39.93 79.4577h32.807v116.22H43.342c-1.9238.0-3.4121-1.4864-3.4121-3.4102v-112.81zm36.586.0h133.56v112.81c0 1.9238-1.4864 3.4102-3.4102 3.4102h-130.15v-116.22z" color="#000" color-rendering="auto" dominant-baseline="auto" fill="url(#a)" image-rendering="auto" shape-rendering="auto" solid-color="#000000" style="font-feature-settings:normal;font-variant-alternates:normal;font-variant-caps:normal;font-variant-ligatures:normal;font-variant-numeric:normal;font-variant-position:normal;isolation:auto;mix-blend-mode:normal;shape-padding:0;text-decoration-color:#000;text-decoration-line:none;text-decoration-style:solid;text-indent:0;text-orientation:mixed;text-transform:none;white-space:normal"/><path d="m11.76 253.23v1h6.0469v-1z" color="#000" color-rendering="auto" dominant-baseline="auto" fill="#3d8fcc" image-rendering="auto" shape-rendering="auto" solid-color="#000000" style="font-feature-settings:normal;font-variant-alternates:normal;font-variant-caps:normal;font-variant-ligatures:normal;font-variant-numeric:normal;font-variant-position:normal;isolation:auto;mix-blend-mode:normal;shape-padding:0;text-decoration-color:#000;text-decoration-line:none;text-decoration-style:solid;text-indent:0;text-orientation:mixed;text-transform:none;white-space:normal"/><path d="m13.965 255.36v1h3.8418v-1z" color="#000" color-rendering="auto" dominant-baseline="auto" fill="#3d8fcc" image-rendering="auto" shape-rendering="auto" solid-color="#000000" style="font-feature-settings:normal;font-variant-alternates:normal;font-variant-caps:normal;font-variant-ligatures:normal;font-variant-numeric:normal;font-variant-position:normal;isolation:auto;mix-blend-mode:normal;shape-padding:0;text-decoration-color:#000;text-decoration-line:none;text-decoration-style:solid;text-indent:0;text-orientation:mixed;text-transform:none;white-space:normal"/><path d="m13.965 257.49v1h3.8418v-1z" color="#000" color-rendering="auto" dominant-baseline="auto" fill="#3d8fcc" image-rendering="auto" shape-rendering="auto" solid-color="#000000" style="font-feature-settings:normal;font-variant-alternates:normal;font-variant-caps:normal;font-variant-ligatures:normal;font-variant-numeric:normal;font-variant-position:normal;isolation:auto;mix-blend-mode:normal;shape-padding:0;text-decoration-color:#000;text-decoration-line:none;text-decoration-style:solid;text-indent:0;text-orientation:mixed;text-transform:none;white-space:normal"/><path transform="matrix(.26458 0 0 .26458 0 230.85)" d="m82.123 84.564v3.7793h37.5V84.564h-37.5zm42.145.0v3.7793h23.031V84.564h-23.031z" color="#000" color-rendering="auto" dominant-baseline="auto" fill="#678ee6" image-rendering="auto" shape-rendering="auto" solid-color="#000000" style="font-feature-settings:normal;font-variant-alternates:normal;font-variant-caps:normal;font-variant-ligatures:normal;font-variant-numeric:normal;font-variant-position:normal;isolation:auto;mix-blend-mode:normal;shape-padding:0;text-decoration-color:#000;text-decoration-line:none;text-decoration-style:solid;text-indent:0;text-orientation:mixed;text-transform:none;white-space:normal"/><path transform="matrix(.26458 0 0 .26458 0 230.85)" d="m89.705 92.561v3.7812h48.1V92.561h-48.1zm7.7734 39.986v3.7793h26.463v-3.7793h-26.463zm-15.355 16.521v3.7793h23.998v-3.7793h-23.998z" color="#000" color-rendering="auto" dominant-baseline="auto" fill="#78e5f6" image-rendering="auto" shape-rendering="auto" solid-color="#000000" style="font-feature-settings:normal;font-variant-alternates:normal;font-variant-caps:normal;font-variant-ligatures:normal;font-variant-numeric:normal;font-variant-position:normal;isolation:auto;mix-blend-mode:normal;shape-padding:0;text-decoration-color:#000;text-decoration-line:none;text-decoration-style:solid;text-indent:0;text-orientation:mixed;text-transform:none;white-space:normal"/><path d="m23.734 257.46v1h8.918v-1z" color="#000" color-rendering="auto" dominant-baseline="auto" fill="#678ee6" image-rendering="auto" shape-rendering="auto" solid-color="#000000" style="font-feature-settings:normal;font-variant-alternates:normal;font-variant-caps:normal;font-variant-ligatures:normal;font-variant-numeric:normal;font-variant-position:normal;isolation:auto;mix-blend-mode:normal;shape-padding:0;text-decoration-color:#000;text-decoration-line:none;text-decoration-style:solid;text-indent:0;text-orientation:mixed;text-transform:none;white-space:normal"/><path d="m23.734 259.58v1h6.4863v-1z" color="#000" color-rendering="auto" dominant-baseline="auto" fill="#f6aa78" image-rendering="auto" shape-rendering="auto" solid-color="#000000" style="font-feature-settings:normal;font-variant-alternates:normal;font-variant-caps:normal;font-variant-ligatures:normal;font-variant-numeric:normal;font-variant-position:normal;isolation:auto;mix-blend-mode:normal;shape-padding:0;text-decoration-color:#000;text-decoration-line:none;text-decoration-style:solid;text-indent:0;text-orientation:mixed;text-transform:none;white-space:normal"/><path transform="matrix(.26458 0 0 .26458 0 230.85)" d="m89.705 116.55v3.7812h33.705V116.55H89.705zm38.18.0v3.7812h15.324V116.55h-15.324zm-38.18 7.9961v3.7812h26.457v-3.7812H89.705z" color="#000" color-rendering="auto" dominant-baseline="auto" fill="#f57389" image-rendering="auto" shape-rendering="auto" solid-color="#000000" style="font-feature-settings:normal;font-variant-alternates:normal;font-variant-caps:normal;font-variant-ligatures:normal;font-variant-numeric:normal;font-variant-position:normal;isolation:auto;mix-blend-mode:normal;shape-padding:0;text-decoration-color:#000;text-decoration-line:none;text-decoration-style:solid;text-indent:0;text-orientation:mixed;text-transform:none;white-space:normal"/><rect transform="rotate(-45)" x="-150.07" y="233.02" width="3.3234" height="3.3234" ry="0" fill="#f6aa78" opacity=".545" stroke-width="0"/><rect transform="rotate(-45)" x="-142.62" y="197.92" width="3.0474" height="3.0474" ry="0" fill="#678ee6" stroke-width="0"/><path d="m2.4735 271.88.31903.31904 1.8934 1.8934 2.2125-2.2125-2.2125-2.2125zm1.2761.0.93636-.93636.93636.93636-.93636.93637z" color="#000" color-rendering="auto" dominant-baseline="auto" fill="#678ee6" image-rendering="auto" opacity=".528" shape-rendering="auto" solid-color="#000000" style="font-feature-settings:normal;font-variant-alternates:normal;font-variant-caps:normal;font-variant-ligatures:normal;font-variant-numeric:normal;font-variant-position:normal;isolation:auto;mix-blend-mode:normal;shape-padding:0;text-decoration-color:#000;text-decoration-line:none;text-decoration-style:solid;text-indent:0;text-orientation:mixed;text-transform:none;white-space:normal"/><rect transform="rotate(-45)" x="-171.72" y="236.85" width="3.4078" height="3.4078" ry="0" fill="#f57389" opacity=".694"/><rect transform="rotate(-45)" x="-184.85" y="222.06" width="2.2265" height="2.2265" ry="0" fill="#3d8fcc" opacity=".528" stroke-width="0"/><rect transform="rotate(-45)" x="-141.76" y="191.51" width="1.8567" height="1.8567" ry="0" fill="#f6aa78" stroke-width="0"/><path d="m14.2 286.03c-.41742.0-.75582.33838-.75582.75582v3.7791c0 .41742.3384.75582.75582.75582h3.7791c.41742.0.75582-.3384.75582-.75582v-3.4012l-1.1337-1.1337h-.3779v2.2674h-3.0233zm.3779.0v1.8895h1.1337V286.03zm1.5116 3.0232c.41743.0.75581.33841.75581.75583.0.41743-.33838.7558-.75581.7558-.41742.0-.75582-.33837-.75582-.7558s.33839-.75583.75582-.75583z" fill="#f57389"/><path d="m23.18 236.7-.44918.89837.44918.89833v1.7967h-.89835v1.5721c0 .62208.50084 1.123 1.123 1.123.6221.0 1.1229-.50083 1.1229-1.123v-1.5721h-.89836v-1.7967l.44918-.89833-.44918-.89837zm2.6951.0781a1.3475 1.3475.0 00-.89836 1.2695 1.3475 1.3475.0 00.89836 1.2695v3.2223c0 .24886.20034.44921.44918.44921.24884.0.44916-.20035.44916-.44921v-3.2232a1.3475 1.3475.0 00.89838-1.2686 1.3475 1.3475.0 00-.89838-1.2686v1.2686a.44918.44918.0 01-.44916.44915.44918.44918.0 01-.44918-.44915z" fill="#3d8fcc"/></g></svg>