<svg width="250" height="250" viewBox="0 0 66.145833 66.145833" xmlns="http://www.w3.org/2000/svg" xmlns:cc="http://creativecommons.org/ns#" xmlns:dc="http://purl.org/dc/elements/1.1/" xmlns:rdf="http://www.w3.org/1999/02/22-rdf-syntax-ns#" xmlns:xlink="http://www.w3.org/1999/xlink"><defs><linearGradient id="a" x1="-4.2333" x2="62.045" y1="295.68" y2="234.43" gradientUnits="userSpaceOnUse"><stop stop-color="#f6aa78" offset="0"/><stop stop-color="#f57389" offset="1"/></linearGradient></defs><g transform="translate(0 -230.85)"><rect transform="rotate(-45)" x="-151.73" y="228.03" width="3.3234" height="3.3234" ry="0" fill="#678ee6" opacity=".545" stroke-width="0"/><rect transform="rotate(-45)" x="-145.46" y="197.99" width="3.8411" height="3.8411" ry="0" fill="#78e5f6" stroke-width="0"/><rect transform="rotate(-45)" x="-187.6" y="198.48" width="2.2265" height="2.2265" ry="0" fill="none" opacity=".798" stroke="#678ee6" stroke-linecap="round" stroke-width=".90203"/><rect transform="rotate(-45)" x="-178.79" y="230.98" width="3.4078" height="3.4078" ry="0" fill="#f57389" opacity=".938"/><rect transform="rotate(-45)" x="-174.47" y="224.22" width="2.2265" height="2.2265" ry="0" fill="#678ee6" opacity=".528" stroke-width="0"/><rect transform="rotate(-45)" x="-145.26" y="189.06" width="1.8567" height="1.8567" ry="0" fill="#f6aa78" stroke-width="0"/><path d="m37.767 249.73c-7.1533.0-12.975 5.8211-12.975 12.974s5.8216 12.973 12.975 12.973c2.3582.0 4.5691-.6358 6.4766-1.74.05535.2419.16625.47491.33693.67903.38341.45852.96279.6504 1.5105.55863l9.755 11.666c.49866.59634 1.3803.67436 1.9766.1757l.32298-.26975c.59634-.49866.67487-1.3798.17622-1.9761l-9.7544-11.665c.1876-.52297.1009-1.1278-.28267-1.5865-.17121-.20476-.38171-.35492-.61081-.45217 1.9106-2.2599 3.0654-5.1781 3.0654-8.3623.0-7.1533-5.819-12.974-12.972-12.974zm0 1.9999c6.0724.0 10.972 4.9021 10.972 10.975s-4.9 10.973-10.972 10.973-10.975-4.9005-10.975-10.973c0-6.0724 4.9021-10.975 10.975-10.975zm-.08733 1.833c-.75331.007-1.5173.10781-2.2779.31161a.75007.75007.0 10.38654 1.449c4.0847-1.0945 8.2651 1.3181 9.3596 5.4028a.75007.75007.0 101.4469-.38912c-.97823-3.6508-4.0467-6.1939-7.5742-6.6874-.44093-.0617-.88901-.091-1.341-.0868z" color="#000" color-rendering="auto" dominant-baseline="auto" fill="url(#a)" image-rendering="auto" shape-rendering="auto" solid-color="#000000" style="font-feature-settings:normal;font-variant-alternates:normal;font-variant-caps:normal;font-variant-ligatures:normal;font-variant-numeric:normal;font-variant-position:normal;isolation:auto;mix-blend-mode:normal;shape-padding:0;text-decoration-color:#000;text-decoration-line:none;text-decoration-style:solid;text-indent:0;text-orientation:mixed;text-transform:none;white-space:normal"/><rect transform="rotate(-45)" x="-135.52" y="205.79" width="2.2265" height="2.2265" ry="0" fill="none" opacity=".528" stroke="#005ed9" stroke-linecap="round" stroke-width=".90203"/><path transform="matrix(.26458 0 0 .26458 0 230.85)" d="m29.469 90.529a1.89 1.89.0 00-1.3145 3.2402l11.535 11.543c-.61458 1.765-.96484 3.6532-.96484 5.627v3.6094h-15.436a1.89 1.89.0 100 3.7812h15.436v4.6055c0 1.921.33054 3.7618.91406 5.4863l-11.484 11.492a1.89 1.89.0 102.6719 2.6719l10.539-10.545c3.0345 4.8202 8.3866 8.0352 14.5 8.0352 6.2328.0 11.676-3.3423 14.676-8.3203l10.83 10.83a1.89 1.89.0 102.6719-2.6719l-11.686-11.693a1.89 1.89.0 00-.14258-.13086c.51303-1.6273.79297-3.358.79297-5.1543v-4.6055h15.9a1.89 1.89.0 100-3.7812h-15.9v-3.6094c0-1.8527-.30322-3.633-.84766-5.3047a1.8922 1.8922.0 00.19727-.17188l11.686-11.693a1.89 1.89.0 00-1.373-3.2402 1.89 1.89.0 00-1.2988.56836l-10.902 10.902c-3.0151-4.912-8.4205-8.2012-14.604-8.2012-6.0636.0-11.38 3.1613-14.428 7.916l-10.611-10.617a1.89 1.89.0 00-1.3574-.56836zm26.396 7.0488c7.4343.0 13.361 5.9271 13.361 13.361v11.996c0 7.4342-5.9271 13.361-13.361 13.361s-13.359-5.9271-13.359-13.361v-11.996c0-7.4342 5.9251-13.361 13.359-13.361zm0 4.2598c-3.6101.0-6.5762 2.968-6.5762 6.5781.0 3.6102 2.966 6.5762 6.5762 6.5762 3.6101.0 6.5781-2.966 6.5781-6.5762.0-3.6101-2.968-6.5781-6.5781-6.5781zm0 3.7793c1.5675.0 2.7988 1.2313 2.7988 2.7988s-1.2313 2.7969-2.7988 2.7969-2.7969-1.2294-2.7969-2.7969 1.2293-2.7988 2.7969-2.7988z" color="#000" color-rendering="auto" dominant-baseline="auto" fill="#3d8fcc" image-rendering="auto" shape-rendering="auto" solid-color="#000000" style="font-feature-settings:normal;font-variant-alternates:normal;font-variant-caps:normal;font-variant-ligatures:normal;font-variant-numeric:normal;font-variant-position:normal;isolation:auto;mix-blend-mode:normal;shape-padding:0;text-decoration-color:#000;text-decoration-line:none;text-decoration-style:solid;text-indent:0;text-orientation:mixed;text-transform:none;white-space:normal"/><path transform="matrix(.26458 0 0 .26458 0 230.85)" d="m103.41 25.93a1.89 1.89.0 00-1.7188 1.1738l-3.5098 8.293c-3.0577-1.9201-6.9585-2.4095-10.551-.95312-3.5236 1.4285-5.9543 4.4068-6.8555 7.8301l-8.0723-3.418a1.89 1.89.0 00-.73242-.1543 1.89 1.89.0 00-.73828 3.6387l9.1914 3.8867c.097614 1.1243.35921 2.2508.80469 3.3496l.61133 1.5059-8.4961 3.4453a1.89 1.89.0 101.418 3.5l8.4961-3.4453.84961 2.0957c.43178 1.065 1.0094 2.0278 1.6934 2.8828l-3.8711 9.1621a1.89 1.89.0 103.4766 1.4688l3.3887-8c3.0421 1.8666 6.8953 2.3287 10.447.88867 3.6208-1.4679 6.0915-4.571 6.9297-8.1133l8.2226 3.4727a1.89 1.89.0 101.4688-3.4766l-9.459-4.0059c-.11824-1.0108-.35941-2.0223-.75977-3.0098l-.8496-2.0938 8.7656-3.5566a1.89 1.89.0 00-.73828-3.6484 1.89 1.89.0 00-.67774.14844l-8.7695 3.5488-.60937-1.5c-.41317-1.0191-.96412-1.9402-1.6094-2.7676l4.0195-9.498a1.89 1.89.0 00-1.7656-2.6504zM92.127 37.358c3.0567.033307 5.9017 1.8668 7.1348 4.9082l2.8789 7.1016c1.644 4.0551-.26321 8.5669-4.3184 10.211-4.0552 1.644-8.5669-.26511-10.211-4.3203l-2.8789-7.1016c-1.644-4.0551.26321-8.5669 4.3184-10.211 1.0138-.411 2.0573-.59899 3.0762-.58789zm-.66992 1.4902c-.63372-.012103-1.2792.098545-1.8984.34961-2.4771 1.0043-3.6898 3.8862-2.6855 6.3633s3.8784 3.6918 6.3555 2.6875 3.6937-3.8764 2.6895-6.3535c-.7532-1.8578-2.5598-3.0106-4.4609-3.0469zm-.041015 3.7676c.43033.002493.82042.2622.99805.69922.23682.58413-.021313 1.1948-.60547 1.4316-.58414.23698-1.1968-.022099-1.4336-.60547-.23682-.58416.019499-1.2026.60352-1.4395.14604-.059244.29406-.086769.4375-.085938z" color="#000" color-rendering="auto" dominant-baseline="auto" fill="#f57389" image-rendering="auto" shape-rendering="auto" solid-color="#000000" style="font-feature-settings:normal;font-variant-alternates:normal;font-variant-caps:normal;font-variant-ligatures:normal;font-variant-numeric:normal;font-variant-position:normal;isolation:auto;mix-blend-mode:normal;shape-padding:0;text-decoration-color:#000;text-decoration-line:none;text-decoration-style:solid;text-indent:0;text-orientation:mixed;text-transform:none;white-space:normal"/><path transform="matrix(.26458 0 0 .26458 0 230.85)" d="m65.072 161.39a1.89 1.89.0 00-1.7656 2.4727l4.1172 13.211c-1.1439 1.093-2.1403 2.3766-2.916 3.8535l-1.3164 2.5059-11.496-6.0391a1.89 1.89.0 00-.9082-.23047 1.89 1.89.0 00-.84766 3.5801l11.496 6.0332-1.7168 3.2676c-.75413 1.4358-1.2426 2.9392-1.5 4.457l-13.152 4.0996a1.8901 1.8901.0 101.123 3.6094l11.893-3.7051c.49091 4.8368 3.3149 9.3465 7.9355 11.773 4.7131 2.4754 10.145 2.173 14.447-.30078l3.8066 12.23a1.8901 1.8901.0 103.6094-1.1211l-4.2148-13.555a1.89 1.89.0 00-.003907-.00977c1.0081-1.0235 1.8878-2.2063 2.5898-3.543l1.7148-3.2637 11.852 6.2188a1.89 1.89.0 101.7559-3.3438l-11.848-6.2246 1.3145-2.5039c.72407-1.3786 1.2091-2.8192 1.4746-4.2754a1.8901 1.8901.0 00.060547-.01758l13.545-4.2227a1.89 1.89.0 00-.61914-3.6973 1.89 1.89.0 00-.50195.0957l-12.312 3.832c-.4397-4.9029-3.269-9.4931-7.9453-11.949-4.5829-2.4071-9.8506-2.1978-14.094.08985l-3.7324-11.979a1.89 1.89.0 00-1.8438-1.3496zm12.539 15.279c1.8049-.02033 3.6468.39804 5.373 1.3047 5.5239 2.9013 7.6122 9.6089 4.7109 15.133l-4.7891 9.1152c-2.9013 5.5239-9.607 7.6123-15.131 4.7109-5.5239-2.9013-7.6122-9.607-4.7109-15.131l4.7891-9.1172c1.9946-3.7977 5.787-5.9709 9.7578-6.0156zm1.1016 3.3984c-2.0991.03404-4.127 1.1818-5.1641 3.1562-1.5084 2.872-.38958 6.4837 2.4824 7.9922 2.872 1.5084 6.4779.37977 7.9863-2.4922 1.5085-2.872.38759-6.4759-2.4844-7.9844-.8975-.47139-1.8662-.68735-2.8203-.67187zm.24219 3.7715c.27628.02522.5544.10643.82031.24609 1.0636.55866 1.4551 1.8172.89648 2.8809-.55864 1.0636-1.8212 1.461-2.8848.90235s-1.4512-1.8231-.89258-2.8867c.419-.79773 1.2317-1.2182 2.0605-1.1426z" color="#000" color-rendering="auto" dominant-baseline="auto" fill="#f6aa78" image-rendering="auto" shape-rendering="auto" solid-color="#000000" style="font-feature-settings:normal;font-variant-alternates:normal;font-variant-caps:normal;font-variant-ligatures:normal;font-variant-numeric:normal;font-variant-position:normal;isolation:auto;mix-blend-mode:normal;shape-padding:0;text-decoration-color:#000;text-decoration-line:none;text-decoration-style:solid;text-indent:0;text-orientation:mixed;text-transform:none;white-space:normal"/></g></svg>