<svg height="32" viewBox="0 0 8.4666668 8.4666665" width="32" xmlns="http://www.w3.org/2000/svg"><path d="m16.017578 1.2890625A14.728813 14.728813.0 001.2890625 16.017578 14.728813 14.728813.0 0016.017578 30.746094a14.728813 14.728813.0 0014.728516-14.728516A14.728813 14.728813.0 0016.017578 1.2890625zm3.878906 7.671875c1.077815.0 2.052705.4552739 2.736328 1.1835935.853593-.1680992 1.654862-.4788005 2.378907-.9082029-.27981.8750409-.874686 1.6084549-1.648438 2.0722659.758051-.090597 1.48028-.291795 2.152344-.589844-.502428.751504-1.137015 1.411103-1.869141 1.939453.0072.160684.011719.321886.011719.484375.0 4.952055-3.769225 10.66211-10.662109 10.66211-2.116278.0-4.0876808-.620344-5.746094-1.683594.2931723.034628.5920708.052734.8945312.052734 1.7556919.0 3.3717688-.598459 4.6542968-1.603516-1.639839-.030266-3.0231611-1.114675-3.4999999-2.603515.2287654.04374.4636193.068359.7050779.068359.341812.0.671841-.045207.986328-.130859-1.7143347-.344216-3.005859-1.860093-3.005859-3.675781.0-.015772-2638e-7-.031228.0-.046875.5053009.280678 1.0829272.449323 1.6972656.46875-1.005524-.671997-1.6660156-1.819042-1.6660156-3.119141.0-.686762.1832914-1.331293.5058594-1.8847656C10.369778 11.913691 13.131576 13.406226 16.246094 13.5625c-.063893-.274264-.097656-.559809-.097656-.853516-1e-6-2.069508 1.678403-3.7480465 3.748046-3.7480465z" fill="#a9b3d4" transform="scale(.26458333)"/></svg>