<svg width="500" height="600" viewBox="0 0 132.29167 158.75" xmlns="http://www.w3.org/2000/svg" xmlns:cc="http://creativecommons.org/ns#" xmlns:dc="http://purl.org/dc/elements/1.1/" xmlns:rdf="http://www.w3.org/1999/02/22-rdf-syntax-ns#" xmlns:xlink="http://www.w3.org/1999/xlink"><defs><linearGradient id="a" x1="-259.55" x2="-174.09" y1="104.53" y2="44.205" gradientTransform="translate(0 1.0583)" gradientUnits="userSpaceOnUse" xlink:href="#b"/><linearGradient id="f" x1="-259.55" x2="-174.09" y1="104.53" y2="44.205" gradientTransform="translate(.37418 .21643)" gradientUnits="userSpaceOnUse" xlink:href="#b"/><linearGradient id="e" x1="-259.55" x2="-174.09" y1="104.53" y2="44.205" gradientTransform="translate(-.56127 .7777)" gradientUnits="userSpaceOnUse" xlink:href="#b"/><linearGradient id="c" x1="-255.58" x2="-216.95" y1="180.19" y2="155.4" gradientTransform="translate(-.65481 .58148)" gradientUnits="userSpaceOnUse" xlink:href="#b"/><linearGradient id="d" x1="-261.8" x2="-166.28" y1="198.19" y2="152.5" gradientTransform="translate(1.2435e-5 1.0583)" gradientUnits="userSpaceOnUse" xlink:href="#b"/><linearGradient id="b"><stop stop-color="#f6aa78" offset="0"/><stop stop-color="#f57389" offset="1"/></linearGradient></defs><g transform="translate(270.27 -26.214)"><circle cx="-99.73" cy="-193.08" r="0" fill="#282828" stroke-width=".26458"/><circle cx="-343.75" cy="-202.08" r="0" fill="#e0e0e0" stroke-width=".52917"/><circle cx="-370.95" cy="-411.24" r="0" fill="#282828" stroke-width=".26458"/><circle cx="483.66" cy="-112.07" r="0" fill="#282828" stroke-width=".26458"/><path d="m-232.98 62.404a1.5747 1.5747.0 00-1.5747 1.5747 1.5747 1.5747.0 001.0498 1.4835v.0913h-1.0498v1.0498h1.0498v2.0463a2.6245 2.6245.0 01-2.0094-1.8915l-1.015.27164a3.6743 3.6743.0 003.5493 2.723 3.6743 3.6743.0 003.5492-2.723l-1.017-.27269a2.6245 2.6245.0 01-2.0073 1.8915v-2.0453h1.0498v-1.0498h-1.0498v-.0923a1.5747 1.5747.0 001.0498-1.4825 1.5747 1.5747.0 00-1.5747-1.5747zm0 1.0498a.52491.52491.0 01.5249.52493.52491.52491.0 01-.5249.5249.52491.52491.0 01-.52492-.5249.52491.52491.0 01.52492-.52493z" fill="url(#a)"/><path d="m-232.68 31.759c-.43368.0-.78524.35155-.78524.78523v.39261h5.4966v-.39261c0-.43367-.35156-.78523-.78522-.78523zm3.5335.39261h.39262v.39262h-.39262zm-4.3188 1.1778v3.1409c0 .43365.35156.78521.78524.78521h3.9261c.43366.0.78522-.35156.78522-.78521v-3.1409zm3.7199.64262.55516.55516-1.9431 1.9431-1.1103-1.1104.55518-.55518.55515.55518z" fill="url(#f)"/><path d="m-244.27 43.692v6.4226h.53493v-.9175h.84135v.9175h3.6701v-.9175h.91752v.9175h.45876V43.692h-.45876v.91751h-.91752V43.692h-3.6701v.91751h-.84135V43.692zm1.8351 1.3763h.91751v.91751h1.835v.91753h-.91753v.91753h.91753v.9175h-1.3763a.45881.45881.0 01-.45877-.45876v-1.3763h-.45876a.45881.45881.0 01-.45875-.45876v-.91753zm-1.3001.45875h.84135v.91753h-.84135zm4.5114.0h.91752v.91753h-.91752zm-4.5114 1.835h.84135v.91753h-.84135zm4.5114.0h.91752v.91753h-.91752z" fill="#f6aa78"/><path d="m-191.01 93.369-2.257.90282v5.4169l2.257-.90284 1.8056.90284 2.257-.90284v-5.4169l-2.257.90282zm0 .90282 1.8056.9028v3.6113l-1.8056-.90282z" fill="#78e5f6"/><path d="m-217.9 42.72c-1.1438.0-2.071.92724-2.071 2.071v1.3808h-2.7614v4.8324c0 .76493.6158 1.3807 1.3807 1.3807h6.9035c.76492.0 1.3807-.61581 1.3807-1.3807v-4.8324h-2.7614V44.791c0-1.1438-.92726-2.071-2.0711-2.071zm0 1.3807c.38126.0.69035.30908.69035.69033v1.3808h-1.3807v-1.3808c0-.38125.30908-.69033.69035-.69033z" fill="#78e5f6"/><path d="m-199.28 58.545v1.0498h6.2989V58.545zm-.52492 1.5747v4.7242a1.0498 1.0498.0 001.0498 1.0498h5.249a1.0498 1.0498.0 001.0498-1.0498v-4.7242zm1.0498.5249h.52489v.52492h-.52489zm1.5747.0h.5249v.52492h-.5249zm1.5747.0h.5249v.52492h-.5249zm1.5747.0h.5249v.52492h-.5249zm-4.7241 1.0498h5.249v3.1494h-5.249zm1.5747.5249v.52491h2.0996v-.52491z" fill="#ff8e87" fill-opacity=".96863"/><path d="m-205.97 41.451v1.0216h1.3209l-1.8317 1.8317-2.1929-2.1929-.72233.72232 2.1929 2.1929-2.1929 2.1929.72233.72229 2.1929-2.1929 1.8317 1.8317h-1.3209v1.0217h2.5541a.51086.51086.0 00.5108-.5108v-2.5541h-1.0216v1.3209l-1.8318-1.8317 1.8318-1.8317v1.3209h1.0216v-2.554a.51086.51086.0 00-.5108-.51086z" color="#000" color-rendering="auto" dominant-baseline="auto" fill="#678ee6" image-rendering="auto" shape-rendering="auto" solid-color="#000000" style="font-feature-settings:normal;font-variant-alternates:normal;font-variant-caps:normal;font-variant-ligatures:normal;font-variant-numeric:normal;font-variant-position:normal;isolation:auto;mix-blend-mode:normal;shape-padding:0;text-decoration-color:#000;text-decoration-line:none;text-decoration-style:solid;text-indent:0;text-orientation:mixed;text-transform:none;white-space:normal"/><path d="m-181.01 61.869a2.3581 2.3581.0 00-2.3489 2.1831 2.358 2.358.0 00-1.5812-.61106 2.358 2.358.0 00-2.3581 2.358 2.358 2.358.0 001.572 2.22v1.7101c0 .43546.35057.78602.78603.78602h4.7161c.43549.0.78605-.35057.78605-.78602v-.78602l2.358 1.572v-4.7161l-2.358 1.5721v-1.3909a2.3581 2.3581.0 00.786-1.7532 2.3581 2.3581.0 00-2.358-2.358z" fill="url(#a)"/><path d="m-241.09 54.182v1.6444l-.75864-.50646-.58231.87347 1.5747 1.0498a.52496.52496.0 00.58231.0l1.5747-1.0498-.58232-.87347-.75866.50646V54.182zm-.78734 4.1993c-.4362.0-.78737.35115-.78737.78734v.78737h-1.0498v1.0498h6.2989v-1.0498h-1.0498v-.78737c0-.43619-.35117-.78734-.78737-.78734z" fill="#678ee6"/><path d="m-198.39 34.435c-.5816.0-1.0498.46822-1.0498 1.0498v1.0498h-.5249v1.0498h.5249v2.6245a1.0498 1.0498.0 00.5249.90732v.66739h1.0498v-.66638a1.0498 1.0498.0 00.5249-.90834v-2.6245h.52492v-1.0498h-.52492v-1.0498c0-.5816-.46822-1.0498-1.0498-1.0498zm-.52492 3.1494h1.0498v2.6245a.52491.52491.0 01-.5249.52492.52491.52491.0 01-.52492-.52492z" fill="#f88886"/><path transform="matrix(.26458 0 0 .26458 -270.27 26.214)" d="m220.04 24.355a2.1356 2.1356.0 00-1.5098.62695l-8.541 8.541a2.1356 2.1356.0 000 3.0195l8.541 8.541a2.1356 2.1356.0 001.5098.62695h17.084a2.1356 2.1356.0 002.1348-2.1367v-17.082a2.1356 2.1356.0 00-2.1348-2.1367H220.04zm-2.1348 8.543a2.1354 2.1354.0 012.1348 2.1348 2.1354 2.1354.0 01-2.1348 2.1348 2.1354 2.1354.0 01-2.1348-2.1348 2.1354 2.1354.0 012.1348-2.1348zm212.4 80.467-10.08 10.08 1.3359 1.3359 8.7441 8.7441 10.078-10.08-10.078-10.08zm0 5.3457 4.7344 4.7344-4.7344 4.7344-4.7344-4.7344 4.7344-4.7344zm-334.65 37.498-6.9082 6.9102 6.9082 6.9082 6.9102-6.9082-6.9102-6.9102zm45.377 22.682c-4.237.0-8.1569 2.2643-10.275 5.9336a1.4833 1.4833.0 00.54102 2.0273 1.4833 1.4833.0 002.0293-.54492c1.591-2.7556 4.5231-4.4492 7.7051-4.4492 3.1819.0 6.1161 1.6936 7.707 4.4492a1.4833 1.4833.0 002.0273.54492 1.4833 1.4833.0 00.54101-2.0273c-2.1185-3.6693-6.0384-5.9336-10.275-5.9336zm0 5.9336c-2.6782.0-5.0373 1.8096-5.7305 4.3965a1.4833 1.4833.0 001.0488 1.8164 1.4833 1.4833.0 001.8164-1.0488c.34923-1.304 1.5154-2.1973 2.8652-2.1973s2.5159.8933 2.8652 2.1973a1.4833 1.4833.0 001.8164 1.0488 1.4833 1.4833.0 001.0488-1.8164c-.69324-2.5869-3.0523-4.3965-5.7305-4.3965zm0 5.9316c-.8217.0-1.4824.66263-1.4824 1.4844v1.4824h-4.4492a5.9331 5.9331.0 002.9668 5.1406 5.9331 5.9331.0 005.9316.0 5.9331 5.9331.0 002.9668-5.1406h-4.4492v-1.4824c0-.82174-.66263-1.4844-1.4844-1.4844zm122.54 54.68c-1.1537.0-2.084.92837-2.084 2.082v4.166h8.3301v-4.166c0-1.1537-.92833-2.082-2.082-2.082h-4.1641zm-2.084 8.3301v14.578l4.166 6.248 4.1641-6.248v-14.578h-8.3301zm2.084 2.082h2.082v10.414h-2.082v-10.414zm140.94 155.07-10.08 10.08 1.3379 1.3359 8.7422 8.7441 10.08-10.08-10.08-10.08zm0 5.3457 4.7344 4.7344-4.7344 4.7344-4.7344-4.7344 4.7344-4.7344zm-81.266 124.65c-5.4526.0-9.8418 4.389-9.8418 9.8418v14.764c0 5.4527 4.3891 9.8418 9.8418 9.8418h14.764c5.4528.0 9.8418-4.3891 9.8418-9.8418v-14.764c0-5.4528-4.389-9.8418-9.8418-9.8418h-14.764zm-2.4609 12.303c1.3632.0 2.4609 1.0977 2.4609 2.4609v4.9199c0 1.3632-1.0978 2.4609-2.4609 2.4609-1.3632.0-2.4609-1.0977-2.4609-2.4609v-4.9199c0-1.3632 1.0977-2.4609 2.4609-2.4609zm19.686.0c1.3633.0 2.4609 1.0977 2.4609 2.4609v4.9199c0 1.3632-1.0977 2.4609-2.4609 2.4609-1.3631.0-2.4609-1.0977-2.4609-2.4609v-4.9199c0-1.3632 1.0978-2.4609 2.4609-2.4609zm-4.6484 12.566a2.4609 2.4609.0 011.7637 4.2344c-1.8451 1.8453-4.3494 2.8828-6.959 2.8828-2.6094.0-5.1137-1.0376-6.959-2.8828a2.4609 2.4609.0 011.7168-4.2246 2.4609 2.4609.0 011.7637.74609c.92345.92342 2.1724 1.4414 3.4785 1.4414 1.3062.0 2.5569-.51724 3.4805-1.4414a2.4609 2.4609.0 011.7148-.7539v-.00196z" fill="#8b6ce1"/><path d="m-176.19 32.879a.48486.48486.0 00-.48485.48483v5.8178a.48486.48486.0 00.48485.48478h1.9393v-.96965h-1.4545v-4.8481h4.3634v-.96962zm4.3633 1.4544a1.9393 1.9393.0 00-1.9393 1.9393 1.9393 1.9393.0 00.96965 1.677v.26228c0 .2686.21622.48479.48482.48479h.96963c.26857.0.48481-.21619.48481-.48479v-.26228a1.9393 1.9393.0 00.96963-1.677 1.9393 1.9393.0 00-1.9393-1.9393zm0 .96963a.96964.96964.0 01.96963.96965.96964.96964.0 01-.96963.9696.96964.96964.0 01-.96963-.9696.96964.96964.0 01.96963-.96965zm-.48481 3.8786v.48478h.96963v-.48478z" fill="url(#e)"/><path d="m-194.81 45.679-4.1421 2.071v5.5228l4.1421 2.0711 4.1421-2.0711v-1.3807l-1.3807-.69033-2.7614 1.3807-1.3807-.69034v-2.7614l1.3807-.69037v-1.3807l1.3807-.69037zm2.7614 1.3807-1.3807.69032v1.3807l1.3807.69032 1.3807-.69032v-1.3807z" fill="#f78" fill-opacity=".95294"/><path d="m-185.35 32.011c-1.2293.0-2.7842.93647-3.3441 2.7431a.48086.48086.0 00-.004.2742c.54063 1.8922 2.1449 2.7524 3.3469 2.7524s2.8063-.86028 3.3469-2.7524a.48086.48086.0 000-.26577c-.52908-1.8211-2.1187-2.7515-3.3469-2.7515zm0 .96163a1.9232 1.9232.0 011.9232 1.9232 1.9232 1.9232.0 01-1.9232 1.9232 1.9232 1.9232.0 01-1.9232-1.9232 1.9232 1.9232.0 011.9232-1.9232zm0 .9616a.96162.96162.0 00-.96164.96162.96162.96162.0 00.96164.96162.96162.96162.0 00.96159-.96162.96162.96162.0 00-.96159-.96162z" color="#000" color-rendering="auto" fill="#678ee6" fill-rule="evenodd" image-rendering="auto" shape-rendering="auto" solid-color="#000000" style="isolation:auto;mix-blend-mode:normal;text-decoration-color:#000;text-decoration-line:none;text-decoration-style:solid;text-indent:0;text-transform:none;white-space:normal"/><path d="m-183.08 76.16a.86082.86082.0 00-.86083.86081.86082.86082.0 00.43042.74482v4.4201h.86082v-4.4209a.86082.86082.0 00.3144-.31358h1.9545a.86082.86082.0 00.31355.3144v1.4072h-.86081v.86084l-.43042.86081 1.2912.86084v-1.7216h.86083v1.7216l1.2912-.86084-.43041-.86081v-.86084h-.86083v-1.4081a.86082.86082.0 00.43041-.744.86082.86082.0 00-.86081-.86081.86082.86082.0 00-.74483.43042h-1.9545a.86082.86082.0 00-.74397-.43042z" color="#000" color-rendering="auto" dominant-baseline="auto" fill="#70e1dd" fill-rule="evenodd" image-rendering="auto" shape-rendering="auto" solid-color="#000000" style="font-feature-settings:normal;font-variant-alternates:normal;font-variant-caps:normal;font-variant-ligatures:normal;font-variant-numeric:normal;font-variant-position:normal;isolation:auto;mix-blend-mode:normal;shape-padding:0;text-decoration-color:#000;text-decoration-line:none;text-decoration-style:solid;text-indent:0;text-orientation:mixed;text-transform:none;white-space:normal"/><path d="m-203.49 149.42v7.5391c0 1.4585 1.1968 2.6505 2.666 2.6505h4.7832c.91803.0 1.6526.73406 1.6526 1.6521s-.73458 1.6506-1.6526 1.6506h-18.297c-1.4585.0-2.6526 1.1936-2.6526 2.652v2.0112h-8.833c-.69692 6e-5-1.2619.56553-1.2619 1.2624v10.096c4e-5.69695.56502 1.2619 1.2619 1.2619h17.667c.69693-2e-5 1.2619-.56499 1.2619-1.2619v-10.096c-4e-5-.69692-.565-1.2624-1.2619-1.2624h-7.8342v-2.0112c0-.91804.73458-1.6521 1.6526-1.6521h18.297c1.4585.0 2.6526-1.192 2.6526-2.6505s-1.1941-2.652-2.6526-2.652h-4.7832c-.93492-2e-5-1.666-.73252-1.666-1.6506V149.42zm-19.809 20.68h2.5239v2.5239h2.5239v2.5239h-2.5239v2.5239h-2.5239v-2.5239h-2.5239v-2.5239h2.5239zm13.25.0a1.8929 1.8929.0 011.8929 1.8929 1.8929 1.8929.0 01-1.8929 1.8929 1.8929 1.8929.0 01-1.8929-1.8929 1.8929 1.8929.0 011.8929-1.8929zm-3.7858 3.7858a1.8929 1.8929.0 011.8929 1.8929 1.8929 1.8929.0 01-1.8929 1.8929 1.8929 1.8929.0 01-1.8929-1.8929 1.8929 1.8929.0 011.8929-1.8929z" color="#000" color-rendering="auto" fill="url(#d)" fill-rule="evenodd" image-rendering="auto" shape-rendering="auto" solid-color="#000000" style="isolation:auto;mix-blend-mode:normal;text-decoration-color:#000;text-decoration-line:none;text-decoration-style:solid;text-indent:0;text-transform:none;white-space:normal"/><path d="m-209.45 64.909c-.32725.0-.59068.26344-.59068.59067v1.772c0 .32723.26343.59064.59068.59064h.59065v.58489a.59072.59072.0 00-.18686.03657l-1.2113.40377-.40379-1.2113a.59072.59072.0 00-.58488-.4118.59072.59072.0 00-.53641.78444l.59064 1.772a.59072.59072.0 00.74754.37377l.99446-.33106v.36106c0 .02408.0112.0449.0135.06807l-2.7041 1.8032a.59072.59072.0 10.65526.98288l2.9868-1.9912.88251 1.7639a.59072.59072.0 00.71524.29647l1.772-.59069a.59072.59072.0 10-.37376-1.1202l-1.2863.42799-.57565-1.1524c.16296-.10499.27686-.27896.27686-.48802v-.59064h.81677l.42684.85485a.59075.59075.0 101.0567-.52841l-.59068-1.1813a.59072.59072.0 00-.52834-.32648h-1.772v-.59064h.59064c.32723.0.59066-.26346.59066-.59069v-1.772c0-.32722-.26343-.59066-.59066-.59066zm0 1.1813h.59065v1.1813h-.59065z" fill="url(#a)"/><path d="m-222.17 36.005a1.7826 1.7826.0 00-1.5438.89132 1.7826 1.7826.0 000 1.7826 1.7826 1.7826.0 001.5438.89132h.35651v-.71304h-.35651a1.0696 1.0696.0 01-1.0696-1.0696 1.0696 1.0696.0 011.0696-1.0696h.35651v-.71306zm1.0696.0v.71306h.35652a1.0696 1.0696.0 011.0696 1.0696 1.0696 1.0696.0 01-1.0696 1.0696h-.35652v.71304h.35652a1.7826 1.7826.0 001.5438-.89132 1.7826 1.7826.0 000-1.7826 1.7826 1.7826.0 00-1.5438-.89132zm-1.0696 1.4261a.35652.35652.0 00-.35652.35654.35652.35652.0 00.35652.35652h1.4261a.35652.35652.0 00.35654-.35652.35652.35652.0 00-.35654-.35654z" fill="#678ee6"/><path d="m-172.53 56.922a1.0498 1.0498.0 00-1.0498 1.0498 1.0498 1.0498.0 00.52493.90835v3.4334a1.0498 1.0498.0 00-.52493.9073 1.0498 1.0498.0 001.0498 1.0498 1.0498 1.0498.0 00.90832-.5249h1.3164l.39368-1.0498h-1.7111a1.0498 1.0498.0 00-.38241-.38344v-3.0736l2.4656 2.4656.40494-1.0796-2.1283-2.1283h3.0746a1.0498 1.0498.0 00.3824.38343v.14245a1.0499 1.0499.0 01.0125.0 1.0499 1.0499.0 01.97087.68073l.0666.17736v-1.0017a1.0498 1.0498.0 00.5249-.90731 1.0498 1.0498.0 00-1.0498-1.0498 1.0498 1.0498.0 00-.90831.52492h-3.4334a1.0498 1.0498.0 00-.90732-.52492zm4.7242 3.1494-1.5747 4.1992 1.5747-1.0498 1.5747 1.0498z" fill="#f67587"/><path d="m-208.51 52.946a.52496.52496.0 00-.52492.45931l-.30961 2.4789-.27475-.54952a.52496.52496.0 00-.46955-.29011h-1.0498a.52496.52496.0 100 1.0498h.72584l.90424 1.8095a.52496.52496.0 00.99034-.16921l.30963-2.479.27475.54849a.52496.52496.0 00.46955.29012h1.5747a.52496.52496.0 100-1.0498h-1.2497l-.90525-1.8095a.52496.52496.0 00-.46544-.28912zm1.0385 3.6733v3.6743h2.6245c.28989.0.5249-.23501.5249-.5249v-2.6245c0-.2899-.23501-.5249-.5249-.5249v2.0996l-.52492-.52491-.5249.52491v-2.0996z" fill="#f98f87"/><path d="m-185.12 52.468c-.28989.0-.5249.23501-.5249.52492v4.7682c21e-5.2656.23515.48083.5249.48083h4.1992c.28976.0.52471-.21523.52491-.48083v-4.7682c0-.28991-.235-.52492-.52491-.52492zm-1.5747 1.0498v4.7241a1.0498 1.0498.0 001.0498 1.0498h5.249a1.0498 1.0498.0 001.0498-1.0498v-4.7241h-.5249v4.7241a.5249.5249.0 01-.52491.52491h-5.249a.52491.52491.0 01-.5249-.52491v-4.7241zm3.1494.0h1.5747l-.52491 1.5747h1.0498l-2.0996 2.0996.52492-1.5747h-1.0498z" fill="#7597f6"/><path d="m-221.72 56.51a2.9733 2.9733.0 00-2.9732 2.9732 2.9733 2.9733.0 001.4866 2.5668v2.6365a1.4866 1.4866.0 00.74332 1.2877 1.4866 1.4866.0 00.74331.1975h2.9732a1.4866 1.4866.0 00.74334-.1975 1.4866 1.4866.0 00.74329-1.2877V62.05a2.9733 2.9733.0 001.4867-2.5668 2.9733 2.9733.0 00-2.9733-2.9732zm-.74331 2.2299a.74333.74333.0 01.74331.74331.74333.74333.0 01-.74331.74334.74333.74333.0 01-.74332-.74334.74333.74333.0 01.74332-.74331zm4.4599.0a.74333.74333.0 01.74329.74331.74333.74333.0 01-.74329.74334.74333.74333.0 01-.74334-.74334.74333.74333.0 01.74334-.74331zm-2.9733 1.4866h1.4866v.74331h-1.4866zm-1.4866 1.4866h.74331v.74334h.7433v-.74334h1.4866v.74334h.74331v-.74334h.74334v2.9733h-.74334v-.74332h-.74331v.74332h-1.4866v-.74332h-.7433v.74332h-.74331v-2.3273z" fill="url(#a)"/><path d="m-232.86 40.397a.63523.63523.0 00-.63521.63522.63523.63523.0 00.63521.63526c2.8142.0 5.0818 2.2677 5.0818 5.0818a.63523.63523.0 00.63522.63526.63523.63523.0 00.63523-.63526c0-3.5007-2.8515-6.3523-6.3523-6.3523zm0 2.5409a.63523.63523.0 00-.63521.63525.63523.63523.0 00.63521.63522c1.4108.0 2.5409 1.1301 2.5409 2.5409a.63523.63523.0 00.63525.63526.63523.63523.0 00.63523-.63526c0-2.0974-1.714-3.8113-3.8114-3.8113zm0 2.5409a1.2705 1.2705.0 00-1.2704 1.2704 1.2705 1.2705.0 001.2704 1.2705 1.2705 1.2705.0 001.2705-1.2705 1.2705 1.2705.0 00-1.2705-1.2704z" fill="#678ee6"/><path d="m-171.89 43.562a.55003.55003.0 00-.55003.55004v2.0315c-.98243.47636-1.6501 1.3534-1.6501 2.3688h2.2001a1.1001 1.1001.0 001.1001 1.1 1.1001 1.1001.0 001.1-1.1h2.2001c0-1.0154-.66766-1.8924-1.6501-2.3688v-2.0315a.55003.55003.0 00-.55004-.55004zm-.60374 5.2995-.95289.55002.55003.95181.95289-.55002zm3.4076.0-.55005.95181.95289.55002.55005-.95181zm-2.2539 1.301v1.1001h1.1001v-1.1001z" fill="url(#a)"/><path d="m-198.16 73.008c-2.1546.0-3.8892 1.7346-3.8892 3.8893v5.8339c0 2.1547 1.7346 3.8893 3.8892 3.8893h5.8339c2.1547.0 3.8892-1.7346 3.8892-3.8893v-5.8339c0-2.1547-1.7346-3.8893-3.8892-3.8893zm-.97228 4.8616c.53867.0.97228.43366.97228.97232v1.9446c0 .53865-.43361.97234-.97228.97234s-.97235-.43369-.97235-.97234v-1.9446c0-.53867.43368-.97232.97235-.97232zm7.7785.0c.53869.0.97237.43366.97237.97232v1.9446c0 .53865-.43368.97234-.97237.97234-.53864.0-.97229-.43369-.97229-.97234v-1.9446c0-.53867.43365-.97232.97229-.97232zm-1.8364 4.966a.97241.97241.0 01.69695 1.673c-.7291.72918-1.7186 1.1394-2.7498 1.1394-1.0311.0-2.0207-.41028-2.7498-1.1394a.97241.97241.0 01.67802-1.6692.97241.97241.0 01.69694.29436c.3649.3649.85876.56977 1.3749.56977.51615.0 1.01-.20456 1.3749-.56977a.97241.97241.0 01.67793-.29803z" fill="url(#a)"/><path d="m-172.81 70.931a.43141.43141.0 00-.16682.03378.43141.43141.0 00-82e-5.0c-82e-5 411e-6-.002 822e-6-.003.0016a.43141.43141.0 00-.13401.09016c-44e-5 411e-6-.002 822e-6-.002.0016a.43141.43141.0 00-.0885.13141c-.002.0033-.003.0049-.005.0082a.43141.43141.0 00-.0329.16429c0 .64704.41713 1.1322.80798 1.5789.3282.37508.61086.70854.80882 1.0093-.19794.30084-.4806.63509-.80882 1.0102-.39085.44668-.80798.93098-.80798 1.578a.43141.43141.0 00.0338.16768v821e-6c44e-5 822e-6.002.0016.002.0033a.43141.43141.0 00.0902.13223c44e-5 413e-6.002.0016.002.0033a.43141.43141.0 00.12978.08752c.003.0016.008.0033.0114.0049a.43141.43141.0 00.16255.03279h4.3137a.43141.43141.0 00.16173-.03189c.005-.0016.008-.0033.0131-.0058a.43141.43141.0 00.12635-.08595c.002-.0016.003-.0033.007-.0058a.43141.43141.0 00.0867-.12717c.002-.0033.003-.0082.005-.01142a.43141.43141.0 00.0329-.16254c0-.64704-.4171-1.1314-.80796-1.5781-.32823-.37506-.61087-.70934-.80884-1.0102.19797-.30079.48065-.63425.80884-1.0093.39086-.4467.80796-.93184.80796-1.5789a.43141.43141.0 00-.0338-.16849.43141.43141.0 00-.0926-.13647.43141.43141.0 00-.13402-.09095.43141.43141.0 00-.005-.0033.43141.43141.0 00-.16597-.03296zm.68498.86276h2.9438c-.10255.19014-.13173.34044-.34037.57879-.36405.41607-.81888.85083-1.086 1.3851a.43141.43141.0 00-.0454.19292.43141.43141.0 00-.0455-.19292c-.26714-.5343-.72197-.96905-1.086-1.3851-.20859-.23837-.23779-.38865-.34038-.57879z" fill="#708ee1"/><path d="m-183.64 41.906-.41585.83171.41585.83169v1.6634h-.83169v1.4555c0 .57593.46367 1.0396 1.0396 1.0396.57594.0 1.0396-.46367 1.0396-1.0396v-1.4555h-.8317v-1.6634l.41585-.83169-.41585-.83171zm2.4951.07233a1.2476 1.2476.0 00-.8317 1.1753 1.2476 1.2476.0 00.8317 1.1753v2.9832c0 .2304.18548.41589.41586.41589s.41583-.18549.41583-.41589v-2.984a1.2476 1.2476.0 00.83172-1.1744 1.2476 1.2476.0 00-.83172-1.1745v1.1745a.41585.41585.0 01-.41583.41583.41585.41585.0 01-.41586-.41583z" fill="#f67587"/><path d="m-209.98 96.402v3.6299c2e-5.15423.12502.27921.27923.27923h3.6299v-.55843h-3.3506v-1.6753h.55844v.83766c1e-5.1542.12502.27919.27922.2792h2.513v-.55843h-2.2338v-.55844h2.2338v-.55846h-3.3506v-.55842h3.3506v-.55845z" fill="#fca386"/><path d="m-160.86 64.884a.52491.52491.0 00-.5249.52493l-.52492 1.5747h-1.0498v2.0996h.55156c.12162-.59898.65076-1.0498 1.2856-1.0498.63485.0 1.164.45084 1.2856 1.0498h1.1031c.12162-.59898.65076-1.0498 1.2856-1.0498s1.164.45084 1.2856 1.0498h.55156v-2.0996h-2.0996v-2.0996zm.52489.52493h2.0996v1.5747h-2.0996zm-.78735 3.1494a.78736.78736.0 00-.78736.78735.78736.78736.0 00.78736.78736.78736.78736.0 00.78736-.78736.78736.78736.0 00-.78736-.78735zm3.6743.0a.78736.78736.0 00-.78735.78735.78736.78736.0 00.78735.78736.78736.78736.0 00.78737-.78736.78736.78736.0 00-.78737-.78735z" fill="#678ee6"/><path d="m-220.97 85.684v2.1133h.70443V85.684zm-1.4089.70444c-.90053.0-2.0396.686-2.4497 2.0094a.35225.35225.0 00-.002.20086c.39603 1.3861 1.5712 2.0163 2.4518 2.0163.52503.0 1.1523-.22969 1.6593-.70443h-.95484v-.19055a1.4089 1.4089.0 01-.70442.19055 1.4089 1.4089.0 01-1.4089-1.4089 1.4089 1.4089.0 011.4089-1.4089 1.4089 1.4089.0 01.70442.19055v-.76841c-.24061-.084-.48056-.12659-.70442-.12659zm0 1.4089a.70443.70443.0 00-.70443.70443.70443.70443.0 00.70443.70445.70443.70443.0 00.70442-.70445.70443.70443.0 00-.70442-.70443zm1.4089.70443v.70445h.70443v-.70445z" color="#000" color-rendering="auto" fill="#78e5f6" fill-rule="evenodd" image-rendering="auto" shape-rendering="auto" solid-color="#000000" style="isolation:auto;mix-blend-mode:normal;text-decoration-color:#000;text-decoration-line:none;text-decoration-style:solid;text-indent:0;text-transform:none;white-space:normal"/><g transform="matrix(.67004 0 0 .67004 -215.23 -612.8)" fill="#678ee6"><path transform="translate(0 1036.4)" d="m7.9824 1a1.0001 1.0001.0 00-.81445.44531l-4.7012 7.0527c-.80117.58197-1.3801 1.3563-1.4492 2.3145a1.0001 1.0001.0 00-.017578.1875c0 .21449.033976.41628.082031.61328.0072.02831.015306.05597.023438.08399.053631.19149.1274.37452.2207.54883.19678.36764.47105.69651.80273.98633.00799.007.013443.01647.021484.02344.016953.01468.03747.02653.054687.04102.10299.08611.21259.16531.32422.24414.23883.16992.49083.33075.76953.4707.00253.0013.00528.0026.00781.0039.00131 658e-6.00259.0013.00391.002.00858.0043.018732.0075.027344.01172.26499.13103.55174.24596.84961.35156.10487.03763.21202.07115.32031.10547.072945.0229.1402.05072.21484.07227.16777.04843.34161.08638.51367.12695.093562.02191.18185.04875.27734.06836.010733.0022.022447.0037.033203.0059.34623.07118.69974.12196 1.0566.16211.057889.0062.11544.01213.17383.01758.81052.0795 1.6348.0795 2.4453.0.058387-.0054.11594-.01135.17383-.01758.3569-.04015.71041-.09093 1.0566-.16211.01095-.0023.02227-.0036.0332-.0059.09549-.01961.18378-.04645.27734-.06836.17206-.04057.3459-.07852.51367-.12695.07464-.02155.1419-.04936.21484-.07227.10829-.03432.21544-.06784.32031-.10547.29787-.1056.58462-.22053.84961-.35156.01-.0049.02135-.0087.03125-.01367l.0078-.0039c.2787-.13995.5307-.30078.76953-.4707.11163-.07883.22123-.15803.32422-.24414.01722-.01448.03773-.02634.05469-.04102.008-.007.0135-.01641.02149-.02344.33169-.28982.60596-.61869.80273-.98633.0933-.17431.16707-.35733.2207-.54883.0081-.02801.01624-.05567.02344-.08399.04806-.19705.082036-.39884.082036-.61333a1.0001 1.0001.0 00-.01758-.18164 1.0001 1.0001.0 00-.002-.01758c-.073032-.95264-.64936-1.7232-1.4472-2.3027l-4.7012-7.0527a1.0001 1.0001.0 00-.84961-.44531zm-.98242 4.3027v1.7461c-.43911.033461-.86366.087835-1.2734.16406zm2 0 1.2734 1.9102c-.40978-.076228-.83432-.1306-1.2734-.16406zm-2 3.748v1.9492a1.0001 1.0001.0 102 0V9.0507c1.1126.10487 2.0951.37277 2.7949.72266.12146.060728.20622.12218.30664.18359l.80078 1.2012c-.03296.14677-.08965.30658-.30469.51758-.05146.04915-.10034.09814-.16406.14844-.04519.03531-.09137.07015-.14258.10547-.11245.07827-.24511.15838-.39062.23633-.07543.0402-.1553.07837-.23828.11719-.16195.07548-.33452.14662-.52148.21289-.07059.02532-.14454.04841-.21875.07226-.23425.07447-.48077.14392-.74414.20117-.02134.0046-.04104.01119-.0625.01563-.2559.05368-.53101.09052-.80859.125-.856.10229-1.7573.10229-2.6133.0-.27759-.03448-.5527-.07132-.80859-.125-.021462-.0044-.041156-.01105-.0625-.01563-.26337-.057249-.50989-.12669-.74414-.20117-.074211-.023856-.14816-.046941-.21875-.072265-.18697-.066266-.35954-.13741-.52148-.21289-.082979-.038816-.16285-.076983-.23828-.11719-.14552-.077951-.27818-.15806-.39062-.23633-.051205-.035321-.097386-.070157-.14258-.10547-.06372-.050301-.1126-.099289-.16406-.14844-.21503-.21099-.27173-.37081-.30469-.51758l.80078-1.2012c.10043-.061415.18518-.12287.30664-.18359.69978-.34989 1.6823-.61778 2.7949-.72266z" color="#000" color-rendering="auto" dominant-baseline="auto" fill="#678ee6" image-rendering="auto" shape-rendering="auto" solid-color="#000000" style="font-feature-settings:normal;font-variant-alternates:normal;font-variant-caps:normal;font-variant-ligatures:normal;font-variant-numeric:normal;font-variant-position:normal;isolation:auto;mix-blend-mode:normal;shape-padding:0;text-decoration-color:#000;text-decoration-line:none;text-decoration-style:solid;text-indent:0;text-orientation:mixed;text-transform:none;white-space:normal"/></g><g transform="matrix(.77733 0 0 .77733 -32.275 -728.13)" fill="#f57389"><path d="m-238.8 1029.6c-.0833.0-.16593.014-.24609.037l-7 2c-.42881.1229-.7244.5149-.72461.961v5.5507c-.16454-.034-.33205-.051-.5-.051-1.3807.0-2.5 1.1192-2.5 2.5-1e-5 1.3807 1.1193 2.5 2.5 2.5 1.3456.0 2.4488-1.0674 2.4961-2.4122.003-.029.004-.059.004-.088v-7.2442l5-1.4277v3.1719l2-1v-3.5c-92e-5-.5632-.4664-1.0145-1.0293-.9981zm-1.4707 6.9981c-.277.0-.5.223-.5.5v5c0 .277.223.5.5.5s.5-.223.5-.5v-5c0-.277-.223-.5-.5-.5zm2 1c-.277.0-.5.223-.5.5v3c0 .277.223.5.5.5s.5-.223.5-.5v-3c0-.277-.223-.5-.5-.5zm-4 1c-.277.0-.5.223-.5.5v1c0 .277.223.5.5.5s.5-.223.5-.5v-1c0-.277-.223-.5-.5-.5zm6 0c-.277.0-.5.223-.5.5v1c0 .277.223.5.5.5s.5-.223.5-.5v-1c0-.277-.223-.5-.5-.5z" color="#000" color-rendering="auto" dominant-baseline="auto" fill="#f57389" image-rendering="auto" shape-rendering="auto" solid-color="#000000" style="font-feature-settings:normal;font-variant-alternates:normal;font-variant-caps:normal;font-variant-ligatures:normal;font-variant-numeric:normal;font-variant-position:normal;isolation:auto;mix-blend-mode:normal;shape-padding:0;text-decoration-color:#000;text-decoration-line:none;text-decoration-style:solid;text-indent:0;text-orientation:mixed;text-transform:none;white-space:normal"/></g><path d="m-217.41 92.488a.3725.3725.0 00-.15276.03852l-2.2348 1.1174a.3725.3725.0 00-.20587.33318v2.2348a.3725.3725.0 00.20587.33317l2.2348 1.1174a.3725.3725.0 00.33317.0l2.2348-1.1174a.3725.3725.0 00.20587-.33317v-2.2348a.3725.3725.0 00-.20587-.33318l-2.2348-1.1174a.3725.3725.0 00-.18041-.03852zm.0139.78857 1.4018.70055-.51431.25751-1.4018-.70127zm-1.8623 1.3036 1.4898.74491v1.4018l-1.4898-.74491zm3.7246.0v1.4018l-1.4899.74491v-1.4018z" color="#000" color-rendering="auto" fill="url(#a)" fill-rule="evenodd" image-rendering="auto" shape-rendering="auto" solid-color="#000000" style="isolation:auto;mix-blend-mode:normal;text-decoration-color:#000;text-decoration-line:none;text-decoration-style:solid;text-indent:0;text-transform:none;white-space:normal"/><path d="m-231.35 51.201v1.5747h1.0498V51.201zm-1.3307 1.0765-.74224.74225.74224.74224.74224-.74224zm3.7112.0-.74224.74225.74224.74224.74224-.74224zm-1.8556 1.0232c-.86968.0-1.5747.70504-1.5747 1.5747s.70502 1.5747 1.5747 1.5747c.86969.0 1.5747-.70504 1.5747-1.5747.0-.86965-.70501-1.5747-1.5747-1.5747zm-3.6743 1.0498v1.0498h1.5747v-1.0498zm5.7739.0v1.0498h1.5747v-1.0498zm-3.9552 1.6382-.74224.74226.74224.74224.74224-.74224zm3.7112.0-.74224.74226.74224.74224.74224-.74224zm-2.3805.98625v1.5747h1.0498v-1.5747z" fill="#f88a86"/><rect transform="rotate(-45)" x="-229.95" y="-102.27" width="4.0819" height="4.0819" ry="0" fill="#678ee6"/><rect transform="rotate(-45)" x="-193.57" y="-64.993" width="2.211" height="2.211" ry="0" fill="#678ee6"/><rect transform="rotate(-45)" x="-171.29" y="-61.773" width="4.4561" height="4.4561" ry="0" fill="#78e5f6"/><path d="m-245.42 78.442.35355.35355 3.0011 3.0011 3.3546-3.3546-3.3546-3.3546zm1.4142.0 1.9404-1.9404 1.9404 1.9404-1.9404 1.9404z" color="#000" color-rendering="auto" dominant-baseline="auto" fill="#f57389" image-rendering="auto" shape-rendering="auto" solid-color="#000000" style="font-feature-settings:normal;font-variant-alternates:normal;font-variant-caps:normal;font-variant-ligatures:normal;font-variant-numeric:normal;font-variant-position:normal;isolation:auto;mix-blend-mode:normal;shape-padding:0;text-decoration-color:#000;text-decoration-line:none;text-decoration-style:solid;text-indent:0;text-orientation:mixed;text-transform:none;white-space:normal"/><rect transform="rotate(-45)" x="-217.37" y="-140.39" width="4.4561" height="4.4561" ry="0" fill="#f6aa78"/><rect transform="rotate(-45)" x="-226.14" y="-131.67" width="1.593" height="1.593" ry="0" fill="#78e5f6"/><rect transform="rotate(-45)" x="-184" y="-64.684" width="2.6079" height="2.6079" ry="0" fill="#f67587"/><rect transform="rotate(-45)" x="-202.03" y="-149.65" width="2.5852" height="2.5852" ry="0" fill="#fa9186"/><rect transform="rotate(-45)" x="-141.39" y="-83.892" width="2.211" height="2.211" ry="0" fill="#f57389"/><rect transform="rotate(-45)" x="-227.48" y="-116.54" width="1.6892" height="1.6892" ry="0" fill="#70e1dd"/><rect transform="rotate(-45)" x="-194.06" y="-59.106" width="1.3304" height="1.3304" ry="0" fill="#676ce6"/><rect transform="rotate(-45)" x="-149.24" y="-81.816" width="3.24" height="3.24" ry="0" fill="#f6aa78"/><rect transform="rotate(-45)" x="-141.35" y="-91.706" width="2.211" height="2.211" ry="0" fill="none" stroke="#708ee1" stroke-dashoffset="10" stroke-linecap="round"/><rect transform="rotate(-45)" x="-165.99" y="-106.25" width="2.211" height="2.211" ry="0" fill="#78e5f6"/><rect transform="rotate(-45)" x="-267.6" y="-92.832" width="1.6892" height="1.6892" ry="0" fill="#78e5f6"/><rect transform="rotate(-45)" x="-272.43" y="-84.446" width="3.1444" height="3.1444" ry="0" fill="#f57389"/><rect transform="rotate(-45)" x="-204.23" y="-16.07" width="4.454" height="4.454" ry="0" fill="#f57389"/><path d="m-216.99 104.27v3.4375l4.3827 4.8235h-13.069l1.5844-2.6422-2.2639-2.2639-3.1921 1.9136c-.35405-.17912-.72093-.33162-1.0976-.45631l-.90021-3.6086h-3.2019l-.90382 3.6142c-.37853.12138-.74748.27079-1.1038.447l-3.1828-1.91-2.2634 2.2639 1.9136 3.1921c-.1791.35405-.33162.72093-.4563 1.0976l-3.608.90021v3.2019l3.6142.9033c.12153.37747.27094.74538.447 1.1007l-1.91 3.1858 2.2634 2.264 1.9436-1.1653v7.0337h-1.8237c-2.5037.0-4.5351 2.0314-4.5351 4.5351v2.5135c0 2.5037 2.0314 4.533 4.5351 4.533h1.8237v1.7064c0 1.8097 1.4568 3.2665 3.2665 3.2665h24.846v5.4064l13.19-2.1983v-3.2081h24.846c1.8097.0 3.267-1.4568 3.267-3.2665v-16.311h6.7427c3.1999.0 5.7929-2.5909 5.7929-5.7909.0-3.1999-2.593-5.7929-5.7929-5.7929h-6.7427v-1.1984c0-1.8097-1.4573-3.2665-3.267-3.2665h-4.8255v-1.5828h-4.2333v1.5828h-2.6458v-1.5828h-4.2333v1.5828h-8.3147l4.3827-4.8235V104.27zm10.052 2.8174h11.179c.67866-.0121.67866 1.0121.0.99994h-11.179c-.67867.0121-.67867-1.0121.0-.99994zm-26.615 5.6973c2.0323 1e-4 3.6798 1.6476 3.6799 3.6799 19e-5 2.0325-1.6474 3.6803-3.6799 3.6804-2.0325-9e-5-3.6801-1.6479-3.6799-3.6804 1e-4-2.0323 1.6476-3.6798 3.6799-3.6799zm0 .7984c-1.5914 4e-5-2.8814 1.2901-2.8815 2.8815 5e-5 1.5914 1.2901 2.8814 2.8815 2.8815 1.5914-4e-5 2.8814-1.2901 2.8815-2.8815-4e-5-1.5914-1.2901-2.8814-2.8815-2.8815zm0 .5209c1.3037 11e-5 2.3605 1.0569 2.3606 2.3606 17e-5 1.3039-1.0567 2.361-2.3606 2.3611-1.3039-11e-5-2.3608-1.0572-2.3606-2.3611 12e-5-1.3037 1.0569-2.3605 2.3606-2.3606zm64.974 3.8918h6.7427c2.6632.0 4.793 2.1298 4.793 4.793s-2.1298 4.7909-4.793 4.7909h-6.7427v-1.064c.0627.003.12462.009.1881.009h6.4978c2.0616.0 3.7362-1.6746 3.7362-3.7362s-1.6746-3.7367-3.7362-3.7367h-6.4978c-.0635.0-.12541.006-.1881.009zm-40.95.90279.54881.0765.4687.0176-.002.045.0641.01.49455.0682-.13488.99064-.49609-.0687-.46871-.0646h-.4749v-.0191l-.51935-.0196-.50023-.0196.0393-.99788.50023.0176.48008.0196zm-4.1388.51624.3514.93535-.46664.17776-.93586.35141-.46871.17776-.35346-.93534.4687-.17777.93534-.3514zm8.6775.27906.49196.0899.98444.17777.49248.0879-.17777.98444-.49248-.0879-.98392-.17777-.49247-.0899zm36.6.35863h6.4978c1.5249.0 2.7363 1.2114 2.7363 2.7363s-1.2114 2.7363-2.7363 2.7363h-6.4978c-.0635.0-.12571-.005-.1881-.009v-5.4539c.0624-.004.12455-.009.1881-.009zm-31.68.53227.49196.0879.98443.17777.49196.0894-.17776.98443-.49196-.0894-.98444-.17776-.49196-.0884zm4.9217.88832.49041.0899.98444.17777.49196.0878-.17777.98444-.49196-.0879-.98444-.17777-.49247-.0899zm-23.061.39842.68006.73433-.36948.34002-.47077.4315-.004.006-.20516.22635-.33383.3731-.74414-.66818.33383-.3731.20671-.23203.016-.0176.0176-.016.50591-.46663zm27.981.49248.49195.0879.98237.17777.49248.0894-.17777.98443-.49247-.0894-.98237-.17776-.49196-.0899zm-20.336.54105 2.4407.21601.44287 2.8112c.27864.12057.54793.26169.80563.42219l2.5626-1.2433 1.5725 1.8784-1.6712 2.2996c.11027.28256.19939.57292.26665.86868l2.6939.93276-.21601 2.4407-2.8112.44286c-.12041.27862-.26136.54791-.42168.80564l1.2433 2.5626-1.8784 1.5725-2.2996-1.6712c-.28256.11027-.57292.1994-.86868.26665l-.93276 2.6939-2.4407-.216-.44287-2.8112c-.27863-.12057-.54792-.26169-.80563-.4222l-2.5626 1.2433-1.5725-1.8784 1.6712-2.2991c-.1103-.28273-.19943-.57326-.26665-.8692l-2.6939-.93276.21601-2.4407 2.8112-.44287c.1204-.27862.26135-.54791.42168-.80563l-1.2433-2.5621 1.8784-1.573 2.297 1.6712c.28357-.11041.57497-.19954.87178-.26665zm25.255.34727.49248.0879.98443.17983.49196.0879-.17983.98444-.48989-.0899-.98444-.17777-.49248-.0878zm4.9025.87488.49403.0703.20102.0274.0258.004.0253.006.77308.18914.48628.11937-.23823.97048-.48628-.11885-.74414-.1819-.17931-.0253-.4961-.0703zm-40.991 1.7973.90641.42581-.21291.45113-.15658.3359-.19327.54674-.16795.47077-.94103-.33228.16589-.47232.20308-.5762.01-.0238.0103-.0233.16588-.34933zm45.866.12712.3731.33383.5917.52916.0176.0176.0176.0181.13901.15038.33744.3669-.73432.678-.33951-.36742-.12919-.14056-.01-.01-.55862-.49816-.37311-.33435zm-6.3981 1.6423 1.8014.15968.32659 2.0748c.20572.089.40453.19313.5948.3116l1.8919-.91725 1.1606 1.386-1.2335 1.6976c.0815.20877.14726.4233.19689.64182l1.9885.68833-.15917 1.8014-2.0753.32711c-.0888.2057-.1928.40451-.31109.5948l.91725 1.8914-1.3865 1.1612-1.6976-1.234c-.20859.0814-.42295.14723-.6413.19689l-.68833 1.989-1.8014-.15968-.32711-2.0753c-.20573-.089-.40453-.19314-.5948-.31161l-1.8914.91778-1.1612-1.3865 1.2335-1.6976c-.0812-.20862-.14688-.42298-.19637-.64131l-1.989-.68833.15968-1.8014 2.0748-.32711c.089-.20572.19314-.40453.31161-.5948l-.91777-1.8914 1.3865-1.1612 1.696 1.2335c.2091-.0815.42398-.1473.64285-.19688zm-28.128 1.4113c-1.2855-.0224-2.3696.95277-2.483 2.2335-.11914 1.3476.87657 2.5367 2.2242 2.6562 1.3478.11944 2.5372-.87634 2.6567-2.2242.11942-1.348-.87666-2.5375-2.2247-2.6567-.0576-.005-.11533-.008-.17312-.009zm37.7 1.048.17777.4687.13435.35915.0103.0233.006.0238.1602.59376.12919.48214-.9648.25994-.13126-.48266-.15606-.5762-.12299-.33176-.17776-.46663zm-50.342.76533.99994.0372-.0191.49971-.0103.27544.0434.67231.031.49971-.99788.0625-.0315-.49816-.045-.709v-.0506l.0119-.28888zm41.144 1.3518c-.94925-.0168-1.7499.70329-1.8335 1.649-.0882.99508.64717 1.8732 1.6423 1.9611.99509.0882 1.8732-.64717 1.9611-1.6423.0879-.99489-.64739-1.8727-1.6423-1.9606-.0425-.004-.085-.006-.12764-.007zm-58.262.33228h1.8237v9.5818h-1.8237c-1.967.0-3.5352-1.5661-3.5352-3.5331v-2.5135c0-1.967 1.5682-3.5352 3.5352-3.5352zm67.186 2.5502.99012.1385-.0682.49609-.0238.16846-.004.0233-.006.0253-.19741.80667-.11886.48627-.971-.23822.11731-.48421.1912-.78342.0196-.14262zm-48.336.50953.1757.46716.0176.047.39842.80822.22066.44959-.89659.44131-.22065-.44958-.4098-.83199-.0119-.0212-.008-.0238-.0253-.0661-.1757-.46871zm-13.398.62425h5.1625c.53041.0.95705.42716.95705.95757.0.5304-.42664.95653-.95705.95653h-5.1625c-.53041.0-.95757-.42613-.95757-.95653.0-.53041.42716-.95757.95757-.95757zm0 2.9698h5.1625c.53041.0.95705.42715.95705.95756s-.42664.95757-.95705.95757h-5.1625c-.53041.0-.95757-.42716-.95757-.95757s.42716-.95756.95757-.95756zm60.039.23616.74414.66611-.33434.3731-.50747.56844-.016.0176-.0176.0155-.17571.16226-.3669.33796-.67799-.73483.36742-.33952.15606-.14263.49403-.55293zm-44.127.1757.3731.33228.64803.58188.0646.0491.40256.29455-.59169.80667-.40256-.29662-.0801-.0589-.0176-.0134-.0196-.0155-.67179-.60151-.37104-.33435zm-15.912 2.559h5.1625c.53041.0.95705.42663.95705.95704s-.42664.95757-.95705.95757h-5.1625c-.53041.0-.95757-.42716-.95757-.95757s.42716-.95704.95757-.95704zm19.878.0997.47077.16588.55294.19741.01.002.34365.0837.48473.11937-.23668.97255-.48627-.11937-.35347-.0858-.0253-.008-.0233-.008-.59944-.21084-.47078-.16795zm36.442.0579.35192.93534-.46716.17622-.32969.12454-.0217.008-.0232.006-.62736.1695-.48214.12919-.25993-.9648.48266-.13074.6072-.16227.30076-.11523zm-4.7243.68781.004.99994-.49971.002-.99994.002h-.50023l-.004-.99994h.50023l.99994-.002zm-5.4999.0119h.49971l.004.99994h-.50023l-.99993.002-.49971.002-.004-.99994.49971-.002zm-5.0002.0114h.50023l.004.99994h-.49971l-.99994.002-.50023.002-.004-.99994.50023-.002zm-4.5.0103.004.99994-.50023.002-.99994.002-.50023.002-.004-.99994.49972-.002.99994-.002zm-5.0002.0114.004.99994-.49971.002-1.0004.002h-.49971l-.004-.99994h.50023l.99994-.002zm-5.4999.0119h.50023l.004 1.0004h-.49971l-.73277.002h-.0212l-.22479.0119-.49971.0232-.045-.99994.49816-.0233.24598-.01.0114-.002h.0119zm-.38448 5.0085h.99994v3.0882h-.99994z" fill="#678ee6"/><circle cx="-233.6" cy="116.45" r="1.3564" fill="#78e5f6"/><path d="m-210.06 126.96c-2.5301.0-4.5918 2.0636-4.5918 4.5938s2.0617 4.5918 4.5918 4.5918 4.5918-2.0617 4.5918-4.5918-2.0617-4.5938-4.5918-4.5938zm0 1c1.9897.0 3.5918 1.6041 3.5918 3.5938s-1.6021 3.5918-3.5918 3.5918-3.5918-1.6021-3.5918-3.5918 1.6021-3.5938 3.5918-3.5938z" color="#000" color-rendering="auto" dominant-baseline="auto" fill="#f57389" image-rendering="auto" shape-rendering="auto" solid-color="#000000" style="font-feature-settings:normal;font-variant-alternates:normal;font-variant-caps:normal;font-variant-ligatures:normal;font-variant-numeric:normal;font-variant-position:normal;isolation:auto;mix-blend-mode:normal;shape-padding:0;text-decoration-color:#000;text-decoration-line:none;text-decoration-style:solid;text-indent:0;text-orientation:mixed;text-transform:none;white-space:normal"/><path d="m-197.84 169.33c-1.4427.0-2.6041 1.1614-2.6041 2.6042v3.9062c0 1.4427 1.1614 2.6042 2.6041 2.6042h3.9062c1.4427.0 2.6041-1.1614 2.6041-2.6042v-3.9062c0-1.4427-1.1614-2.6042-2.6041-2.6042zm-.651 3.2552c.36067.0.651.29036.651.65104v1.302c0 .36068-.29033.65105-.651.65105-.36068.0-.65106-.29037-.65106-.65105v-1.302c0-.36068.29038-.65104.65106-.65104zm5.2082.0c.3607.0.65107.29036.65107.65104v1.302c0 .36068-.29037.65105-.65107.65105-.36065.0-.65101-.29037-.65101-.65105v-1.302c0-.36068.29036-.65104.65101-.65104zm-1.2296 3.3251a.6511.6511.0 01.46666 1.1202c-.48818.48823-1.1508.76292-1.8412.76292-.6904.0-1.353-.27471-1.8412-.76292a.6511.6511.0 01.45399-1.1177.6511.6511.0 01.46665.19711c.24433.24432.575.3815.92059.3815.3456.0.67625-.13698.92062-.3815a.6511.6511.0 01.45392-.19956z" fill="#678ee6"/><path d="m-235.11 168.22a.50005.50005.0 100 1h3.9629a.50005.50005.0 100-1z" color="#000" color-rendering="auto" dominant-baseline="auto" fill="#78e5f6" image-rendering="auto" shape-rendering="auto" solid-color="#000000" style="font-feature-settings:normal;font-variant-alternates:normal;font-variant-caps:normal;font-variant-ligatures:normal;font-variant-numeric:normal;font-variant-position:normal;isolation:auto;mix-blend-mode:normal;shape-padding:0;text-decoration-color:#000;text-decoration-line:none;text-decoration-style:solid;text-indent:0;text-orientation:mixed;text-transform:none;white-space:normal"/><path d="m-226.19 160.54a.50005.50005.0 00-.49219.50586v2.709a.50005.50005.0 101 0v-2.709a.50005.50005.0 00-.50781-.50586z" color="#000" color-rendering="auto" dominant-baseline="auto" fill="url(#c)" image-rendering="auto" shape-rendering="auto" solid-color="#000000" style="font-feature-settings:normal;font-variant-alternates:normal;font-variant-caps:normal;font-variant-ligatures:normal;font-variant-numeric:normal;font-variant-position:normal;isolation:auto;mix-blend-mode:normal;shape-padding:0;text-decoration-color:#000;text-decoration-line:none;text-decoration-style:solid;text-indent:0;text-orientation:mixed;text-transform:none;white-space:normal"/><path d="m-226.19 153.56a.50005.50005.0 00-.49219.50586v5.0234a.50005.50005.0 101 0v-5.0234a.50005.50005.0 00-.50781-.50586z" color="#000" color-rendering="auto" dominant-baseline="auto" fill="#f57487" image-rendering="auto" shape-rendering="auto" solid-color="#000000" style="font-feature-settings:normal;font-variant-alternates:normal;font-variant-caps:normal;font-variant-ligatures:normal;font-variant-numeric:normal;font-variant-position:normal;isolation:auto;mix-blend-mode:normal;shape-padding:0;text-decoration-color:#000;text-decoration-line:none;text-decoration-style:solid;text-indent:0;text-orientation:mixed;text-transform:none;white-space:normal"/><path d="m-237.69 168.22a.50005.50005.0 100 1h.75586a.50005.50005.0 100-1z" color="#000" color-rendering="auto" dominant-baseline="auto" fill="#f57389" image-rendering="auto" shape-rendering="auto" solid-color="#000000" style="font-feature-settings:normal;font-variant-alternates:normal;font-variant-caps:normal;font-variant-ligatures:normal;font-variant-numeric:normal;font-variant-position:normal;isolation:auto;mix-blend-mode:normal;shape-padding:0;text-decoration-color:#000;text-decoration-line:none;text-decoration-style:solid;text-indent:0;text-orientation:mixed;text-transform:none;white-space:normal"/><path d="m-233.95 163.76a.50005.50005.0 00-.21289.93555l3.4316 1.9805a.50005.50005.0 10.5-.86523l-3.4316-1.9805a.50005.50005.0 00-.28711-.0703z" color="#000" color-rendering="auto" dominant-baseline="auto" fill="#678ee6" image-rendering="auto" shape-rendering="auto" solid-color="#000000" style="font-feature-settings:normal;font-variant-alternates:normal;font-variant-caps:normal;font-variant-ligatures:normal;font-variant-numeric:normal;font-variant-position:normal;isolation:auto;mix-blend-mode:normal;shape-padding:0;text-decoration-color:#000;text-decoration-line:none;text-decoration-style:solid;text-indent:0;text-orientation:mixed;text-transform:none;white-space:normal"/><path d="m-238.94 160.88a.50005.50005.0 00-.21289.93554l2.8047 1.6191a.50005.50005.0 10.5-.86523l-2.8047-1.6191a.50005.50005.0 00-.28711-.0703z" color="#000" color-rendering="auto" dominant-baseline="auto" fill="#78e5f6" image-rendering="auto" shape-rendering="auto" solid-color="#000000" style="font-feature-settings:normal;font-variant-alternates:normal;font-variant-caps:normal;font-variant-ligatures:normal;font-variant-numeric:normal;font-variant-position:normal;isolation:auto;mix-blend-mode:normal;shape-padding:0;text-decoration-color:#000;text-decoration-line:none;text-decoration-style:solid;text-indent:0;text-orientation:mixed;text-transform:none;white-space:normal"/><path d="m-229.25 162.94a.50005.50005.0 00-.41015.75586l.55859.96875a.50005.50005.0 10.86524-.5l-.5586-.96875a.50005.50005.0 00-.45508-.25586z" color="#000" color-rendering="auto" dominant-baseline="auto" fill="#678ee6" image-rendering="auto" shape-rendering="auto" solid-color="#000000" style="font-feature-settings:normal;font-variant-alternates:normal;font-variant-caps:normal;font-variant-ligatures:normal;font-variant-numeric:normal;font-variant-position:normal;isolation:auto;mix-blend-mode:normal;shape-padding:0;text-decoration-color:#000;text-decoration-line:none;text-decoration-style:solid;text-indent:0;text-orientation:mixed;text-transform:none;white-space:normal"/><path d="m-232.73 156.9a.50005.50005.0 00-.41015.75585l2.5117 4.3496a.50005.50005.0 10.86524-.5l-2.5117-4.3496a.50005.50005.0 00-.45508-.25585z" color="#000" color-rendering="auto" dominant-baseline="auto" fill="url(#c)" image-rendering="auto" shape-rendering="auto" solid-color="#000000" style="font-feature-settings:normal;font-variant-alternates:normal;font-variant-caps:normal;font-variant-ligatures:normal;font-variant-numeric:normal;font-variant-position:normal;isolation:auto;mix-blend-mode:normal;shape-padding:0;text-decoration-color:#000;text-decoration-line:none;text-decoration-style:solid;text-indent:0;text-orientation:mixed;text-transform:none;white-space:normal"/><path d="m-230.59 170.53a.50005.50005.0 00-.22461.0606l-7.4375 3.8926a.50005.50005.0 10.46289.88476l7.4375-3.8926a.50005.50005.0 00-.23828-.94531z" color="#000" color-rendering="auto" dominant-baseline="auto" fill="url(#c)" image-rendering="auto" shape-rendering="auto" solid-color="#000000" style="font-feature-settings:normal;font-variant-alternates:normal;font-variant-caps:normal;font-variant-ligatures:normal;font-variant-numeric:normal;font-variant-position:normal;isolation:auto;mix-blend-mode:normal;shape-padding:0;text-decoration-color:#000;text-decoration-line:none;text-decoration-style:solid;text-indent:0;text-orientation:mixed;text-transform:none;white-space:normal"/><path d="m-171.65 169.33c-1.4427.0-2.6041 1.1614-2.6041 2.6042v3.9062c0 1.4427 1.1614 2.6042 2.6041 2.6042h3.9062c1.4427.0 2.6041-1.1614 2.6041-2.6042v-3.9062c0-1.4427-1.1614-2.6042-2.6041-2.6042zm-.651 3.2552c.36067.0.651.29036.651.65104v1.302c0 .36068-.29033.65105-.651.65105-.36068.0-.65106-.29037-.65106-.65105v-1.302c0-.36068.29038-.65104.65106-.65104zm5.2082.0c.3607.0.65107.29036.65107.65104v1.302c0 .36068-.29037.65105-.65107.65105-.36065.0-.65101-.29037-.65101-.65105v-1.302c0-.36068.29036-.65104.65101-.65104zm-1.2296 3.3251a.6511.6511.0 01.46666 1.1202c-.48818.48823-1.1508.76292-1.8412.76292-.6904.0-1.353-.27471-1.8412-.76292a.6511.6511.0 01.45399-1.1177.6511.6511.0 01.46665.19711c.24433.24432.575.3815.92059.3815.3456.0.67625-.13698.92062-.3815a.6511.6511.0 01.45392-.19956z" fill="#fa9486"/></g></svg>