<svg xmlns:dc="http://purl.org/dc/elements/1.1/" xmlns:cc="http://creativecommons.org/ns#" xmlns:rdf="http://www.w3.org/1999/02/22-rdf-syntax-ns#" xmlns:svg="http://www.w3.org/2000/svg" xmlns="http://www.w3.org/2000/svg" xmlns:sodipodi="http://sodipodi.sourceforge.net/DTD/sodipodi-0.dtd" xmlns:inkscape="http://www.inkscape.org/namespaces/inkscape" viewBox="0 0 242 84.6875" height="84.6875" width="242" id="svg3336" inkscape:version="0.91 r13725" sodipodi:docname="godot-opensource-logo.svg"><sodipodi:namedview pagecolor="#ffffff" bordercolor="#666666" borderopacity="1" objecttolerance="10" gridtolerance="10" guidetolerance="10" inkscape:pageopacity="0" inkscape:pageshadow="2" inkscape:window-width="1295" inkscape:window-height="988" id="namedview53" showgrid="false" inkscape:zoom="1.8495398" inkscape:cx="102.29153" inkscape:cy="-24.848935" inkscape:window-x="0" inkscape:window-y="0" inkscape:window-maximized="0" inkscape:current-layer="g3348"/><defs id="defs3340"><clipPath id="clipPath3350" clipPathUnits="userSpaceOnUse"><path id="path3352" d="m0 67.75h189.02V0H0V67.75z" inkscape:connector-curvature="0"/></clipPath></defs><g transform="matrix(1.25,0,0,-1.25,0,84.6875)" id="g3344"><g id="g3346"><g clip-path="url(#clipPath3350)" id="g3348"><g transform="translate(112.7847,43.5176)" id="g3354"><path id="path3356" style="fill:#414042;fill-opacity:1;fill-rule:nonzero;stroke:none" d="m0 0c-1.082.0-1.989-.497-2.724-1.488-.732-.992-1.099-2.385-1.099-4.177.0-1.796.349-3.171 1.05-4.129.699-.961 1.617-1.439 2.756-1.439 1.139.0 2.064.484 2.775 1.457.71.968 1.066 2.355 1.066 4.161.0 1.803-.367 3.192-1.1 4.162C1.992-.484 1.083.0.0.0m-.017-17.828c-3.168.0-5.752 1.037-7.749 3.11-1.994 2.075-2.991 5.104-2.991 9.084.0 3.984 1.008 6.999 3.027 9.053 2.018 2.051 4.624 3.077 7.815 3.077 3.191.0 5.769-1.008 7.73-3.029C9.779 1.449 10.76-1.609 10.76-5.7c0-4.094-1.004-7.139-3.012-9.137-2.008-1.994-4.595-2.991-7.765-2.991" inkscape:connector-curvature="0"/></g><g transform="translate(133.0269,43.2832)" id="g3358"><path id="path3360" style="fill:#414042;fill-opacity:1;fill-rule:nonzero;stroke:none" d="m0 0v-10.119c0-.473.035-.771.103-.896.066-.124.27-.186.607-.186 1.242.0 2.183.464 2.826 1.388.645.924.964 2.462.964 4.617.0 2.155-.334 3.559-.997 4.212C2.837-.33 1.782.0.338.0H0zm-6.495-15.7V4.598c0 .564.14 1.009.423 1.34.281.325.648.49 1.1.49h5.65c3.586.0 6.309-.905 8.168-2.709 1.862-1.804 2.794-4.645 2.794-8.525.0-8.3-3.543-12.45-10.625-12.45H-4.77c-1.149.0-1.725.518-1.725 1.556" inkscape:connector-curvature="0"/></g><g transform="translate(184.2239,26.5664)" id="g3366"><path id="path3368" style="fill:#414042;fill-opacity:1;fill-rule:nonzero;stroke:none" d="m0 0c0-.448-1.115-.676-3.349-.676-2.232.0-3.35.228-3.35.676v16.985h-4.059c-.384.0-.655.518-.812 1.558-.068.495-.1 1.002-.1 1.521.0.517.032 1.026.1 1.522.157 1.037.428 1.559.812 1.559H3.959c.383.0.653-.522.812-1.559.067-.496.101-1.005.101-1.522.0-.519-.034-1.026-.101-1.521C4.612 17.503 4.342 16.985 3.959 16.985H0V0z" inkscape:connector-curvature="0"/></g><g transform="translate(96.0444,38.5889)" id="g3370"><path id="path3372" style="fill:#414042;fill-opacity:1;fill-rule:nonzero;stroke:none" d="m0 0c-1.821.028-3.906-.352-3.906-.352v-3.554h2.096l-.023-1.585c0-.587-.582-.882-1.743-.882-1.162.0-2.188.492-3.078 1.474-.893.982-1.337 2.419-1.337 4.311.0 1.897.434 3.295 1.303 4.197.866.902 2.002 1.354 3.399 1.354.587.0 1.195-.095 1.827-.288.632-.192 1.055-.371 1.27-.539.214-.173.417-.255.609-.255.191.0.501.223.929.676.429.451.813 1.134 1.152 2.046.337.916.506 1.618.506 2.116.0.494-.01.835-.032 1.014-.474.519-1.348.93-2.624 1.236-1.273.304-2.7.456-4.279.456-3.474.0-6.191-1.094-8.153-3.281-1.963-2.189-2.943-5.03-2.943-8.527.0-4.105 1.003-7.218 3.008-9.338 2.01-2.12 4.648-3.178 7.919-3.178 1.759.0 3.321.151 4.684.456 1.366.303 2.274.615 2.726.93L3.445-.926C3.445-.311 1.821-.031.0.0" inkscape:connector-curvature="0"/></g><g transform="translate(88.9126,11.8398)" id="g3374"><path id="path3376" style="fill:#6d6e71;fill-opacity:1;fill-rule:nonzero;stroke:none" d="m0 0c-.187-.384-.531-.735-1.034-1.054-.502-.32-1.14-.479-1.915-.479-1.022.0-1.844.322-2.469.973-.622.647-.934 1.579-.934 2.794v3.032c0 1.189.294 2.101.883 2.738.588.632 1.376.952 2.359.952.962.0 1.707-.253 2.234-.753C-.35 7.701-.074 7-.05 6.104l-.013-.04h-.785C-.876 6.751-1.075 7.28-1.45 7.654-1.823 8.025-2.377 8.213-3.11 8.213-3.851 8.213-4.438 7.962-4.868 7.459c-.428-.502-.642-1.23-.642-2.186V2.225c0-.992.231-1.747.693-2.268.461-.517 1.083-.775 1.868-.775.574.0 1.034.101 1.379.309.346.205.587.455.722.752v2.655h-2.115v.739L0 3.637V0z" inkscape:connector-curvature="0"/></g><g transform="translate(92.7988,11.0645)" id="g3378"><path id="path3380" style="fill:#6d6e71;fill-opacity:1;fill-rule:nonzero;stroke:none" d="m0 0c.465.0.88.132 1.242.4.362.27.616.611.767 1.026v1.638H.663c-.572.0-1.031-.162-1.374-.486-.344-.322-.514-.724-.514-1.203.0-.404.106-.736.322-.992C-.688.126-.387.0.0.0M2.135-.611C2.093-.349 2.06-.136 2.04.031 2.02.201 2.009.37 2.009.542c-.23-.376-.526-.688-.893-.932C.75-.636.343-.758-.105-.758c-.627.0-1.109.195-1.45.583-.34.391-.511.917-.511 1.581.0.702.247 1.266.741 1.684.494.418 1.166.627 2.011.627h1.323v.93C2.009 5.183 1.873 5.604 1.604 5.909c-.273.301-.65.453-1.136.453-.451.0-.824-.143-1.117-.434-.291-.289-.436-.643-.436-1.064l-.786.007-.014.041c-.022.571.194 1.076.65 1.524.454.446 1.036.668 1.745.668.701.0 1.265-.213 1.696-.638.428-.429.643-1.04.643-1.835V.916c0-.27.012-.533.036-.784.024-.254.063-.499.125-.743h-.875z" inkscape:connector-curvature="0"/></g><g transform="translate(98.2871,18.0273)" id="g3382"><path id="path3384" style="fill:#6d6e71;fill-opacity:1;fill-rule:nonzero;stroke:none" d="m0 0 .072-1.176c.199.421.466.745.796.976.332.227.722.341 1.171.341.457.0.843-.133 1.154-.403.311-.268.541-.675.687-1.22.186.503.451.902.794 1.19.343.289.759.433 1.242.433.664.0 1.179-.269 1.544-.807.367-.539.55-1.366.55-2.483v-4.425h-.846v4.439c0 .929-.128 1.583-.378 1.959-.252.377-.612.567-1.078.567-.491.0-.874-.207-1.149-.628C4.285-1.658 4.116-2.185 4.054-2.82v-.197-4.557h-.842v4.434c0 .908-.127 1.557-.387 1.945-.259.387-.619.58-1.081.58-.442.0-.8-.135-1.068-.403C.407-1.286.215-1.654.099-2.121v-5.453h-.841V0H0z" inkscape:connector-curvature="0"/></g><g transform="translate(110.499,17.4268)" id="g3386"><path id="path3388" style="fill:#6d6e71;fill-opacity:1;fill-rule:nonzero;stroke:none" d="m0 0c-.527.0-.959-.24-1.299-.72-.339-.481-.514-1.074-.529-1.781h3.495v.324c0 .625-.147 1.146-.441 1.559C.931-.205.523.0.0.0m.119-7.12c-.817.0-1.485.307-2.003.921-.517.612-.777 1.395-.777 2.349v1.258c0 .956.26 1.753.78 2.387C-1.36.426-.734.741.0.741.793.741 1.408.46 1.847-.104c.44-.566.66-1.326.66-2.279v-.831h-4.335v-.63c0-.733.176-1.344.525-1.831.35-.488.826-.73 1.422-.73.414.0.775.073 1.075.217.301.147.558.353.773.624l.344-.596c-.228-.29-.525-.525-.887-.698C1.063-7.031.627-7.12.119-7.12" inkscape:connector-curvature="0"/></g><g transform="translate(119.8403,17.4268)" id="g3390"><path id="path3392" style="fill:#6d6e71;fill-opacity:1;fill-rule:nonzero;stroke:none" d="m0 0c-.528.0-.962-.24-1.301-.72-.337-.481-.513-1.074-.528-1.781h3.495v.324c0 .625-.146 1.146-.442 1.559C.93-.205.522.0.0.0m.118-7.12c-.817.0-1.484.307-2.001.921-.52.612-.78 1.395-.78 2.349v1.258c0 .956.262 1.753.78 2.387C-1.36.426-.734.741.0.741.792.741 1.409.46 1.847-.104c.439-.566.658-1.326.658-2.279v-.831h-4.334v-.63c0-.733.176-1.344.527-1.831.348-.488.822-.73 1.42-.73.416.0.775.073 1.074.217.302.147.559.353.776.624L2.31-6.16c-.229-.29-.524-.525-.887-.698C1.063-7.031.627-7.12.118-7.12" inkscape:connector-curvature="0"/></g><g transform="translate(124.5659,18.0273)" id="g3394"><path id="path3396" style="fill:#6d6e71;fill-opacity:1;fill-rule:nonzero;stroke:none" d="m0 0 .069-1.252c.202.444.469.789.804 1.029.332.242.723.364 1.172.364.677.0 1.196-.25 1.556-.753.363-.502.544-1.283.544-2.341v-4.621h-.847v4.613c0 .865-.127 1.47-.379 1.82-.251.351-.619.526-1.098.526-.43.0-.791-.14-1.08-.424C.451-1.32.234-1.695.09-2.168v-5.406h-.84V0H0z" inkscape:connector-curvature="0"/></g><g transform="translate(131.1768,13.5771)" id="g3398"><path id="path3400" style="fill:#6d6e71;fill-opacity:1;fill-rule:nonzero;stroke:none" d="m0 0c0-.769.146-1.38.441-1.835.292-.459.736-.686 1.33-.686.406.0.748.109 1.029.331.28.221.501.53.664.921v3.752c-.157.404-.373.73-.646.981-.273.247-.618.371-1.033.371-.592.0-1.039-.258-1.337-.775C.149 2.541.0 1.865.0 1.035V0zm-.849 1.035c0 1.073.217 1.936.652 2.585.432.647 1.033.971 1.8.971.425.0.798-.104 1.117-.312.319-.204.583-.503.795-.883l.082 1.054h.714v-7.581c0-.971-.226-1.723-.678-2.255-.452-.53-1.095-.799-1.926-.799-.298.0-.619.047-.962.138-.344.091-.648.21-.915.359l.233.739c.227-.148.481-.262.763-.342.279-.083.568-.123.867-.123.602.0 1.049.193 1.337.579.289.391.434.956.434 1.704v.916C3.25-2.556 2.986-2.817 2.673-2.998c-.311-.182-.675-.273-1.085-.273-.761.0-1.358.298-1.789.894C-.632-1.782-.849-.989-.849.0v1.035z" inkscape:connector-curvature="0"/></g><path id="path3402" style="fill:#6d6e71;fill-opacity:1;fill-rule:nonzero;stroke:none" d="m138.318 10.453h-.848v7.574h.848v-7.574zm0 9.731h-.848v1.193h.848v-1.193z" inkscape:connector-curvature="0"/><g transform="translate(141.0552,18.0273)" id="g3404"><path id="path3406" style="fill:#6d6e71;fill-opacity:1;fill-rule:nonzero;stroke:none" d="m0 0 .069-1.252c.202.444.468.789.803 1.029.334.242.725.364 1.173.364.677.0 1.197-.25 1.558-.753.363-.502.542-1.283.542-2.341v-4.621h-.847v4.613c0 .865-.127 1.47-.378 1.82-.253.351-.618.526-1.099.526-.43.0-.79-.14-1.079-.424C.453-1.32.235-1.695.092-2.168v-5.406H-.75V0H0z" inkscape:connector-curvature="0"/></g><g transform="translate(149.4155,17.4268)" id="g3408"><path id="path3410" style="fill:#6d6e71;fill-opacity:1;fill-rule:nonzero;stroke:none" d="m0 0c-.528.0-.961-.24-1.299-.72-.338-.481-.514-1.074-.53-1.781h3.495v.324c0 .625-.145 1.146-.44 1.559C.932-.205.523.0.0.0m.12-7.12c-.819.0-1.486.307-2.002.921-.518.612-.778 1.395-.778 2.349v1.258c0 .956.26 1.753.78 2.387.521.631 1.148.946 1.88.946.793.0 1.41-.281 1.85-.845.438-.566.657-1.326.657-2.279v-.831h-4.336v-.63c0-.733.177-1.344.527-1.831.349-.488.823-.73 1.422-.73.414.0.773.073 1.072.217.304.147.56.353.777.624l.344-.596c-.231-.29-.526-.525-.888-.698C1.064-7.031.628-7.12.12-7.12" inkscape:connector-curvature="0"/></g><g transform="translate(64.312,21.7949)" id="g3412"><path id="path3414" style="fill:#478cbf;fill-opacity:1;fill-rule:nonzero;stroke:none" d="m0 0v-3.942c0-.39-.25-.734-.621-.852L-6.835-6.8c-.273-.091-.57-.042-.8.128-.232.168-.37.437-.37.721v4.305l-5.818-1.108v-4.381c0-.447-.332-.824-.775-.885l-8.41-1.152c-.039-.003-.081-.008-.121-.008-.214.0-.424.078-.588.22-.195.172-.306.416-.306.676v4.638l-4.341-.018v-.001l-.318.001-.319-.001v.001l-4.34.018v-4.638c0-.26-.112-.504-.307-.676-.164-.142-.374-.22-.587-.22-.041.0-.082.005-.123.008l-8.41 1.152c-.442.061-.774.438-.774.885v4.381l-5.819 1.108v-4.305c0-.284-.137-.553-.368-.721-.232-.17-.529-.219-.802-.128l-6.215 2.006c-.369.118-.619.462-.619.852v3.942l-3.837 1.29c-.19-.811-.295-1.642-.295-2.481.0-10.301 14.512-18.252 32.448-18.309h.022.023c17.936.057 32.448 8.008 32.448 18.309.0.766-.088 1.521-.247 2.266L0 0z" inkscape:connector-curvature="0"/></g><g transform="translate(5.9634,40.0615)" id="g3416"><path id="path3418" style="fill:#478cbf;fill-opacity:1;fill-rule:nonzero;stroke:none" d="m0 0v-16.047l2.163-.729c.364-.122.61-.462.61-.847v-3.936l4.426-1.428v4.154c0 .27.118.52.323.689.206.172.474.241.739.192l7.608-1.452c.422-.079.728-.448.728-.877v-4.338l6.62-.904v4.509c0 .241.096.467.264.635.167.166.394.259.633.259h.002l5.551-.022 5.549.022c.245-.001.468-.093.635-.259.169-.168.264-.394.264-.635v-4.509l6.621.904v4.338c0 .429.304.798.726.877l7.609 1.452c.262.049.533-.02.738-.192.205-.169.325-.419.325-.689v-4.154l4.425 1.428v3.936c0 .385.245.725.609.847l1.475.497v16.279h.04c1.437 1.834 2.767 3.767 4.042 5.828-1.694 2.883-3.768 5.459-5.986 7.846-2.057-1.035-4.055-2.208-5.942-3.456-.944.938-2.008 1.706-3.052 2.509-1.027.824-2.183 1.428-3.281 2.132.327 2.433.489 4.828.554 7.327-2.831 1.424-5.85 2.369-8.903 3.047-1.219-2.048-2.334-4.267-3.304-6.436-1.152.192-2.309.264-3.467.277v.002c-.008.0-.015-.002-.022-.002-.008.0-.015.002-.022.002v-.002c-1.16-.013-2.316-.085-3.468-.277-.97 2.169-2.084 4.388-3.305 6.436C19.475 24.555 16.456 23.61 13.626 22.186 13.69 19.687 13.852 17.292 14.18 14.859 13.081 14.155 11.925 13.551 10.898 12.727 9.855 11.924 8.79 11.156 7.846 10.218c-1.888 1.248-3.885 2.421-5.942 3.456-2.218-2.387-4.292-4.963-5.986-7.846C-2.807 3.767-1.477 1.834-.04.0H0z" inkscape:connector-curvature="0"/></g><g transform="translate(26.8428,32.3604)" id="g3420"><path id="path3422" style="fill:#fff;fill-opacity:1;fill-rule:nonzero;stroke:none" d="m0 0c0-3.611-2.926-6.537-6.537-6.537-3.608.0-6.535 2.926-6.535 6.537.0 3.609 2.927 6.533 6.535 6.533C-2.926 6.533.0 3.609.0.0" inkscape:connector-curvature="0"/></g><g transform="translate(25.27,31.9727)" id="g3424"><path id="path3426" style="fill:#414042;fill-opacity:1;fill-rule:nonzero;stroke:none" d="m0 0c0-2.396-1.941-4.337-4.339-4.337-2.396.0-4.339 1.941-4.339 4.337s1.943 4.339 4.339 4.339C-1.941 4.339.0 2.396.0.0" inkscape:connector-curvature="0"/></g><g transform="translate(35.6816,25.2285)" id="g3428"><path id="path3430" style="fill:#fff;fill-opacity:1;fill-rule:nonzero;stroke:none" d="m0 0c-1.162.0-2.104.856-2.104 1.912V7.93c0 1.054.942 1.912 2.104 1.912 1.162.0 2.106-.858 2.106-1.912V1.912C2.106.856 1.162.0.0.0" inkscape:connector-curvature="0"/></g><g transform="translate(44.5215,32.3604)" id="g3432"><path id="path3434" style="fill:#fff;fill-opacity:1;fill-rule:nonzero;stroke:none" d="m0 0c0-3.611 2.926-6.537 6.537-6.537 3.609.0 6.535 2.926 6.535 6.537.0 3.609-2.926 6.533-6.535 6.533C2.926 6.533.0 3.609.0.0" inkscape:connector-curvature="0"/></g><g transform="translate(46.0947,31.9727)" id="g3436"><path id="path3438" style="fill:#414042;fill-opacity:1;fill-rule:nonzero;stroke:none" d="m0 0c0-2.396 1.941-4.337 4.336-4.337 2.398.0 4.339 1.941 4.339 4.337S6.734 4.339 4.336 4.339C1.941 4.339.0 2.396.0.0" inkscape:connector-curvature="0"/></g><path inkscape:export-ydpi="48.18" inkscape:export-xdpi="48.18" inkscape:export-filename="/home/rafael/workspace/logo-osi/3/png/logo396x412.png" id="path3773" d="m159.04549 38.037697m1.48103-3.858002a4.132391 4.132391.0 11-2.96208.0l-2.7836-7.253177a11.901286 11.901286.0 108.52928.0z" inkscape:connector-curvature="0" style="text-anchor:middle;display:inline;fill:#3fa652;stroke:#21552a;stroke-width:.99177396;stroke-linejoin:round"/></g></g></g></svg>