<svg xmlns="http://www.w3.org/2000/svg" viewBox="0 0 1500 1000" fill="none"><style><![CDATA[.crosspsvgb{stroke-opacity:.2}]]></style><g clip-path="url(#crosspsvgc)"><path fill="url(#crosspsvga)" d="M0 0h1500v1000H0z"/><g stroke="#fff" stroke-width="2" stroke-dasharray="20 20" class="crosspsvgb"><circle cx="750" cy="1008" r="301"/><circle cx="750" cy="1008" r="436"/><circle cx="750" cy="1008" r="581"/><circle cx="750" cy="1008" r="728"/><circle cx="750" cy="1008" r="866"/><circle cx="750" cy="1008" r="994"/></g><path d="M308.5 692.5L524.5 835.363M354.5 378.5L606.147 758.5M656.5 527.5L699.19 728.5M874.5 267L795.478 728.5M1085 490L899.9 762.5M1054.5 789L981 835.363" stroke="url(#crosspsvgd)" stroke-width="10" stroke-linecap="round"/><g fill="#fff"><path d="M367.028 206.756c-1.333 1.039-24.854 14.369-24.854 44.01 0 34.284 29.93 46.412 30.826 46.713-.138.739-4.755 16.61-15.78 32.782-9.832 14.231-20.099 28.439-35.719 28.439s-19.64-9.126-37.671-9.126c-17.572 0-23.82 9.426-38.108 9.426s-24.256-13.168-35.718-29.34C196.727 310.67 186 281.168 186 253.168c0-44.911 29.034-68.729 57.609-68.729 15.183 0 27.84 10.026 37.373 10.026 9.073 0 23.222-10.627 40.496-10.627 6.546 0 30.068.601 45.55 22.918zm-53.75-41.931c7.143-8.525 12.197-20.353 12.197-32.181 0-1.641-.138-3.304-.437-4.644-11.623.439-25.451 7.785-33.789 17.512-6.546 7.485-12.656 19.313-12.656 31.303 0 1.802.298 3.604.436 4.182.735.138 1.93.3 3.124.3 10.429 0 23.544-7.023 31.125-16.472zM787 65.197l86.882-11.972v83.948H787V65.197zm0 153.606l86.882 11.972v-82.907H787v70.935zm96.441 13.25L999 248V147.868H883.441v84.185zm0-180.106v85.226H999V36L883.441 51.947zM1246.1 427.05c-6.52-2.678-9.31-6.232-9.04-11.535.28-6.19-3.23-10.724-4.89-12.515 1.01-3.849 3.94-17.163 0-28.728-4.23-12.378-17.16-31.284-30.49-49.867-5.46-7.632-5.72-15.928-6.02-25.534-.28-9.162-.61-19.547-5.7-31.092-5.55-12.571-16.67-19.779-30.52-19.779-8.23 0-16.69 2.581-23.2 7.08-13.32 9.22-11.56 29.32-10.4 42.62l.4 5.011c.78 13.026.07 19.891-.85 21.978-.6 1.364-3.54 5.245-6.65 9.354-3.22 4.249-6.87 9.066-9.86 13.555-3.57 5.401-6.45 13.656-9.24 21.639-2.04 5.842-3.96 11.36-5.84 14.658-3.55 6.343-2.67 12.258-1.93 14.992-1.34.937-3.29 2.781-4.93 6.257-1.98 4.24-6 6.519-14.37 8.132-3.84.788-6.49 2.408-7.88 4.815-2.02 3.503-.92 7.904.08 10.912 1.49 4.422.56 7.221-1.11 12.303l-1.27 3.965c-.7 2.311-.45 4.412.74 6.245 3.16 4.841 12.38 6.548 21.87 7.672 5.67.674 11.87 2.945 17.87 5.143 5.87 2.153 11.95 4.379 17.47 5.055a19.96 19.96 0 0 0 2.48.159c8.34 0 12.11-5.547 13.3-7.826 3-.613 13.33-2.575 23.98-2.839 10.63-.304 20.91 1.801 23.83 2.455.92 1.758 3.33 5.772 7.18 7.841 2.12 1.159 5.06 1.824 8.08 1.824 3.22 0 9.35-.763 14.2-5.878 4.83-5.138 16.92-11.698 25.75-16.488l5.42-2.972c4.96-2.755 7.67-6.692 7.43-10.8-.21-3.412-2.46-6.406-5.89-7.812zm-109.75-.989c-.62-4.357-6.21-8.679-12.69-13.683-5.29-4.093-11.29-8.73-12.95-12.658-3.41-8.103-.72-22.35 3.98-29.686 2.32-3.674 4.21-9.244 6.05-14.631 1.98-5.817 4.02-11.832 6.31-14.465 3.63-4.11 6.98-12.108 7.57-18.412 3.4 3.25 8.67 7.373 13.53 7.373a7.9 7.9 0 0 0 2.17-.295c3.33-.964 8.23-3.8 12.96-6.542 4.09-2.364 9.12-5.28 11.02-5.545 3.24 4.674 22.12 46.541 24.05 59.986 1.52 10.638-.09 19.433-.9 22.877a16.78 16.78 0 0 0-2.25-.161c-5.25 0-6.65 2.876-7.01 4.593-.93 4.463-1.03 18.731-1.04 21.937-1.9 2.421-11.51 13.821-25.31 15.871-5.63.818-10.88 1.234-15.61 1.234-4.04 0-6.62-.313-7.69-.476l-6.94-7.954c2.74-1.354 5.47-4.21 4.75-9.363zm8.8-131.158c-.22.093-.43.193-.64.3a14 14 0 0 0-.14-1.427c-.76-4.369-3.65-7.54-6.87-7.54a5.03 5.03 0 0 0-.75.059c-1.91.32-3.42 1.764-4.24 3.811.72-4.492 3.26-7.818 6.27-7.818 3.54 0 6.53 4.779 6.53 10.435a14.98 14.98 0 0 1-.16 2.18zm27.49 3.368c.32-1.034.5-2.152.5-3.313 0-5.129-3.25-9.146-7.39-9.146-4.05 0-7.35 4.102-7.35 9.146a11.86 11.86 0 0 0 .05 1.031l-.63-.24a14.19 14.19 0 0 1-.7-4.398c0-6.132 3.91-11.122 8.72-11.122s8.72 4.99 8.72 11.122c0 2.551-.71 4.985-1.92 6.92zm-3.55 11.935c-.06.31-.21.448-1.84 1.298-.82.429-1.85.963-3.13 1.745l-.86.52c-3.44 2.091-11.5 6.989-13.68 7.277-1.49.2-2.41-.377-4.47-1.785l-1.49-.996c-3.73-2.45-6.13-5.149-6.4-6.204 1.22-.941 4.23-3.296 5.77-4.69 3.13-2.916 6.28-4.875 7.83-4.875a1.31 1.31 0 0 1 .24.02c1.83.324 6.34 2.131 9.64 3.45l3.77 1.469c2.92 1.005 4.44 2.29 4.62 2.771zm26.23 136.265c1.64-7.444 3.54-17.57 3.23-23.54-.07-1.356-.19-2.832-.31-4.26-.21-2.668-.53-6.635-.2-7.811.06-.031.14-.057.22-.08.01 3.413.75 10.221 6.18 12.595 1.62.708 3.47 1.066 5.5 1.066 5.44 0 11.48-2.675 13.95-5.154 1.46-1.459 2.68-3.245 3.54-4.659.19.551.3 1.27.24 2.197-.32 5.034 2.12 11.713 6.76 14.174l.68.356c1.65.87 6.05 3.182 6.12 4.279 0 .001-.04.13-.28.358-1.11 1.008-4.98 2.991-8.73 4.909-6.64 3.401-14.17 7.256-17.56 10.823-4.76 5.024-10.15 8.399-13.4 8.399-.39 0-.75-.049-1.07-.15-3.53-1.104-6.44-6.214-4.87-13.502zm-120.44-18.99c-.36-1.69-.64-3.025-.34-4.317.22-.958 4.94-1.985 6.96-2.423 2.83-.616 5.76-1.253 7.67-2.418 2.59-1.573 4-4.474 5.23-7.033.9-1.85 1.82-3.764 2.92-4.392a.66.66 0 0 1 .34-.079c2.06 0 6.39 4.346 8.88 8.235.64.98 1.81 2.945 3.16 5.219 4.06 6.799 9.61 16.11 12.5 19.23 2.62 2.806 6.85 8.2 5.81 12.826-.77 3.589-4.82 6.508-5.78 7.153-.34.079-.77.119-1.28.119-5.55 0-16.53-4.626-22.43-7.112l-.87-.368c-3.3-1.385-8.68-2.257-13.88-3.101-4.14-.672-9.8-1.591-10.74-2.421-.76-.857.12-3.64.9-6.096.56-1.765 1.14-3.59 1.46-5.501.45-3.047-.08-5.528-.51-7.521z"/><circle cx="656.337" cy="932.505" r="25.122"/><circle cx="847.174" cy="932.505" r="25.122"/><path d="M707.69 738c-19.003 4.23-37.802 10.12-55.427 19.003.403 15.582 1.409 30.513 3.449 45.679-6.844 4.391-14.038 8.159-20.431 13.299-6.495 5.004-13.13 9.79-19.012 15.642-11.75-7.782-24.185-15.096-36.997-21.551-13.81 14.882-26.724 30.945-37.272 48.919 8.29 13.03 17.182 26.125 25.416 36.338v88.776 11.277 10.258c.202.01.405.01.604.03l67.542 6.52c3.538.34 6.31 3.2 6.556 6.75l2.083 29.85 58.917 4.21 4.057-27.55a7.28 7.28 0 0 1 7.197-6.23h71.258a7.28 7.28 0 0 1 7.195 6.23l4.057 27.55 58.919-4.21 2.081-29.85a7.29 7.29 0 0 1 6.556-6.75l67.515-6.52c.2-.02.4-.02.602-.03v-8.799l.029-.007V895.329c9.511-11.988 18.516-25.212 25.416-36.338-10.545-17.974-23.465-34.037-37.275-48.919-12.808 6.455-25.249 13.769-36.999 21.551-5.88-5.852-12.503-10.638-19.007-15.642-6.391-5.14-13.595-8.908-20.426-13.299 2.034-15.166 3.041-30.097 3.446-45.679-17.626-8.883-36.424-14.773-55.436-19.003-7.591 12.774-14.532 26.609-20.578 40.133-7.169-1.2-14.372-1.645-21.584-1.73v-.013c-.05 0-.097.013-.14.013s-.093-.013-.138-.013v.013c-7.225.085-14.422.53-21.593 1.73-6.042-13.524-12.978-27.359-20.58-40.133zm-53.435 161.375c22.481 0 40.704 18.232 40.704 40.736 0 22.518-18.223 40.759-40.704 40.759-22.471 0-40.697-18.241-40.697-40.759 0-22.504 18.226-40.736 40.697-40.736zm191.495 0c22.469 0 40.692 18.232 40.692 40.736 0 22.518-18.223 40.759-40.692 40.759-22.485 0-40.706-18.241-40.706-40.759 0-22.504 18.221-40.736 40.706-40.736zm-95.754 23.838c7.237 0 13.116 5.346 13.116 11.922v37.52c0 6.582-5.879 11.922-13.116 11.922s-13.1-5.34-13.1-11.922v-37.52c0-6.576 5.864-11.922 13.1-11.922z"/><path fill-rule="evenodd" d="M1136.67 689.286h12.56a6.61 6.61 0 0 0 6.7-6.699v-6.281h6.28a6.61 6.61 0 0 0 6.7-6.699v-12.98c0-3.35-2.93-6.281-6.7-6.281h-6.28v-6.281a6.61 6.61 0 0 0-6.7-6.699h-12.56a6.61 6.61 0 0 0-6.7 6.699v6.281h-6.28c-3.77 0-6.7 2.931-6.7 6.281v12.98a6.61 6.61 0 0 0 6.7 6.699h6.28v6.281a6.61 6.61 0 0 0 6.7 6.699zm79.97-61.969c49.41-22.193 71.18-11.724 85.42 34.334h-.01l17.59 96.724c3.77 20.515-22.62 28.889-36.43 13.398l-30.15-25.96c-18.42-15.912-89.6-15.912-108.44 0l-29.31 25.542c-15.5 15.073-41.04 7.956-36.85-12.98l17.58-96.724c15.08-48.99 38.53-55.271 85.42-34.334 11.31 5.024 23.87 5.024 35.18 0zm-36.01 81.648a3.75 3.75 0 1 0 0 7.536h8.79c2.09 0 3.77-1.675 3.77-3.768s-1.68-3.768-3.77-3.768h-8.79zm28.05 0c-2.09 0-4.19 1.675-4.19 3.768s2.1 3.768 4.19 3.768h8.38c2.51 0 4.18-1.675 4.18-3.768s-1.67-3.768-4.18-3.768h-8.38zm54.86-45.64c0 4.607 4.18 8.374 8.79 8.374 4.6 0 8.79-3.767 8.79-8.374s-4.19-8.792-8.79-8.792c-4.61 0-8.79 4.186-8.79 8.792zm-34.34 0c0 4.607 3.77 8.374 8.79 8.374 4.61 0 8.38-3.767 8.38-8.374s-3.77-8.792-8.38-8.792c-5.02 0-8.79 4.186-8.79 8.792zm17.17 17.169c0 4.604 3.77 8.792 8.79 8.792 4.61 0 8.38-4.186 8.38-8.792s-3.77-8.792-8.38-8.792c-5.02 0-8.79 4.186-8.79 8.792zm0-34.334c0 4.606 3.77 8.374 8.79 8.374 4.61 0 8.38-3.768 8.38-8.374 0-5.025-3.77-8.792-8.38-8.792-5.02 0-8.79 3.767-8.79 8.792zm-99.24 34.33h-8.37v-6.281a6.61 6.61 0 0 0-6.7-6.699h-6.28v-8.374h6.28a6.61 6.61 0 0 0 6.7-6.699v-6.282h8.37v6.282c0 3.767 2.94 6.699 6.7 6.699h6.28v8.374h-6.28c-3.76 0-6.7 2.931-6.7 6.699v6.281z"/><path d="M623.829 300c-52.098 0-94.776 40.506-98.829 91.979l53.153 22.16c4.503-3.109 9.948-4.92 15.799-4.92a28.66 28.66 0 0 1 1.562.043l23.641-34.553v-.484c0-20.792 16.776-37.712 37.398-37.712s37.398 16.92 37.398 37.712-16.776 37.718-37.398 37.718c-.286 0-.564-.007-.849-.014l-33.716 24.249c.021.449.035.899.035 1.341 0 15.615-12.594 28.313-28.071 28.313-13.586 0-24.954-9.782-27.522-22.73l-38.019-15.851C540.185 469.226 578.432 500 623.829 500 678.602 500 723 455.223 723 400c0-55.23-44.398-100-99.171-100zm-36.682 151.733l-12.18-5.076c2.155 4.534 5.894 8.328 10.853 10.41 10.718 4.506 23.077-.621 27.544-11.437a21.28 21.28 0 0 0 .035-16.257 21.02 21.02 0 0 0-11.374-11.522c-5.159-2.16-10.682-2.082-15.534-.235l12.587 5.247c7.906 3.323 11.645 12.478 8.349 20.45-3.29 7.971-12.373 11.743-20.28 8.42zm94.326-77.508c0-13.854-11.181-25.133-24.917-25.133-13.744 0-24.925 11.279-24.925 25.133s11.181 25.127 24.925 25.127c13.736 0 24.917-11.273 24.917-25.127zm-43.598-.042c0-10.425 8.384-18.874 18.716-18.874 10.34 0 18.724 8.449 18.724 18.874s-8.384 18.873-18.724 18.873c-10.332 0-18.716-8.449-18.716-18.873zM261.606 634.717c-5.199 0-9.428-4.235-9.428-9.437s4.229-9.434 9.428-9.434 9.428 4.231 9.428 9.434-4.229 9.437-9.428 9.437zm-104.212 0c-5.199 0-9.428-4.235-9.428-9.437s4.229-9.434 9.428-9.434 9.428 4.231 9.428 9.434-4.229 9.437-9.428 9.437zm107.594-56.831l18.843-32.657a3.93 3.93 0 0 0-1.435-5.359c-1.873-1.08-4.272-.437-5.355 1.437l-19.079 33.069c-14.591-6.662-30.977-10.374-48.462-10.374s-33.872 3.712-48.462 10.374l-19.079-33.069c-1.083-1.874-3.482-2.517-5.355-1.437s-2.518 3.482-1.435 5.359l18.843 32.657C121.656 595.495 99.526 628.274 96.288 667h226.424c-3.24-38.726-25.371-71.505-57.724-89.114z"/></g></g><defs><radialGradient id="crosspsvga" cx="0" cy="0" r="1" gradientUnits="userSpaceOnUse" gradientTransform="translate(750 1000) rotate(-90) scale(980.5 1470.75)"><stop stop-color="#333f67"/><stop offset="1" stop-color="#478cbf"/></radialGradient><linearGradient id="crosspsvgd" x1="1103" y1="708.5" x2="417" y2="694" gradientUnits="userSpaceOnUse"><stop offset=".001" stop-color="#f57389"/><stop offset=".505" stop-color="#a880e9"/><stop offset=".985" stop-color="#78e5f6"/></linearGradient><clipPath id="crosspsvgc"><path fill="#fff" d="M0 0h1500v1000H0z"/></clipPath></defs></svg>