<svg xmlns="http://www.w3.org/2000/svg" viewBox="0 0 1500 1000" fill="none"><path d="M1489.37 0H10.607C4.749 0 0 3.166 0 7.071v985.845c0 3.906 4.749 7.071 10.607 7.071H1489.37c5.86 0 10.61-3.165 10.61-7.071V7.071c0-3.905-4.75-7.071-10.61-7.071z" fill="#151d35"/><path d="M749.507 250c-124.52 0-231.466 88.824-254.16 211.145s45.277 243.582 161.528 288.168c1.268.487 2.619.719 3.977.683s2.695-.337 3.935-.889a10.33 10.33 0 0 0 3.296-2.326c.934-.984 1.666-2.143 2.153-3.41l58.033-151.113c.981-2.557.906-5.399-.209-7.901a10.34 10.34 0 0 0-5.738-5.442c-34.179-13.111-54.05-48.567-47.377-84.527s37.944-61.933 74.558-61.933 67.878 25.97 74.552 61.933-13.198 71.421-47.378 84.527c-2.559.983-4.622 2.94-5.738 5.442s-1.19 5.344-.209 7.901l58.034 151.113c.486 1.267 1.218 2.426 2.153 3.41s2.054 1.775 3.295 2.326a10.34 10.34 0 0 0 3.936.889c1.357.036 2.708-.196 3.976-.683 116.257-44.585 184.226-165.847 161.526-288.168C980.96 338.824 874.019 250 749.499 250h.008zm0 20.66c114.689 0 212.914 81.586 233.814 194.248 20.269 109.243-37.954 217.096-139.122 260.992l-50.796-132.247c37.482-19.238 58.804-60.857 50.98-103.031-8.466-45.626-48.438-78.823-94.877-78.823s-86.423 33.197-94.884 78.823c-7.826 42.173 13.497 83.789 50.98 103.031l-50.797 132.24c-101.161-43.896-159.386-151.742-139.122-260.985 20.9-112.662 119.132-194.248 233.821-194.248h.003z" fill="url(#A)"/><path d="M1009.29 272.145l-21.538 21.541 21.538 21.541 21.54-21.541-21.54-21.541z" fill="#f57389"/><path d="M447.284 378.426L430 395.711l17.284 17.284 17.285-17.285-17.285-17.284z" fill="#78e5f6"/><path d="M987.76 239L977 249.76l10.76 10.76 10.76-10.76L987.76 239zM1031 570l2.81 2.884L1050.5 590l19.5-20-19.5-20-19.5 20zm11.25 0l8.25-8.465 8.25 8.465-8.25 8.464-8.25-8.464z" fill="#f57389"/><path d="M564.234 736L550 750.234l14.234 14.235 14.235-14.235L564.234 736z" fill="#78e5f6"/><defs><linearGradient id="A" x1="568" y1="710" x2="963.713" y2="346.187" gradientUnits="userSpaceOnUse"><stop stop-color="#78e5f6"/><stop offset=".161" stop-color="#6be1e1"/><stop offset=".501" stop-color="#a77ddd"/><stop offset=".807" stop-color="#de85b5"/><stop offset="1" stop-color="#f57389"/></linearGradient></defs></svg>