<?xml version="1.0" encoding="UTF-8" standalone="no"?>
<!-- Created with Inkscape (http://www.inkscape.org/) -->

<svg
   xmlns:dc="http://purl.org/dc/elements/1.1/"
   xmlns:cc="http://creativecommons.org/ns#"
   xmlns:rdf="http://www.w3.org/1999/02/22-rdf-syntax-ns#"
   xmlns:svg="http://www.w3.org/2000/svg"
   xmlns="http://www.w3.org/2000/svg"
   xmlns:sodipodi="http://sodipodi.sourceforge.net/DTD/sodipodi-0.dtd"
   xmlns:inkscape="http://www.inkscape.org/namespaces/inkscape"
   id="svg2"
   version="1.1"
   inkscape:version="0.92.2 (5c3e80d, 2017-08-06)"
   xml:space="preserve"
   width="623.80457"
   height="218.41226"
   viewBox="0 0 584.81677 204.76149"
   sodipodi:docname="logotype.svg"
   inkscape:export-filename="/home/akien/Projects/godot/godot.git/logo.png"
   inkscape:export-xdpi="48"
   inkscape:export-ydpi="48"><metadata
     id="metadata8"><rdf:RDF><cc:Work
         rdf:about=""><dc:format>image/svg+xml</dc:format><dc:type
           rdf:resource="http://purl.org/dc/dcmitype/StillImage" /><dc:title></dc:title></cc:Work></rdf:RDF></metadata><defs
     id="defs6"><clipPath
       clipPathUnits="userSpaceOnUse"
       id="clipPath16"><path
         d="M 0,595.276 H 841.89 V 0 H 0 Z"
         id="path18"
         inkscape:connector-curvature="0" /></clipPath></defs><sodipodi:namedview
     pagecolor="#ffffff"
     bordercolor="#666666"
     borderopacity="1"
     objecttolerance="10"
     gridtolerance="10"
     guidetolerance="10"
     inkscape:pageopacity="0"
     inkscape:pageshadow="2"
     inkscape:window-width="1920"
     inkscape:window-height="1018"
     id="namedview4"
     showgrid="false"
     inkscape:zoom="0.63432763"
     inkscape:cx="-2.7620071"
     inkscape:cy="-11.556132"
     inkscape:window-x="-8"
     inkscape:window-y="-8"
     inkscape:window-maximized="1"
     inkscape:current-layer="g14"
     fit-margin-top="48"
     fit-margin-left="48"
     fit-margin-right="48"
     fit-margin-bottom="48"
     inkscape:pagecheckerboard="true" /><g
     id="g10"
     inkscape:groupmode="layer"
     inkscape:label="godot_engine_logo_2017_curves-01"
     transform="matrix(1.25,0,0,-1.25,-469.43319,519.79331)"><g
       id="g12"><g
         id="g14"
         clip-path="url(#clipPath16)"><g
           id="g20"
           transform="matrix(1.1310535,0,0,1.1310535,531.44953,355.31567)"
           style="stroke-width:0.88413143"><path
             d="m 0,0 c -3.611,0 -6.636,-1.659 -9.09,-4.967 -2.441,-3.311 -3.668,-7.958 -3.668,-13.938 0,-5.993 1.166,-10.581 3.503,-13.778 2.333,-3.207 5.398,-4.804 9.2,-4.804 3.8,0 6.887,1.617 9.258,4.862 2.371,3.233 3.559,7.861 3.559,13.886 0,6.02 -1.227,10.654 -3.673,13.89 C 6.646,-1.617 3.616,0 0,0 m -0.055,-59.493 c -10.573,0 -19.195,3.46 -25.859,10.379 -6.655,6.925 -9.984,17.03 -9.984,30.314 0,13.292 3.367,23.356 10.101,30.209 6.736,6.844 15.431,10.269 26.082,10.269 10.649,0 19.251,-3.363 25.794,-10.109 6.555,-6.733 9.827,-16.94 9.827,-30.591 0,-13.661 -3.348,-23.822 -10.05,-30.49 -6.702,-6.654 -15.333,-9.981 -25.911,-9.981"
             style="fill:#414042;fill-opacity:1;fill-rule:nonzero;stroke:none;stroke-width:0.88413143"
             id="path22"
             inkscape:connector-curvature="0" /></g><g
           id="g24"
           transform="matrix(1.1310535,0,0,1.1310535,607.8515,354.43097)"
           style="stroke-width:0.88413143"><path
             d="m 0,0 v -33.768 c 0,-1.577 0.116,-2.571 0.342,-2.988 0.224,-0.415 0.903,-0.623 2.029,-0.623 4.144,0 7.283,1.548 9.429,4.634 2.151,3.083 3.215,8.216 3.215,15.405 0,7.192 -1.113,11.878 -3.325,14.055 C 9.467,-1.102 5.946,0 1.129,0 Z m -21.675,-52.392 v 67.735 c 0,1.883 0.468,3.369 1.413,4.471 0.939,1.085 2.161,1.636 3.671,1.636 H 2.263 c 11.965,0 21.053,-3.018 27.257,-9.04 6.215,-6.02 9.322,-15.499 9.322,-28.447 0,-27.7 -11.821,-41.547 -35.456,-41.547 h -19.302 c -3.836,0 -5.759,1.727 -5.759,5.192"
             style="fill:#414042;fill-opacity:1;fill-rule:nonzero;stroke:none;stroke-width:0.88413143"
             id="path26"
             inkscape:connector-curvature="0" /></g><g
           id="g28"
           transform="matrix(1.1310535,0,0,1.1310535,700.81066,355.31567)"
           style="stroke-width:0.88413143"><path
             d="m 0,0 c -3.612,0 -6.645,-1.659 -9.095,-4.967 -2.44,-3.311 -3.662,-7.958 -3.662,-13.938 0,-5.993 1.169,-10.581 3.499,-13.778 2.33,-3.207 5.398,-4.804 9.2,-4.804 3.801,0 6.89,1.617 9.258,4.862 2.372,3.233 3.56,7.861 3.56,13.886 0,6.02 -1.225,10.654 -3.671,13.89 C 6.642,-1.617 3.616,0 0,0 m -0.058,-59.493 c -10.577,0 -19.193,3.46 -25.851,10.379 -6.663,6.925 -9.993,17.03 -9.993,30.314 0,13.292 3.367,23.356 10.1,30.209 6.741,6.844 15.431,10.269 26.086,10.269 10.651,0 19.246,-3.363 25.797,-10.109 6.55,-6.733 9.822,-16.94 9.822,-30.591 0,-13.661 -3.349,-23.822 -10.05,-30.49 -6.699,-6.654 -15.338,-9.981 -25.911,-9.981"
             style="fill:#414042;fill-opacity:1;fill-rule:nonzero;stroke:none;stroke-width:0.88413143"
             id="path30"
             inkscape:connector-curvature="0" /></g><g
           id="g32"
           transform="matrix(1.1310535,0,0,1.1310535,789.01132,291.33514)"
           style="stroke-width:0.88413143"><path
             d="m 0,0 c 0,-1.496 -3.721,-2.255 -11.176,-2.255 -7.448,0 -11.18,0.759 -11.18,2.255 v 56.681 h -13.545 c -1.281,0 -2.185,1.727 -2.71,5.198 -0.226,1.652 -0.334,3.343 -0.334,5.077 0,1.724 0.108,3.422 0.334,5.077 0.525,3.462 1.429,5.202 2.71,5.202 h 49.112 c 1.279,0 2.179,-1.74 2.712,-5.202 0.221,-1.655 0.335,-3.353 0.335,-5.077 0,-1.734 -0.114,-3.425 -0.335,-5.077 C 15.39,58.408 14.49,56.681 13.211,56.681 H 0 Z"
             style="fill:#414042;fill-opacity:1;fill-rule:nonzero;stroke:none;stroke-width:0.88413143"
             id="path34"
             inkscape:connector-curvature="0" /></g><g
           id="g36"
           transform="matrix(1.1310535,0,0,1.1310535,468.26549,336.71278)"
           style="stroke-width:0.88413143"><path
             d="m 0,0 c -6.078,0.094 -13.034,-1.173 -13.034,-1.173 v -11.863 h 6.995 l -0.078,-5.288 c 0,-1.959 -1.942,-2.943 -5.815,-2.943 -3.878,0 -7.303,1.642 -10.274,4.917 -2.978,3.279 -4.459,8.072 -4.459,14.388 0,6.329 1.447,10.995 4.345,14.006 2.892,3.008 6.683,4.517 11.346,4.517 1.959,0 3.987,-0.316 6.096,-0.961 2.11,-0.639 3.519,-1.238 4.238,-1.799 0.713,-0.577 1.391,-0.85 2.032,-0.85 0.638,0 1.671,0.746 3.1,2.255 1.431,1.505 2.713,3.786 3.844,6.827 1.126,3.057 1.69,5.4 1.69,7.062 0,1.649 -0.036,2.786 -0.109,3.386 -1.581,1.73 -4.499,3.102 -8.755,4.122 -4.248,1.017 -9.011,1.522 -14.28,1.522 -11.594,0 -20.66,-3.65 -27.207,-10.95 -6.552,-7.303 -9.822,-16.783 -9.822,-28.452 0,-13.701 3.347,-24.087 10.041,-31.162 6.706,-7.074 15.51,-10.607 26.425,-10.607 5.87,0 11.08,0.505 15.632,1.522 4.557,1.013 7.586,2.053 9.093,3.105 l 0.452,35.33 C 11.496,-1.036 6.078,-0.104 0,0"
             style="fill:#414042;fill-opacity:1;fill-rule:nonzero;stroke:none;stroke-width:0.88413143"
             id="path38"
             inkscape:connector-curvature="0" /></g></g></g></g></svg>