<svg width="256" height="256" viewBox="0 0 256 256" fill="none" xmlns="http://www.w3.org/2000/svg"><rect width="256" height="256" fill="#a6a6a6"/><path d="M199.908 156.293 199.945 162.088C199.933 164.685 199.908 167.516 199.908 168.093c0 25.506-32.262 37.766-72.359 37.907H127.451C87.3542 205.859 55.0813 193.599 55.0813 168.093 55.0813 167.527 55.0563 164.7 55.0452 162.104L55.0812 112.482C51.815 108.426 48.2881 103.225 45 98.0508c4.1839-7.1383 9.3055-13.5176 14.7831-19.4278C64.8648 81.1867 69.7977 84.091 74.4582 87.1815 76.7911 84.8575 79.4222 82.9564 81.9986 80.9693 84.5342 78.928 87.3874 77.4313 90.1021 75.6875 89.2932 69.6645 88.8943 63.7349 88.7344 57.5464 95.7248 54.0188 103.181 51.68 110.718 50c3.015 5.0732 5.767 10.5672 8.164 15.938C121.726 65.4616 124.581 65.285 127.446 65.2509H127.556C130.416 65.285 133.273 65.4616 136.117 65.938 138.515 60.5672 141.268 55.0732 144.279 50c7.541 1.68 14.996 4.0188 21.987 7.5464C166.106 63.7349 165.707 69.6645 164.9 75.6875 167.61 77.4313 170.467 78.928 173.001 80.9693 175.581 82.9564 178.208 84.8575 180.54 87.1815 185.201 84.091 190.135 81.1867 195.215 78.623 200.693 84.5332 205.818 90.9125 210 98.0508 207.263 102.469 203.691 107.721 199.919 112.482L199.908 156.293z" fill="#fff"/></svg>