<svg xmlns="http://www.w3.org/2000/svg" width="256" height="256" fill="none"><path fill="#a6a6a6" d="M0 0h256v256H0z"/><path d="M199.908 156.293l.037 5.795-.037 6.005c0 25.506-32.262 37.766-72.359 37.907h-.098c-40.097-.141-72.37-12.401-72.37-37.907l-.036-5.989.036-49.622c-3.266-4.056-6.793-9.257-10.081-14.431 4.184-7.138 9.306-13.518 14.783-19.428 5.082 2.564 10.015 5.468 14.675 8.558 2.333-2.324 4.964-4.225 7.54-6.212 2.536-2.041 5.389-3.538 8.103-5.282-.809-6.023-1.208-11.953-1.368-18.141 6.99-3.528 14.447-5.866 21.984-7.546 3.015 5.073 5.767 10.567 8.164 15.938 2.844-.476 5.699-.653 8.564-.687h.11c2.86.034 5.717.211 8.561.687 2.398-5.371 5.151-10.865 8.162-15.938 7.541 1.68 14.996 4.019 21.987 7.546-.16 6.189-.559 12.118-1.366 18.141 2.71 1.744 5.567 3.24 8.101 5.282 2.58 1.987 5.207 3.888 7.539 6.212 4.661-3.091 9.595-5.995 14.675-8.558 5.478 5.91 10.603 12.289 14.785 19.428-2.737 4.418-6.309 9.67-10.081 14.431l-.011 43.811z" fill="#fff"/></svg>