<svg width="24" height="24" viewBox="0 0 6.3499998 6.3499998" xmlns="http://www.w3.org/2000/svg" xmlns:cc="http://creativecommons.org/ns#" xmlns:dc="http://purl.org/dc/elements/1.1/" xmlns:rdf="http://www.w3.org/1999/02/22-rdf-syntax-ns#"><g transform="translate(0,-290.65)"><path transform="matrix(.26458 0 0 .26458 0 290.65)" d="m4 3c-1.108.0-2 .89201-2 2s.89201 2 2 2h16c1.108.0 2-.89201 2-2s-.89202-2-2-2H4zm0 6.7773c-1.108.0-2 .94178-2 2.1113s.89201 2.1113 2 2.1113h16c1.108.0 2-.94178 2-2.1113s-.89201-2.1113-2-2.1113H4zm0 7c-1.108.0-2 .94178-2 2.1113s.89203 2.1113 2 2.1113h16c1.108.0 2-.94178 2-2.1113s-.89203-2.1113-2-2.1113H4z" fill="#333f67"/></g></svg>