<svg xmlns="http://www.w3.org/2000/svg" height="16" width="16"><path d="M11 1a4.02 4.02 0 0 0-4 4c0 .355.062.693.15 1.021l2.394-2.394C9.908 3.242 10.421 3 11 3c1.116 0 2 .884 2 2 0 .574-.237 1.083-.615 1.445L9.98 8.85c.328.088.665.15 1.02.15a4.02 4.02 0 0 0 4-4 4.02 4.02 0 0 0-4-4zm-.014 3.002a1 1 0 0 0-.693.291l-6 6a1 1 0 0 0 1.414 1.414l6-6a1 1 0 0 0-.721-1.705zM5 7a4.02 4.02 0 0 0-4 4 4.02 4.02 0 0 0 4 4 4.02 4.02 0 0 0 4-4c0-.354-.063-.692-.15-1.02l-2.404 2.404C6.083 12.763 5.574 13 5 13c-1.116 0-2-.884-2-2 0-.579.242-1.092.627-1.455L6.021 7.15C5.693 7.062 5.355 7 5 7z" fill="#e0e0e0" fill-rule="evenodd"/></svg>