<svg width="684" height="352" viewBox="0 0 684 352" fill="none" xmlns="http://www.w3.org/2000/svg"><path d="M164.662 302V257.043h29.312v9.279H175.382V275.133h16.649V284.278H175.382V302h-10.72zm58.679 1.072C219.075 303.072 215.346 302.179 212.152 300.392 208.981 298.583 206.513 295.925 204.748 292.419 202.984 288.89 202.102 284.546 202.102 279.387 202.102 274.094 202.984 269.728 204.748 266.289 206.513 262.827 208.981 260.259 212.152 258.584 215.346 256.887 219.075 256.038 223.341 256.038 227.651 256.038 231.403 256.92 234.597 258.684 237.813 260.449 240.303 263.062 242.067 266.523 243.832 269.985 244.714 274.273 244.714 279.387 244.714 284.636 243.832 289.024 242.067 292.553 240.303 296.059 237.813 298.695 234.597 300.459 231.403 302.201 227.651 303.072 223.341 303.072zM223.341 293.457C226.468 293.457 228.969 292.229 230.845 289.772 232.721 287.293 233.659 283.809 233.659 279.32 233.659 275.099 232.721 271.772 230.845 269.337 228.969 266.881 226.468 265.652 223.341 265.652 220.304 265.652 217.847 266.881 215.971 269.337 214.095 271.772 213.157 275.122 213.157 279.387 213.157 283.832 214.095 287.293 215.971 289.772c1.876 2.45699999999999 4.333 3.685 7.37 3.685zm31.535-36.414h10.72v27.269C265.596 287.506 266.412 289.806 268.042 291.213 269.672 292.62 271.716 293.323 274.172 293.323 276.674 293.323 278.74 292.62 280.37 291.213 282.023 289.806 282.849 287.506 282.849 284.312V257.043h10.686v27.269C293.535 288.109 292.787 291.414 291.291 294.228 289.795 297.042 287.606 299.219 284.725 300.76 281.844 302.302 278.326 303.072 274.172 303.072 270.018 303.072 266.501 302.302 263.62 300.76 260.761 299.219 258.584 297.042 257.087 294.228 255.613 291.414 254.876 288.109 254.876 284.312V257.043zm50.989.0h11.189l18.056 27.202H334.373V257.043h10.72V302H334.742l-19.933-29.882H316.585V302h-10.72V257.043zm52.591.0h15.913C378.992 257.043 383.068 257.959 386.596 259.79 390.125 261.621 392.883 264.223 394.871 267.595 396.881 270.945 397.886 274.943 397.886 279.588 397.886 284.167 396.881 288.142 394.871 291.514 392.883 294.864 390.125 297.455 386.596 299.286 383.068 301.095 378.992 302 374.369 302H358.456V257.043zM369.176 266.892v25.326H374.369C376.803 292.218 378.903 291.671 380.667 290.576 382.454 289.46 383.827 287.952 384.787 286.054 385.77 284.156 386.261 282 386.261 279.588 386.261 277.087 385.77 274.887 384.787 272.989 383.827 271.091 382.454 269.605 380.667 268.533 378.903 267.439 376.803 266.892 374.369 266.892H369.176zM403.905 302 419.047 257.043h13.635L446.986 302H435.697L433.251 294.094h-15.51L415.295 302h-11.39zm16.549-15.846h10.352L425.714 269.706 420.454 286.154zm26.86-19.832v-9.279h37.017v9.279h-15.51L471.233 263.91V302h-10.72V263.91L462.925 266.322H447.314zM492.401 302V257.043h10.72V302h-10.72zm42.584 1.072C530.719 303.072 526.99 302.179 523.796 300.392 520.625 298.583 518.157 295.925 516.393 292.419 514.628 288.89 513.746 284.546 513.746 279.387 513.746 274.094 514.628 269.728 516.393 266.289 518.157 262.827 520.625 260.259 523.796 258.584 526.99 256.887 530.719 256.038 534.985 256.038 539.295 256.038 543.047 256.92 546.241 258.684 549.457 260.449 551.947 263.062 553.712 266.523 555.476 269.985 556.358 274.273 556.358 279.387 556.358 284.636 555.476 289.024 553.712 292.553 551.947 296.059 549.457 298.695 546.241 300.459 543.047 302.201 539.295 303.072 534.985 303.072zM534.985 293.457C538.112 293.457 540.613 292.229 542.489 289.772 544.365 287.293 545.303 283.809 545.303 279.32 545.303 275.099 544.365 271.772 542.489 269.337 540.613 266.881 538.112 265.652 534.985 265.652 531.948 265.652 529.491 266.881 527.615 269.337 525.739 271.772 524.801 275.122 524.801 279.387 524.801 283.832 525.739 287.293 527.615 289.772 529.491 292.229 531.948 293.457 534.985 293.457zm31.703-36.414h11.189l18.057 27.202H595.197V257.043h10.72V302H595.565l-19.932-29.882H577.408V302h-10.72V257.043z" fill="#eee"/><path d="M93.9214 61.2285 131.52 39.5212l29.216 26.1112C171.706 63.1599 182.983 62.321 194.203 63.1426L219.173 33 260.5 49 259.445 51.8864 236 116.5c-24.068-19.6732-56.598-21.4853-85.114-5.021-36.829 21.263-40.838 67.785-28.184 105.184C124 220.5 132.5 238 148.5 250L93.6965 292.713 93.5185 292.795 63.96 260.919l18.9038-34.283C78.001 216.48 74.6611 205.664 72.952 194.537L38 176.848l6.4472-42.97L83.0366 127.324c4.898-10.127 11.2631-19.473 18.8894-27.7378L93.9214 61.2285z" fill="url(#paint0_linear_4095_584)"/><path d="M286.511 154.165C281.486 154.165 277.277 156.473 273.862 161.076 270.466 165.683 268.758 172.15 268.758 180.471c0 8.339 1.62299999999999 14.723 4.875 19.172C276.879 204.105 281.144 206.327 286.434 206.327 291.722 206.327 296.018 204.077 299.317 199.562 302.616 195.063 304.269 188.623 304.269 180.24 304.269 171.863 302.562 165.415 299.158 160.912 295.759 156.415 291.543 154.165 286.511 154.165zM286.434 236.948C271.722 236.948 259.725 232.134 250.452 222.506 241.192 212.87 236.56 198.809 236.56 180.325c0-18.496 4.685-32.5 14.055-42.036C259.988 128.766 272.087 124 286.908 124 301.725 124 313.695 128.68 322.799 138.067 331.921 147.436 336.474 161.638 336.474 180.634 336.474 199.643 331.815 213.781 322.489 223.06 313.163 232.319 301.154 236.948 286.434 236.948z" fill="#eee"/><path d="M380.505 155.253v46.988C380.505 204.435 380.667 205.818 380.981 206.399 381.293 206.976 382.237 207.265 383.804 207.265 389.571 207.265 393.938 205.111 396.925 200.817 399.918 196.527 401.398 189.385 401.398 179.382 401.398 169.374 399.849 162.854 396.772 159.824 393.678 156.787 388.779 155.253 382.076 155.253H380.505zm-30.16 72.903V133.904C350.345 131.284 350.996 129.216 352.311 127.682 353.617 126.173 355.318 125.406 357.419 125.406h26.235c16.649.0 29.295 4.19899999999998 37.928 12.579C430.23 146.362 434.553 159.552 434.553 177.568c0 38.545-16.449 57.812-49.336 57.812H358.358C353.021 235.38 350.345 232.977 350.345 228.156z" fill="#eee"/><path d="M494.868 154.165C489.842 154.165 485.622 156.473 482.213 161.076 478.817 165.683 477.117 172.15 477.117 180.471 477.117 188.81 478.744 195.194 481.986 199.643 485.228 204.105 489.497 206.327 494.787 206.327 500.076 206.327 504.375 204.077 507.67 199.562 510.97 195.063 512.623 188.623 512.623 180.24 512.623 171.863 510.919 165.415 507.515 160.912 504.11 156.415 499.9 154.165 494.868 154.165zM494.787 236.948C480.07 236.948 468.081 232.134 458.816 222.506 449.545 212.87 444.911 198.809 444.911 180.325c0-18.496 4.685-32.5 14.054-42.036C468.345 128.766 480.437 124 495.263 124 510.084 124 522.044 128.68 531.159 138.067 540.274 147.436 544.827 161.638 544.827 180.634 544.827 199.643 540.166 213.781 530.842 223.06 521.521 232.319 509.5 236.948 494.787 236.948z" fill="#eee"/><path d="M603.378 232.877C603.378 234.959 598.2 236.015 587.827 236.015 577.463 236.015 572.27 234.959 572.27 232.877V154.006H553.422C551.64 154.006 550.382 151.603 549.651 146.773 549.337 144.475 549.187 142.122 549.187 139.709 549.187 137.31 549.337 134.947 549.651 132.644 550.382 127.827 551.64 125.406 553.422 125.406H621.761C623.54 125.406 624.793 127.827 625.534 132.644 625.842 134.947 626.001 137.31 626.001 139.709 626.001 142.122 625.842 144.475 625.534 146.773 624.793 151.603 623.54 154.006 621.761 154.006H603.378v78.871z" fill="#eee"/><path d="M208.779 177.051C200.321 176.92 190.642 178.683 190.642 178.683V195.19h9.733L200.267 202.549C200.267 205.274 197.565 206.644 192.175 206.644 186.779 206.644 182.014 204.359 177.879 199.802 173.736 195.239 171.675 188.57 171.675 179.781 171.675 170.974 173.688 164.482 177.721 160.292 181.745 156.106 187.02 154.007 193.509 154.007 196.234 154.007 199.056 154.446 201.991 155.344 204.927 156.233 206.888 157.067 207.888 157.847 208.88 158.65 209.824 159.03 210.716 159.03 211.603 159.03 213.041 157.992 215.029 155.892 217.02 153.798 218.804 150.624 220.378 146.392 221.945 142.139 222.73 138.878 222.73 136.566 222.73 134.271 222.68 132.689 222.578 131.854 220.378 129.447 216.318 127.538 210.396 126.119 204.485 124.703 197.857 124.001 190.525 124.001 174.392 124.001 161.777 129.08 152.667 139.237 143.55 149.399 139 162.591 139 178.828 139 197.893 143.657 212.345 152.972 222.189 162.303 232.033 174.554 236.949 189.742 236.949 197.91 236.949 205.159 236.246 211.493 234.831 217.834 233.421 222.049 231.974 224.146 230.51L224.775 181.349C224.775 178.493 217.236 177.196 208.779 177.051z" fill="#eee"/><defs><linearGradient id="paint0_linear_4095_584" x1="104.254" y1="55.2633" x2="204.492" y2="228.881" gradientUnits="userSpaceOnUse"><stop stop-color="#46c4fc"/><stop offset="1" stop-color="#478cbf"/></linearGradient></defs></svg>