<svg xmlns="http://www.w3.org/2000/svg" viewBox="0 0 684 352" fill="none"><path d="M164.662 302v-44.957h29.312v9.279h-18.592v8.811h16.649v9.145h-16.649V302h-10.72zm58.679 1.072c-4.266 0-7.995-.893-11.189-2.68-3.171-1.809-5.639-4.467-7.404-7.973-1.764-3.529-2.646-7.873-2.646-13.032 0-5.293.882-9.659 2.646-13.098 1.765-3.462 4.233-6.03 7.404-7.705 3.194-1.697 6.923-2.546 11.189-2.546 4.31 0 8.062.882 11.256 2.646 3.216 1.765 5.706 4.378 7.47 7.839s2.647 7.75 2.647 12.864c0 5.249-.882 9.637-2.647 13.166-1.764 3.506-4.254 6.142-7.47 7.906-3.194 1.742-6.946 2.613-11.256 2.613zm0-9.615c3.127 0 5.628-1.228 7.504-3.685 1.876-2.479 2.814-5.963 2.814-10.452 0-4.221-.938-7.548-2.814-9.983-1.876-2.456-4.377-3.685-7.504-3.685-3.037 0-5.494 1.229-7.37 3.685-1.876 2.435-2.814 5.785-2.814 10.05 0 4.445.938 7.906 2.814 10.385 1.876 2.457 4.333 3.685 7.37 3.685zm31.535-36.414h10.72v27.269c0 3.194.816 5.494 2.446 6.901s3.674 2.11 6.13 2.11c2.502 0 4.568-.703 6.198-2.11 1.653-1.407 2.479-3.707 2.479-6.901v-27.269h10.686v27.269c0 3.797-.748 7.102-2.244 9.916s-3.685 4.991-6.566 6.532-6.399 2.312-10.553 2.312-7.671-.77-10.552-2.312c-2.859-1.541-5.036-3.718-6.533-6.532-1.474-2.814-2.211-6.119-2.211-9.916v-27.269zm50.989 0h11.189l18.056 27.202h-.737v-27.202h10.72V302h-10.351l-19.933-29.882h1.776V302h-10.72v-44.957zm52.591 0h15.913c4.623 0 8.699.916 12.227 2.747s6.287 4.433 8.275 7.805c2.01 3.35 3.015 7.348 3.015 11.993 0 4.579-1.005 8.554-3.015 11.926-1.988 3.35-4.746 5.941-8.275 7.772-3.528 1.809-7.604 2.714-12.227 2.714h-15.913v-44.957zm10.72 9.849v25.326h5.193c2.434 0 4.534-.547 6.298-1.642 1.787-1.116 3.16-2.624 4.12-4.522.983-1.898 1.474-4.054 1.474-6.466 0-2.501-.491-4.701-1.474-6.599-.96-1.898-2.333-3.384-4.12-4.456-1.764-1.094-3.864-1.641-6.298-1.641h-5.193zM403.905 302l15.142-44.957h13.635L446.986 302h-11.289l-2.446-7.906h-15.51L415.295 302h-11.39zm16.549-15.846h10.352l-5.092-16.448-5.26 16.448zm26.86-19.832v-9.279h37.017v9.279h-15.51l2.412-2.412V302h-10.72v-38.09l2.412 2.412h-15.611zM492.401 302v-44.957h10.72V302h-10.72zm42.584 1.072c-4.266 0-7.995-.893-11.189-2.68-3.171-1.809-5.639-4.467-7.403-7.973-1.765-3.529-2.647-7.873-2.647-13.032 0-5.293.882-9.659 2.647-13.098 1.764-3.462 4.232-6.03 7.403-7.705 3.194-1.697 6.923-2.546 11.189-2.546 4.31 0 8.062.882 11.256 2.646 3.216 1.765 5.706 4.378 7.471 7.839s2.646 7.75 2.646 12.864c0 5.249-.882 9.637-2.646 13.166-1.765 3.506-4.255 6.142-7.471 7.906-3.194 1.742-6.946 2.613-11.256 2.613zm0-9.615c3.127 0 5.628-1.228 7.504-3.685 1.876-2.479 2.814-5.963 2.814-10.452 0-4.221-.938-7.548-2.814-9.983-1.876-2.456-4.377-3.685-7.504-3.685-3.037 0-5.494 1.229-7.37 3.685-1.876 2.435-2.814 5.785-2.814 10.05 0 4.445.938 7.906 2.814 10.385 1.876 2.457 4.333 3.685 7.37 3.685zm31.703-36.414h11.189l18.057 27.202h-.737v-27.202h10.72V302h-10.352l-19.932-29.882h1.775V302h-10.72v-44.957z" fill="#eee"/><path d="M93.921 61.229l37.599-21.707 29.216 26.111a114.26 114.26 0 0 1 33.467-2.49L219.173 33 260.5 49l-1.055 2.886L236 116.5c-24.068-19.673-56.598-21.485-85.114-5.021-36.829 21.263-40.838 67.785-28.184 105.184C124 220.5 132.5 238 148.5 250l-54.803 42.713-.178.082-29.559-31.876 18.904-34.283c-4.863-10.156-8.203-20.972-9.912-32.099L38 176.848l6.447-42.97 38.589-6.554c4.898-10.127 11.263-19.473 18.889-27.738l-8.005-38.358z" fill="url(#gfoundldsvga)"/><path d="M286.511 154.165c-5.025 0-9.234 2.308-12.649 6.911-3.396 4.607-5.104 11.074-5.104 19.395 0 8.339 1.623 14.723 4.875 19.172 3.246 4.462 7.511 6.684 12.801 6.684s9.584-2.25 12.883-6.765c3.299-4.499 4.952-10.939 4.952-19.322 0-8.377-1.707-14.825-5.111-19.328-3.399-4.497-7.615-6.747-12.647-6.747zm-.077 82.783c-14.712 0-26.709-4.814-35.982-14.442-9.26-9.636-13.892-23.697-13.892-42.181 0-18.496 4.685-32.5 14.055-42.036 9.373-9.523 21.472-14.289 36.293-14.289s26.787 4.68 35.891 14.067c9.122 9.369 13.675 23.571 13.675 42.567 0 19.009-4.659 33.147-13.985 42.426-9.326 9.259-21.335 13.888-36.055 13.888zm94.071-81.695v46.988c0 2.194.162 3.577.476 4.158s1.256.866 2.823.866c5.767 0 10.134-2.154 13.121-6.448 2.993-4.29 4.473-11.432 4.473-21.435s-1.549-16.528-4.626-19.558c-3.094-3.037-7.993-4.571-14.696-4.571h-1.571zm-30.16 72.903v-94.252c0-2.62.651-4.688 1.966-6.222 1.306-1.509 3.007-2.276 5.108-2.276h26.235c16.649 0 29.295 4.199 37.928 12.579 8.648 8.377 12.971 21.567 12.971 39.583 0 38.545-16.449 57.812-49.336 57.812h-26.859c-5.337 0-8.013-2.403-8.013-7.224zm144.523-73.991c-5.026 0-9.246 2.308-12.655 6.911-3.396 4.607-5.096 11.074-5.096 19.395 0 8.339 1.627 14.723 4.869 19.172 3.242 4.462 7.511 6.684 12.801 6.684s9.588-2.25 12.883-6.765c3.3-4.499 4.953-10.939 4.953-19.322 0-8.377-1.704-14.825-5.108-19.328-3.405-4.497-7.615-6.747-12.647-6.747zm-.081 82.783c-14.717 0-26.706-4.814-35.971-14.442-9.271-9.636-13.905-23.697-13.905-42.181 0-18.496 4.685-32.5 14.054-42.036 9.38-9.523 21.472-14.289 36.298-14.289s26.781 4.68 35.896 14.067c9.115 9.369 13.668 23.571 13.668 42.567 0 19.009-4.661 33.147-13.985 42.426-9.321 9.259-21.342 13.888-36.055 13.888zm108.591-4.071c0 2.082-5.178 3.138-15.551 3.138-10.364 0-15.557-1.056-15.557-3.138v-78.871h-18.848c-1.782 0-3.04-2.403-3.771-7.233-.314-2.298-.464-4.651-.464-7.064 0-2.399.15-4.762.464-7.065.731-4.817 1.989-7.238 3.771-7.238h68.339c1.779 0 3.032 2.421 3.773 7.238a53.33 53.33 0 0 1 .467 7.065c0 2.413-.159 4.766-.467 7.064-.741 4.83-1.994 7.233-3.773 7.233h-18.383v78.871zm-394.599-55.826c-8.458-.131-18.137 1.632-18.137 1.632v16.507h9.733l-.108 7.359c0 2.725-2.702 4.095-8.092 4.095-5.396 0-10.161-2.285-14.296-6.842-4.143-4.563-6.204-11.232-6.204-20.021 0-8.807 2.013-15.299 6.046-19.489 4.024-4.186 9.299-6.285 15.788-6.285 2.725 0 5.547.439 8.482 1.337 2.936.889 4.897 1.723 5.897 2.503.992.803 1.936 1.183 2.828 1.183s2.325-1.038 4.313-3.138c1.991-2.094 3.775-5.268 5.349-9.5 1.567-4.253 2.352-7.514 2.352-9.826 0-2.295-.05-3.877-.152-4.712-2.2-2.407-6.26-4.316-12.182-5.735-5.911-1.416-12.539-2.118-19.871-2.118-16.133 0-28.748 5.079-37.858 15.236C143.55 149.399 139 162.591 139 178.828c0 19.065 4.657 33.517 13.972 43.361 9.331 9.844 21.582 14.76 36.77 14.76 8.168 0 15.417-.703 21.751-2.118 6.341-1.41 10.556-2.857 12.653-4.321l.629-49.161c0-2.856-7.539-4.153-15.996-4.298z" fill="#eee"/><defs><linearGradient id="gfoundldsvga" x1="104.254" y1="55.263" x2="204.492" y2="228.881" gradientUnits="userSpaceOnUse"><stop stop-color="#46c4fc"/><stop offset="1" stop-color="#478cbf"/></linearGradient></defs></svg>