<svg height="36.601mm" viewBox="0 0 137.68541 129.6903" width="38.858mm" xmlns="http://www.w3.org/2000/svg"><g fill="none" stroke="#4789bc" transform="translate(340.99 -467.52)"><path d="m0 0-8.955 19.476 15.203 7.22c.732 2.542 1.81 4.971 3.188 7.255l-6.483 6.481h11.584c7.486 7.487 18.774 12.253 31.402 12.253 22.542 0 40.815-15.186 40.815-33.92 0-8.621-3.871-16.49-10.248-22.473v-13.348h-10.246l-4.533 4.534c-4.857-1.695-10.19-2.631-15.788-2.631-5.869 0-11.446 1.031-16.489 2.883l-4.786-4.786h-10.248v14.274c-.602.607-1.178 1.232-1.728 1.874l-12.688.908z" stroke-width="1.244" transform="matrix(1.25 0 0 -1.25 -328.76 575.11)"/><path d="m-220.66 557.19s5.3175 3.425 8.9125.2675c4.1525-3.6475.96875-12.574-3.4738-10.639-3.3662 1.465 1.71 8.235 8.1412 5.32 4.07-1.8462 2.8212-6.7312 2.8212-6.7312" stroke-width="1.555"/><g stroke-width="1.244"><path d="m0 0s4.896 3.171 13.335 3.171 12.687-2.739 12.687-2.739" transform="matrix(1.25 0 0 -1.25 -288.5 520.52)"/><path d="m0 0c0-.945-.767-1.713-1.713-1.713-.945 0-1.713.768-1.713 1.713 0 .946.768 1.713 1.713 1.713.946 0 1.713-.767 1.713-1.713z" transform="matrix(1.25 0 0 -1.25 -301.26 543.09)"/><path d="m0 0c-3.875 0-7.063-2.916-7.503-6.672-.037-.016-.059-.026-.059-.026s-.021.01-.056.026c-.442 3.756-3.629 6.672-7.504 6.672-4.176 0-7.562-3.385-7.562-7.561v-.407c.015-8.672 15.122-16.911 15.122-16.911s15.11 8.239 15.124 16.911v.407c0 4.176-3.387 7.561-7.562 7.561z" transform="matrix(1.25 0 0 -1.25 -262.78 468.29)"/></g></g></svg>